<svg width="24" height="24" viewBox="0 0 24 24" fill="none" xmlns="http://www.w3.org/2000/svg">
<path d="M6.19043 5.71973C4.46044 7.39972 3.50001 9.63001 3.5 12C3.5 14.37 4.45043 16.6003 6.19043 18.2803L4.7998 19.7197C2.65996 17.6598 1.49023 14.9199 1.49023 12C1.49024 9.08011 2.66995 6.34024 4.7998 4.28027L6.19043 5.71973ZM19.2002 4.28027C21.33 6.34024 22.5 9.08011 22.5 12C22.5 14.9199 21.33 17.6598 19.2002 19.7197L17.8096 18.2803C19.5496 16.6003 20.5098 14.37 20.5098 12C20.5098 9.63001 19.5496 7.39972 17.8096 5.71973L19.2002 4.28027ZM9.2002 9.21973C8.4302 9.95972 8.00977 10.95 8.00977 12C8.00977 13.05 8.4302 14.0303 9.2002 14.7803L7.80957 16.2197C6.6398 15.0898 6 13.5998 6 12C6.00001 10.4002 6.64979 8.91023 7.80957 7.78027L9.2002 9.21973ZM16.2002 7.78027C17.36 8.91024 18 10.4001 18 12C18 13.5999 17.36 15.0998 16.2002 16.2197L14.8096 14.7803C15.5896 14.0403 16.0098 13.05 16.0098 12C16.0098 10.95 15.5796 9.95972 14.8096 9.21973L16.2002 7.78027ZM11.8096 11.0205C12.1296 10.9605 12.48 11.06 12.71 11.29C12.75 11.34 12.7901 11.3902 12.8301 11.4502C12.87 11.5002 12.8999 11.5602 12.9199 11.6201C12.9499 11.68 12.9705 11.7398 12.9805 11.8096C12.9905 11.8696 13 11.94 13 12C13 12.26 12.8899 12.52 12.71 12.71C12.52 12.89 12.26 13 12 13C11.94 13 11.8696 12.9805 11.8096 12.9805C11.7397 12.9705 11.68 12.9499 11.6201 12.9199C11.5602 12.8999 11.5002 12.87 11.4502 12.8301C11.3902 12.7901 11.34 12.75 11.29 12.71C11.11 12.52 11 12.26 11 12C11 11.94 11.0095 11.8696 11.0195 11.8096C11.0295 11.7397 11.0501 11.68 11.0801 11.6201C11.1001 11.5602 11.13 11.5002 11.1699 11.4502C11.2099 11.3902 11.25 11.34 11.29 11.29C11.34 11.25 11.3902 11.2099 11.4502 11.1699C11.5002 11.13 11.5602 11.1001 11.6201 11.0801C11.68 11.0502 11.7398 11.0206 11.8096 11.0205Z" fill="black"/>
</svg>
