<svg width="24" height="24" viewBox="0 0 24 24" fill="none" xmlns="http://www.w3.org/2000/svg">
<path d="M12 2.25C17.3842 2.25 21.75 6.61579 21.75 12C21.75 17.3842 17.3842 21.75 12 21.75C6.61579 21.75 2.25 17.3842 2.25 12C2.25 6.61579 6.61579 2.25 12 2.25ZM12 3.75C7.44421 3.75 3.75 7.44421 3.75 12C3.75 16.5558 7.44421 20.25 12 20.25C16.5558 20.25 20.25 16.5558 20.25 12C20.25 7.44421 16.5558 3.75 12 3.75ZM17.1475 9.73535L12.75 10.6143V12.791L15.6436 17.6143L14.3564 18.3857L12 14.458L9.64355 18.3857L8.35645 17.6143L11.25 12.791V10.6143L6.85254 9.73535L7.14746 8.26465L12 9.23438L16.8525 8.26465L17.1475 9.73535ZM12 5C12.8284 5 13.5 5.67157 13.5 6.5C13.5 7.32843 12.8284 8 12 8C11.1716 8 10.5 7.32843 10.5 6.5C10.5 5.67157 11.1716 5 12 5Z" fill="black"/>
</svg>
