<svg width="24" height="24" viewBox="0 0 24 24" fill="none" xmlns="http://www.w3.org/2000/svg">
<path d="M6.02148 5.53906C2.32619 9.11429 2.32619 14.8857 6.02148 18.4609L4.97852 19.5391C0.673847 15.3743 0.673847 8.6257 4.97852 4.46094L6.02148 5.53906ZM19.0215 4.46094C23.3261 8.6257 23.3261 15.3743 19.0215 19.5391L17.9785 18.4609C21.6738 14.8857 21.6738 9.11428 17.9785 5.53906L19.0215 4.46094ZM9.02051 9.04004C7.32654 10.6751 7.32654 13.3249 9.02051 14.96L7.97949 16.04C5.67389 13.8151 5.67389 10.1849 7.97949 7.95996L9.02051 9.04004ZM16.0205 7.95996C18.3261 10.1849 18.3261 13.8151 16.0205 16.04L14.9795 14.96C16.6734 13.3249 16.6734 10.6751 14.9795 9.04004L16.0205 7.95996ZM12 11C12.5523 11 13 11.4477 13 12C13 12.5523 12.5523 13 12 13C11.4477 13 11 12.5523 11 12C11 11.4477 11.4477 11 12 11Z" fill="black"/>
</svg>
