<svg width="24" height="24" viewBox="0 0 24 24" fill="none" xmlns="http://www.w3.org/2000/svg">
<path d="M18.58 10.9999L14.87 4.49989C14.67 4.14989 14.27 3.95989 13.88 3.99989C13.48 4.04989 13.15 4.32989 13.04 4.71989L9.69 16.4399L6.87 11.4999C6.69 11.1899 6.36 10.9999 6 10.9999H1V12.9999H5.42L9.13 19.4999C9.31 19.8099 9.64 19.9999 10 19.9999C10.04 19.9999 10.08 19.9999 10.12 19.9999C10.52 19.9499 10.85 19.6699 10.96 19.2799L14.31 7.55989L17.13 12.4999C17.31 12.8099 17.64 12.9999 18 12.9999H23V10.9999H18.58Z" fill="black"/>
</svg>
