<svg width="24" height="24" viewBox="0 0 24 24" fill="none" xmlns="http://www.w3.org/2000/svg">
<path d="M13.9102 4.25593C14.2096 4.21977 14.5017 4.3661 14.6514 4.628L18.4355 11.2501H23V12.7501H18C17.7309 12.7501 17.4822 12.6058 17.3486 12.3721L14.2314 6.91706L10.7207 19.2061C10.6378 19.4962 10.3893 19.708 10.0898 19.7442C9.7904 19.7804 9.49829 19.634 9.34863 19.3721L5.56445 12.7501H1V11.2501H6C6.26914 11.2501 6.51784 11.3943 6.65137 11.628L9.76758 17.0821L13.2793 4.79401L13.3174 4.68952C13.4245 4.45386 13.6479 4.28766 13.9102 4.25593Z" fill="black"/>
</svg>
