<svg width="24" height="24" viewBox="0 0 24 24" fill="none" xmlns="http://www.w3.org/2000/svg">
<path d="M12 1.25C17.9372 1.25 22.75 6.06279 22.75 12C22.75 17.9372 17.9372 22.75 12 22.75C6.06279 22.75 1.25 17.9372 1.25 12C1.25 6.06279 6.06279 1.25 12 1.25ZM12 2.75C6.89121 2.75 2.75 6.89121 2.75 12C2.75 17.1088 6.89121 21.25 12 21.25C17.1088 21.25 21.25 17.1088 21.25 12C21.25 6.89121 17.1088 2.75 12 2.75ZM8 8.25C9.51921 8.25 10.75 9.48079 10.75 11V16H9.25V13.5996H6.75V16H5.25V11C5.25 9.48079 6.48079 8.25 8 8.25ZM15.333 8.25C17.3019 8.25 18.75 10.0144 18.75 12C18.75 13.9858 17.3007 15.75 15.333 15.75H13.25V8.25H15.333ZM14.75 14.25H15.333C16.3113 14.25 17.25 13.3282 17.25 12C17.25 10.6716 16.3121 9.75 15.333 9.75H14.75V14.25ZM8 9.75C7.30921 9.75 6.75 10.3092 6.75 11V12.0996H9.25V11C9.25 10.3092 8.69079 9.75 8 9.75Z" fill="black"/>
</svg>
