<svg width="24" height="24" viewBox="0 0 24 24" fill="none" xmlns="http://www.w3.org/2000/svg">
<path d="M8 10C7.45 10 7 10.45 7 11V11.85H9V11C9 10.45 8.55 10 8 10Z" fill="black"/>
<path d="M15.33 10H15V14H15.33C16.25 14 17 13.1 17 12C17 10.9 16.25 10 15.33 10Z" fill="black"/>
<path d="M12 1C5.93 1 1 5.93 1 12C1 18.07 5.93 23 12 23C18.07 23 23 18.07 23 12C23 5.93 18.07 1 12 1ZM11 16H9V13.85H7V16H5V11C5 9.35 6.35 8 8 8C9.65 8 11 9.35 11 11V16ZM15.33 16H13V8H15.33C17.35 8 19 9.79 19 12C19 14.21 17.36 16 15.33 16Z" fill="black"/>
</svg>
