<svg width="24" height="24" viewBox="0 0 24 24" fill="none" xmlns="http://www.w3.org/2000/svg">
<path fill-rule="evenodd" clip-rule="evenodd" d="M3.25 10C3.25 8.48079 4.48079 7.25 6 7.25C7.51921 7.25 8.75 8.48079 8.75 10C8.75 11.5192 7.51921 12.75 6 12.75C4.48079 12.75 3.25 11.5192 3.25 10ZM6 8.75C5.30921 8.75 4.75 9.30921 4.75 10C4.75 10.6908 5.30921 11.25 6 11.25C6.69079 11.25 7.25 10.6908 7.25 10C7.25 9.30921 6.69079 8.75 6 8.75Z" fill="black"/>
<path fill-rule="evenodd" clip-rule="evenodd" d="M5.25 6V3H6.75V6H5.25Z" fill="black"/>
<path fill-rule="evenodd" clip-rule="evenodd" d="M5.25 21V12H6.75V21H5.25Z" fill="black"/>
<path fill-rule="evenodd" clip-rule="evenodd" d="M9.25 16C9.25 14.4808 10.4808 13.25 12 13.25C13.5192 13.25 14.75 14.4808 14.75 16C14.75 17.5192 13.5192 18.75 12 18.75C10.4808 18.75 9.25 17.5192 9.25 16ZM12 14.75C11.3092 14.75 10.75 15.3092 10.75 16C10.75 16.6908 11.3092 17.25 12 17.25C12.6908 17.25 13.25 16.6908 13.25 16C13.25 15.3092 12.6908 14.75 12 14.75Z" fill="black"/>
<path fill-rule="evenodd" clip-rule="evenodd" d="M11.25 12V3H12.75V12H11.25Z" fill="black"/>
<path fill-rule="evenodd" clip-rule="evenodd" d="M11.25 21V18H12.75V21H11.25Z" fill="black"/>
<path fill-rule="evenodd" clip-rule="evenodd" d="M15.25 7C15.25 5.48079 16.4808 4.25 18 4.25C19.5192 4.25 20.75 5.48079 20.75 7C20.75 8.51921 19.5192 9.75 18 9.75C16.4808 9.75 15.25 8.51921 15.25 7ZM18 5.75C17.3092 5.75 16.75 6.30921 16.75 7C16.75 7.69079 17.3092 8.25 18 8.25C18.6908 8.25 19.25 7.69079 19.25 7C19.25 6.30921 18.6908 5.75 18 5.75Z" fill="black"/>
<path fill-rule="evenodd" clip-rule="evenodd" d="M17.25 5V3H18.75V5H17.25Z" fill="black"/>
<path fill-rule="evenodd" clip-rule="evenodd" d="M17.25 21V11H18.75V21H17.25Z" fill="black"/>
</svg>
