<svg width="24" height="24" viewBox="0 0 24 24" fill="none" xmlns="http://www.w3.org/2000/svg">
<path fill-rule="evenodd" clip-rule="evenodd" d="M11.25 6C11.25 4.48079 12.4808 3.25 14 3.25C15.5192 3.25 16.75 4.48079 16.75 6C16.75 7.51921 15.5192 8.75 14 8.75C12.4808 8.75 11.25 7.51921 11.25 6ZM14 4.75C13.3092 4.75 12.75 5.30921 12.75 6C12.75 6.69079 13.3092 7.25 14 7.25C14.6908 7.25 15.25 6.69079 15.25 6C15.25 5.30921 14.6908 4.75 14 4.75Z" fill="black"/>
<path fill-rule="evenodd" clip-rule="evenodd" d="M18 5.25H21V6.75H18V5.25Z" fill="black"/>
<path fill-rule="evenodd" clip-rule="evenodd" d="M3 5.25H12V6.75H3V5.25Z" fill="black"/>
<path fill-rule="evenodd" clip-rule="evenodd" d="M5.25 12C5.25 10.4808 6.48079 9.25 8 9.25C9.51921 9.25 10.75 10.4808 10.75 12C10.75 13.5192 9.51921 14.75 8 14.75C6.48079 14.75 5.25 13.5192 5.25 12ZM8 10.75C7.30921 10.75 6.75 11.3092 6.75 12C6.75 12.6908 7.30921 13.25 8 13.25C8.69079 13.25 9.25 12.6908 9.25 12C9.25 11.3092 8.69079 10.75 8 10.75Z" fill="black"/>
<path fill-rule="evenodd" clip-rule="evenodd" d="M12 11.25H21V12.75H12V11.25Z" fill="black"/>
<path fill-rule="evenodd" clip-rule="evenodd" d="M3 11.25H6V12.75H3V11.25Z" fill="black"/>
<path fill-rule="evenodd" clip-rule="evenodd" d="M14.25 18C14.25 16.4808 15.4808 15.25 17 15.25C18.5192 15.25 19.75 16.4808 19.75 18C19.75 19.5192 18.5192 20.75 17 20.75C15.4808 20.75 14.25 19.5192 14.25 18ZM17 16.75C16.3092 16.75 15.75 17.3092 15.75 18C15.75 18.6908 16.3092 19.25 17 19.25C17.6908 19.25 18.25 18.6908 18.25 18C18.25 17.3092 17.6908 16.75 17 16.75Z" fill="black"/>
<path fill-rule="evenodd" clip-rule="evenodd" d="M19 17.25H21V18.75H19V17.25Z" fill="black"/>
<path fill-rule="evenodd" clip-rule="evenodd" d="M3 17.25H13V18.75H3V17.25Z" fill="black"/>
</svg>
