<svg width="24" height="24" viewBox="0 0 24 24" fill="none" xmlns="http://www.w3.org/2000/svg">
<path d="M19 2.25C20.5192 2.25 21.75 3.48079 21.75 5C21.75 6.49666 20.5554 7.7103 19.0674 7.74609L18.2568 10.71C20.3105 11.5874 21.75 13.6259 21.75 16C21.75 19.1752 19.1752 21.75 16 21.75C13.5607 21.75 11.477 20.2299 10.6416 18.0859L7.74219 18.8574C7.7446 18.9047 7.75 18.9521 7.75 19C7.75 20.5192 6.51921 21.75 5 21.75C3.48079 21.75 2.25 20.5192 2.25 19C2.25 17.4808 3.48079 16.25 5 16.25C5.93663 16.25 6.76226 16.7188 7.25879 17.4336L10.2842 16.6289C10.2617 16.4223 10.25 16.2125 10.25 16C10.25 14.64 10.7231 13.3908 11.5127 12.4062L7.34961 8.39355C6.95063 8.61893 6.49108 8.75 6 8.75C4.48079 8.75 3.25 7.51921 3.25 6C3.25 4.48079 4.48079 3.25 6 3.25C7.51921 3.25 8.75 4.48079 8.75 6C8.75 6.48247 8.62433 6.935 8.40625 7.3291L12.5947 11.3662C13.548 10.6644 14.7257 10.25 16 10.25C16.2755 10.25 16.5464 10.2701 16.8115 10.3076L17.6143 7.37207C16.7991 6.89495 16.25 6.01309 16.25 5C16.25 3.48079 17.4808 2.25 19 2.25ZM5 17.75C4.30921 17.75 3.75 18.3092 3.75 19C3.75 19.6908 4.30921 20.25 5 20.25C5.69079 20.25 6.25 19.6908 6.25 19C6.25 18.3092 5.69079 17.75 5 17.75ZM16 11.75C13.6532 11.75 11.75 13.6532 11.75 16C11.75 18.3468 13.6532 20.25 16 20.25C18.3468 20.25 20.25 18.3468 20.25 16C20.25 13.6532 18.3468 11.75 16 11.75ZM6 4.75C5.30921 4.75 4.75 5.30921 4.75 6C4.75 6.69079 5.30921 7.25 6 7.25C6.69079 7.25 7.25 6.69079 7.25 6C7.25 5.30921 6.69079 4.75 6 4.75ZM19 3.75C18.3092 3.75 17.75 4.30921 17.75 5C17.75 5.69079 18.3092 6.25 19 6.25C19.6908 6.25 20.25 5.69079 20.25 5C20.25 4.30921 19.6908 3.75 19 3.75Z" fill="black"/>
</svg>
