<svg width="24" height="24" viewBox="0 0 24 24" fill="none" xmlns="http://www.w3.org/2000/svg">
<path d="M18.55 10.58L19.26 7.97C20.79 7.83 21.99 6.56 21.99 5C21.99 3.35 20.64 2 18.99 2C17.34 2 15.99 3.35 15.99 5C15.99 6.03 16.52 6.95 17.31 7.49L16.61 10.04C16.4 10.02 16.19 10.01 15.98 10.01C14.73 10.01 13.57 10.4 12.6 11.05L8.67997 7.28C8.85997 6.89 8.96997 6.46 8.96997 6.01C8.96997 4.36 7.61997 3.01 5.96997 3.01C4.31997 3.01 2.96997 4.36 2.96997 6.01C2.96997 7.66 4.31997 9.01 5.96997 9.01C6.43997 9.01 6.86997 8.89 7.26997 8.7L11.16 12.44C10.42 13.44 9.97997 14.67 9.97997 16C9.97997 16.15 9.98997 16.29 9.99997 16.44L7.31997 17.15C6.76997 16.45 5.92997 16 4.96997 16C3.31997 16 1.96997 17.35 1.96997 19C1.96997 20.65 3.31997 22 4.96997 22C6.61997 22 7.93997 20.68 7.96997 19.05L10.47 18.38C11.39 20.51 13.51 22 15.97 22C19.28 22 21.97 19.31 21.97 16C21.97 13.61 20.56 11.54 18.52 10.58H18.55Z" fill="black"/>
</svg>
