<svg width="24" height="24" viewBox="0 0 24 24" fill="none" xmlns="http://www.w3.org/2000/svg">
<path d="M12 1C7.14 1 4 3.58 4 7.57C4 12.06 7.74 16 12 16C16.26 16 20 12.06 20 7.57C20 3.58 16.86 1 12 1ZM14 7.57C14 10.65 12.66 13.5 12 13.96C11.34 13.5 10 10.65 10 7.57C10 4.49 11.45 3 12 3C12.55 3 14 4.41 14 7.57ZM6 7.57C6 5.47 7.2 4.22 8.8 3.57C8.31 4.62 8 5.97 8 7.57C8 9.29 8.42 11.45 9.15 13.16C7.24 11.96 6 9.68 6 7.57ZM14.85 13.16C15.58 11.45 16 9.29 16 7.57C16 5.97 15.69 4.62 15.2 3.57C16.8 4.22 18 5.48 18 7.57C18 9.66 16.76 11.96 14.85 13.16Z" fill="black"/>
<path d="M15.79 17.38C15.6 17.14 15.31 17 15 17H9C8.69 17 8.4 17.14 8.21 17.38C8.02 17.62 7.95 17.94 8.03 18.24L9.03 22.24C9.14 22.69 9.54 23 10 23H14C14.46 23 14.86 22.69 14.97 22.24L15.97 18.24C16.05 17.94 15.97 17.62 15.79 17.38Z" fill="black"/>
</svg>
