<svg width="24" height="24" viewBox="0 0 24 24" fill="none" xmlns="http://www.w3.org/2000/svg">
<path d="M15 17.25C15.2308 17.25 15.4487 17.3563 15.5908 17.5381C15.7329 17.7201 15.7835 17.9577 15.7275 18.1816L14.7275 22.1816C14.6441 22.5155 14.3442 22.75 14 22.75H10C9.65585 22.75 9.35593 22.5155 9.27246 22.1816L8.27246 18.1816C8.21654 17.9577 8.2671 17.7201 8.40918 17.5381C8.55132 17.3563 8.76921 17.25 9 17.25H15ZM10.585 21.25H13.415L14.04 18.75H9.95996L10.585 21.25ZM12 1.25C14.0421 1.25 15.9631 1.73669 17.3945 2.78516C18.8528 3.8534 19.75 5.47046 19.75 7.57031C19.7498 11.6358 16.3496 15.75 12 15.75C7.64981 15.75 4.25017 11.6251 4.25 7.57031C4.25 5.47488 5.14784 3.85818 6.60547 2.78906C8.03651 1.73951 9.95713 1.25 12 1.25ZM12 2.75C11.7261 2.75 11.1765 2.99569 10.6523 3.83594C10.1502 4.64095 9.75 5.89071 9.75 7.57031C9.75005 9.25801 10.1545 11.0173 10.708 12.3418C10.9854 13.0056 11.2864 13.5273 11.5664 13.8682C11.8785 14.2482 12.0337 14.25 12 14.25C11.9663 14.25 12.1215 14.2482 12.4336 13.8682C12.7136 13.5273 13.0146 13.0056 13.292 12.3418C13.8455 11.0173 14.25 9.25801 14.25 7.57031C14.25 5.89071 13.8498 4.64095 13.3477 3.83594C12.8235 2.99569 12.2739 2.75 12 2.75ZM14.6602 3.10938C15.3127 4.18787 15.75 5.69915 15.75 7.57031C15.75 9.47229 15.2997 11.4281 14.6758 12.9209C14.5573 13.2044 14.4297 13.4756 14.2959 13.7305C16.5873 12.6718 18.2499 10.1423 18.25 7.57031C18.25 5.95025 17.5819 4.78188 16.5078 3.99512C15.9898 3.61572 15.3658 3.31859 14.6602 3.10938ZM9.33789 3.11133C8.63316 3.32105 8.00975 3.61846 7.49219 3.99805C6.41732 4.78643 5.75 5.95574 5.75 7.57031C5.75013 10.1344 7.41192 12.6671 9.70215 13.7285C9.56882 13.4743 9.44234 13.2035 9.32422 12.9209C8.70034 11.4281 8.25005 9.47229 8.25 7.57031C8.25 5.70048 8.68609 4.18967 9.33789 3.11133Z" fill="black"/>
</svg>
