<svg width="24" height="24" viewBox="0 0 24 24" fill="none" xmlns="http://www.w3.org/2000/svg">
<path fill-rule="evenodd" clip-rule="evenodd" d="M12.0001 4.75C7.996 4.75 4.75006 7.99594 4.75006 12C4.75006 16.0041 7.996 19.25 12.0001 19.25C16.0041 19.25 19.2501 16.0041 19.2501 12C19.2501 7.99594 16.0041 4.75 12.0001 4.75ZM3.25006 12C3.25006 7.16751 7.16757 3.25 12.0001 3.25C16.8326 3.25 20.7501 7.16751 20.7501 12C20.7501 16.8325 16.8326 20.75 12.0001 20.75C7.16757 20.75 3.25006 16.8325 3.25006 12Z" fill="#464A4D"/>
<path fill-rule="evenodd" clip-rule="evenodd" d="M21.4697 5.53033L18.4697 2.53033L19.5304 1.46967L22.5304 4.46967L21.4697 5.53033Z" fill="#464A4D"/>
<path fill-rule="evenodd" clip-rule="evenodd" d="M5.53039 2.53033L2.53039 5.53033L1.46973 4.46967L4.46973 1.46967L5.53039 2.53033Z" fill="#464A4D"/>
<path fill-rule="evenodd" clip-rule="evenodd" d="M16.0001 12.75H8.00006V11.25H16.0001V12.75Z" fill="#464A4D"/>
<path fill-rule="evenodd" clip-rule="evenodd" d="M11.2501 16V8H12.7501V16H11.2501Z" fill="#464A4D"/>
</svg>
