<svg width="24" height="24" viewBox="0 0 24 24" fill="none" xmlns="http://www.w3.org/2000/svg">
<path fill-rule="evenodd" clip-rule="evenodd" d="M12 4.75C7.99594 4.75 4.75 7.99594 4.75 12C4.75 16.0041 7.99594 19.25 12 19.25C16.0041 19.25 19.25 16.0041 19.25 12C19.25 7.99594 16.0041 4.75 12 4.75ZM3.25 12C3.25 7.16751 7.16751 3.25 12 3.25C16.8325 3.25 20.75 7.16751 20.75 12C20.75 16.8325 16.8325 20.75 12 20.75C7.16751 20.75 3.25 16.8325 3.25 12Z" fill="black"/>
<path fill-rule="evenodd" clip-rule="evenodd" d="M21.4697 5.53033L18.4697 2.53033L19.5303 1.46967L22.5303 4.46967L21.4697 5.53033Z" fill="black"/>
<path fill-rule="evenodd" clip-rule="evenodd" d="M5.53033 2.53033L2.53033 5.53033L1.46967 4.46967L4.46967 1.46967L5.53033 2.53033Z" fill="black"/>
<path fill-rule="evenodd" clip-rule="evenodd" d="M16 12.75H8V11.25H16V12.75Z" fill="black"/>
<path fill-rule="evenodd" clip-rule="evenodd" d="M11.25 16V8H12.75V16H11.25Z" fill="black"/>
</svg>
