<svg width="24" height="24" viewBox="0 0 24 24" fill="none" xmlns="http://www.w3.org/2000/svg">
<path d="M18.8532 2.00084L17.439 3.41505L20.4393 6.4153L21.8535 5.00109L18.8532 2.00084Z" fill="#464A4D"/>
<path d="M3.43946 1.99994L0.439209 5.00019L1.85342 6.41441L4.85368 3.41415L3.43946 1.99994Z" fill="#464A4D"/>
<path d="M11.1463 3.70753C6.18433 3.70753 2.14633 7.74553 2.14633 12.7075C2.14633 17.6695 6.18433 21.7075 11.1463 21.7075C16.1083 21.7075 20.1463 17.6705 20.1463 12.7075C20.1463 7.74453 16.1093 3.70753 11.1463 3.70753ZM15.1463 13.7075H12.1463V16.7075H10.1463V13.7075H7.14633V11.7075H10.1463V8.70753H12.1463V11.7075H15.1463V13.7075Z" fill="#464A4D"/>
</svg>
