<svg width="24" height="24" viewBox="0 0 24 24" fill="none" xmlns="http://www.w3.org/2000/svg">
<path d="M16.2998 5.25C17.6486 5.25 18.7899 6.22739 19.0098 7.54688L19.625 11.25H20.9902C21.9543 11.2501 22.7402 12.0359 22.7402 13V17C22.7402 17.9641 21.9543 18.7499 20.9902 18.75H19.6436C19.3168 19.9039 18.2585 20.75 17 20.75C15.7415 20.75 14.6832 19.9039 14.3564 18.75H8.64355C8.31684 19.9039 7.2585 20.75 6 20.75C4.7415 20.75 3.68316 19.9039 3.35645 18.75H1.25V11.9385L1.25977 11.877L1.98047 7.54688L2.03223 7.30273C2.34542 6.1067 3.43756 5.25 4.69043 5.25H16.2998ZM6 16.75C5.30964 16.75 4.75 17.3096 4.75 18C4.75 18.6904 5.30964 19.25 6 19.25C6.69036 19.25 7.25 18.6904 7.25 18C7.25 17.3096 6.69036 16.75 6 16.75ZM17 16.75C16.3096 16.75 15.75 17.3096 15.75 18C15.75 18.6904 16.3096 19.25 17 19.25C17.6904 19.25 18.25 18.6904 18.25 18C18.25 17.3096 17.6904 16.75 17 16.75ZM4.69043 6.75C4.08706 6.75 3.55981 7.1949 3.45996 7.79297L2.75 12.0635V17.25H3.35645C3.68316 16.0961 4.7415 15.25 6 15.25C7.2585 15.25 8.31684 16.0961 8.64355 17.25H14.3564C14.6832 16.0961 15.7415 15.25 17 15.25C18.2585 15.25 19.3168 16.0961 19.6436 17.25H20.9902C21.1259 17.2499 21.2402 17.1357 21.2402 17V13C21.2402 12.8643 21.1259 12.7501 20.9902 12.75H15C14.0358 12.75 13.25 11.9642 13.25 11V6.75H4.69043ZM8.75 10.25H11V11.75H8.75V14H7.25V11.75H5V10.25H7.25V8H8.75V10.25ZM14.75 11C14.75 11.1358 14.8642 11.25 15 11.25H18.1055L17.5303 7.79297C17.4301 7.19261 16.9109 6.75 16.2998 6.75H14.75V11Z" fill="black"/>
</svg>
