<svg width="24" height="24" viewBox="0 0 24 24" fill="none" xmlns="http://www.w3.org/2000/svg">
<path d="M20.99 11H19.84L19.26 7.51C19.02 6.06 17.78 5 16.3 5H4.69C3.22 5 1.98 6.05 1.73 7.51L1.01 11.84V19H3.18C3.59 20.16 4.69 21 6 21C7.31 21 8.4 20.16 8.82 19H14.19C14.6 20.16 15.7 21 17.01 21C18.32 21 19.41 20.16 19.83 19H21C22.1 19 23 18.1 23 17V13C23 11.9 22.1 11 21 11H20.99ZM6 19C5.45 19 5 18.55 5 18C5 17.45 5.45 17 6 17C6.55 17 7 17.45 7 18C7 18.55 6.55 19 6 19ZM11 12H9V14H7V12H5V10H7V8H9V10H11V12ZM15 7H16.3C16.79 7 17.2 7.35 17.28 7.83L17.81 11H15V7ZM17 19C16.45 19 16 18.55 16 18C16 17.45 16.45 17 17 17C17.55 17 18 17.45 18 18C18 18.55 17.55 19 17 19Z" fill="black"/>
</svg>
