<svg width="24" height="24" viewBox="0 0 24 24" fill="none" xmlns="http://www.w3.org/2000/svg">
<path d="M12 1.25C13.5142 1.25 14.75 2.48579 14.75 4C14.75 5.25411 13.9015 6.31434 12.75 6.64258V9.25H15C15.4142 9.25 15.75 9.58579 15.75 10C15.75 10.4142 15.4142 10.75 15 10.75H12.75V19.7793C14.3643 18.9618 15.8591 18.1552 17.0215 17.1914C18.4134 16.0372 19.25 14.7302 19.25 13C19.25 12.5858 19.5858 12.25 20 12.25C20.4142 12.25 20.75 12.5858 20.75 13C20.75 15.3197 19.5864 17.0124 17.9785 18.3457C16.3982 19.656 14.3103 20.6832 12.335 21.6709C12.3271 21.6748 12.3185 21.677 12.3105 21.6807C12.2974 21.6867 12.2841 21.692 12.2705 21.6973C12.2327 21.7119 12.1945 21.7241 12.1553 21.7324C12.1417 21.7353 12.1281 21.7381 12.1143 21.7402C12.1032 21.7419 12.0922 21.7439 12.0811 21.7451C12.0544 21.748 12.0274 21.75 12 21.75C11.9723 21.75 11.9449 21.7481 11.918 21.7451C11.9072 21.7439 11.8965 21.7419 11.8857 21.7402C11.8716 21.7381 11.8576 21.7354 11.8438 21.7324C11.8046 21.7241 11.7663 21.712 11.7285 21.6973C11.715 21.692 11.7016 21.6867 11.6885 21.6807C11.6808 21.6771 11.6726 21.6747 11.665 21.6709C9.6897 20.6832 7.6018 19.656 6.02148 18.3457C4.41355 17.0124 3.25 15.3197 3.25 13C3.25 12.5858 3.58579 12.25 4 12.25C4.41421 12.25 4.75 12.5858 4.75 13C4.75 14.7302 5.58655 16.0372 6.97852 17.1914C8.14091 18.1552 9.63568 18.9618 11.25 19.7793V10.75H9C8.58579 10.75 8.25 10.4142 8.25 10C8.25 9.58579 8.58579 9.25 9 9.25H11.25V6.64258C10.0985 6.31434 9.25 5.25411 9.25 4C9.25 2.48579 10.4858 1.25 12 1.25ZM12 2.75C11.3142 2.75 10.75 3.31421 10.75 4C10.75 4.68579 11.3142 5.25 12 5.25C12.6858 5.25 13.25 4.68579 13.25 4C13.25 3.31421 12.6858 2.75 12 2.75Z" fill="black"/>
</svg>
