<svg width="24" height="24" viewBox="0 0 24 24" fill="none" xmlns="http://www.w3.org/2000/svg">
<path d="M12 1C13.6523 1 15 2.34772 15 4C15 5.30148 14.1626 6.41048 13 6.82422V9H15C15.5523 9 16 9.44771 16 10C16 10.5523 15.5523 11 15 11H13V19.3711C14.4691 18.6183 15.8066 17.8735 16.8613 16.999C18.2174 15.8746 19 14.6321 19 13C19 12.4477 19.4477 12 20 12C20.5523 12 21 12.4477 21 13C21 15.4177 19.7824 17.175 18.1387 18.5381C16.5316 19.8706 14.4144 20.911 12.4473 21.8945C12.4417 21.8973 12.4353 21.8987 12.4297 21.9014C12.4029 21.9142 12.3757 21.9261 12.3477 21.9365C12.3421 21.9386 12.3366 21.9404 12.3311 21.9424C12.3048 21.9516 12.2782 21.9598 12.251 21.9668C12.239 21.9699 12.227 21.9729 12.2148 21.9756C12.1456 21.9908 12.0738 22 12 22C11.9258 22 11.8538 21.9909 11.7842 21.9756C11.7721 21.9729 11.7601 21.9699 11.748 21.9668C11.7209 21.9597 11.6942 21.9516 11.668 21.9424C11.6624 21.9404 11.6569 21.9386 11.6514 21.9365C11.6233 21.9261 11.5961 21.9142 11.5693 21.9014C11.5639 21.8988 11.5581 21.8972 11.5527 21.8945C9.58562 20.911 7.46842 19.8706 5.86133 18.5381C4.2176 17.175 3 15.4177 3 13C3 12.4477 3.44772 12 4 12C4.55228 12 5 12.4477 5 13C5 14.6321 5.78263 15.8746 7.13867 16.999C8.19336 17.8735 9.5309 18.6183 11 19.3711V11H9C8.44772 11 8 10.5523 8 10C8 9.44771 8.44772 9 9 9H11V6.82422C9.83743 6.41048 9 5.30148 9 4C9 2.34772 10.3477 1 12 1ZM12 3C11.4523 3 11 3.45228 11 4C11 4.54772 11.4523 5 12 5C12.5477 5 13 4.54772 13 4C13 3.45228 12.5477 3 12 3Z" fill="black"/>
</svg>
