<svg width="24" height="24" viewBox="0 0 24 24" fill="none" xmlns="http://www.w3.org/2000/svg">
<path d="M18.97 4.83995C18.97 4.83995 18.94 4.81995 18.93 4.80995C18.93 4.80995 18.92 4.79995 18.91 4.78995C18.18 4.08995 17.37 3.49995 16.49 3.06995C16.46 3.05995 16.44 3.04995 16.41 3.03995C13.58 1.63995 10.08 1.69995 7.28 3.19995C7.26 3.19995 7.25 3.21995 7.24 3.22995C7.24 3.22995 7.22 3.23995 7.21 3.24995C6.34 3.71995 5.55 4.31995 4.87 5.01995C3.02 6.88995 2 9.37995 2 12.0199C2 12.6499 2.05 13.2399 2.17 13.8299C2.17 13.8499 2.17 13.8599 2.18 13.8799C2.18 13.8799 2.18 13.8999 2.18 13.9099C2.35 14.7899 2.63 15.6499 3.04 16.4699C4.53 19.4699 7.4 21.5199 10.72 21.9499C11.11 21.9999 11.53 22.0299 12 22.0299C12.53 22.0299 13.04 21.9899 13.51 21.9199C16.72 21.4299 19.51 19.3899 20.95 16.4799C20.95 16.4699 20.96 16.4499 20.97 16.4299C20.97 16.4299 20.97 16.4099 20.98 16.3999C21.41 15.5299 21.71 14.5899 21.87 13.6099C21.87 13.6099 21.87 13.6099 21.87 13.5999C21.95 13.0699 21.99 12.5399 21.99 12.0299C21.99 9.28995 20.91 6.74995 18.96 4.86995L18.97 4.83995ZM19.9 13.2599C19.8 13.8699 19.61 14.4399 19.39 14.9999H16.3L18.67 7.57995C19.53 8.86995 20 10.3899 20 11.9999C20 12.4099 19.97 12.8399 19.9 13.2599ZM9.86 14.9999L8.44 10.9099L11.94 8.27995L15.52 10.8299L14.19 14.9999H9.85H9.86ZM12 3.99995C13.24 3.99995 14.48 4.28995 15.59 4.84995C15.61 4.84995 15.63 4.86995 15.64 4.86995C15.64 4.86995 15.64 4.86995 15.65 4.86995C15.65 4.86995 15.66 4.86995 15.67 4.86995C16.18 5.12995 16.66 5.46995 17.11 5.85995L16.17 8.81995L12.49 6.19995C12.49 6.19995 12.45 6.16995 12.43 6.15995L9.83 4.30995C10.54 4.10995 11.27 3.98995 12.01 3.98995L12 3.99995ZM6.3 6.39995C6.72 5.96995 7.21 5.59995 7.72 5.27995L10.24 7.06995L4.02 11.7399C4.09 9.72995 4.88 7.83995 6.31 6.39995H6.3ZM4.83 15.5499C4.59 15.0599 4.41 14.5499 4.28 14.0299L6.76 12.1699L9.31 19.5299C7.38 18.8399 5.76 17.4399 4.83 15.5599V15.5499ZM13.21 19.9099C12.72 19.9899 12.13 20.0099 11.6 19.9899L10.56 16.9999H18.24C17 18.5499 15.22 19.6099 13.21 19.9099Z" fill="black"/>
</svg>
