<svg width="24" height="24" viewBox="0 0 24 24" fill="none" xmlns="http://www.w3.org/2000/svg">
<path d="M12 2.25C13.5427 2.25 15.0125 2.6157 16.3066 3.25488C16.3322 3.26419 16.3573 3.27502 16.3818 3.28711C17.2858 3.73364 18.0886 4.32029 18.79 5.00977C20.6223 6.77694 21.75 9.26045 21.75 12C21.75 12.521 21.707 13.0392 21.6318 13.5332L21.6299 13.542C21.4682 14.523 21.1644 15.4635 20.7305 16.332L20.7314 16.333C19.3454 19.1267 16.67 21.1539 13.4727 21.6416L13.4717 21.6406C12.9874 21.7173 12.4895 21.75 12 21.75C11.5866 21.75 11.1738 21.7279 10.7646 21.6729C7.47044 21.2502 4.68749 19.1925 3.26855 16.333C2.86977 15.5348 2.57735 14.679 2.41406 13.7686L2.41309 13.7695C2.30419 13.1924 2.25 12.6053 2.25 12C2.25 9.34595 3.32225 6.91827 5.0459 5.17285C5.64361 4.55706 6.32417 4.0244 7.07227 3.58887L7.39844 3.40723C8.77217 2.67221 10.3425 2.25 12 2.25ZM11.4102 20.2305C11.6012 20.2432 11.7975 20.25 12 20.25C12.4285 20.25 12.8483 20.2218 13.2422 20.1592L13.2471 20.1582C15.5163 19.812 17.474 18.547 18.7393 16.75H10.2041L11.4102 20.2305ZM3.98145 13.9434C4.10306 14.4518 4.27372 14.9399 4.48828 15.4082L4.61035 15.665L4.6123 15.667C5.63101 17.7196 7.48097 19.2828 9.71875 19.9287L6.8877 11.7656L3.98145 13.9434ZM8.14746 10.8213L9.68359 15.25H14.3818L15.8193 10.7334L11.9502 7.96875L8.14746 10.8213ZM17.4141 10.667L15.9561 15.25H19.5801C19.8433 14.6383 20.0357 13.9865 20.1484 13.3076C20.2133 12.8816 20.25 12.439 20.25 12C20.25 10.1316 19.6307 8.4092 18.582 7.0293L17.4141 10.667ZM7.70605 4.95801C7.19533 5.26754 6.72333 5.63058 6.29785 6.04199L6.11328 6.22656C4.65703 7.70113 3.75 9.75413 3.75 12C3.75 12.0803 3.75265 12.16 3.75488 12.2393L10.667 7.05762L7.70605 4.95801ZM12 3.75C11.0432 3.75 10.1201 3.91645 9.25977 4.2207L12.374 6.42773L12.376 6.42969L16.2998 9.23242L17.4092 5.77441C16.908 5.33205 16.3573 4.95375 15.7559 4.65234C15.738 4.645 15.7195 4.63862 15.7021 4.62988C14.5935 4.071 13.3289 3.75 12 3.75Z" fill="black"/>
</svg>
