<svg width="24" height="24" viewBox="0 0 24 24" fill="none" xmlns="http://www.w3.org/2000/svg">
<path d="M20 3H4C2.35 3 1 4.35 1 6V18C1 19.65 2.35 21 4 21H20C21.65 21 23 19.65 23 18V6C23 4.35 21.65 3 20 3ZM13.98 7.2C13.98 7.26 13.95 7.32 13.92 7.38C13.9 7.44 13.87 7.5 13.83 7.56C13.8 7.61 13.75 7.66 13.71 7.71C13.52 7.89 13.27 8 13 8C12.94 8 12.87 7.99 12.81 7.98C12.74 7.97 12.68 7.95 12.62 7.92C12.56 7.9 12.5 7.87 12.45 7.83C12.39 7.8 12.34 7.75 12.29 7.71C12.25 7.66 12.21 7.61 12.17 7.56C12.13 7.5 12.1 7.44 12.08 7.38C12.05 7.32 12.03 7.26 12.02 7.2C12.01 7.13 12 7.06 12 7C12 6.74 12.11 6.48 12.29 6.29C12.66 5.92 13.34 5.92 13.71 6.29C13.89 6.48 14 6.74 14 7C14 7.06 14 7.13 13.98 7.2ZM16.71 7.71C16.52 7.89 16.26 8 16 8C15.87 8 15.74 7.97 15.62 7.92C15.5 7.87 15.39 7.8 15.29 7.71C15.11 7.52 15 7.26 15 7C15 6.74 15.11 6.48 15.29 6.29C15.39 6.2 15.5 6.13 15.62 6.08C15.99 5.92 16.43 6.01 16.71 6.29C16.89 6.48 17 6.74 17 7C17 7.26 16.89 7.52 16.71 7.71ZM19.71 7.71C19.62 7.8 19.51 7.87 19.38 7.92C19.26 7.98 19.13 8 19 8C18.87 8 18.74 7.98 18.62 7.92C18.49 7.87 18.39 7.8 18.29 7.71C18.11 7.52 18 7.26 18 7C18 6.74 18.11 6.48 18.29 6.29C18.39 6.2 18.49 6.13 18.62 6.08C18.86 5.98 19.14 5.98 19.38 6.08C19.51 6.13 19.62 6.2 19.71 6.29C19.89 6.48 20 6.74 20 7C20 7.26 19.89 7.52 19.71 7.71Z" fill="black"/>
</svg>
