<svg width="24" height="24" viewBox="0 0 24 24" fill="none" xmlns="http://www.w3.org/2000/svg">
<path d="M8.7998 13.25C9.87702 13.25 10.75 14.123 10.75 15.2002V18.7998C10.75 19.877 9.87702 20.75 8.7998 20.75H5.2002C4.12298 20.75 3.25 19.877 3.25 18.7998V15.2002C3.25 14.123 4.12298 13.25 5.2002 13.25H8.7998ZM18.7998 13.25C19.877 13.25 20.75 14.123 20.75 15.2002V18.7998C20.75 19.877 19.877 20.75 18.7998 20.75H15.2002C14.123 20.75 13.25 19.877 13.25 18.7998V15.2002C13.25 14.123 14.123 13.25 15.2002 13.25H18.7998ZM5.2002 14.75C4.95141 14.75 4.75 14.9514 4.75 15.2002V18.7998C4.75 19.0486 4.95141 19.25 5.2002 19.25H8.7998C9.04859 19.25 9.25 19.0486 9.25 18.7998V15.2002C9.25 14.9514 9.04859 14.75 8.7998 14.75H5.2002ZM15.2002 14.75C14.9514 14.75 14.75 14.9514 14.75 15.2002V18.7998C14.75 19.0486 14.9514 19.25 15.2002 19.25H18.7998C19.0486 19.25 19.25 19.0486 19.25 18.7998V15.2002C19.25 14.9514 19.0486 14.75 18.7998 14.75H15.2002ZM7 3.25C7.41421 3.25 7.75 3.58579 7.75 4V6.25H10C10.4142 6.25 10.75 6.58579 10.75 7C10.75 7.41421 10.4142 7.75 10 7.75H7.75V10C7.75 10.4142 7.41421 10.75 7 10.75C6.58579 10.75 6.25 10.4142 6.25 10V7.75H4C3.58579 7.75 3.25 7.41421 3.25 7C3.25 6.58579 3.58579 6.25 4 6.25H6.25V4C6.25 3.58579 6.58579 3.25 7 3.25ZM18.7998 3.25C19.877 3.25 20.75 4.12298 20.75 5.2002V8.7998C20.75 9.87702 19.877 10.75 18.7998 10.75H15.2002C14.123 10.75 13.25 9.87702 13.25 8.7998V5.2002C13.25 4.12298 14.123 3.25 15.2002 3.25H18.7998ZM15.2002 4.75C14.9514 4.75 14.75 4.95141 14.75 5.2002V8.7998C14.75 9.04859 14.9514 9.25 15.2002 9.25H18.7998C19.0486 9.25 19.25 9.04859 19.25 8.7998V5.2002C19.25 4.95141 19.0486 4.75 18.7998 4.75H15.2002Z" fill="black"/>
</svg>
