<svg width="24" height="24" viewBox="0 0 24 24" fill="none" xmlns="http://www.w3.org/2000/svg">
<path d="M18.8 3H15.2C13.99 3 13 3.99 13 5.2V8.8C13 10.01 13.99 11 15.2 11H18.8C20.01 11 21 10.01 21 8.8V5.2C21 3.99 20.01 3 18.8 3Z" fill="black"/>
<path d="M8.8 13H5.2C3.99 13 3 13.99 3 15.2V18.8C3 20.01 3.99 21 5.2 21H8.8C10.01 21 11 20.01 11 18.8V15.2C11 13.99 10.01 13 8.8 13Z" fill="black"/>
<path d="M18.8 13H15.2C13.99 13 13 13.99 13 15.2V18.8C13 20.01 13.99 21 15.2 21H18.8C20.01 21 21 20.01 21 18.8V15.2C21 13.99 20.01 13 18.8 13Z" fill="black"/>
<path d="M10 6H8V4C8 3.45 7.55 3 7 3C6.45 3 6 3.45 6 4V6H4C3.45 6 3 6.45 3 7C3 7.55 3.45 8 4 8H6V10C6 10.55 6.45 11 7 11C7.55 11 8 10.55 8 10V8H10C10.55 8 11 7.55 11 7C11 6.45 10.55 6 10 6Z" fill="black"/>
</svg>
