<svg width="24" height="24" viewBox="0 0 24 24" fill="none" xmlns="http://www.w3.org/2000/svg">
<path fill-rule="evenodd" clip-rule="evenodd" d="M4.75 8V18C4.75 18.6908 5.30921 19.25 6 19.25H18C18.6908 19.25 19.25 18.6908 19.25 18V8H20.75V18C20.75 19.5192 19.5192 20.75 18 20.75H6C4.48079 20.75 3.25 19.5192 3.25 18V8H4.75Z" fill="black"/>
<path fill-rule="evenodd" clip-rule="evenodd" d="M15 12.75H9V11.25H15V12.75Z" fill="black"/>
<path fill-rule="evenodd" clip-rule="evenodd" d="M4 4.75C3.86193 4.75 3.75 4.86193 3.75 5V7C3.75 7.13807 3.86193 7.25 4 7.25H20C20.1381 7.25 20.25 7.13807 20.25 7V5C20.25 4.86193 20.1381 4.75 20 4.75H4ZM2.25 5C2.25 4.0335 3.0335 3.25 4 3.25H20C20.9665 3.25 21.75 4.0335 21.75 5V7C21.75 7.9665 20.9665 8.75 20 8.75H4C3.0335 8.75 2.25 7.9665 2.25 7V5Z" fill="black"/>
</svg>
