<svg width="24" height="24" viewBox="0 0 24 24" fill="none" xmlns="http://www.w3.org/2000/svg">
<path d="M16 5.25C17.1228 5.25 18.2314 5.66993 19.1348 6.48438L19.4902 6.82031C20.347 7.68406 20.75 8.90609 20.75 10C20.75 11.1976 20.2723 12.3791 19.3477 13.3125C18.487 14.2844 17.2769 14.75 16 14.75H6.31055L10.0303 18.4697L8.96973 19.5303L3.43945 14L8.96973 8.46973L10.0303 9.53027L6.31055 13.25H16C16.9148 13.25 17.697 12.9209 18.2354 12.3057L18.252 12.2871L18.2695 12.2695C18.9334 11.6057 19.25 10.7948 19.25 10C19.25 9.17439 18.9138 8.29679 18.3057 7.76465L18.2871 7.74805L18.2695 7.73047C17.6057 7.06664 16.7948 6.75 16 6.75H14V5.25H16Z" fill="#464A4D"/>
</svg>
