<svg width="24" height="24" viewBox="0 0 24 24" fill="none" xmlns="http://www.w3.org/2000/svg">
<path d="M19.507 10.493C18.545 9.52997 17.299 8.99997 16 8.99997H6.914L10.207 5.70697L8.793 4.29297L3.086 9.99997L8.793 15.707L10.207 14.293L6.914 11H16C16.765 11 17.508 11.322 18.142 11.953C18.671 12.416 19 13.201 19 14C19 14.765 18.678 15.508 18.048 16.141C17.426 16.851 16.591 17 16 17H14V19H16C17.421 19 18.682 18.452 19.507 17.507C20.47 16.544 21 15.299 21 14C21 12.62 20.424 11.292 19.507 10.493Z" fill="black"/>
</svg>
