<svg width="24" height="24" viewBox="0 0 24 24" fill="none" xmlns="http://www.w3.org/2000/svg">
<path fill-rule="evenodd" clip-rule="evenodd" d="M12.668 1.39451V1.39451L18.6665 2.89414V2.89414C19.8905 3.19964 20.75 4.29982 20.75 5.56184V14.9998C20.75 15.8659 20.3429 16.6802 19.65 17.1998L13.65 21.6998C12.6724 22.4327 11.3277 22.4328 10.3501 21.6999L4.35 17.1998C3.65715 16.6802 3.25 15.8659 3.25 14.9998V5.56184C3.25 4.30031 4.10954 3.20082 5.33271 2.89433L11.332 1.39451V1.39451C11.7697 1.28451 12.2303 1.28451 12.668 1.39451ZM12.302 2.84918C12.1041 2.7994 11.8959 2.7994 11.698 2.84918L5.69729 4.34936C5.14046 4.48887 4.75 4.98938 4.75 5.56184V14.9998C4.75 15.3938 4.93485 15.7635 5.25 15.9998L11.2499 20.4997V20.4997C11.6942 20.8328 12.3058 20.8328 12.7501 20.4997L18.75 15.9998C19.0651 15.7635 19.25 15.3938 19.25 14.9998V5.56184C19.25 4.988 18.8593 4.48819 18.3035 4.34955L12.302 2.84918Z" fill="#464A4D"/>
<path fill-rule="evenodd" clip-rule="evenodd" d="M12.6051 6.31569C10.8303 5.93209 9.25 7.2809 9.25 9.00085ZM12.2884 7.78189C11.4654 7.60386 10.75 8.21895 10.75 9.00085C10.75 9.41497 10.9547 9.78382 11.2762 10.0144L11.6894 10.3109L11.0369 12.9405C10.9979 13.0972 11.1164 13.2508 11.28 13.2508H12.701C12.8652 13.2508 12.9846 13.0959 12.9422 12.9367L12.2518 10.3373L12.6961 10.0391C13.1157 9.75745 13.3579 9.23049 13.2031 8.64625M12.6051 6.31569C13.5808 6.52627 14.3944 7.28767 14.6529 8.26144C14.9252 9.28832 14.6079 10.2706 13.9609 10.9287L14.3918 12.551C14.6874 13.6618 13.8508 14.7508 12.701 14.7508H11.28C10.1437 14.7508 9.30642 13.6843 9.58107 12.5792L10.0017 10.8839C9.53892 10.3945 9.25 9.7336 9.25 9.00085M12.2884 7.78189C12.7224 7.87545 13.0915 8.22627 13.2031 8.64625Z" fill="#464A4D"/>
</svg>
