<svg width="24" height="24" viewBox="0 0 24 24" fill="none" xmlns="http://www.w3.org/2000/svg">
<path d="M18.728 2.65224L12.729 1.15224C12.253 1.03324 11.749 1.03324 11.272 1.15224L5.272 2.65224C3.934 2.98724 3 4.18424 3 5.56224V15.0002C3 15.9392 3.449 16.8362 4.2 17.3992L10.2 21.8992C10.73 22.2962 11.365 22.4952 12 22.4952C12.635 22.4952 13.271 22.2972 13.8 21.8992L19.8 17.3992C20.552 16.8362 21 15.9392 21 15.0002V5.56224C21 4.18324 20.065 2.98624 18.728 2.65224ZM13.114 10.6622L13.667 12.7442C13.836 13.3792 13.358 14.0012 12.701 14.0012H11.28C10.63 14.0012 10.152 13.3912 10.309 12.7602L10.839 10.6242C10.333 10.2612 10 9.67124 10 9.00124C10 7.75024 11.148 6.76824 12.447 7.04924C13.152 7.20124 13.743 7.75724 13.928 8.45424C14.169 9.36424 13.786 10.2112 13.114 10.6622Z" fill="#464A4D"/>
</svg>
