<svg width="24" height="24" viewBox="0 0 24 24" fill="none" xmlns="http://www.w3.org/2000/svg">
<path d="M16.9538 4.05C15.6318 2.728 13.8738 2 12.0048 2C10.1358 2 8.37776 2.728 7.05476 4.05C5.73276 5.373 5.00476 7.131 5.00476 9C5.00476 10.869 5.73276 12.627 7.05476 13.949C8.37676 15.271 10.1348 16 12.0048 16C13.8748 16 15.6328 15.271 16.9538 13.949C18.2758 12.628 19.0048 10.87 19.0048 9C19.0048 7.13 18.2758 5.372 16.9538 4.05Z" fill="#464A4D"/>
<path d="M5.64076 15.3631C5.39776 15.1201 5.17476 14.8621 4.96276 14.5971C4.95076 14.5821 4.94076 14.5671 4.92876 14.5521C4.72476 14.2931 4.53876 14.0241 4.36576 13.7471L2.14176 17.4801C1.95176 17.8001 1.95176 18.2001 2.15176 18.5201C2.34176 18.8401 2.70176 19.0201 3.07176 18.9901L6.18176 18.7701L7.55176 21.4601C7.72176 21.7801 8.05176 21.9901 8.41176 22.0001H8.44176C8.79176 22.0001 9.12176 21.8201 9.30176 21.5101L11.4188 17.9711C9.23576 17.8311 7.20176 16.9241 5.64076 15.3631Z" fill="#464A4D"/>
<path d="M21.8618 17.4902L19.6468 13.7422C19.4738 14.0202 19.2868 14.2902 19.0818 14.5502C19.0698 14.5652 19.0598 14.5812 19.0478 14.5962C18.8358 14.8622 18.6118 15.1202 18.3678 15.3642C18.3508 15.3812 18.3318 15.3962 18.3138 15.4132C16.7648 16.9392 14.7568 17.8302 12.6018 17.9712L14.7108 21.5102C14.8908 21.8202 15.2108 22.0002 15.5608 22.0002H15.6008C15.9608 21.9902 16.2908 21.7802 16.4508 21.4602L17.8308 18.7702L20.9308 18.9902C21.3008 19.0202 21.6508 18.8402 21.8508 18.5202C22.0408 18.2102 22.0518 17.8102 21.8618 17.4902Z" fill="#464A4D"/>
</svg>
