<svg width="24" height="24" viewBox="0 0 24 24" fill="none" xmlns="http://www.w3.org/2000/svg">
<path d="M16.954 4.05C15.632 2.728 13.874 2 12.005 2C10.136 2 8.378 2.728 7.055 4.05C5.733 5.373 5.005 7.131 5.005 9C5.005 10.869 5.733 12.627 7.055 13.949C8.377 15.271 10.135 16 12.005 16C13.875 16 15.633 15.271 16.954 13.949C18.276 12.628 19.005 10.87 19.005 9C19.005 7.13 18.276 5.372 16.954 4.05Z" fill="black"/>
<path d="M5.641 15.3631C5.398 15.1201 5.175 14.8621 4.963 14.5971C4.951 14.5821 4.941 14.5671 4.929 14.5521C4.725 14.2931 4.539 14.0241 4.366 13.7471L2.142 17.4801C1.952 17.8001 1.952 18.2001 2.152 18.5201C2.342 18.8401 2.702 19.0201 3.072 18.9901L6.182 18.7701L7.552 21.4601C7.722 21.7801 8.052 21.9901 8.412 22.0001H8.442C8.792 22.0001 9.122 21.8201 9.302 21.5101L11.419 17.9711C9.236 17.8311 7.202 16.9241 5.641 15.3631Z" fill="black"/>
<path d="M21.862 17.4902L19.647 13.7422C19.474 14.0202 19.287 14.2902 19.082 14.5502C19.07 14.5652 19.06 14.5812 19.048 14.5962C18.836 14.8622 18.612 15.1202 18.368 15.3642C18.351 15.3812 18.332 15.3962 18.314 15.4132C16.765 16.9392 14.757 17.8302 12.602 17.9712L14.711 21.5102C14.891 21.8202 15.211 22.0002 15.561 22.0002H15.601C15.961 21.9902 16.291 21.7802 16.451 21.4602L17.831 18.7702L20.931 18.9902C21.301 19.0202 21.651 18.8402 21.851 18.5202C22.041 18.2102 22.052 17.8102 21.862 17.4902Z" fill="black"/>
</svg>
