<svg width="24" height="24" viewBox="0 0 24 24" fill="none" xmlns="http://www.w3.org/2000/svg">
<path d="M13 2.25C14.5142 2.25 15.75 3.48579 15.75 5V6.25H21.8105L20.8877 18.208C20.7776 19.6354 19.5849 20.7498 18.1504 20.75H5.84961C4.40574 20.7498 3.2224 19.6461 3.1123 18.208L2.18945 6.25H8.25V5C8.25 3.48579 9.48579 2.25 11 2.25H13ZM4.60742 18.0928C4.6578 18.7539 5.19418 19.2498 5.84961 19.25H18.1504C18.7953 19.2498 19.3423 18.7447 19.3926 18.0928L20.1895 7.75H15.75V10H14.25V7.75H9.75V10H8.25V7.75H3.81055L4.60742 18.0928ZM11 3.75C10.3142 3.75 9.75 4.31421 9.75 5V6.25H14.25V5C14.25 4.31421 13.6858 3.75 13 3.75H11Z" fill="black"/>
</svg>
