<svg width="24" height="24" viewBox="0 0 24 24" fill="none" xmlns="http://www.w3.org/2000/svg">
<path fill-rule="evenodd" clip-rule="evenodd" d="M12.4518 3.76896C10.1964 3.63883 7.89047 4.4424 6.16633 6.16654C4.44234 7.89053 3.63952 10.1965 3.76877 12.4523L3.76896 12.4556C3.87253 14.4125 4.6761 16.3436 6.16633 17.8339C7.65656 19.3241 9.58768 20.1277 11.5446 20.2313L11.5482 20.2315C13.8036 20.3616 16.1095 19.558 17.8337 17.8339C19.5577 16.1099 20.3605 13.804 20.2312 11.5481L20.231 11.5449C20.1275 9.58789 19.3239 7.65677 17.8337 6.16654C16.3434 4.67631 14.4123 3.87274 12.4554 3.76916L12.4518 3.76896ZM12.5364 2.27135C9.87042 2.11802 7.14307 3.06847 5.10567 5.10588C3.06808 7.14347 2.11886 9.87086 2.27113 12.5365C2.39392 14.849 3.34431 17.1332 5.10567 18.8945C6.86695 20.6558 9.15105 21.6062 11.4634 21.7291C14.1295 21.8824 16.8569 20.932 18.8943 18.8945C20.9319 16.8569 21.8811 14.1296 21.7289 11.4639C21.6061 9.15146 20.6557 6.86724 18.8943 5.10588C17.133 3.34456 14.8489 2.39417 12.5364 2.27135Z" fill="black"/>
<path fill-rule="evenodd" clip-rule="evenodd" d="M11.8091 2.26334C12.2232 2.27113 12.5527 2.61317 12.5449 3.02731C12.4994 5.44828 11.5484 7.85645 9.70233 9.70254C7.85686 11.548 5.44198 12.5065 3.0201 12.5521C2.60596 12.5599 2.26392 12.2304 2.25613 11.8163C2.24834 11.4022 2.57776 11.0601 2.9919 11.0523C5.03802 11.0139 7.07913 10.2044 8.64167 8.64188C10.2036 7.07997 11.0066 5.04613 11.0451 2.99911C11.0529 2.58497 11.395 2.25556 11.8091 2.26334Z" fill="black"/>
<path fill-rule="evenodd" clip-rule="evenodd" d="M21.7369 12.1911C21.7446 12.6053 21.4152 12.9473 21.0011 12.9551C18.9531 12.9936 16.9203 13.7966 15.3583 15.3585C13.7958 16.9211 12.9863 18.9622 12.9479 21.0083C12.9401 21.4224 12.598 21.7519 12.1839 21.7441C11.7698 21.7363 11.4403 21.3943 11.4481 20.9801C11.4937 18.5582 12.4522 16.1433 14.2977 14.2979C16.1437 12.4518 18.5509 11.5009 20.9729 11.4553C21.387 11.4476 21.7291 11.777 21.7369 12.1911Z" fill="black"/>
<path fill-rule="evenodd" clip-rule="evenodd" d="M5.10567 5.10588C5.39856 4.81299 5.87344 4.81299 6.16633 5.10588L18.8943 17.8339C19.1872 18.1268 19.1872 18.6016 18.8943 18.8945C18.6014 19.1874 18.1266 19.1874 17.8337 18.8945L5.10567 6.16654C4.81278 5.87365 4.81278 5.39877 5.10567 5.10588Z" fill="black"/>
<path fill-rule="evenodd" clip-rule="evenodd" d="M18.8943 5.10588C19.1872 5.39877 19.1872 5.87365 18.8943 6.16654L6.16633 18.8945C5.87344 19.1874 5.39856 19.1874 5.10567 18.8945C4.81278 18.6016 4.81278 18.1268 5.10567 17.8339L17.8337 5.10588C18.1266 4.81299 18.6014 4.81299 18.8943 5.10588Z" fill="black"/>
</svg>
