<svg width="24" height="24" viewBox="0 0 24 24" fill="none" xmlns="http://www.w3.org/2000/svg">
<path d="M21.18 13.2002C19.41 13.2002 17.69 13.7902 16.3 14.8902L19.74 18.3302C20.93 16.8602 21.69 15.1002 21.91 13.2402C21.82 13.2202 21.73 13.2202 21.64 13.2102C21.49 13.2102 21.33 13.2002 21.18 13.2002Z" fill="#464A4D"/>
<path d="M14.86 13.4499C16.79 11.8799 19.24 11.0799 21.75 11.2199C21.82 11.2199 21.89 11.2299 21.96 11.2299C21.81 9.18992 21.03 7.24992 19.74 5.66992L13.41 11.9999L14.86 13.4499Z" fill="#464A4D"/>
<path d="M10.79 2.36984C10.78 2.27984 10.78 2.17984 10.76 2.08984C8.90004 2.30984 7.14004 3.06984 5.67004 4.25984L9.11004 7.69984C10.3 6.18984 10.9 4.28984 10.79 2.36984Z" fill="#464A4D"/>
<path d="M10.55 9.14004L12 10.59L18.33 4.26004C16.75 2.97004 14.82 2.19004 12.77 2.04004C12.77 2.11004 12.78 2.19004 12.78 2.26004C12.92 4.76004 12.12 7.21004 10.55 9.14004Z" fill="#464A4D"/>
<path d="M13.45 14.8602L12 13.4102L5.67004 19.7402C7.25004 21.0302 9.18004 21.8102 11.23 21.9602C11.23 21.8902 11.22 21.8102 11.22 21.7402C11.08 19.2402 11.88 16.7902 13.45 14.8602Z" fill="#464A4D"/>
<path d="M13.21 21.6298C13.22 21.7198 13.22 21.8198 13.24 21.9098C15.1 21.6898 16.87 20.9398 18.33 19.7398L14.89 16.2998C13.7 17.8098 13.1 19.7098 13.21 21.6298Z" fill="#464A4D"/>
<path d="M7.70003 9.10992L4.26003 5.66992C3.07003 7.13992 2.31003 8.89992 2.09003 10.7599C2.18003 10.7799 2.27003 10.7799 2.36003 10.7899C4.30003 10.8999 6.19003 10.2999 7.70003 9.10992Z" fill="#464A4D"/>
<path d="M9.14004 10.5498C8.38004 11.1698 7.54004 11.6698 6.64004 12.0398C5.44004 12.5398 4.14004 12.7998 2.82004 12.7998C2.63004 12.7998 2.44004 12.7898 2.25004 12.7798C2.18004 12.7798 2.11004 12.7698 2.04004 12.7698C2.19004 14.8098 2.97004 16.7498 4.26004 18.3298L10.59 11.9998L9.14004 10.5498Z" fill="#464A4D"/>
</svg>
