<svg width="24" height="24" viewBox="0 0 24 24" fill="none" xmlns="http://www.w3.org/2000/svg">
<path d="M8.57617 2.52051L12.0166 6.65332L15.4209 2.52344L15.6455 2.25H21.75V8.35449L21.4756 8.5791L16.8184 12.4092L18.5039 14.4346L20.4697 12.4697L21.5303 13.5303L19.5605 15.5L22.0605 18L18 22.0605L15.5 19.5605L13.5303 21.5303L12.4697 20.4697L14.4346 18.5039L11.9453 16.4326L10.1777 17.8818L9.55957 18.499L11.5303 20.4697L10.4697 21.5303L8.49902 19.5596L6 22.0605L1.93945 18L4.43848 15.499L2.46973 13.5303L3.53027 12.4697L5.49902 14.4385L6.07324 13.8643L7.20605 12.4873L2.51953 8.57617L2.25 8.35059V2.25H8.35156L8.57617 2.52051ZM4.06055 18L6 19.9395L7.43945 18.5L5.5 16.5605L4.06055 18ZM16.5605 18.5L18 19.9395L19.9395 18L18.5 16.5605L16.5605 18.5ZM3.75 7.64844L8.51172 11.623L13.1279 15.4639L13.126 15.4648L15.4795 17.4238L15.499 17.4395L17.4395 15.499L17.4238 15.4795L15.1836 12.79L14.916 12.4697L11.0449 7.83301V7.83105L7.64941 3.75H3.75V7.64844ZM7.20898 14.8467L7.18555 14.874L7.16016 14.9004L6.56055 15.5L8.5 17.4395L9.16602 16.7734L9.19434 16.75L10.7715 15.4551L8.3584 13.4473L7.20898 14.8467ZM12.9932 7.8252L15.8574 11.2559L20.25 7.64551V3.75H16.3525L12.9932 7.8252Z" fill="black"/>
</svg>
