<svg width="24" height="24" viewBox="0 0 24 24" fill="none" xmlns="http://www.w3.org/2000/svg">
<path d="M22.41 18L19.91 15.5L21.7 13.71L20.29 12.3L18.52 14.07L17.17 12.45L22 8.48V2H15.53L12.02 6.26L8.47003 2H2.00003V8.47L6.86003 12.52L5.92003 13.66L5.50003 14.08L3.71003 12.29L2.30003 13.7L4.09003 15.49L1.59003 17.99L6.00003 22.4L8.50003 19.9L10.29 21.69L11.7 20.28L9.90003 18.48L10.29 18.09L11.93 16.74L14.05 18.5L12.28 20.27L13.69 21.68L15.48 19.89L17.98 22.39L22.39 17.98L22.41 18ZM4.00003 7.53V4H7.53003L10.72 7.83L15.63 13.71L17.11 15.48L15.49 17.1L4.00003 7.53ZM16.91 18.5L18.5 16.91L19.59 18L18 19.59L16.91 18.5Z" fill="black"/>
</svg>
