<svg width="24" height="24" viewBox="0 0 24 24" fill="none" xmlns="http://www.w3.org/2000/svg">
<path d="M21 19.25V20.75H3.00001V19.25H21Z" fill="black"/>
<path d="M10.667 12.3421C9.57399 13.7699 9.09358 15.6435 8.8994 17.221C8.80345 18.0005 8.77996 18.6871 8.78026 19.177C8.78028 19.202 8.78208 19.2264 8.78221 19.2503H11.9971C11.8535 18.8418 11.6815 18.332 11.5127 17.7542C11.0839 16.2866 10.6415 14.3353 10.6494 12.5159L11.3994 12.5188L12.1494 12.5227C12.1424 14.128 12.5383 15.9168 12.9521 17.3333C13.1573 18.0353 13.3635 18.6333 13.5176 19.0549C13.5945 19.2654 13.6579 19.4318 13.7021 19.5442C13.7241 19.6002 13.7415 19.643 13.7529 19.6712C13.7586 19.685 13.7629 19.6958 13.7656 19.7024C13.767 19.7057 13.768 19.7088 13.7685 19.7102L13.7695 19.7112L14.2031 20.7503H7.36522L7.30858 20.0618V20.0589C7.3085 20.0578 7.30773 20.0565 7.3076 20.0549C7.30733 20.0515 7.30706 20.0461 7.30663 20.0403C7.30577 20.0287 7.30502 20.012 7.3037 19.9915C7.30102 19.9499 7.29735 19.8902 7.29393 19.8147C7.28709 19.6633 7.28043 19.4466 7.28026 19.178C7.27993 18.641 7.30612 17.8916 7.41112 17.0383C7.61895 15.3498 8.14659 13.1661 9.47557 11.4299L10.667 12.3421Z" fill="black"/>
<path d="M10.25 10.5C10.25 10.0858 9.91423 9.75 9.50001 9.75C9.0858 9.75 8.75001 10.0858 8.75001 10.5C8.75001 10.9142 9.0858 11.25 9.50001 11.25C9.91423 11.25 10.25 10.9142 10.25 10.5ZM11.75 10.5C11.75 11.7426 10.7427 12.75 9.50001 12.75C8.25737 12.75 7.25001 11.7426 7.25001 10.5C7.25001 9.25736 8.25737 8.25 9.50001 8.25C10.7427 8.25 11.75 9.25736 11.75 10.5Z" fill="black"/>
<path d="M13.25 11.5C13.25 11.0858 12.9142 10.75 12.5 10.75C12.0858 10.75 11.75 11.0858 11.75 11.5C11.75 11.9142 12.0858 12.25 12.5 12.25C12.9142 12.25 13.25 11.9142 13.25 11.5ZM14.75 11.5C14.75 12.7426 13.7427 13.75 12.5 13.75C11.2574 13.75 10.25 12.7426 10.25 11.5C10.25 10.2574 11.2574 9.25 12.5 9.25C13.7427 9.25 14.75 10.2574 14.75 11.5Z" fill="black"/>
<path d="M15 3.25C16.0968 3.25 17.4211 3.51983 18.4317 3.77246C18.9454 3.9009 19.395 4.02874 19.7158 4.125C19.8764 4.17316 20.0053 4.21373 20.0947 4.24219C20.1393 4.25638 20.1742 4.26754 20.1983 4.27539C20.2103 4.27932 20.2201 4.28301 20.2266 4.28516C20.2294 4.28608 20.2317 4.28654 20.2334 4.28711L20.2363 4.28809L20.3565 4.33984C20.6206 4.48228 20.7789 4.77334 20.7461 5.08008C20.7085 5.43036 20.4313 5.70584 20.0811 5.74414L20.082 5.74512H20.084C20.0836 5.74516 20.0816 5.74578 20.0791 5.74609C20.0741 5.74672 20.0648 5.7472 20.0518 5.74902C20.0254 5.75271 19.9833 5.75975 19.9268 5.76953C19.8137 5.7891 19.6441 5.82237 19.4307 5.87598C19.0028 5.98344 18.4032 6.17144 17.7324 6.49023C16.3931 7.12682 14.7811 8.27889 13.6602 10.3564L12.3399 9.64355C13.6469 7.22131 15.5353 5.87317 17.0889 5.13477C17.1542 5.10371 17.2191 5.07388 17.2832 5.04492C16.4974 4.8774 15.673 4.75 15 4.75C13.4982 4.75 12.6793 5.83529 12.2119 7.2373C11.9841 7.92084 11.8666 8.61504 11.8076 9.14551C11.7784 9.40874 11.764 9.62762 11.7568 9.77832C11.7533 9.85333 11.7518 9.91125 11.751 9.94922C11.7506 9.96823 11.7501 9.98263 11.75 9.99121V10C11.7487 9.99981 11.7181 10 11 10L10.25 9.99902V9.97461C10.2502 9.96051 10.2504 9.94085 10.251 9.91602C10.2521 9.86617 10.2546 9.79484 10.2588 9.70605C10.2673 9.5287 10.2842 9.2784 10.3174 8.97949C10.3835 8.38498 10.516 7.57906 10.7881 6.7627C11.3208 5.16471 12.5018 3.25 15 3.25Z" fill="black"/>
<path d="M6.00001 4.25C8.37278 4.25 9.82579 5.75129 10.6436 7.11426C11.0546 7.7993 11.3253 8.47787 11.4932 8.98145C11.5776 9.23458 11.6369 9.44729 11.6758 9.59863C11.6952 9.67425 11.71 9.73518 11.7197 9.77832C11.7245 9.79954 11.7278 9.81663 11.7305 9.8291C11.7318 9.83531 11.7326 9.84083 11.7334 9.84473C11.7338 9.84657 11.7341 9.8483 11.7344 9.84961L11.7354 9.85156L10.2647 10.1475L10.2637 10.1416C10.2623 10.1352 10.2592 10.1243 10.2559 10.1094C10.2491 10.0793 10.2383 10.0324 10.2227 9.97168C10.1913 9.8496 10.1412 9.6715 10.0693 9.45605C9.92473 9.0222 9.69537 8.4506 9.35646 7.88574C8.67424 6.74883 7.62711 5.75 6.00001 5.75C5.3759 5.75 4.73838 5.86118 4.16701 6.00977C4.29842 6.0703 4.43379 6.13504 4.57228 6.2041C5.88308 6.8578 7.52461 7.92567 8.69728 9.56348L7.47755 10.4365C6.50222 9.07433 5.09903 8.1422 3.90333 7.5459C3.31044 7.25023 2.78049 7.04347 2.40138 6.91113C2.21235 6.84515 2.06148 6.7977 1.95997 6.76758C1.90952 6.75261 1.87126 6.74209 1.84669 6.73535C1.83467 6.73205 1.82558 6.7299 1.82033 6.72852C1.81809 6.72792 1.81633 6.72679 1.81544 6.72656L1.70509 6.68945C1.45859 6.58409 1.28332 6.3525 1.25392 6.08008C1.2205 5.76869 1.38491 5.46917 1.66505 5.3291L1.66603 5.32812L1.66798 5.32715C1.66966 5.32631 1.67217 5.32552 1.67482 5.32422C1.68011 5.32162 1.68727 5.31785 1.6963 5.31348C1.71444 5.3047 1.74 5.2925 1.77247 5.27734C1.83758 5.24696 1.93077 5.20449 2.04786 5.1543C2.28201 5.05395 2.6145 4.92082 3.01271 4.78809C3.80014 4.52561 4.88657 4.25 6.00001 4.25Z" fill="black"/>
<path d="M14.7852 8.30806C16.0236 7.87557 17.7707 7.5466 19.336 8.32955L19.335 8.33052C20.5365 8.93137 21.3791 10.0894 21.9014 11.0034C22.1697 11.4729 22.3703 11.9077 22.5039 12.2251C22.5709 12.384 22.6218 12.5151 22.6563 12.6079C22.6735 12.6542 22.6871 12.691 22.6963 12.7172C22.7009 12.7303 22.7044 12.7409 22.707 12.7485C22.7083 12.7523 22.7092 12.7559 22.71 12.7583C22.7103 12.7593 22.7107 12.7605 22.711 12.7612C22.7073 12.7626 22.6584 12.781 22 13.0004L22.7119 12.7631C22.8165 13.0775 22.7018 13.4233 22.4307 13.6137C22.1595 13.804 21.7953 13.7945 21.5352 13.5893C21.5321 13.587 21.5263 13.5823 21.5186 13.5766C21.5012 13.5638 21.472 13.5425 21.4317 13.5151C21.351 13.4602 21.2258 13.3793 21.0586 13.2846C20.723 13.0946 20.2212 12.8501 19.5762 12.6469C18.2912 12.2423 16.4273 11.9969 14.1426 12.6801L13.7129 11.2436C16.3272 10.4618 18.5002 10.7357 20.0264 11.2163C20.1324 11.2496 20.2353 11.2838 20.335 11.3188C19.889 10.6361 19.3261 10.0009 18.6651 9.67037C17.6515 9.16364 16.3968 9.33418 15.2803 9.72408C14.7384 9.91332 14.267 10.1415 13.9307 10.3227C13.7632 10.4129 13.6306 10.4904 13.542 10.5444C13.4979 10.5713 13.4646 10.5923 13.4434 10.6059C13.4328 10.6127 13.4254 10.6176 13.4209 10.6206C13.419 10.6218 13.4177 10.623 13.417 10.6235L13 10.0004C12.5896 9.38732 12.5829 9.37672 12.583 9.37642L12.585 9.37544C12.5858 9.37491 12.5868 9.37424 12.5879 9.37349C12.5905 9.37177 12.5945 9.36939 12.5986 9.36665C12.6073 9.36099 12.6197 9.35287 12.6348 9.34322C12.6649 9.32393 12.7076 9.29714 12.7617 9.26412C12.8702 9.19798 13.0254 9.10662 13.2188 9.0024C13.6044 8.79461 14.1496 8.53004 14.7852 8.30806Z" fill="black"/>
<path d="M2.96779 13.2408C4.20688 12.4096 5.49951 11.9285 6.57619 11.649C7.3414 11.4505 8.00834 11.3514 8.48634 11.3014C8.72569 11.2763 8.91895 11.2629 9.0547 11.2565C9.12239 11.2532 9.17591 11.2515 9.21388 11.2506C9.23263 11.2502 9.2478 11.2507 9.2588 11.2506C9.26418 11.2505 9.26905 11.2496 9.27247 11.2496H9.27931C9.2796 11.2496 9.28029 11.25 9.28029 11.9996C9.28029 12.6898 9.28008 12.7452 9.28029 12.7496H9.27638C9.27104 12.7497 9.26113 12.7503 9.24806 12.7506C9.2219 12.7512 9.18079 12.7529 9.12599 12.7555C9.01599 12.7607 8.85128 12.7708 8.64259 12.7926C8.22435 12.8363 7.63288 12.9248 6.95314 13.1012C5.58756 13.4556 3.90476 14.1555 2.53029 15.5299C2.31579 15.7444 1.99316 15.8091 1.7129 15.693C1.43268 15.5769 1.25001 15.303 1.25001 14.9996C1.25007 13.3776 1.6366 12.1326 2.26661 11.192C2.89554 10.2533 3.73179 9.66979 4.54591 9.31212C5.35504 8.95671 6.15341 8.81892 6.74025 8.7672C7.03552 8.74118 7.28314 8.73576 7.45997 8.73791C7.54837 8.73898 7.61992 8.74208 7.67091 8.74474C7.69643 8.74608 7.71731 8.74758 7.73244 8.74865C7.73995 8.74918 7.74617 8.74924 7.75099 8.74962C7.75324 8.7498 7.7552 8.75046 7.75685 8.7506H7.76076L7.63185 10.2447C7.63085 10.2447 7.62919 10.2449 7.62697 10.2447C7.62053 10.2443 7.60897 10.2436 7.59279 10.2428C7.5604 10.2411 7.50937 10.2387 7.4424 10.2379C7.30781 10.2363 7.11045 10.2403 6.87208 10.2613C6.39092 10.3037 5.7643 10.4161 5.14943 10.6861C4.53978 10.954 3.95161 11.3718 3.51271 12.027C3.2941 12.3534 3.10375 12.752 2.96779 13.2408Z" fill="black"/>
</svg>
