<svg width="24" height="24" viewBox="0 0 24 24" fill="none" xmlns="http://www.w3.org/2000/svg">
<path d="M20.9999 19.25V20.75H2.99989V19.25H20.9999Z" fill="#464A4D"/>
<path d="M10.6669 12.3421C9.57387 13.7699 9.09346 15.6435 8.89928 17.221C8.80333 18.0005 8.77984 18.6871 8.78014 19.177C8.78015 19.202 8.78196 19.2264 8.78209 19.2503H11.9969C11.8534 18.8418 11.6814 18.332 11.5126 17.7542C11.0837 16.2866 10.6413 14.3353 10.6493 12.5159L11.3993 12.5188L12.1493 12.5227C12.1423 14.128 12.5382 15.9168 12.952 17.3333C13.1571 18.0353 13.3634 18.6333 13.5174 19.0549C13.5943 19.2654 13.6578 19.4318 13.702 19.5442C13.724 19.6002 13.7414 19.643 13.7528 19.6712C13.7584 19.685 13.7628 19.6958 13.7655 19.7024C13.7669 19.7057 13.7678 19.7088 13.7684 19.7102L13.7694 19.7112L14.203 20.7503H7.3651L7.30846 20.0618V20.0589C7.30837 20.0578 7.3076 20.0565 7.30748 20.0549C7.30721 20.0515 7.30693 20.0461 7.30651 20.0403C7.30565 20.0287 7.3049 20.012 7.30358 19.9915C7.30089 19.9499 7.29722 19.8902 7.29381 19.8147C7.28697 19.6633 7.28031 19.4466 7.28014 19.178C7.27981 18.641 7.30599 17.8916 7.411 17.0383C7.61883 15.3498 8.14647 13.1661 9.47545 11.4299L10.6669 12.3421Z" fill="#464A4D"/>
<path d="M10.2499 10.5C10.2499 10.0858 9.9141 9.75 9.49989 9.75C9.08568 9.75 8.74989 10.0858 8.74989 10.5C8.74989 10.9142 9.08568 11.25 9.49989 11.25C9.9141 11.25 10.2499 10.9142 10.2499 10.5ZM11.7499 10.5C11.7499 11.7426 10.7425 12.75 9.49989 12.75C8.25725 12.75 7.24989 11.7426 7.24989 10.5C7.24989 9.25736 8.25725 8.25 9.49989 8.25C10.7425 8.25 11.7499 9.25736 11.7499 10.5Z" fill="#464A4D"/>
<path d="M13.2499 11.5C13.2499 11.0858 12.9141 10.75 12.4999 10.75C12.0857 10.75 11.7499 11.0858 11.7499 11.5C11.7499 11.9142 12.0857 12.25 12.4999 12.25C12.9141 12.25 13.2499 11.9142 13.2499 11.5ZM14.7499 11.5C14.7499 12.7426 13.7425 13.75 12.4999 13.75C11.2573 13.75 10.2499 12.7426 10.2499 11.5C10.2499 10.2574 11.2573 9.25 12.4999 9.25C13.7425 9.25 14.7499 10.2574 14.7499 11.5Z" fill="#464A4D"/>
<path d="M14.9999 3.25C16.0967 3.25 17.421 3.51983 18.4315 3.77246C18.9453 3.9009 19.3948 4.02874 19.7157 4.125C19.8762 4.17316 20.0052 4.21373 20.0946 4.24219C20.1392 4.25638 20.1741 4.26754 20.1981 4.27539C20.2102 4.27932 20.2199 4.28301 20.2265 4.28516C20.2292 4.28608 20.2316 4.28654 20.2333 4.28711L20.2362 4.28809L20.3563 4.33984C20.6205 4.48228 20.7787 4.77334 20.746 5.08008C20.7084 5.43036 20.4312 5.70584 20.0809 5.74414L20.0819 5.74512H20.0839C20.0835 5.74516 20.0815 5.74578 20.079 5.74609C20.0739 5.74672 20.0647 5.7472 20.0516 5.74902C20.0253 5.75271 19.9831 5.75975 19.9266 5.76953C19.8136 5.7891 19.644 5.82237 19.4306 5.87598C19.0027 5.98344 18.4031 6.17144 17.7323 6.49023C16.393 7.12682 14.781 8.27889 13.66 10.3564L12.3397 9.64355C13.6467 7.22131 15.5352 5.87317 17.0888 5.13477C17.1541 5.10371 17.219 5.07388 17.2831 5.04492C16.4973 4.8774 15.6729 4.75 14.9999 4.75C13.4981 4.75 12.6791 5.83529 12.2118 7.2373C11.984 7.92084 11.8664 8.61504 11.8075 9.14551C11.7783 9.40874 11.7639 9.62762 11.7567 9.77832C11.7532 9.85333 11.7517 9.91125 11.7509 9.94922C11.7504 9.96823 11.75 9.98263 11.7499 9.99121V10C11.7486 9.99981 11.7179 10 10.9999 10L10.2499 9.99902V9.97461C10.25 9.9605 10.2503 9.94085 10.2509 9.91602C10.252 9.86617 10.2545 9.79484 10.2587 9.70605C10.2671 9.5287 10.2841 9.2784 10.3173 8.97949C10.3833 8.38498 10.5159 7.57906 10.788 6.7627C11.3206 5.16471 12.5017 3.25 14.9999 3.25Z" fill="#464A4D"/>
<path d="M5.99989 4.25C8.37266 4.25 9.82566 5.75129 10.6434 7.11426C11.0544 7.7993 11.3252 8.47787 11.4931 8.98145C11.5774 9.23458 11.6368 9.44729 11.6757 9.59863C11.6951 9.67425 11.7098 9.73518 11.7196 9.77832C11.7244 9.79954 11.7277 9.81663 11.7304 9.8291C11.7317 9.83531 11.7325 9.84083 11.7333 9.84473C11.7337 9.84657 11.734 9.8483 11.7343 9.84961L11.7352 9.85156L10.2645 10.1475L10.2636 10.1416C10.2622 10.1352 10.2591 10.1243 10.2558 10.1094C10.2489 10.0793 10.2382 10.0324 10.2225 9.97168C10.1911 9.84959 10.141 9.6715 10.0692 9.45605C9.92461 9.0222 9.69525 8.4506 9.35634 7.88574C8.67412 6.74883 7.62699 5.75 5.99989 5.75C5.37578 5.75 4.73826 5.86118 4.16688 6.00977C4.2983 6.0703 4.43366 6.13504 4.57216 6.2041C5.88296 6.8578 7.52449 7.92567 8.69716 9.56348L7.47743 10.4365C6.5021 9.07433 5.09891 8.1422 3.90321 7.5459C3.31032 7.25023 2.78037 7.04347 2.40126 6.91113C2.21223 6.84515 2.06135 6.7977 1.95985 6.76758C1.90939 6.75261 1.87114 6.74209 1.84657 6.73535C1.83455 6.73205 1.82546 6.7299 1.8202 6.72852C1.81796 6.72792 1.81621 6.72679 1.81532 6.72656L1.70497 6.68945C1.45847 6.58409 1.2832 6.3525 1.2538 6.08008C1.22037 5.76869 1.38479 5.46917 1.66493 5.3291L1.66591 5.32812L1.66786 5.32715C1.66954 5.32631 1.67205 5.32552 1.6747 5.32422C1.67999 5.32162 1.68715 5.31785 1.69618 5.31348C1.71431 5.3047 1.73987 5.2925 1.77235 5.27734C1.83746 5.24696 1.93065 5.20449 2.04774 5.1543C2.28189 5.05395 2.61438 4.92082 3.01259 4.78809C3.80002 4.52561 4.88645 4.25 5.99989 4.25Z" fill="#464A4D"/>
<path d="M14.785 8.30806C16.0235 7.87557 17.7706 7.5466 19.3358 8.32955L19.3349 8.33052C20.5364 8.93136 21.379 10.0894 21.9013 11.0034C22.1695 11.4729 22.3702 11.9077 22.5038 12.2251C22.5707 12.384 22.6216 12.5151 22.6561 12.6079C22.6734 12.6542 22.687 12.691 22.6962 12.7172C22.7008 12.7303 22.7043 12.7409 22.7069 12.7485C22.7082 12.7523 22.7091 12.7559 22.7099 12.7583C22.7102 12.7593 22.7106 12.7605 22.7108 12.7612C22.7072 12.7626 22.6583 12.781 21.9999 13.0004L22.7118 12.7631C22.8164 13.0775 22.7017 13.4233 22.4306 13.6137C22.1594 13.804 21.7952 13.7945 21.535 13.5893C21.532 13.587 21.5262 13.5823 21.5184 13.5766C21.5011 13.5638 21.4718 13.5425 21.4315 13.5151C21.3509 13.4602 21.2257 13.3793 21.0585 13.2846C20.7229 13.0946 20.2211 12.8501 19.5761 12.6469C18.291 12.2423 16.4272 11.9969 14.1425 12.6801L13.7128 11.2436C16.3271 10.4618 18.5 10.7357 20.0263 11.2163C20.1323 11.2496 20.2352 11.2838 20.3349 11.3188C19.8889 10.6361 19.326 10.0009 18.6649 9.67037C17.6514 9.16364 16.3967 9.33418 15.2802 9.72408C14.7382 9.91332 14.2669 10.1415 13.9306 10.3227C13.7631 10.4129 13.6305 10.4904 13.5419 10.5444C13.4978 10.5713 13.4645 10.5923 13.4433 10.6059C13.4327 10.6127 13.4252 10.6176 13.4208 10.6206C13.4188 10.6218 13.4176 10.623 13.4169 10.6235L12.9999 10.0004C12.5895 9.38732 12.5828 9.37672 12.5829 9.37642L12.5849 9.37544C12.5857 9.37491 12.5866 9.37424 12.5878 9.37349C12.5904 9.37177 12.5944 9.36939 12.5985 9.36665C12.6072 9.36099 12.6196 9.35287 12.6347 9.34322C12.6648 9.32393 12.7074 9.29714 12.7616 9.26412C12.8701 9.19798 13.0252 9.10662 13.2186 9.0024C13.6043 8.79461 14.1495 8.53004 14.785 8.30806Z" fill="#464A4D"/>
<path d="M2.96766 13.2408C4.20676 12.4096 5.49938 11.9285 6.57606 11.649C7.34128 11.4505 8.00821 11.3514 8.48622 11.3014C8.72556 11.2763 8.91883 11.2629 9.05458 11.2565C9.12227 11.2532 9.17579 11.2515 9.21376 11.2506C9.23251 11.2502 9.24768 11.2507 9.25868 11.2506C9.26406 11.2505 9.26892 11.2496 9.27235 11.2496H9.27919C9.27948 11.2496 9.28016 11.25 9.28016 11.9996C9.28016 12.6898 9.27996 12.7452 9.28016 12.7496H9.27626C9.27092 12.7497 9.26101 12.7503 9.24794 12.7506C9.22178 12.7512 9.18066 12.7529 9.12587 12.7555C9.01587 12.7607 8.85116 12.7708 8.64247 12.7926C8.22423 12.8363 7.63276 12.9248 6.95302 13.1012C5.58744 13.4556 3.90464 14.1555 2.53016 15.5299C2.31567 15.7444 1.99304 15.8091 1.71278 15.693C1.43256 15.5769 1.24989 15.303 1.24989 14.9996C1.24995 13.3776 1.63648 12.1326 2.26649 11.192C2.89542 10.2533 3.73167 9.66979 4.54579 9.31212C5.35492 8.95671 6.15329 8.81892 6.74013 8.7672C7.0354 8.74118 7.28302 8.73576 7.45985 8.73791C7.54825 8.73898 7.6198 8.74208 7.67079 8.74474C7.69631 8.74608 7.71719 8.74758 7.73231 8.74865C7.73983 8.74918 7.74605 8.74924 7.75087 8.74962C7.75312 8.7498 7.75508 8.75046 7.75673 8.7506H7.76063L7.63173 10.2447C7.63073 10.2447 7.62907 10.2449 7.62684 10.2447C7.62041 10.2443 7.60885 10.2436 7.59266 10.2428C7.56028 10.2411 7.50925 10.2387 7.44227 10.2379C7.30768 10.2363 7.11033 10.2403 6.87196 10.2613C6.3908 10.3037 5.76418 10.4161 5.14931 10.6861C4.53965 10.954 3.95149 11.3718 3.51259 12.027C3.29397 12.3534 3.10363 12.752 2.96766 13.2408Z" fill="#464A4D"/>
</svg>
