<svg width="24" height="24" viewBox="0 0 24 24" fill="none" xmlns="http://www.w3.org/2000/svg">
<path d="M22.948 12.684C22.902 12.545 21.791 9.27798 19.447 8.10598C18.399 7.58198 17.27 7.53298 16.228 7.69398C18.097 6.25198 19.996 6.00798 20.108 5.99498C20.576 5.94398 20.944 5.57498 20.994 5.10698C21.044 4.63898 20.762 4.19998 20.316 4.05198C20.187 4.00898 17.137 3.00098 15 3.00098C12.588 3.00098 11.262 4.70498 10.592 6.58298C9.62098 5.18698 8.12998 4.00098 5.99998 4.00098C3.78998 4.00098 1.64298 5.06198 1.55298 5.10598C1.17998 5.29298 0.962976 5.69098 1.00698 6.10598C1.05098 6.52098 1.34898 6.86498 1.75298 6.96898C1.77898 6.97598 3.65398 7.47698 5.40998 8.75098C4.58598 8.97198 3.67298 9.36998 2.88498 10.092C1.63498 11.238 1.00098 12.889 1.00098 15C1.00098 15.404 1.24498 15.77 1.61798 15.924C1.74198 15.976 1.87198 16 2.00098 16C2.26098 16 2.51698 15.898 2.70798 15.707C4.50698 13.908 6.86198 13.306 8.20898 13.103C7.22898 15.283 7.04298 17.656 7.03198 19H2.99998V21H21V19H13.764C13.406 18.021 12.741 16.011 12.495 14H12.5C13.395 14 14.175 13.524 14.616 12.816C18.685 11.773 21.273 13.702 21.38 13.785C21.561 13.928 21.779 14 21.999 14C22.2 14 22.401 13.939 22.574 13.818C22.935 13.564 23.088 13.103 22.947 12.683L22.948 12.684ZM9.99998 10.5C9.99998 10.776 9.77598 11 9.49998 11C9.22398 11 8.99998 10.776 8.99998 10.5C8.99998 10.224 9.22398 9.99998 9.49998 9.99998C9.77598 9.99998 9.99998 10.224 9.99998 10.5ZM9.03298 19C9.04898 17.669 9.24998 15.147 10.414 13.166C10.52 15.336 11.167 17.598 11.642 19H9.03298ZM12.5 12C12.225 12 12 11.776 12 11.5C12 11.224 12.225 11 12.5 11C12.775 11 13 11.224 13 11.5C13 11.776 12.775 12 12.5 12Z" fill="#464A4D"/>
</svg>
