<svg width="24" height="24" viewBox="0 0 24 24" fill="none" xmlns="http://www.w3.org/2000/svg">
<path d="M21 10.184V5C21 3.346 19.654 2 18 2H6C4.346 2 3 3.346 3 5V10.184C1.839 10.598 1 11.698 1 13V17C1 18.302 1.839 19.402 3 19.816V22H5V20H19V22H21V19.816C22.161 19.402 23 18.302 23 17V13C23 11.698 22.161 10.598 21 10.184ZM6.999 9H10V10H7L6.999 9ZM13.999 9H17V10H14V9H13.999ZM5 5C5 4.449 5.449 4 6 4H18C18.552 4 19 4.449 19 5V9C19 7.897 18.103 7 17 7H14C12.897 7 12 7.897 12 9C12 7.897 11.103 7 10 7H7C5.897 7 5 7.897 5 9V5ZM4 12H20C20.552 12 21 12.448 21 13V15H3V13C3 12.448 3.449 12 4 12Z" fill="black"/>
</svg>
