<svg width="24" height="24" viewBox="0 0 24 24" fill="none" xmlns="http://www.w3.org/2000/svg">
<path d="M21.25 13C21.25 12.3096 20.6904 11.75 20 11.75H4C3.30964 11.75 2.75 12.3096 2.75 13V17C2.75 17.6904 3.30964 18.25 4 18.25H20C20.6904 18.25 21.25 17.6904 21.25 17V13ZM22.75 17C22.75 18.5188 21.5188 19.75 20 19.75H4C2.48122 19.75 1.25 18.5188 1.25 17V13C1.25 11.4812 2.48122 10.25 4 10.25H20C21.5188 10.25 22.75 11.4812 22.75 13V17Z" fill="black"/>
<path d="M19.25 5C19.25 4.31021 18.6898 3.75 18 3.75H6C5.31021 3.75 4.75 4.31021 4.75 5V10.25H19.25V5ZM20.75 11.75H3.25V5C3.25 3.48179 4.48179 2.25 6 2.25H18C19.5182 2.25 20.75 3.48179 20.75 5V11.75Z" fill="black"/>
<path d="M4.75 19V22H3.25V19H4.75Z" fill="black"/>
<path d="M20.75 19V22H19.25V19H20.75Z" fill="black"/>
<path d="M22 15.25V16.75H2V15.25H22Z" fill="black"/>
<path d="M10.25 9C10.25 8.86193 10.1381 8.75 10 8.75H7C6.86193 8.75 6.75 8.86193 6.75 9V10C6.75 10.1381 6.86193 10.25 7 10.25H10C10.1381 10.25 10.25 10.1381 10.25 10V9ZM11.75 10C11.75 10.9665 10.9665 11.75 10 11.75H7C6.0335 11.75 5.25 10.9665 5.25 10V9C5.25 8.0335 6.0335 7.25 7 7.25H10C10.9665 7.25 11.75 8.0335 11.75 9V10Z" fill="black"/>
<path d="M17.25 9C17.25 8.86193 17.1381 8.75 17 8.75H14C13.8619 8.75 13.75 8.86193 13.75 9V10C13.75 10.1381 13.8619 10.25 14 10.25H17C17.1381 10.25 17.25 10.1381 17.25 10V9ZM18.75 10C18.75 10.9665 17.9665 11.75 17 11.75H14C13.0335 11.75 12.25 10.9665 12.25 10V9C12.25 8.0335 13.0335 7.25 14 7.25H17C17.9665 7.25 18.75 8.0335 18.75 9V10Z" fill="black"/>
</svg>
