<svg width="24" height="24" viewBox="0 0 24 24" fill="none" xmlns="http://www.w3.org/2000/svg">
<path d="M20.996 21.0039L17.992 17.9999H18.007L6.24501 6.23693C6.24501 6.23693 6.24201 6.24293 6.24001 6.24593L2.99701 3.00293L1.58301 4.41693L5.33801 8.17193C5.14901 8.77293 5.02901 9.38893 5.00101 9.99893V12.9989C5.00101 14.5849 4.24801 15.3379 3.29401 16.2919C3.00801 16.5779 2.92201 17.0079 3.07701 17.3819C3.23201 17.7559 3.59701 17.9989 4.00101 17.9989H8.00101C8.00101 20.2049 9.79501 21.9989 12.001 21.9989C13.947 21.9989 15.568 20.6009 15.924 18.7579L19.583 22.4169L20.997 21.0029L20.996 21.0039ZM12 19.9999C10.897 19.9999 10 19.1029 10 17.9999H14C14 19.1029 13.103 19.9999 12 19.9999Z" fill="#464A4D"/>
<path d="M20.924 17.383C21.079 17.009 20.993 16.579 20.707 16.293C19.753 15.339 19 14.586 19 13V9.953C18.856 6.889 16.555 3.61 13 3.082V2C13 1.448 12.552 1 12 1C11.448 1 11 1.448 11 2V3.082C9.65202 3.283 8.48602 3.88 7.54802 4.713L20.614 17.779C20.746 17.675 20.857 17.545 20.924 17.383Z" fill="#464A4D"/>
</svg>
