<svg width="24" height="24" viewBox="0 0 24 24" fill="none" xmlns="http://www.w3.org/2000/svg">
<path fill-rule="evenodd" clip-rule="evenodd" d="M6.75001 10.0182V13C6.75001 14.445 6.28382 15.4526 5.68925 16.25H18.3108C17.7162 15.4526 17.25 14.445 17.25 13V10.0182C17.1934 8.90112 16.6942 7.56869 15.7877 6.52097C14.889 5.48228 13.6164 4.75 12 4.75C10.3836 4.75 9.11099 5.48228 8.21231 6.52097C7.30583 7.56868 6.80662 8.90111 6.75001 10.0182ZM7.07795 5.53953C8.21553 4.22472 9.88241 3.25 12 3.25C14.1176 3.25 15.7845 4.22472 16.9221 5.53953C18.0473 6.84005 18.6806 8.4995 18.7492 9.96495C18.7497 9.97662 18.75 9.98831 18.75 10V13C18.75 14.6702 19.5382 15.4775 20.5303 16.4697C20.7448 16.6842 20.809 17.0068 20.6929 17.287C20.5768 17.5673 20.3034 17.75 20 17.75H4.00001C3.69666 17.75 3.42318 17.5673 3.3071 17.287C3.19101 17.0068 3.25518 16.6842 3.46968 16.4697C4.4618 15.4775 5.25001 14.6702 5.25001 13V10C5.25001 9.98831 5.25028 9.97662 5.25083 9.96495C5.3194 8.4995 5.95274 6.84005 7.07795 5.53953Z" fill="black"/>
<path fill-rule="evenodd" clip-rule="evenodd" d="M9 16.25C9.41421 16.25 9.75 16.5858 9.75 17V18C9.75 19.2428 10.7572 20.25 12 20.25C13.2428 20.25 14.25 19.2428 14.25 18V17C14.25 16.5858 14.5858 16.25 15 16.25C15.4142 16.25 15.75 16.5858 15.75 17V18C15.75 20.0712 14.0712 21.75 12 21.75C9.92879 21.75 8.25 20.0712 8.25 18V17C8.25 16.5858 8.58579 16.25 9 16.25Z" fill="black"/>
<path fill-rule="evenodd" clip-rule="evenodd" d="M12 1.25C12.4142 1.25 12.75 1.58579 12.75 2V4C12.75 4.41421 12.4142 4.75 12 4.75C11.5858 4.75 11.25 4.41421 11.25 4V2C11.25 1.58579 11.5858 1.25 12 1.25Z" fill="black"/>
<path fill-rule="evenodd" clip-rule="evenodd" d="M15 11.75H9V10.25H15V11.75Z" fill="black"/>
<path fill-rule="evenodd" clip-rule="evenodd" d="M11.25 14V8H12.75V14H11.25Z" fill="black"/>
</svg>
