<svg width="24" height="24" viewBox="0 0 24 24" fill="none" xmlns="http://www.w3.org/2000/svg">
<path d="M20.7069 16.293C19.7529 15.339 18.9999 14.586 18.9999 13V9.953C18.8559 6.889 16.5549 3.61 12.9999 3.082V2C12.9999 1.448 12.5519 1 11.9999 1C11.4479 1 10.9999 1.448 10.9999 2V3.082C7.44594 3.611 5.14495 6.893 4.99995 10V13C4.99995 14.586 4.24695 15.339 3.29295 16.293C3.00695 16.579 2.92095 17.009 3.07595 17.383C3.23095 17.757 3.59595 18 3.99995 18H7.99995C7.99995 20.206 9.79394 22 11.9999 22C14.2059 22 15.9999 20.206 15.9999 18H19.9999C20.4039 18 20.7699 17.757 20.9239 17.383C21.0789 17.009 20.9929 16.579 20.7069 16.293ZM11.9999 20C10.8969 20 9.99995 19.103 9.99995 18H13.9999C13.9999 19.103 13.1029 20 11.9999 20ZM14.9999 12H8.99995V10H14.9999V12Z" fill="#464A4D"/>
</svg>
