<svg width="24" height="24" viewBox="0 0 24 24" fill="none" xmlns="http://www.w3.org/2000/svg">
<path d="M20.996 21.0039L17.992 17.9999H18.007L6.245 6.23693C6.245 6.23693 6.242 6.24293 6.24 6.24593L2.997 3.00293L1.583 4.41693L5.338 8.17193C5.149 8.77293 5.029 9.38893 5.001 9.99893V12.9989C5.001 14.5849 4.248 15.3379 3.294 16.2919C3.008 16.5779 2.922 17.0079 3.077 17.3819C3.232 17.7559 3.597 17.9989 4.001 17.9989H8.001C8.001 20.2049 9.795 21.9989 12.001 21.9989C13.947 21.9989 15.568 20.6009 15.924 18.7579L19.583 22.4169L20.997 21.0029L20.996 21.0039ZM12 19.9999C10.897 19.9999 10 19.1029 10 17.9999H14C14 19.1029 13.103 19.9999 12 19.9999Z" fill="black"/>
<path d="M20.924 17.383C21.079 17.009 20.993 16.579 20.707 16.293C19.753 15.339 19 14.586 19 13V9.953C18.856 6.889 16.555 3.61 13 3.082V2C13 1.448 12.552 1 12 1C11.448 1 11 1.448 11 2V3.082C9.652 3.283 8.486 3.88 7.548 4.713L20.614 17.779C20.746 17.675 20.857 17.545 20.924 17.383Z" fill="black"/>
</svg>
