<svg width="24" height="24" viewBox="0 0 24 24" fill="none" xmlns="http://www.w3.org/2000/svg">
<path fill-rule="evenodd" clip-rule="evenodd" d="M12.0001 4.75C10.8511 4.75 9.88414 5.11907 9.09992 5.69683C8.76643 5.94251 8.29692 5.87134 8.05124 5.53785C7.80555 5.20437 7.87673 4.73486 8.21021 4.48917C9.23399 3.73493 10.509 3.25 12.0001 3.25C14.1177 3.25 15.7845 4.22472 16.9221 5.53953C18.0473 6.84005 18.6807 8.4995 18.7492 9.96494C18.7498 9.97662 18.7501 9.98831 18.7501 10V13C18.7501 13.4142 18.4143 13.75 18.0001 13.75C17.5859 13.75 17.2501 13.4142 17.2501 13V10.0182C17.1935 8.90112 16.6942 7.56869 15.7878 6.52097C14.8891 5.48228 13.6165 4.75 12.0001 4.75Z" fill="#464A4D"/>
<path fill-rule="evenodd" clip-rule="evenodd" d="M6.77427 7.22216C7.15691 7.38077 7.33852 7.81955 7.1799 8.20219C6.92126 8.82614 6.77862 9.45378 6.75007 10.0182V13C6.75007 14.445 6.28388 15.4526 5.68931 16.25H15.5771C15.9913 16.25 16.3271 16.5858 16.3271 17C16.3271 17.4142 15.9913 17.75 15.5771 17.75H4.00007C3.69672 17.75 3.42324 17.5673 3.30716 17.287C3.19107 17.0067 3.25524 16.6842 3.46974 16.4697C4.46186 15.4775 5.25007 14.6702 5.25007 13V9.99999C5.25007 9.98833 5.25034 9.97667 5.25088 9.96501C5.28633 9.20575 5.47345 8.40165 5.79424 7.62779C5.95285 7.24515 6.39163 7.06354 6.77427 7.22216Z" fill="#464A4D"/>
<path fill-rule="evenodd" clip-rule="evenodd" d="M9.00006 16.25C9.41427 16.25 9.75006 16.5858 9.75006 17V18C9.75006 19.2428 10.7573 20.25 12.0001 20.25C13.2428 20.25 14.2501 19.2428 14.2501 18V17C14.2501 16.5858 14.5858 16.25 15.0001 16.25C15.4143 16.25 15.7501 16.5858 15.7501 17V18C15.7501 20.0712 14.0713 21.75 12.0001 21.75C9.92885 21.75 8.25006 20.0712 8.25006 18V17C8.25006 16.5858 8.58585 16.25 9.00006 16.25Z" fill="#464A4D"/>
<path fill-rule="evenodd" clip-rule="evenodd" d="M12.0001 1.25C12.4143 1.25 12.7501 1.58579 12.7501 2V4C12.7501 4.41421 12.4143 4.75 12.0001 4.75C11.5858 4.75 11.2501 4.41421 11.2501 4V2C11.2501 1.58579 11.5858 1.25 12.0001 1.25Z" fill="#464A4D"/>
<path fill-rule="evenodd" clip-rule="evenodd" d="M1.75879 4.24145L2.81932 3.18066L20.8194 21.1807L19.7587 22.2414L1.75879 4.24145Z" fill="#464A4D"/>
</svg>
