<svg width="24" height="24" viewBox="0 0 24 24" fill="none" xmlns="http://www.w3.org/2000/svg">
<path d="M20.707 16.293C19.753 15.339 19 14.586 19 13V9.953C18.856 6.889 16.555 3.61 13 3.082V2C13 1.448 12.552 1 12 1C11.448 1 11 1.448 11 2V3.082C7.44601 3.611 5.14501 6.893 5.00001 10V13C5.00001 14.586 4.24701 15.339 3.29301 16.293C3.00701 16.579 2.92101 17.009 3.07601 17.383C3.23101 17.757 3.59601 18 4.00001 18H8.00001C8.00001 20.206 9.79401 22 12 22C14.206 22 16 20.206 16 18H20C20.404 18 20.77 17.757 20.924 17.383C21.079 17.009 20.993 16.579 20.707 16.293ZM12 20C10.897 20 10 19.103 10 18H14C14 19.103 13.103 20 12 20ZM15 12H13V14H11V12H9.00001V10H11V8H13V10H15V12Z" fill="black"/>
</svg>
