<svg width="24" height="24" viewBox="0 0 24 24" fill="none" xmlns="http://www.w3.org/2000/svg">
<path fill-rule="evenodd" clip-rule="evenodd" d="M6.75 10.015V13C6.75 14.445 6.28381 15.4526 5.68924 16.25H18.3108C17.7162 15.4526 17.25 14.445 17.25 13V10.015C17.2033 8.89759 16.6991 7.56613 15.7848 6.51803C14.8785 5.47911 13.5997 4.75 12 4.75C10.4003 4.75 9.12147 5.47911 8.21518 6.51803C7.30087 7.56613 6.79668 8.89759 6.75 10.015ZM7.08482 5.53197C8.22853 4.22089 9.89968 3.25 12 3.25C14.1003 3.25 15.7715 4.22089 16.9152 5.53197C18.0471 6.82955 18.6925 8.49142 18.7494 9.97118C18.7498 9.98078 18.75 9.99039 18.75 10V13C18.75 14.6702 19.5382 15.4775 20.5303 16.4697C20.7448 16.6842 20.809 17.0068 20.6929 17.287C20.5768 17.5673 20.3033 17.75 20 17.75H4C3.69665 17.75 3.42318 17.5673 3.30709 17.287C3.191 17.0068 3.25517 16.6842 3.46967 16.4697C4.46179 15.4775 5.25 14.6702 5.25 13V10C5.25 9.99039 5.25018 9.98078 5.25055 9.97118C5.30747 8.49142 5.9529 6.82955 7.08482 5.53197Z" fill="black"/>
<path fill-rule="evenodd" clip-rule="evenodd" d="M9 16.25C9.41421 16.25 9.75 16.5858 9.75 17V18C9.75 19.2858 10.7142 20.25 12 20.25C13.2858 20.25 14.25 19.2858 14.25 18V17C14.25 16.5858 14.5858 16.25 15 16.25C15.4142 16.25 15.75 16.5858 15.75 17V18C15.75 20.1142 14.1142 21.75 12 21.75C9.88579 21.75 8.25 20.1142 8.25 18V17C8.25 16.5858 8.58579 16.25 9 16.25Z" fill="black"/>
<path fill-rule="evenodd" clip-rule="evenodd" d="M17.4238 2.51988C17.689 2.20167 18.1619 2.15868 18.4801 2.42385C19.7867 3.51262 20.9434 5.2098 21.6708 6.66461C21.8561 7.03509 21.7059 7.4856 21.3354 7.67084C20.9649 7.85608 20.5144 7.70591 20.3292 7.33543C19.6566 5.99024 18.6133 4.48742 17.5199 3.57618C17.2017 3.31101 17.1587 2.83809 17.4238 2.51988Z" fill="black"/>
<path fill-rule="evenodd" clip-rule="evenodd" d="M6.57616 2.51988C6.84134 2.83809 6.79834 3.31101 6.48013 3.57618C5.38665 4.48742 4.34341 5.99024 3.67082 7.33543C3.48557 7.70591 3.03507 7.85608 2.66459 7.67084C2.2941 7.4856 2.14393 7.03509 2.32918 6.66461C3.05658 5.2098 4.21334 3.51262 5.51986 2.42385C5.83807 2.15868 6.31099 2.20167 6.57616 2.51988Z" fill="black"/>
<path fill-rule="evenodd" clip-rule="evenodd" d="M12 1.25C12.4142 1.25 12.75 1.58579 12.75 2V4C12.75 4.41421 12.4142 4.75 12 4.75C11.5858 4.75 11.25 4.41421 11.25 4V2C11.25 1.58579 11.5858 1.25 12 1.25Z" fill="black"/>
</svg>
