<svg width="24" height="24" viewBox="0 0 24 24" fill="none" xmlns="http://www.w3.org/2000/svg">
<path d="M19 13V9.953C18.856 6.889 16.555 3.61 13 3.082V2C13 1.448 12.552 1 12 1C11.448 1 11 1.448 11 2V3.082C7.44501 3.611 5.14501 6.893 5.00001 10V13C5.00001 14.586 4.24701 15.339 3.29301 16.293C3.00701 16.579 2.92101 17.009 3.07601 17.383C3.23101 17.757 3.59601 18 4.00001 18H8.00001C8.00001 20.206 9.79401 22 12 22C14.206 22 16 20.206 16 18H20C20.404 18 20.77 17.757 20.924 17.383C21.079 17.009 20.993 16.579 20.707 16.293C19.753 15.339 19 14.586 19 13ZM12 20C10.897 20 10 19.103 10 18H14C14 19.103 13.103 20 12 20Z" fill="black"/>
<path d="M21.908 6.58192C21.194 5.02892 19.948 3.36692 18.656 2.24492C18.239 1.88392 17.607 1.92692 17.245 2.34392C16.883 2.76092 16.928 3.39192 17.344 3.75492C18.419 4.68892 19.497 6.12692 20.092 7.41792C20.26 7.78392 20.622 7.99992 21.001 7.99992C21.141 7.99992 21.282 7.97092 21.418 7.90892C21.92 7.67792 22.14 7.08392 21.908 6.58192Z" fill="black"/>
<path d="M3.90899 7.41691C4.49999 6.12791 5.57899 4.69091 6.65599 3.75491C7.07299 3.39291 7.11699 2.76091 6.75499 2.34391C6.39199 1.92791 5.75999 1.88191 5.34399 2.24491C4.04899 3.36991 2.80199 5.03291 2.09099 6.58291C1.86099 7.08491 2.08099 7.67891 2.58299 7.90891C2.71799 7.97091 2.85999 7.99991 2.99999 7.99991C3.37799 7.99991 3.74099 7.78391 3.90899 7.41691Z" fill="black"/>
</svg>
