<svg width="24" height="24" viewBox="0 0 24 24" fill="none" xmlns="http://www.w3.org/2000/svg">
<path fill-rule="evenodd" clip-rule="evenodd" d="M12 4.75C10.851 4.75 9.88408 5.11907 9.09986 5.69683C8.76637 5.94251 8.29686 5.87134 8.05118 5.53785C7.80549 5.20437 7.87666 4.73486 8.21015 4.48917C9.23393 3.73493 10.509 3.25 12 3.25C14.1176 3.25 15.7845 4.22472 16.9221 5.53953C18.0473 6.84005 18.6806 8.4995 18.7492 9.96495C18.7497 9.97662 18.75 9.98831 18.75 10V13C18.75 13.4142 18.4142 13.75 18 13.75C17.5858 13.75 17.25 13.4142 17.25 13V10.0182C17.1934 8.90112 16.6942 7.56869 15.7877 6.52097C14.889 5.48228 13.6164 4.75 12 4.75Z" fill="black"/>
<path fill-rule="evenodd" clip-rule="evenodd" d="M6.77421 7.22216C7.15685 7.38077 7.33845 7.81955 7.17984 8.20219C6.92119 8.82614 6.77856 9.45378 6.75001 10.0182V13C6.75001 14.445 6.28382 15.4526 5.68925 16.25H15.577C15.9912 16.25 16.327 16.5858 16.327 17C16.327 17.4142 15.9912 17.75 15.577 17.75H4.00001C3.69666 17.75 3.42318 17.5673 3.3071 17.287C3.19101 17.0067 3.25518 16.6842 3.46968 16.4697C4.4618 15.4775 5.25001 14.6702 5.25001 13V9.99999C5.25001 9.98833 5.25028 9.97667 5.25082 9.96501C5.28627 9.20575 5.47339 8.40165 5.79417 7.62779C5.95279 7.24515 6.39157 7.06354 6.77421 7.22216Z" fill="black"/>
<path fill-rule="evenodd" clip-rule="evenodd" d="M9 16.25C9.41421 16.25 9.75 16.5858 9.75 17V18C9.75 19.2428 10.7572 20.25 12 20.25C13.2428 20.25 14.25 19.2428 14.25 18V17C14.25 16.5858 14.5858 16.25 15 16.25C15.4142 16.25 15.75 16.5858 15.75 17V18C15.75 20.0712 14.0712 21.75 12 21.75C9.92879 21.75 8.25 20.0712 8.25 18V17C8.25 16.5858 8.58579 16.25 9 16.25Z" fill="black"/>
<path fill-rule="evenodd" clip-rule="evenodd" d="M12 1.25C12.4142 1.25 12.75 1.58579 12.75 2V4C12.75 4.41421 12.4142 4.75 12 4.75C11.5858 4.75 11.25 4.41421 11.25 4V2C11.25 1.58579 11.5858 1.25 12 1.25Z" fill="black"/>
<path fill-rule="evenodd" clip-rule="evenodd" d="M5.92065 8.40237L1.75873 4.24145L2.81926 3.18066L20.8193 21.1807L19.7586 22.2414L5.92065 8.40237Z" fill="black"/>
</svg>
