<svg width="24" height="24" viewBox="0 0 24 24" fill="none" xmlns="http://www.w3.org/2000/svg">
<path d="M18.5 11.5C18.133 11.5 17.78 11.557 17.438 11.64L15.118 6.99998H18.173C18.44 6.99998 18.69 7.10398 18.878 7.29198C19.066 7.48098 19.171 7.73198 19.17 7.99898C19.17 8.26598 19.066 8.51598 18.871 8.70898L18.29 9.29698C17.901 9.68998 17.905 10.323 18.298 10.712C18.692 11.1 19.324 11.096 19.712 10.704L20.287 10.122C20.855 9.55698 21.169 8.80398 21.17 8.00198C21.171 7.19998 20.859 6.44598 20.292 5.87898C19.725 5.31198 18.974 5.00098 18.173 5.00098H13.5C13.153 5.00098 12.832 5.18098 12.649 5.47498C12.466 5.76998 12.45 6.13798 12.605 6.44798L13.881 9.00098H10.617L9.53002 6.82698C9.80602 6.64898 9.99902 6.35398 9.99902 6.00098C9.99902 5.44898 9.55102 5.00098 8.99902 5.00098H5.99902C5.44702 5.00098 4.99902 5.44898 4.99902 6.00098C4.99902 6.55298 5.44702 7.00098 5.99902 7.00098H7.38102L8.82802 9.89598L7.32702 11.898C6.76702 11.648 6.15102 11.502 5.49902 11.502C3.01802 11.502 0.999023 13.521 0.999023 16.002C0.999023 18.483 3.01802 20.502 5.49902 20.502C7.98002 20.502 9.99902 18.483 9.99902 16.002C9.99902 14.896 9.58202 13.895 8.91802 13.11L10.499 11.002H14.881L15.653 12.546C14.652 13.372 13.999 14.606 13.999 16.002C13.999 18.483 16.018 20.502 18.499 20.502C20.98 20.502 22.999 18.483 22.999 16.002C22.999 13.521 20.98 11.502 18.499 11.502L18.5 11.5ZM8.00002 16C8.00002 17.379 6.87802 18.5 5.50002 18.5C4.12202 18.5 3.00002 17.379 3.00002 16C3.00002 14.621 4.12202 13.5 5.50002 13.5C5.69702 13.5 5.88702 13.529 6.07102 13.572L4.70002 15.4C4.36802 15.841 4.45802 16.468 4.90002 16.799C5.08002 16.934 5.29102 16.999 5.49902 16.999C5.80302 16.999 6.10302 16.861 6.30002 16.599L7.66702 14.776C7.87302 15.139 8.00002 15.553 8.00002 15.999V16ZM18.5 18.5C17.121 18.5 16 17.379 16 16C16 15.393 16.226 14.843 16.587 14.41L17.606 16.447C17.782 16.798 18.134 17 18.502 17C18.652 17 18.805 16.966 18.948 16.895C19.442 16.648 19.642 16.047 19.395 15.553L18.375 13.513C18.417 13.511 18.458 13.5 18.5 13.5C19.879 13.5 21 14.621 21 16C21 17.379 19.879 18.5 18.5 18.5Z" fill="#464A4D"/>
</svg>
