<svg width="24" height="24" viewBox="0 0 24 24" fill="none" xmlns="http://www.w3.org/2000/svg">
<path d="M18.9345 15.2527C19.1284 15.2357 19.3223 15.2951 19.4746 15.4197C19.6487 15.5622 19.75 15.7749 19.75 15.9998V18.5682C19.7499 18.7669 19.6708 18.9579 19.5303 19.0984C19.4249 19.2037 19.2914 19.2747 19.1474 19.3035L19 19.3182H18.958C18.9259 19.3188 18.8761 19.3202 18.8115 19.323C18.682 19.3288 18.4924 19.3406 18.2597 19.3641C17.792 19.4113 17.1608 19.5055 16.498 19.6912C15.133 20.0737 13.8366 20.7845 13.333 22.0545C13.1719 22.4586 12.7927 22.6071 12.6347 22.658C12.427 22.7248 12.2024 22.7499 12.0039 22.7498C11.8054 22.7497 11.5813 22.7247 11.374 22.658C11.2364 22.6137 10.9287 22.4953 10.7461 22.1961L10.6767 22.0564C10.1691 20.7853 8.86986 20.0737 7.50388 19.6912C6.84029 19.5054 6.20817 19.4113 5.74021 19.3641C5.5075 19.3406 5.31793 19.3288 5.18845 19.323C5.12386 19.3202 5.07408 19.3188 5.04197 19.3182H4.99998C4.80115 19.3182 4.61034 19.239 4.4697 19.0984C4.32914 18.9579 4.25007 18.7669 4.24998 18.5682V15.9998C4.24998 15.7792 4.34724 15.57 4.5156 15.4275C4.684 15.2851 4.90648 15.224 5.124 15.2605H5.12595C5.12753 15.2608 5.13039 15.261 5.13377 15.2615C5.14054 15.2626 5.15121 15.2641 5.16502 15.2664C5.19263 15.2709 5.23412 15.2783 5.28806 15.2869C5.39624 15.3041 5.55507 15.3286 5.75584 15.3582C6.15794 15.4176 6.72764 15.4967 7.39548 15.576C8.736 15.7351 10.4525 15.8914 12 15.8914C13.8693 15.8914 15.5866 15.7347 16.8379 15.5769C17.4627 15.4981 17.9703 15.4188 18.3193 15.3602C18.4936 15.3308 18.6283 15.3066 18.7187 15.2898C18.7639 15.2814 18.7979 15.2746 18.8203 15.2703C18.8312 15.2682 18.8395 15.2674 18.8447 15.2664C18.8473 15.2659 18.8495 15.2647 18.8506 15.2644L18.9345 15.2527ZM5.74998 17.8592C5.7952 17.8632 5.84215 17.867 5.8906 17.8719C6.41726 17.925 7.13877 18.0314 7.90818 18.2469C9.34088 18.6481 11.1261 19.4823 11.958 21.2459C11.9731 21.2467 11.9888 21.2498 12.0049 21.2498C12.0203 21.2498 12.0352 21.2466 12.0498 21.2459C12.8776 19.482 14.6615 18.648 16.0928 18.2469C16.8617 18.0314 17.5828 17.925 18.1094 17.8719C18.1578 17.867 18.2048 17.8632 18.25 17.8592V16.8894C17.9188 16.9418 17.5058 17.0048 17.0263 17.0652C15.7324 17.2284 13.9494 17.3914 12 17.3914C10.3664 17.3914 8.58296 17.2271 7.21873 17.0652C6.6445 16.9971 6.14132 16.9271 5.74998 16.8709V17.8592Z" fill="#464A4D"/>
<path d="M13.333 9.2498V10.7498H10.667V9.2498H13.333Z" fill="#464A4D"/>
<path d="M6.00098 4.5828C6.63916 4.5828 7.29113 4.82238 7.87402 5.14921C8.46693 5.4817 9.04704 5.93745 9.55566 6.44608C10.0641 6.95459 10.5192 7.53403 10.8516 8.12674C11.1784 8.70964 11.418 9.36161 11.418 9.99979V10.7498H11.1992C11.137 10.8605 11.068 10.9621 10.999 11.0515C10.775 11.342 10.47 11.6227 10.1162 11.867C9.41024 12.3545 8.43137 12.7498 7.33398 12.7498C6.31642 12.7498 5.31058 12.5236 4.53809 11.9646C3.73349 11.3823 3.25098 10.4857 3.25098 9.3328C3.25098 8.2521 3.63475 7.12887 4.09082 6.28592C4.32084 5.86087 4.58659 5.47473 4.8623 5.18339C4.9998 5.03809 5.15535 4.89944 5.32617 4.79276C5.48933 4.69087 5.723 4.5828 6.00098 4.5828ZM4.75098 9.3328C4.75098 10.0207 5.01526 10.4579 5.41699 10.7488C5.85094 11.0629 6.51174 11.2498 7.33398 11.2498C8.07645 11.2498 8.76415 10.9783 9.26465 10.6326C9.51396 10.4604 9.69813 10.2826 9.81152 10.1355C9.88401 10.0415 9.90845 9.98542 9.91602 9.96757C9.90774 9.68808 9.79454 9.30819 9.54395 8.86112C9.28905 8.40651 8.92203 7.93451 8.49414 7.50663C8.06626 7.07874 7.59426 6.71269 7.13965 6.4578C6.72239 6.22386 6.36406 6.1079 6.09082 6.08671C6.05825 6.11136 6.01142 6.15201 5.95215 6.21464C5.79033 6.38563 5.59675 6.65498 5.41016 6.99979C5.03323 7.69647 4.75098 8.57289 4.75098 9.3328Z" fill="#464A4D"/>
<path d="M7.39939 1.55058C7.62677 1.24582 8.05264 1.15659 8.38572 1.35624C8.71869 1.55605 8.84132 1.97411 8.67966 2.31816L8.64353 2.38554L6.64353 5.71855C6.43047 6.07362 5.96937 6.18923 5.61423 5.97636C5.25917 5.7633 5.14356 5.3022 5.35642 4.94706L7.35642 1.61406L7.39939 1.55058Z" fill="#464A4D"/>
<path d="M19.249 9.3328C19.249 8.57289 18.9667 7.69647 18.5898 6.99979C18.4032 6.65498 18.2096 6.38563 18.0478 6.21464C17.9881 6.15161 17.9407 6.11131 17.9081 6.08671C17.635 6.1081 17.2771 6.22414 16.8603 6.4578C16.4057 6.71269 15.9337 7.07874 15.5058 7.50663C15.0779 7.93451 14.7119 8.40651 14.457 8.86112C14.2062 9.30839 14.0912 9.68799 14.083 9.96757C14.0903 9.98502 14.1154 10.0409 14.1884 10.1355C14.3018 10.2826 14.486 10.4604 14.7353 10.6326C15.2358 10.9783 15.9235 11.2498 16.666 11.2498C17.4882 11.2498 18.149 11.0629 18.583 10.7488C18.9847 10.4579 19.249 10.0207 19.249 9.3328ZM20.749 9.3328C20.749 10.4857 20.2665 11.3823 19.4619 11.9646C18.6894 12.5236 17.6835 12.7498 16.666 12.7498C15.5686 12.7498 14.5897 12.3545 13.8837 11.867C13.53 11.6227 13.2249 11.342 13.0009 11.0515C12.932 10.9621 12.863 10.8605 12.8007 10.7498H12.582V9.99979C12.582 9.36161 12.8216 8.70964 13.1484 8.12674C13.4809 7.53384 13.9366 6.95471 14.4453 6.44608C14.9539 5.93745 15.533 5.4817 16.1259 5.14921C16.7088 4.82239 17.3608 4.5828 17.999 4.5828L18.1015 4.58768C18.3345 4.60988 18.5311 4.70366 18.6738 4.79276C18.8446 4.89944 19.0001 5.03809 19.1376 5.18339C19.4134 5.47473 19.6791 5.86086 19.9091 6.28592C20.3652 7.12887 20.749 8.25209 20.749 9.3328Z" fill="#464A4D"/>
<path d="M15.6142 1.35624C15.9473 1.15659 16.3732 1.24582 16.6006 1.55058L16.6435 1.61406L18.6435 4.94706L18.6797 5.01445C18.8413 5.3585 18.7187 5.77656 18.3857 5.97636C18.0526 6.17601 17.6268 6.08678 17.3994 5.78203L17.3564 5.71855L15.3564 2.38554L15.3203 2.31816C15.1586 1.97411 15.2813 1.55605 15.6142 1.35624Z" fill="#464A4D"/>
</svg>
