<svg width="24" height="24" viewBox="0 0 24 24" fill="none" xmlns="http://www.w3.org/2000/svg">
<path d="M18.803 15.0201C18.772 15.0271 15.666 15.6421 12 15.6421C8.942 15.6421 5.203 15.0211 5.166 15.0141C4.875 14.9671 4.58 15.0471 4.354 15.2371C4.129 15.4271 4 15.7071 4 16.0011V18.5691C4 19.1201 4.447 19.5671 4.999 19.5691C5.043 19.5691 9.432 19.6131 10.445 22.1511C10.661 22.6911 11.23 23.0011 12.005 23.0011H12.007C12.781 23.0011 13.349 22.6901 13.566 22.1481C14.571 19.6131 18.958 19.5691 19.003 19.5691C19.554 19.5671 20.001 19.1201 20.001 18.5691V16.0011C20.001 15.7011 19.866 15.4171 19.635 15.2281C19.402 15.0391 19.097 14.9641 18.804 15.0211L18.803 15.0201Z" fill="black"/>
<path d="M7.334 13.0001C9.068 13.0001 10.654 12.0401 11.326 11.0001H12.674C13.346 12.0401 14.931 13.0001 16.666 13.0001C19.298 13.0001 20.999 11.5611 20.999 9.33309C20.999 7.56709 19.92 5.22509 18.688 4.53709L16.857 1.48609C16.573 1.01209 15.959 0.858088 15.485 1.14309C15.011 1.42709 14.858 2.04109 15.142 2.51509L16.458 4.70709C15.476 5.15109 14.658 5.87909 14.268 6.26909C13.808 6.72909 12.877 7.78109 12.502 9.00009H11.496C10.962 7.31409 9.242 5.48509 7.538 4.71409L8.858 2.51509C9.142 2.04109 8.989 1.42709 8.515 1.14309C8.041 0.857088 7.426 1.01209 7.143 1.48609L5.312 4.53709C4.08 5.22509 3.001 7.56709 3.001 9.33309C3.001 11.5611 4.702 13.0001 7.334 13.0001ZM14.332 9.97409C14.332 9.98209 14.332 9.99109 14.332 10.0001V9.97409Z" fill="black"/>
</svg>
