<svg width="24" height="24" viewBox="0 0 24 24" fill="none" xmlns="http://www.w3.org/2000/svg">
<path d="M21 13H3V15H21V13Z" fill="black"/>
<path d="M21 17H3V19H21V17Z" fill="black"/>
<path d="M21 9H13V11H21V9Z" fill="black"/>
<path d="M21 5H13V7H21V5Z" fill="black"/>
<path d="M5 11C6.103 11 7 10.103 7 8.99998C7 7.98998 6.247 7.15198 5.272 7.01898C5.69 6.29398 6.442 5.89698 6.453 5.89198L6 4.99998L5.553 4.10498C5.449 4.15698 3 5.41098 3 7.99998V8.99998C3 10.103 3.897 11 5 11Z" fill="black"/>
<path d="M10 11C11.103 11 12 10.103 12 8.99998C12 7.98998 11.247 7.15198 10.272 7.01898C10.69 6.29398 11.442 5.89698 11.453 5.89198L11 4.99998L10.553 4.10498C10.449 4.15698 8 5.41098 8 7.99998V8.99998C8 10.103 8.897 11 10 11Z" fill="black"/>
</svg>
