<svg width="24" height="24" viewBox="0 0 24 24" fill="none" xmlns="http://www.w3.org/2000/svg">
<path fill-rule="evenodd" clip-rule="evenodd" d="M21 14.7499H3V13.2499H21V14.7499Z" fill="black"/>
<path fill-rule="evenodd" clip-rule="evenodd" d="M3 17.2499H21V18.7499H3V17.2499Z" fill="black"/>
<path fill-rule="evenodd" clip-rule="evenodd" d="M21 10.7499H13V9.2499H21V10.7499Z" fill="black"/>
<path fill-rule="evenodd" clip-rule="evenodd" d="M13 5.2499H21V6.7499H13V5.2499Z" fill="black"/>
<path fill-rule="evenodd" clip-rule="evenodd" d="M5.66404 4.32935C5.66432 4.32921 5.66459 4.32908 6 4.9999C6.33541 5.67072 6.33566 5.67059 6.33591 5.67047L6.33715 5.66984L6.3382 5.66931L6.33048 5.67338C6.32193 5.67794 6.30684 5.68614 6.28617 5.69795C6.24471 5.72164 6.1814 5.75952 6.10353 5.81143C5.94652 5.91611 5.73742 6.07313 5.53033 6.28023C5.26777 6.54278 5.02735 6.86533 4.88474 7.2499H5C5.96621 7.2499 6.75 8.03368 6.75 8.9999C6.75 9.96611 5.96621 10.7499 5 10.7499C4.03379 10.7499 3.25 9.96611 3.25 8.9999V7.9999C3.25 6.73083 3.88792 5.80131 4.46967 5.21957C4.76258 4.92666 5.05348 4.70869 5.27147 4.56336C5.3811 4.49027 5.47404 4.4344 5.54196 4.39559C5.57597 4.37615 5.60386 4.36091 5.6246 4.34985L5.65028 4.33636L5.6589 4.33194L5.66212 4.33032L5.66404 4.32935ZM4.75 8.7499V8.9999C4.75 9.13768 4.86221 9.2499 5 9.2499C5.13779 9.2499 5.25 9.13768 5.25 8.9999C5.25 8.86211 5.13779 8.7499 5 8.7499H4.75ZM6.3382 5.66931C6.33863 5.66909 6.33867 5.66908 6.3382 5.66931V5.66931Z" fill="black"/>
<path fill-rule="evenodd" clip-rule="evenodd" d="M10.664 4.32935C10.6643 4.32921 10.6646 4.32908 11 4.9999C11.3354 5.67072 11.3357 5.67059 11.3359 5.67047L11.3372 5.66984L11.3382 5.66931L11.3305 5.67338C11.3219 5.67794 11.3068 5.68614 11.2862 5.69795C11.2447 5.72164 11.1814 5.75952 11.1035 5.81143C10.9465 5.91611 10.7374 6.07313 10.5303 6.28023C10.2678 6.54278 10.0274 6.86533 9.88474 7.2499H10C10.9662 7.2499 11.75 8.03368 11.75 8.9999C11.75 9.96611 10.9662 10.7499 10 10.7499C9.03379 10.7499 8.25 9.96611 8.25 8.9999V7.9999C8.25 6.73083 8.88792 5.80131 9.46967 5.21957C9.76258 4.92666 10.0535 4.70869 10.2715 4.56336C10.3811 4.49027 10.474 4.4344 10.542 4.39559C10.576 4.37615 10.6039 4.36091 10.6246 4.34985L10.6503 4.33636L10.6589 4.33194L10.6621 4.33032L10.664 4.32935ZM9.75 8.7499V8.9999C9.75 9.13768 9.86221 9.2499 10 9.2499C10.1378 9.2499 10.25 9.13768 10.25 8.9999C10.25 8.86211 10.1378 8.7499 10 8.7499H9.75ZM11.3382 5.66931C11.3386 5.66909 11.3387 5.66908 11.3382 5.66931V5.66931Z" fill="black"/>
</svg>
