<svg width="24" height="24" viewBox="0 0 24 24" fill="none" xmlns="http://www.w3.org/2000/svg">
<path fill-rule="evenodd" clip-rule="evenodd" d="M11.6751 1.32403C11.935 1.19914 12.2434 1.23425 12.4685 1.41436L18.7185 6.41436C18.8964 6.55668 19 6.77217 19 7.00001C19 7.22784 18.8964 7.44333 18.7185 7.58566L13.2006 12L18.7185 16.4144C18.8964 16.5567 19 16.7722 19 17C19 17.2278 18.8964 17.4433 18.7185 17.5857L12.4685 22.5857C12.2434 22.7658 11.935 22.8009 11.6751 22.676C11.4153 22.5511 11.25 22.2883 11.25 22V13.5605L6.21854 17.5857L5.28149 16.4144L10.7994 12L5.28149 7.58566L6.21854 6.41436L11.25 10.4395V2.00001C11.25 1.7117 11.4153 1.44892 11.6751 1.32403ZM12.75 13.5605L17.0494 17L12.75 20.4395V13.5605ZM12.75 10.4395V3.56048L17.0494 7.00001L12.75 10.4395Z" fill="#464A4D"/>
</svg>
