<svg width="24" height="24" viewBox="0 0 24 24" fill="none" xmlns="http://www.w3.org/2000/svg">
<path d="M12 23C11.9 23 11.7 23 11.6 23C11.3 22.8 11 22.5 11 22.1V14.2L6.4 17.9L5.2 16.3L10.5 12.1L5.2 7.89998L6.4 6.29998L11 9.99998V1.99998C11 1.59998 11.2 1.29998 11.6 1.09998C11.9 0.899984 12.4 0.999984 12.7 1.19998L19 6.19998C19.2 6.39998 19.4 6.69998 19.4 6.99998C19.4 7.29998 19.3 7.59998 19 7.79998L13.7 12L19 16.2C19.2 16.4 19.4 16.7 19.4 17C19.4 17.3 19.3 17.6 19 17.8L12.7 22.8C12.5 22.9 12.3 23 12.1 23H12ZM13 14.1V19.9L16.6 17L13 14.1ZM13 4.09998V9.89998L16.6 6.99998L13 4.09998Z" fill="black"/>
</svg>
