<svg width="24" height="24" viewBox="0 0 24 24" fill="none" xmlns="http://www.w3.org/2000/svg">
<path d="M21.7 5.70005L20.3 4.30005L19 5.60005L17.7 4.30005L16.3 5.70005L17.6 7.00005L16.3 8.30005L17.7 9.70005L19 8.40005L20.3 9.70005L21.7 8.30005L20.4 7.00005L21.7 5.70005Z" fill="#464A4D"/>
<path d="M13.5 11.9999L15.7 9.8999L14.3 8.4999L13 9.6999V4.3999L14.3 5.5999L15.7 4.1999L12.7 1.2999C12.4 0.999901 12 0.899901 11.6 1.0999C11.2 1.2999 11 1.5999 11 1.9999V9.6999L7.4 6.2999L6 7.6999L10.5 11.9999L6 16.2999L7.4 17.6999L11 14.2999V21.9999C11 22.3999 11.2 22.7999 11.6 22.8999C11.7 22.8999 11.9 22.8999 12 22.8999C12.3 22.8999 12.5 22.8999 12.7 22.5999L17.9 17.5999C18.1 17.3999 18.2 17.0999 18.2 16.8999C18.2 16.6999 18.1 16.3999 17.9 16.1999L13.4 11.8999L13.5 11.9999ZM13 14.3999L15.8 17.0999L13 19.7999V14.3999Z" fill="#464A4D"/>
</svg>
