<svg width="24" height="24" viewBox="0 0 24 24" fill="none" xmlns="http://www.w3.org/2000/svg">
<path d="M21.53 5.52993L20.47 4.46993L19 5.93993L17.53 4.46993L16.47 5.52993L17.94 6.99993L16.47 8.46993L17.53 9.52993L19 8.05993L20.47 9.52993L21.53 8.46993L20.06 6.99993L21.53 5.52993Z" fill="#464A4D"/>
<path d="M13.09 11.9999L15.52 9.68993L14.48 8.59993L12.75 10.2499V3.74993L14.48 5.39993L15.52 4.30993L12.52 1.44993C12.3 1.23993 11.98 1.17993 11.71 1.29993C11.43 1.41993 11.26 1.68993 11.26 1.98993V10.2399L7.28 6.44993L6.25 7.53993L10.93 11.9999L6.25 16.4599L7.28 17.5499L11.26 13.7599V22.0099C11.26 22.3099 11.44 22.5799 11.71 22.6999C11.81 22.7399 11.91 22.7599 12.01 22.7599C12.2 22.7599 12.39 22.6899 12.53 22.5499L17.78 17.5499C17.93 17.4099 18.01 17.2099 18.01 17.0099C18.01 16.8099 17.93 16.6099 17.78 16.4699L13.1 12.0099L13.09 11.9999ZM12.75 20.2499V13.7499L16.16 16.9999L12.75 20.2499Z" fill="#464A4D"/>
</svg>
