<svg width="24" height="24" viewBox="0 0 24 24" fill="none" xmlns="http://www.w3.org/2000/svg">
<path d="M17.553 12.542C17.203 12.142 16.777 11.837 16.316 11.588C16.329 11.575 16.346 11.566 16.359 11.553C17.325 10.709 17.901 9.38098 17.901 8.00098C17.901 6.70198 17.371 5.45698 16.454 4.54298C15.584 3.54898 14.322 3.00098 12.901 3.00098H5.00098V21.001H14.001C15.3 21.001 16.545 20.471 17.46 19.553C18.425 18.708 19.001 17.38 19.001 16.001C19.001 14.837 18.486 13.609 17.554 12.543L17.553 12.542ZM6.99998 4.99998H12.9C13.491 4.99998 14.326 5.14898 14.993 5.90698C15.578 6.49198 15.9 7.23498 15.9 7.99998C15.9 8.79898 15.571 9.58398 14.993 10.093C14.408 10.678 13.665 11 12.9 11H6.99998V4.99998ZM16.093 18.093C15.508 18.678 14.765 19 14 19H6.99998V13H14C14.591 13 15.427 13.149 16.048 13.859C16.652 14.55 17 15.331 17 16C17 16.799 16.671 17.584 16.093 18.093Z" fill="#464A4D"/>
</svg>
