<svg width="24" height="24" viewBox="0 0 24 24" fill="none" xmlns="http://www.w3.org/2000/svg">
<path fill-rule="evenodd" clip-rule="evenodd" d="M5.25 3.25H12.9C14.1769 3.25 15.3871 3.71531 16.2478 4.68719C17.1725 5.62064 17.65 6.80233 17.65 8C17.65 9.16684 17.1917 10.4796 16.2129 11.3477C15.2795 12.2725 14.0977 12.75 12.9 12.75H5.25V3.25ZM6.75 4.75V11.25H12.9C13.6948 11.25 14.5058 10.9335 15.1697 10.2697L15.1873 10.252L15.2061 10.2356C15.8143 9.70342 16.15 8.82561 16.15 8C16.15 7.20517 15.8335 6.39417 15.1697 5.73033L15.152 5.71267L15.1356 5.69388C14.5972 5.07864 13.8148 4.75 12.9 4.75H6.75Z" fill="black"/>
<path fill-rule="evenodd" clip-rule="evenodd" d="M14 12.75H12.9V11.25H14C15.2852 11.25 16.5028 11.7214 17.3644 12.7061C18.1375 13.5896 18.75 14.7583 18.75 16C18.75 17.1668 18.2917 18.4796 17.3129 19.3477C16.3795 20.2725 15.1977 20.75 14 20.75H5.25V12H6.75V19.25H14C14.7948 19.25 15.6058 18.9335 16.2697 18.2697L16.2873 18.252L16.3061 18.2356C16.9143 17.7034 17.25 16.8256 17.25 16C17.25 15.2417 16.8625 14.4104 16.2356 13.6939C15.6972 13.0786 14.9148 12.75 14 12.75Z" fill="black"/>
</svg>
