<svg width="24" height="24" viewBox="0 0 24 24" fill="none" xmlns="http://www.w3.org/2000/svg">
<path d="M12.6504 3C13.9272 3.00009 15.1375 3.46573 15.998 4.4375C16.9226 5.37091 17.4004 6.55246 17.4004 7.75C17.4004 8.84383 16.9973 10.0659 16.1406 10.9297L15.7852 11.2656C15.74 11.3063 15.6936 11.3451 15.6475 11.3838C16.1978 11.6246 16.6977 11.98 17.1143 12.4561C17.8873 13.3396 18.5 14.5083 18.5 15.75C18.5 16.8439 18.097 18.0659 17.2402 18.9297L16.8848 19.2656C15.9814 20.0801 14.8728 20.5 13.75 20.5H5V3H12.6504ZM6.5 12.5V19H13.75C14.5448 19 15.3557 18.6834 16.0195 18.0195L16.0371 18.002L16.0557 17.9854C16.6638 17.4532 17 16.5756 17 15.75C17 14.9918 16.6122 14.1608 15.9854 13.4443C15.447 12.8291 14.6648 12.5 13.75 12.5H6.5ZM6.5 11H12.6504C13.4451 10.9999 14.2562 10.6833 14.9199 10.0195L14.9375 10.002L14.9561 9.98535C15.5642 9.4532 15.9004 8.57558 15.9004 7.75C15.9004 6.95525 15.5836 6.14427 14.9199 5.48047L14.9023 5.46289L14.8857 5.44434C14.3475 4.82919 13.565 4.50009 12.6504 4.5H6.5V11Z" fill="#464A4D"/>
</svg>
