<svg width="24" height="24" viewBox="0 0 24 24" fill="none" xmlns="http://www.w3.org/2000/svg">
<path d="M6.3 1.8999C5.494 1.8999 4.651 2.2559 4.032 2.8549C3.366 3.4099 3 4.2399 3 5.1999V18.6999C3 18.7169 3.005 18.7329 3.005 18.7499C3.005 18.7669 3 18.7829 3 18.7999H3.011C3.039 19.5759 3.381 20.3759 3.956 20.9689C4.511 21.6349 5.341 21.9999 6.3 21.9999H21V1.8999H6.3ZM8 6.9999H16V8.9999H8V6.9999ZM19 19.9999H6.3C6.045 19.9999 5.696 19.9429 5.481 19.6749L5.406 19.5919C5.176 19.3629 5.023 19.0319 5.006 18.7499C5.023 18.4679 5.176 18.1369 5.406 17.9079L5.481 17.8249C5.696 17.5559 6.045 17.4999 6.3 17.4999H19V19.9999Z" fill="#464A4D"/>
</svg>
