<svg width="24" height="24" viewBox="0 0 24 24" fill="none" xmlns="http://www.w3.org/2000/svg">
<path d="M19 2.25C19.9665 2.25 20.75 3.0335 20.75 4V20C20.75 20.9665 19.9665 21.75 19 21.75H5C4.0335 21.75 3.25 20.9665 3.25 20V4C3.25 3.0335 4.0335 2.25 5 2.25H19ZM4.75 20C4.75 20.1381 4.86193 20.25 5 20.25H13.25V17H14.75V20.25H16.25V17H17.75V20.25H19C19.1381 20.25 19.25 20.1381 19.25 20V15.75H4.75V20ZM4.75 9.75V14.25H7.25V11H8.75V14.25H10.25V11H11.75V14.25H19.25V9.75H4.75ZM5 3.75C4.86193 3.75 4.75 3.86193 4.75 4V8.25H15.25V5H16.75V8.25H19.25V4C19.25 3.86193 19.1381 3.75 19 3.75H5Z" fill="black"/>
</svg>
