<svg width="24" height="24" viewBox="0 0 24 24" fill="none" xmlns="http://www.w3.org/2000/svg">
<path fill-rule="evenodd" clip-rule="evenodd" d="M6.3 3.6499C5.93413 3.6499 5.5167 3.84386 5.23033 4.13023L5.20096 4.1596L5.16852 4.18555C4.89492 4.40443 4.75 4.75742 4.75 5.1999V18.6999C4.75 19.0658 4.94396 19.4832 5.23033 19.7696L5.2597 19.7989L5.28565 19.8314C5.50453 20.105 5.85752 20.2499 6.3 20.2499H19.25V3.6499H6.3ZM4.19883 3.04081C4.71265 2.54087 5.48151 2.1499 6.3 2.1499H20.75V21.7499H6.3C5.55395 21.7499 4.72108 21.5025 4.14091 20.8011C3.64097 20.2873 3.25 19.5184 3.25 18.6999V5.1999C3.25 4.45385 3.49742 3.62098 4.19883 3.04081Z" fill="#464A4D"/>
<path fill-rule="evenodd" clip-rule="evenodd" d="M4.14091 16.6988C4.72108 15.9974 5.55394 15.75 6.3 15.75H20V17.25H6.3C5.85752 17.25 5.50453 17.3949 5.28565 17.6685L5.2597 17.701L5.23033 17.7303C4.94396 18.0167 4.75 18.4341 4.75 18.8H3.25C3.25 17.9815 3.64097 17.2126 4.14091 16.6988Z" fill="#464A4D"/>
<path fill-rule="evenodd" clip-rule="evenodd" d="M16 8.75H8V7.25H16V8.75Z" fill="#464A4D"/>
</svg>
