<svg width="24" height="24" viewBox="0 0 24 24" fill="none" xmlns="http://www.w3.org/2000/svg">
<path d="M11 4.25C11.3989 4.25 11.7281 4.56255 11.749 4.96094V4.96875C11.7494 4.97505 11.7502 4.98515 11.751 4.99805C11.7525 5.0241 11.7554 5.0633 11.7588 5.11328C11.7655 5.21369 11.7759 5.35875 11.791 5.5332C11.8214 5.88362 11.8698 6.3483 11.9414 6.81445C12.0142 7.28808 12.1061 7.7308 12.2158 8.05176C12.2589 8.17781 12.2997 8.26302 12.3291 8.31641L17.04 9.77832C17.0486 9.78148 17.0579 9.78265 17.0664 9.78613L18.1279 10.1162C20.2531 10.6353 21.75 12.5416 21.75 14.7305V15.25H22C22.4142 15.25 22.75 15.5858 22.75 16V19C22.75 19.4142 22.4142 19.75 22 19.75H2C1.58579 19.75 1.25 19.4142 1.25 19V16C1.25 15.5858 1.58579 15.25 2 15.25H2.25V5C2.25 4.58579 2.58579 4.25 3 4.25H11ZM2.75 18.25H21.25V16.75H2.75V18.25ZM3.75 15.25H20.25V14.7305C20.25 13.2275 19.2181 11.9187 17.7559 11.5693C17.7398 11.5655 17.7237 11.5615 17.708 11.5566L16.8955 11.3037L14.916 12.624C14.5715 12.8535 14.1058 12.7603 13.876 12.416C13.6465 12.0715 13.7396 11.6057 14.084 11.376L15.0498 10.7314L13.1416 10.1396L10.916 11.624C10.5715 11.8536 10.1058 11.7604 9.87598 11.416C9.64643 11.0714 9.73953 10.6057 10.084 10.376L11.3877 9.50586C11.2619 9.40335 11.1688 9.28734 11.1045 9.19141C10.9709 8.99212 10.8725 8.75839 10.7969 8.53711C10.6442 8.09044 10.5362 7.54519 10.459 7.04297C10.3866 6.57197 10.3381 6.10924 10.3057 5.75H3.75V15.25Z" fill="black"/>
</svg>
