<svg width="24" height="24" viewBox="0 0 24 24" fill="none" xmlns="http://www.w3.org/2000/svg">
<path d="M22 15V14.73C22 12.41 20.42 10.41 18.23 9.88L12.51 8.11C12.3 7.64 12.08 6.25 12.01 4.95C11.98 4.42 11.54 4 11.01 4H3C2.45 4 2 4.45 2 5V15C1.45 15 1 15.45 1 16V19C1 19.55 1.45 20 2 20H22C22.55 20 23 19.55 23 19V16C23 15.45 22.55 15 22 15ZM4 6H10.07C10.25 8.03 10.63 9 10.99 9.48L9.95 10.17C9.49 10.48 9.37 11.1 9.67 11.56C9.86 11.85 10.18 12.01 10.5 12.01C10.69 12.01 10.88 11.96 11.05 11.84L13.18 10.42L14.47 10.82L13.94 11.17C13.48 11.48 13.36 12.1 13.66 12.56C13.85 12.85 14.17 13.01 14.49 13.01C14.68 13.01 14.87 12.96 15.04 12.84L16.92 11.58L17.68 11.82C19.04 12.14 19.98 13.34 19.98 14.74V15.01H4V6Z" fill="black"/>
</svg>
