<svg width="24" height="24" viewBox="0 0 24 24" fill="none" xmlns="http://www.w3.org/2000/svg">
<path fill-rule="evenodd" clip-rule="evenodd" d="M20.101 6.75C17.1343 6.75 14.75 9.11203 14.75 12C14.75 14.8879 17.1342 17.25 20.102 17.25H20.25V6.75H20.101ZM13.25 12C13.25 8.25997 16.3297 5.25 20.101 5.25H21.75V18.75H20.102C16.3298 18.75 13.25 15.7401 13.25 12Z" fill="black"/>
<path fill-rule="evenodd" clip-rule="evenodd" d="M2.25 5.25H3.899C7.6703 5.25 10.75 8.25997 10.75 12C10.75 15.74 7.67138 18.75 3.899 18.75H2.25V5.25ZM3.75 6.75V17.25H3.899C6.86662 17.25 9.25 14.888 9.25 12C9.25 9.11203 6.8657 6.75 3.899 6.75H3.75Z" fill="black"/>
</svg>
