<svg width="24" height="24" viewBox="0 0 24 24" fill="none" xmlns="http://www.w3.org/2000/svg">
<path d="M18 2.25C18.9665 2.25 19.75 3.0335 19.75 4V20C19.75 20.9665 18.9665 21.75 18 21.75H17.75V23H16.25V21.75H7.75V23H6.25V21.75H6C5.0335 21.75 4.25 20.9665 4.25 20V4C4.25 3.0335 5.0335 2.25 6 2.25H18ZM5.75 20C5.75 20.1381 5.86193 20.25 6 20.25H6.25V20H7.75V20.25H16.25V20H17.75V20.25H18C18.1381 20.25 18.25 20.1381 18.25 20V15.75H5.75V20ZM13 18.75H11V17.25H13V18.75ZM5.75 9.75V14.25H18.25V9.75H5.75ZM13 12.75H11V11.25H13V12.75ZM6 3.75C5.86193 3.75 5.75 3.86193 5.75 4V8.25H18.25V4C18.25 3.86193 18.1381 3.75 18 3.75H6ZM13 6.75H11V5.25H13V6.75Z" fill="black"/>
</svg>
