<svg width="24" height="24" viewBox="0 0 24 24" fill="none" xmlns="http://www.w3.org/2000/svg">
<path d="M20 6H17.535L16.426 4.336C15.868 3.5 14.935 3 13.93 3H10.071C9.066 3 8.133 3.5 7.575 4.336L6.466 6H4.001C2.347 6 1.001 7.346 1.001 9V16C1.001 17.654 2.347 19 4.001 19H20.001C21.655 19 23.001 17.654 23.001 16V9C23.001 7.346 21.654 6 20 6ZM12 16C9.794 16 8 14.206 8 12C8 9.794 9.794 8 12 8C14.206 8 16 9.794 16 12C16 14.206 14.206 16 12 16Z" fill="black"/>
<path d="M12 14C13.1046 14 14 13.1046 14 12C14 10.8954 13.1046 10 12 10C10.8954 10 10 10.8954 10 12C10 13.1046 10.8954 14 12 14Z" fill="black"/>
</svg>
