<svg width="24" height="24" viewBox="0 0 24 24" fill="none" xmlns="http://www.w3.org/2000/svg">
<path fill-rule="evenodd" clip-rule="evenodd" d="M7.78543 5.47477C8.29575 4.70369 9.15128 4.25 10.07 4.25H13.93C14.8367 4.25 15.7031 4.70199 16.2146 5.47477L16.2158 5.47656L17.4009 7.25H20C21.5142 7.25 22.75 8.48579 22.75 10V17C22.75 18.5142 21.5142 19.75 20 19.75H4C2.48579 19.75 1.25 18.5142 1.25 17V10C1.25 8.48579 2.48579 7.25 4 7.25H6.59914L7.78543 5.47477ZM10.07 5.75C9.64943 5.75 9.26557 5.95561 9.03575 6.30344L9.03359 6.30671L7.40086 8.75H4C3.31421 8.75 2.75 9.31421 2.75 10V17C2.75 17.6858 3.31421 18.25 4 18.25H20C20.6858 18.25 21.25 17.6858 21.25 17V10C21.25 9.31421 20.6858 8.75 20 8.75H16.5991L14.9642 6.30345C14.7356 5.95732 14.3426 5.75 13.93 5.75H10.07Z" fill="black"/>
<path fill-rule="evenodd" clip-rule="evenodd" d="M12 10.75C10.7574 10.75 9.75 11.7574 9.75 13C9.75 14.2426 10.7574 15.25 12 15.25C13.2426 15.25 14.25 14.2426 14.25 13C14.25 11.7574 13.2426 10.75 12 10.75ZM8.25 13C8.25 10.9289 9.92893 9.25 12 9.25C14.0711 9.25 15.75 10.9289 15.75 13C15.75 15.0711 14.0711 16.75 12 16.75C9.92893 16.75 8.25 15.0711 8.25 13Z" fill="black"/>
</svg>
