<svg width="24" height="24" viewBox="0 0 24 24" fill="none" xmlns="http://www.w3.org/2000/svg">
<path d="M20 6H17.535L16.426 4.336C15.868 3.5 14.935 3 13.93 3H10.071C9.06598 3 8.13298 3.5 7.57498 4.336L6.46598 6H4.00098C2.34698 6 1.00098 7.346 1.00098 9V16C1.00098 17.654 2.34698 19 4.00098 19H20.001C21.655 19 23.001 17.654 23.001 16V9C23.001 7.346 21.654 6 20 6ZM12 16C9.79398 16 7.99998 14.206 7.99998 12C7.99998 9.794 9.79398 8 12 8C14.206 8 16 9.794 16 12C16 14.206 14.206 16 12 16Z" fill="#464A4D"/>
<path d="M12 14C13.1045 14 14 13.1046 14 12C14 10.8954 13.1045 10 12 10C10.8954 10 9.99998 10.8954 9.99998 12C9.99998 13.1046 10.8954 14 12 14Z" fill="#464A4D"/>
</svg>
