<svg width="24" height="24" viewBox="0 0 24 24" fill="none" xmlns="http://www.w3.org/2000/svg">
<path d="M22.958 8.34816C22.853 7.99616 22.562 7.73116 22.203 7.65616L20.11 7.22116L19.677 5.11716C19.597 4.72616 19.291 4.42116 18.901 4.34016L16.786 3.90016L16.274 1.76816C16.189 1.41516 15.92 1.13716 15.572 1.03916C15.22 0.941157 14.847 1.04016 14.593 1.29616L11.489 4.41516C11.469 4.43516 11.462 4.46116 11.445 4.48216C10.37 4.44116 9.283 4.81916 8.464 5.63716L5.636 8.46616C4.88 9.22116 4.464 10.2262 4.464 11.2942C4.464 11.3582 4.48 11.4202 4.483 11.4842C4.47 11.4962 4.453 11.5002 4.44 11.5132L1.293 14.6602C1.033 14.9202 0.936998 15.3022 1.042 15.6532C1.147 16.0062 1.437 16.2712 1.796 16.3462L3.889 16.7812L4.322 18.8852C4.403 19.2782 4.711 19.5842 5.104 19.6632L7.286 20.1012L7.719 22.2032C7.793 22.5622 8.059 22.8532 8.411 22.9592C8.506 22.9872 8.602 23.0012 8.698 23.0012C8.959 23.0012 9.215 22.8982 9.405 22.7082L12.474 19.6392C12.509 19.6042 12.524 19.5602 12.552 19.5212C12.604 19.5232 12.654 19.5362 12.707 19.5362C13.775 19.5362 14.78 19.1202 15.535 18.3642L18.364 15.5362C19.187 14.7122 19.563 13.6162 19.516 12.5342C19.529 12.5222 19.546 12.5182 19.558 12.5062L22.708 9.34116C22.967 9.08116 23.063 8.70016 22.958 8.34816ZM16.95 14.1212L14.121 16.9492C13.365 17.7052 12.049 17.7052 11.293 16.9492L7.05 12.7072C6.672 12.3292 6.464 11.8272 6.464 11.2922C6.464 10.7572 6.672 10.2562 7.05 9.87816L9.878 7.04916C10.268 6.65916 10.78 6.46516 11.293 6.46516C11.806 6.46516 12.317 6.66016 12.707 7.04916L16.95 11.2922C17.729 12.0722 17.729 13.3402 16.95 14.1212Z" fill="black"/>
</svg>
