<svg width="24" height="24" viewBox="0 0 24 24" fill="none" xmlns="http://www.w3.org/2000/svg">
<path d="M21.654 7.46487C20.774 6.50087 19.389 5.91887 17.999 5.86587C18.02 4.85387 17.801 3.59987 16.699 2.45087C15.819 1.53187 14.566 1.01687 13.171 0.999873C11.68 0.966873 10.242 1.54587 9.22801 2.55687C7.05801 4.77987 6.72101 8.39387 6.87201 11.2749H6.62501C5.02201 11.2749 3.71801 12.5449 3.71801 14.1049C3.71801 15.4169 4.52501 16.4959 5.72501 16.8749L1.29501 21.2909C0.904005 21.6809 0.903005 22.3129 1.29301 22.7049C1.48801 22.9009 1.74501 22.9989 2.00101 22.9989C2.25701 22.9989 2.51201 22.9009 2.70701 22.7069L7.12101 18.3069C7.425 19.5399 8.43101 20.2929 9.84401 20.2929C11.449 20.2929 12.755 18.9889 12.755 17.3879V16.8259C12.847 16.8259 12.934 16.8299 13.026 16.8299C15.813 16.8299 19.183 16.4019 21.252 14.6419C22.306 13.7459 22.941 12.4199 22.997 11.0069C23.051 9.63787 22.562 8.36787 21.655 7.46487H21.654ZM6.62501 13.2749H7.05501C7.169 14.1339 7.30101 14.8209 7.39201 15.2469L6.43901 15.0089C5.99401 14.9099 5.71801 14.5649 5.71801 14.1059C5.71801 13.7129 6.09101 13.2759 6.62501 13.2759V13.2749ZM10.754 17.3889C10.754 17.8249 10.406 18.2939 9.84301 18.2939C9.15401 18.2939 9.06001 17.9769 9.01401 17.5929L8.80001 16.5299C9.23201 16.5919 9.91701 16.6759 10.754 16.7399V17.3889Z" fill="black"/>
</svg>
