<svg width="24" height="24" viewBox="0 0 24 24" fill="none" xmlns="http://www.w3.org/2000/svg">
<path fill-rule="evenodd" clip-rule="evenodd" d="M10.4771 3.78362C8.90173 5.40135 8.51551 8.16713 8.59811 10.7282C8.61459 11.2392 8.64934 11.7321 8.69427 12.1933C8.69492 12.1992 8.6955 12.2051 8.69601 12.2111C8.76093 12.8724 8.84664 13.4677 8.92909 13.9557C8.98667 14.2966 9.04242 14.5838 9.08794 14.8031C9.308 14.8338 9.59511 14.8707 9.93517 14.9074C10.4492 14.9629 11.0817 15.0178 11.7847 15.0506C11.7878 15.0507 11.791 15.0509 11.7942 15.0511C12.2308 15.0713 12.6945 15.0829 13.1737 15.0809C14.4317 15.0756 15.7773 14.976 17.0143 14.6985C18.2577 14.4196 19.3387 13.9726 20.1168 13.31C21.4901 12.1406 21.6568 9.93753 20.3855 8.6702C20.3771 8.66181 20.3689 8.65323 20.3609 8.64445C19.5672 7.77428 18.1397 7.44403 17.0503 7.69492C16.8079 7.75073 16.5537 7.68276 16.3715 7.51345C16.1893 7.34414 16.1028 7.09552 16.1408 6.8497C16.3338 5.59847 16.3494 4.61652 15.4353 3.66172C14.847 3.04712 13.9594 2.72908 13.0109 2.75159C12.0645 2.77404 11.1294 3.13548 10.4771 3.78362ZM11.004 16.5077C10.5478 16.4761 10.1329 16.4375 9.77405 16.3987C9.33644 16.3514 8.98051 16.3037 8.73263 16.2676C8.63199 16.2529 8.54908 16.2401 8.48567 16.2301L8.76842 17.6429C8.77264 17.664 8.77596 17.6853 8.77835 17.7067C8.81237 18.0108 8.92083 18.1995 9.0539 18.3156C9.18811 18.4327 9.4255 18.544 9.843 18.544C10.5122 18.544 11.004 18.0008 11.004 17.389V16.5077ZM8.38788 15.9222C8.40663 15.8156 8.43245 15.6689 8.468 15.467C8.25587 15.5205 8.10561 15.5584 7.99917 15.5852C7.99915 15.5852 7.9992 15.5852 7.99917 15.5852L8.468 15.467L8.38788 15.9222C8.38789 15.9222 8.38787 15.9222 8.38788 15.9222ZM7.70872 15.5166C7.69345 15.4509 7.67333 15.362 7.64971 15.2522C7.59611 15.003 7.52433 14.6454 7.45004 14.2056C7.39168 13.8601 7.33155 13.4626 7.27745 13.026H6.625C5.93892 13.026 5.468 13.5855 5.468 14.105C5.468 14.6815 5.82309 15.1256 6.37811 15.2512L7.70872 15.5166ZM7.13535 11.526C7.11956 11.2817 7.10711 11.0314 7.09889 10.7766C7.01455 8.16143 7.36567 4.82399 9.40727 2.7322L9.41445 2.72484C10.371 1.77123 11.6898 1.28251 12.9753 1.25201C14.2605 1.22151 15.5851 1.64901 16.5187 2.62438M7.13535 11.526H6.625C5.09908 11.526 3.968 12.7686 3.968 14.105C3.968 15.3823 4.81004 16.4409 6.06116 16.7174L6.07629 16.7206L6.20753 16.7467L1.4705 21.4689C1.17715 21.7613 1.1764 22.2362 1.46884 22.5295C1.76127 22.8229 2.23614 22.8236 2.5295 22.5312L7.27103 17.8046L7.29169 17.9078C7.36403 18.4938 7.60668 19.0435 8.0676 19.4457C8.53639 19.8549 9.1535 20.044 9.843 20.044C11.3878 20.044 12.504 18.7812 12.504 17.389V16.5754C12.725 16.5799 12.9507 16.5819 13.18 16.5809C14.503 16.5753 15.9647 16.4713 17.3426 16.1622C18.7141 15.8545 20.0558 15.332 21.0892 14.4521C23.0656 12.7691 23.3898 9.56239 21.457 7.62042C20.4961 6.57618 19.0481 6.09903 17.7339 6.11476C17.8026 4.99404 17.6175 3.77201 16.5187 2.62438" fill="black"/>
</svg>
