<svg width="24" height="24" viewBox="0 0 24 24" fill="none" xmlns="http://www.w3.org/2000/svg">
<path d="M22.9581 8.34816C22.8531 7.99616 22.5621 7.73116 22.2031 7.65616L20.1101 7.22116L19.6771 5.11716C19.5971 4.72616 19.2911 4.42116 18.9011 4.34016L16.7861 3.90016L16.2741 1.76816C16.1891 1.41516 15.9201 1.13716 15.5721 1.03916C15.2201 0.941157 14.8471 1.04016 14.5931 1.29616L11.4891 4.41516C11.4691 4.43516 11.4621 4.46116 11.4451 4.48216C10.3701 4.44116 9.28307 4.81916 8.46407 5.63716L5.63607 8.46616C4.88007 9.22116 4.46407 10.2262 4.46407 11.2942C4.46407 11.3582 4.48007 11.4202 4.48307 11.4842C4.47007 11.4962 4.45307 11.5002 4.44007 11.5132L1.29307 14.6602C1.03307 14.9202 0.937067 15.3022 1.04207 15.6532C1.14707 16.0062 1.43707 16.2712 1.79607 16.3462L3.88907 16.7812L4.32207 18.8852C4.40307 19.2782 4.71107 19.5842 5.10407 19.6632L7.28607 20.1012L7.71907 22.2032C7.79307 22.5622 8.05907 22.8532 8.41107 22.9592C8.50607 22.9872 8.60207 23.0012 8.69807 23.0012C8.95907 23.0012 9.21507 22.8982 9.40507 22.7082L12.4741 19.6392C12.5091 19.6042 12.5241 19.5602 12.5521 19.5212C12.6041 19.5232 12.6541 19.5362 12.7071 19.5362C13.7751 19.5362 14.7801 19.1202 15.5351 18.3642L18.3641 15.5362C19.1871 14.7122 19.5631 13.6162 19.5161 12.5342C19.5291 12.5222 19.5461 12.5182 19.5581 12.5062L22.7081 9.34116C22.9671 9.08116 23.0631 8.70016 22.9581 8.34816ZM16.9501 14.1212L14.1211 16.9492C13.3651 17.7052 12.0491 17.7052 11.2931 16.9492L7.05007 12.7072C6.67207 12.3292 6.46407 11.8272 6.46407 11.2922C6.46407 10.7572 6.67207 10.2562 7.05007 9.87816L9.87807 7.04916C10.2681 6.65916 10.7801 6.46516 11.2931 6.46516C11.8061 6.46516 12.3171 6.66016 12.7071 7.04916L16.9501 11.2922C17.7291 12.0722 17.7291 13.3402 16.9501 14.1212Z" fill="#464A4D"/>
</svg>
