<svg width="24" height="24" viewBox="0 0 24 24" fill="none" xmlns="http://www.w3.org/2000/svg">
<path d="M20.007 3.99299C17.441 1.42499 13.529 0.790985 10.307 2.35599C9.19501 1.86999 7.76401 2.08099 6.93401 2.93299C6.00101 3.86599 5.80501 5.26099 6.34001 6.33899C4.94001 9.25399 5.34001 12.724 7.33301 15.253L2.29301 20.293C1.90201 20.684 1.90201 21.316 2.29301 21.707C2.48801 21.902 2.74401 22 3.00001 22C3.25601 22 3.51201 21.902 3.70701 21.707L8.74601 16.668C10.268 17.867 12.129 18.494 14.008 18.494C15.254 18.494 16.502 18.202 17.665 17.642C18.063 17.831 18.501 17.941 18.95 17.941C19.753 17.941 20.525 17.622 21.071 17.064C21.998 16.133 22.193 14.744 21.66 13.663C23.205 10.447 22.566 6.55199 20.007 3.99299ZM19.652 15.653C19.652 15.653 19.647 15.659 19.644 15.662C19.471 15.839 19.218 15.94 18.95 15.94C18.789 15.94 18.553 15.904 18.337 15.73C18.315 15.712 18.271 15.668 18.247 15.653L8.34701 5.75299C8.32501 5.73099 8.29201 5.68199 8.26801 5.66199C7.95801 5.27899 7.99301 4.70199 8.35601 4.33799C8.52801 4.16099 8.78101 4.05999 9.04901 4.05999C9.21001 4.05999 9.44701 4.09599 9.66201 4.26899C9.68701 4.28899 9.72501 4.32999 9.75201 4.34699L19.652 14.247C19.673 14.268 19.708 14.319 19.73 14.338C20.04 14.722 20.005 15.3 19.651 15.653H19.652Z" fill="#464A4D"/>
</svg>
