<svg width="24" height="24" viewBox="0 0 24 24" fill="none" xmlns="http://www.w3.org/2000/svg">
<path d="M21.6541 7.46487C20.7741 6.50087 19.3891 5.91887 17.9991 5.86587C18.0201 4.85387 17.8011 3.59987 16.6991 2.45087C15.8191 1.53187 14.5661 1.01687 13.1711 0.999873C11.6801 0.966873 10.2421 1.54587 9.2281 2.55687C7.0581 4.77987 6.7211 8.39387 6.8721 11.2749H6.6251C5.0221 11.2749 3.7181 12.5449 3.7181 14.1049C3.7181 15.4169 4.5251 16.4959 5.7251 16.8749L1.2951 21.2909C0.904097 21.6809 0.903097 22.3129 1.2931 22.7049C1.4881 22.9009 1.7451 22.9989 2.0011 22.9989C2.2571 22.9989 2.5121 22.9009 2.7071 22.7069L7.1211 18.3069C7.4251 19.5399 8.4311 20.2929 9.8441 20.2929C11.4491 20.2929 12.7551 18.9889 12.7551 17.3879V16.8259C12.8471 16.8259 12.9341 16.8299 13.0261 16.8299C15.8131 16.8299 19.1831 16.4019 21.2521 14.6419C22.3061 13.7459 22.9411 12.4199 22.9971 11.0069C23.0511 9.63787 22.5621 8.36787 21.6551 7.46487H21.6541ZM6.6251 13.2749H7.0551C7.1691 14.1339 7.3011 14.8209 7.3921 15.2469L6.4391 15.0089C5.9941 14.9099 5.7181 14.5649 5.7181 14.1059C5.7181 13.7129 6.0911 13.2759 6.6251 13.2759V13.2749ZM10.7541 17.3889C10.7541 17.8249 10.4061 18.2939 9.8431 18.2939C9.1541 18.2939 9.0601 17.9769 9.0141 17.5929L8.8001 16.5299C9.2321 16.5919 9.9171 16.6759 10.7541 16.7399V17.3889Z" fill="#464A4D"/>
</svg>
