<svg width="24" height="24" viewBox="0 0 24 24" fill="none" xmlns="http://www.w3.org/2000/svg">
<path d="M23 8.72799C23 7.88999 21.533 7.88999 20.708 7.88999C20.341 7.88999 20.158 7.98299 19.975 8.16899C19.7 7.14399 19.333 6.21299 19.15 5.74699C18.692 4.72199 17.775 4.16299 16.675 4.06999C16.125 3.97699 7.967 3.97699 7.417 4.06999C6.225 4.25599 5.309 4.81499 4.85 5.74699C4.667 6.21299 4.392 7.14399 4.025 8.16899C3.933 7.98299 3.658 7.98299 3.292 7.98299C2.467 7.98299 1 7.88999 1 8.72799C1 9.56599 2.008 10.125 2.833 10.125H3.291L3.016 10.498C2.191 11.616 1.916 12.454 1.916 13.852V18.883C1.916 19.535 2.374 20.001 3.016 20.001H4.024C4.666 20.001 5.124 19.535 5.124 18.883V18.579H18.691V18.883C18.691 19.535 19.149 20.001 19.791 20.001H20.799C21.441 20.001 21.899 19.535 21.899 18.883V13.852C21.899 12.361 21.624 11.616 20.799 10.498L20.707 10.125H21.165C21.99 10.125 22.998 9.56599 22.998 8.72799H23ZM5.217 14.783C4.025 14.783 3.109 14.224 3.109 12.92C3.109 11.616 3.476 11.057 4.667 11.057C5.858 11.057 7.875 12.92 7.875 13.945C7.875 14.97 6.408 14.783 5.217 14.783ZM5.4 8.91399C5.583 7.98199 6.042 6.67799 6.317 6.21199C6.592 5.83899 6.775 5.65299 7.234 5.55999C7.876 5.46699 16.126 5.46699 16.767 5.55999C17.225 5.65299 17.5 5.83899 17.684 6.21199C17.959 6.67799 18.326 7.98199 18.601 8.91399C18.601 9.19299 5.4 9.19299 5.4 8.91399ZM18.508 14.783C17.316 14.783 15.941 14.969 15.941 13.945C15.941 12.921 17.958 11.057 19.149 11.057C20.34 11.057 20.707 11.616 20.707 12.92C20.707 14.224 19.7 14.783 18.508 14.783Z" fill="#464A4D"/>
</svg>
