<svg width="24" height="24" viewBox="0 0 24 24" fill="none" xmlns="http://www.w3.org/2000/svg">
<path d="M3 2.25C3.94527 2.25 4.71411 3.00024 4.74707 3.9375L4.93945 6.25H21.8379L20.6709 16.75H18.5781C19.2862 17.2474 19.75 18.0686 19.75 19C19.75 20.5192 18.5192 21.75 17 21.75C15.4808 21.75 14.25 20.5192 14.25 19C14.25 18.0686 14.7138 17.2474 15.4219 16.75H9.57812C10.2862 17.2474 10.75 18.0686 10.75 19C10.75 20.5192 9.51921 21.75 8 21.75C6.48079 21.75 5.25 20.5192 5.25 19C5.25 18.0686 5.71384 17.2474 6.42188 16.75H4.30957L3.25293 4.0625L3.25 4.03125V4C3.25 3.86221 3.13779 3.75 3 3.75H1V2.25H3ZM8 17.75C7.30921 17.75 6.75 18.3092 6.75 19C6.75 19.6908 7.30921 20.25 8 20.25C8.69079 20.25 9.25 19.6908 9.25 19C9.25 18.3092 8.69079 17.75 8 17.75ZM17 17.75C16.3092 17.75 15.75 18.3092 15.75 19C15.75 19.6908 16.3092 20.25 17 20.25C17.6908 20.25 18.25 19.6908 18.25 19C18.25 18.3092 17.6908 17.75 17 17.75ZM5.68945 15.25H19.3291L20.1621 7.75H5.06445L5.68945 15.25Z" fill="black"/>
</svg>
