<svg width="24" height="24" viewBox="0 0 24 24" fill="none" xmlns="http://www.w3.org/2000/svg">
<path d="M22.12 6H5.17L5 4C5 2.9 4.1 2 3 2H1V4L3 4.08L4.08 17H5.78C5.3 17.53 5 18.23 5 19C5 20.65 6.35 22 8 22C9.65 22 11 20.65 11 19C11 18.23 10.7 17.53 10.22 17H14.78C14.3 17.53 14 18.23 14 19C14 20.65 15.35 22 17 22C18.65 22 20 20.65 20 19C20 18.23 19.7 17.53 19.22 17H20.9L22.12 6ZM8 20C7.45 20 7 19.55 7 19C7 18.45 7.45 18 8 18C8.55 18 9 18.45 9 19C9 19.55 8.55 20 8 20ZM17 20C16.45 20 16 19.55 16 19C16 18.45 16.45 18 17 18C17.55 18 18 18.45 18 19C18 19.55 17.55 20 17 20Z" fill="black"/>
</svg>
