<svg width="24" height="24" viewBox="0 0 24 24" fill="none" xmlns="http://www.w3.org/2000/svg">
<path d="M9.5 20.75C10.3 20.75 11 20.05 11 19.25C11 18.45 10.3 17.75 9.5 17.75C8.7 17.75 8 18.45 8 19.25C8 20.05 8.7 20.75 9.5 20.75Z" fill="#464A4D"/>
<path d="M18.5 20.75C19.3 20.75 20 20.05 20 19.25C20 18.45 19.3 17.75 18.5 17.75C17.7 17.75 17 18.45 17 19.25C17 20.05 17.7 20.75 18.5 20.75Z" fill="#464A4D"/>
<path fill-rule="evenodd" clip-rule="evenodd" d="M5.36465 4.5H3V3H6C6.36663 3 6.67952 3.26506 6.7398 3.6267L7.13535 6H21C21.2133 6 21.4166 6.09085 21.5588 6.24981C21.7011 6.40877 21.769 6.6208 21.7454 6.83282L20.7454 15.8328C20.7032 16.2126 20.3822 16.5 20 16.5H8C7.63337 16.5 7.32048 16.2349 7.2602 15.8733L5.36465 4.5ZM7.38535 7.5L8.63534 15H19.3287L20.1621 7.5H7.38535Z" fill="#464A4D"/>
</svg>
