<svg width="24" height="24" viewBox="0 0 24 24" fill="none" xmlns="http://www.w3.org/2000/svg">
<path fill-rule="evenodd" clip-rule="evenodd" d="M1 21V18C2.7 18 4 19.3 4 21H1Z" fill="black"/>
<path d="M8 21H6C6 18.2 3.8 16 1 16V14C4.9 14 8 17.1 8 21Z" fill="black"/>
<path d="M12 21H10C10 16 6 12 1 12V10C7.1 10 12 14.9 12 21Z" fill="black"/>
<path fill-rule="evenodd" clip-rule="evenodd" d="M4 4.75C3.31421 4.75 2.75 5.31421 2.75 6V8H1.25V6C1.25 4.48579 2.48579 3.25 4 3.25H20C21.5142 3.25 22.75 4.48579 22.75 6V18C22.75 19.5142 21.5142 20.75 20 20.75H14V19.25H20C20.6858 19.25 21.25 18.6858 21.25 18V6C21.25 5.31421 20.6858 4.75 20 4.75H4Z" fill="black"/>
</svg>
