<svg width="24" height="24" viewBox="0 0 24 24" fill="none" xmlns="http://www.w3.org/2000/svg">
<path d="M8 4C8 3.45 8.45 3 9 3H15C15.55 3 16 3.45 16 4V10H18V4C18 2.35 16.65 1 15 1H9C7.35 1 6 2.35 6 4V10H8V4Z" fill="black"/>
<path d="M19 9V11H20V13H19.82C19.41 11.84 18.31 11 17 11H7C5.7 11 4.6 11.84 4.18 13H4V11H5V9H1V11H2V13C2 14.1 2.9 15 4 15H4.18C4.59 16.16 5.69 17 7 17H11V18.23L6 19.56V22H8V21.1L11 20.3V21H13V20.3L16 21.1V22H18V19.56L13 18.23V17H17C18.3 17 19.4 16.16 19.82 15H20C21.1 15 22 14.1 22 13V11H23V9H19ZM17 15H7C6.45 15 6 14.55 6 14C6 13.45 6.45 13 7 13H17C17.55 13 18 13.45 18 14C18 14.55 17.55 15 17 15Z" fill="black"/>
</svg>
