<svg width="24" height="24" viewBox="0 0 24 24" fill="none" xmlns="http://www.w3.org/2000/svg">
<path d="M12.75 18.4229L17.75 19.7568V22H16.25V20.9092L12.75 19.9746V21H11.25V19.9746L7.75 20.9092V22H6.25V19.7568L11.25 18.4229V17H12.75V18.4229ZM3.75 13C3.75 13.1378 3.86221 13.25 4 13.25H4.35645C4.68316 12.0961 5.7415 11.25 7 11.25H17C18.2585 11.25 19.3168 12.0961 19.6436 13.25H20C20.1378 13.25 20.25 13.1378 20.25 13V11H21.75V13C21.75 13.9662 20.9662 14.75 20 14.75H19.6436C19.3168 15.9039 18.2585 16.75 17 16.75H7C5.7415 16.75 4.68316 15.9039 4.35645 14.75H4C3.03379 14.75 2.25 13.9662 2.25 13V11H3.75V13ZM7 12.75C6.30964 12.75 5.75 13.3096 5.75 14C5.75 14.6904 6.30964 15.25 7 15.25H17C17.6904 15.25 18.25 14.6904 18.25 14C18.25 13.3096 17.6904 12.75 17 12.75H7ZM5 10.75H1V9.25H5V10.75ZM23 10.75H19V9.25H23V10.75ZM15 1.25C16.5192 1.25 17.75 2.48079 17.75 4V10H16.25V4C16.25 3.30921 15.6908 2.75 15 2.75H9C8.30921 2.75 7.75 3.30921 7.75 4V10H6.25V4C6.25 2.48079 7.48079 1.25 9 1.25H15Z" fill="black"/>
</svg>
