<svg width="24" height="24" viewBox="0 0 24 24" fill="none" xmlns="http://www.w3.org/2000/svg">
<path d="M15 2.25C16.5188 2.25 17.75 3.48122 17.75 5V9C17.75 10.2584 16.9037 11.3158 15.75 11.6426V13.25H16C17.5192 13.25 18.75 14.4808 18.75 16V22H17.25V16C17.25 15.3092 16.6908 14.75 16 14.75H8C7.30921 14.75 6.75 15.3092 6.75 16V22H5.25V16C5.25 14.4808 6.48079 13.25 8 13.25H8.25V11.6426C7.09627 11.3158 6.25 10.2584 6.25 9V5C6.25 3.48122 7.48122 2.25 9 2.25H15ZM9.75 13.25H14.25V11.75H9.75V13.25ZM9 3.75C8.30964 3.75 7.75 4.30964 7.75 5V9C7.75 9.69036 8.30964 10.25 9 10.25H15C15.6904 10.25 16.25 9.69036 16.25 9V5C16.25 4.30964 15.6904 3.75 15 3.75H9Z" fill="black"/>
</svg>
