<svg width="24" height="24" viewBox="0 0 24 24" fill="none" xmlns="http://www.w3.org/2000/svg">
<path fill-rule="evenodd" clip-rule="evenodd" d="M11.9999 1.08447L22.8527 8.68138L19.5855 21.75H4.41436L1.14722 8.68138L11.9999 1.08447ZM2.85267 9.31855L5.58553 20.25H18.4144L21.1472 9.31855L11.9999 2.91546L2.85267 9.31855Z" fill="#464A4D"/>
<path fill-rule="evenodd" clip-rule="evenodd" d="M11.9903 6.10986L18.328 10.0868L16.2336 17.4631H7.75954L5.88696 10.0877L11.9903 6.10986ZM12.0056 7.89034L7.60487 10.7585L8.92629 15.9631H15.1002L16.5778 10.7594L12.0056 7.89034Z" fill="#464A4D"/>
<path fill-rule="evenodd" clip-rule="evenodd" d="M1.78442 9.71848L2.21545 8.28174L11.9999 11.2171L21.7844 8.28174L22.2154 9.71848L11.9999 12.7831L1.78442 9.71848Z" fill="#464A4D"/>
<path fill-rule="evenodd" clip-rule="evenodd" d="M11.2499 2H12.7499V11.7427L19.592 20.5395L18.4079 21.4605L11.2499 12.2573V2Z" fill="#464A4D"/>
<path fill-rule="evenodd" clip-rule="evenodd" d="M12.5919 12.4605L5.59193 21.4605L4.4079 20.5396L11.4079 11.5396L12.5919 12.4605Z" fill="#464A4D"/>
</svg>
