<svg width="24" height="24" viewBox="0 0 24 24" fill="none" xmlns="http://www.w3.org/2000/svg">
<path d="M12 0.779053L0.863037 8.57505L4.21904 22.0001H19.781L23.136 8.57505L12 0.779053ZM17.537 9.29505L13 6.44805V3.92105L19.735 8.63605L17.537 9.29505ZM11 10.6561L9.09604 10.0851L11 8.84405V10.6561ZM10.314 12.5381L8.80604 14.4761L8.14904 11.8881L10.314 12.5371V12.5381ZM12 13.6291L13.621 15.7131H10.379L12 13.6291ZM13.686 12.5381L16.011 11.8411L15.244 14.5421L13.686 12.5381ZM13 10.6561V8.80905L14.991 10.0581L13 10.6551V10.6561ZM11 6.45705L6.58804 9.33305L4.26504 8.63605L11 3.92105V6.45705ZM5.91704 11.2191L7.25104 16.4761L5.47204 18.7641L3.39704 10.4631L5.91704 11.2191ZM8.82404 17.7131H15.177L16.956 20.0001H7.04504L8.82404 17.7131ZM16.767 16.5001L18.284 11.1591L20.604 10.4631L18.528 18.7641L16.767 16.5001Z" fill="#464A4D"/>
</svg>
