<svg width="24" height="24" viewBox="0 0 24 24" fill="none" xmlns="http://www.w3.org/2000/svg">
<path d="M22.8525 8.68164L19.5859 21.75H4.41406L1.14746 8.68164L12 1.08398L22.8525 8.68164ZM6.5332 20.25H17.4668L15.2988 17.4629H8.70117L6.5332 20.25ZM5.35352 19.3232L7.52344 16.5342L6.12305 11.0195L3.04688 10.0977L5.35352 19.3232ZM18.0801 10.959L16.4912 16.5527L18.6455 19.3223L20.9521 10.0977L18.0801 10.959ZM9.86816 15.9629H14.1318L11.999 13.2217L9.86816 15.9629ZM13.2637 12.4033L15.3496 15.084L16.376 11.4697L13.2637 12.4033ZM8.69043 15.0332L10.7354 12.4033L7.79785 11.5225L8.69043 15.0332ZM8.50781 10.1689L11.25 10.9912V8.38281L8.50781 10.1689ZM12.75 10.9912L15.5898 10.1396L12.75 8.35742V10.9912ZM3.69727 8.72656L6.62695 9.60449L11.25 6.5918V3.43945L3.69727 8.72656ZM12.75 6.58691L17.499 9.56641L20.3018 8.72656L12.75 3.43945V6.58691Z" fill="black"/>
</svg>
