<svg width="24" height="24" viewBox="0 0 24 24" fill="none" xmlns="http://www.w3.org/2000/svg">
<path d="M20.25 4C20.25 3.86193 20.1381 3.75 20 3.75H4C3.86193 3.75 3.75 3.86193 3.75 4V19C3.75 19.1381 3.86193 19.25 4 19.25H20C20.1381 19.25 20.25 19.1381 20.25 19V4ZM21.75 19C21.75 19.9665 20.9665 20.75 20 20.75H4C3.0335 20.75 2.25 19.9665 2.25 19V4C2.25 3.0335 3.0335 2.25 4 2.25H20C20.9665 2.25 21.75 3.0335 21.75 4V19Z" fill="black"/>
<path d="M5.75 20V23H4.25V20H5.75Z" fill="black"/>
<path d="M19.75 20V23H18.25V20H19.75Z" fill="black"/>
<path d="M9.75 3V20H8.25V3H9.75Z" fill="black"/>
<path d="M15.75 3V20H14.25V3H15.75Z" fill="black"/>
</svg>
