<svg width="24" height="24" viewBox="0 0 24 24" fill="none" xmlns="http://www.w3.org/2000/svg">
<path d="M18.25 4C18.25 3.86193 18.1381 3.75 18 3.75H6C5.86193 3.75 5.75 3.86193 5.75 4V19C5.75 19.1381 5.86193 19.25 6 19.25H18C18.1381 19.25 18.25 19.1381 18.25 19V4ZM19.75 19C19.75 19.9665 18.9665 20.75 18 20.75H6C5.0335 20.75 4.25 19.9665 4.25 19V4C4.25 3.0335 5.0335 2.25 6 2.25H18C18.9665 2.25 19.75 3.0335 19.75 4V19Z" fill="black"/>
<path d="M7.75 20V23H6.25V20H7.75Z" fill="black"/>
<path d="M17.75 20V23H16.25V20H17.75Z" fill="black"/>
<path d="M12.75 3V20H11.25V3H12.75Z" fill="black"/>
</svg>
