<svg width="24" height="24" viewBox="0 0 24 24" fill="none" xmlns="http://www.w3.org/2000/svg">
<path d="M19.753 7.6588C20.011 7.3638 20.073 6.9438 19.91 6.5868C19.748 6.2298 19.392 5.9998 19 5.9998H15.357L15.708 4.9248L18.351 3.9358C18.869 3.7428 19.13 3.1658 18.937 2.6488C18.744 2.1318 18.166 1.8678 17.65 2.0628L14.557 3.2198C14.272 3.3258 14.051 3.5568 13.957 3.8458L13.254 5.9988H10.899C10.434 3.7198 8.415 1.9988 6 1.9988C3.243 1.9998 1 4.2428 1 6.9998C1 9.7568 3.243 11.9998 6 11.9998C6.593 11.9998 7.185 11.8788 7.75 11.6618L11 15.3758V20.0008H8V22.0008H16V20.0008H13V15.3768L19.753 7.6588ZM16.796 7.9998L15.002 10.0498C14.639 10.0948 14.313 10.1068 14.023 10.0888L14.705 7.9998H16.796ZM12.055 9.6728C11.631 9.5668 11.184 9.4908 10.677 9.5328C9.834 9.5328 9.309 9.7698 8.918 9.9598L7.203 7.9998H12.601L12.055 9.6728ZM6 9.9998C4.346 9.9998 3 8.6538 3 6.9998C3 5.3458 4.346 3.9998 6 3.9998C7.302 3.9998 8.402 4.8388 8.816 5.9998H5C4.607 5.9998 4.251 6.2288 4.089 6.5868C3.927 6.9438 3.989 7.3628 4.247 7.6588L6.264 9.9638C6.175 9.9718 6.089 10.0008 6 10.0008V9.9998Z" fill="#464A4D"/>
</svg>
