<svg width="24" height="24" viewBox="0 0 24 24" fill="none" xmlns="http://www.w3.org/2000/svg">
<path d="M6 2.25005C8.36796 2.25005 10.3307 3.98323 10.6904 6.25005H13.4355L14.1943 3.92388L14.2246 3.84477C14.3067 3.66541 14.4576 3.52406 14.6445 3.45415L17.7373 2.2979L17.8105 2.27446C18.1781 2.17803 18.5661 2.37377 18.7021 2.73735C18.8382 3.1011 18.6738 3.50347 18.333 3.67192L18.2627 3.7022L15.5078 4.73247L15.0127 6.25005H19C19.2943 6.25005 19.561 6.42252 19.6826 6.69048C19.8041 6.95842 19.7582 7.27276 19.5645 7.49419L16.0576 11.5C16.0548 11.5032 16.0526 11.5068 16.0498 11.5098L12.75 15.2813V20.25H16V21.75H8V20.25H11.25V15.2813L7.82715 11.3692C7.27006 11.6078 6.6556 11.75 6 11.75C3.37679 11.75 1.25 9.62326 1.25 7.00005C1.25003 4.37686 3.3768 2.25005 6 2.25005ZM10.7979 11.2793C10.7694 11.2823 10.7405 11.2836 10.7119 11.2833C10.3311 11.2786 10.0959 11.3497 9.88281 11.4415L12 13.8604L13.7695 11.837C13.2816 11.7963 12.8613 11.7067 12.4844 11.6065C11.7621 11.4144 11.3908 11.2688 10.9785 11.2696L10.7979 11.2793ZM13.7129 10.2325C13.703 10.2627 13.69 10.2913 13.6768 10.3194C14.084 10.3714 14.5494 10.3786 15.1152 10.2989L17.3467 7.75005H14.5234L13.7129 10.2325ZM8.85547 10.2666C8.95239 10.2192 9.06824 10.1613 9.23242 10.0879C9.60332 9.92234 10.0472 9.78281 10.6865 9.78423C11.2542 9.73394 11.7858 9.85148 12.2539 9.98149C12.2557 9.91058 12.264 9.83852 12.2871 9.76763L12.9453 7.75005H6.65332L8.85547 10.2666ZM6 3.75005C4.20523 3.75005 2.75003 5.20529 2.75 7.00005C2.75 8.79483 4.20521 10.25 6 10.25C6.26197 10.25 6.51619 10.2142 6.76172 10.1514L4.43555 7.49419C4.24182 7.27276 4.19587 6.95842 4.31738 6.69048C4.43899 6.42252 4.70573 6.25005 5 6.25005H9.16211C8.82339 4.81691 7.53657 3.75005 6 3.75005Z" fill="#464A4D"/>
</svg>
