<svg width="24" height="24" viewBox="0 0 24 24" fill="none" xmlns="http://www.w3.org/2000/svg">
<path d="M7.5 5.00017C7.5 5.07517 7.451 5.15617 7.363 5.22917C6.937 5.58117 6.878 6.21117 7.23 6.63717C7.428 6.87617 7.713 7.00017 8.001 7.00017C8.226 7.00017 8.451 6.92517 8.638 6.77117C9.186 6.31717 9.501 5.67217 9.501 5.00017C9.501 4.32817 9.187 3.68317 8.638 3.22917C8.55 3.15617 8.501 3.07417 8.501 3.00017C8.501 2.92617 8.55 2.84417 8.638 2.77117C9.064 2.41917 9.123 1.78917 8.771 1.36317C8.418 0.93717 7.788 0.87817 7.363 1.23017C6.815 1.68417 6.5 2.32917 6.5 3.00117C6.5 3.67317 6.814 4.31817 7.363 4.77217C7.451 4.84517 7.5 4.92617 7.5 5.00017Z" fill="black"/>
<path d="M11.5 5.00017C11.5 5.07517 11.451 5.15617 11.363 5.22917C10.937 5.58117 10.878 6.21117 11.23 6.63717C11.428 6.87617 11.713 7.00017 12.001 7.00017C12.226 7.00017 12.451 6.92517 12.638 6.77117C13.186 6.31717 13.501 5.67217 13.501 5.00017C13.501 4.32817 13.187 3.68317 12.638 3.22917C12.55 3.15617 12.501 3.07417 12.501 3.00017C12.501 2.92617 12.55 2.84417 12.638 2.77117C13.063 2.41917 13.124 1.78917 12.771 1.36317C12.419 0.93717 11.789 0.87817 11.363 1.23017C10.815 1.68417 10.5 2.32917 10.5 3.00117C10.5 3.67317 10.814 4.31817 11.363 4.77217C11.451 4.84517 11.5 4.92617 11.5 5.00017Z" fill="black"/>
<path d="M18.5 9H18C18 8.448 17.553 8 17 8H4C3.448 8 3 8.448 3 9V18C3 20.757 5.243 23 8 23H13C15.757 23 18 20.757 18 18H18.5C20.981 18 23 15.981 23 13.5C23 11.019 20.981 9 18.5 9ZM18.5 16H18V11H18.5C19.879 11 21 12.122 21 13.5C21 14.878 19.879 16 18.5 16Z" fill="black"/>
</svg>
