<svg width="24" height="24" viewBox="0 0 24 24" fill="none" xmlns="http://www.w3.org/2000/svg">
<path fill-rule="evenodd" clip-rule="evenodd" d="M10.5 12.9393L15.9697 7.46967L17.0303 8.53033L10.5 15.0607L6.96967 11.5303L8.03033 10.4697L10.5 12.9393Z" fill="black"/>
<path fill-rule="evenodd" clip-rule="evenodd" d="M4 4.75C3.31421 4.75 2.75 5.31421 2.75 6V20.4395L6.53148 17.4143C6.66446 17.308 6.8297 17.25 7 17.25H20C20.6858 17.25 21.25 16.6858 21.25 16V6C21.25 5.31421 20.6858 4.75 20 4.75H4ZM1.25 6C1.25 4.48579 2.48579 3.25 4 3.25H20C21.5142 3.25 22.75 4.48579 22.75 6V16C22.75 17.5142 21.5142 18.75 20 18.75H7.26309L2.46852 22.5857C2.24339 22.7658 1.93496 22.8009 1.67511 22.676C1.41526 22.5511 1.25 22.2883 1.25 22V6Z" fill="black"/>
</svg>
