<svg width="24" height="24" viewBox="0 0 24 24" fill="none" xmlns="http://www.w3.org/2000/svg">
<path fill-rule="evenodd" clip-rule="evenodd" d="M2.25 12C2.25 6.58579 6.58579 2.25 12 2.25C17.4142 2.25 21.75 6.58579 21.75 12C21.75 17.4142 17.4142 21.75 12 21.75C6.58579 21.75 2.25 17.4142 2.25 12ZM12 3.75C7.41421 3.75 3.75 7.41421 3.75 12C3.75 16.5858 7.41421 20.25 12 20.25C16.5858 20.25 20.25 16.5858 20.25 12C20.25 7.41421 16.5858 3.75 12 3.75Z" fill="black"/>
<path fill-rule="evenodd" clip-rule="evenodd" d="M16.5303 7.46966C16.7312 7.67053 16.8013 7.96766 16.7115 8.23716L14.7115 14.2372C14.6369 14.4611 14.4611 14.6369 14.2372 14.7115L8.23717 16.7115C7.96767 16.8013 7.67055 16.7312 7.46967 16.5303C7.2688 16.3294 7.19866 16.0323 7.28849 15.7628L9.28849 9.76282C9.36314 9.53887 9.53888 9.36313 9.76283 9.28848L15.7628 7.28848C16.0323 7.19864 16.3295 7.26879 16.5303 7.46966ZM10.5929 10.5929L9.18586 14.8141L13.4071 13.4071L14.8141 9.18584L10.5929 10.5929Z" fill="black"/>
</svg>
