<svg width="24" height="24" viewBox="0 0 24 24" fill="none" xmlns="http://www.w3.org/2000/svg">
<path fill-rule="evenodd" clip-rule="evenodd" d="M15 8.75V5.75H16.5V8.75H15Z" fill="#464A4D"/>
<path fill-rule="evenodd" clip-rule="evenodd" d="M15 13.75V10.75H16.5V13.75H15Z" fill="#464A4D"/>
<path fill-rule="evenodd" clip-rule="evenodd" d="M15 18.75V15.75H16.5V18.75H15Z" fill="#464A4D"/>
<path fill-rule="evenodd" clip-rule="evenodd" d="M1 7.75C1 6.23079 2.23079 5 3.75 5H19.75C21.2692 5 22.5 6.23079 22.5 7.75V8.899C22.5 9.74627 21.9028 10.363 21.2163 10.5824C20.5103 10.8079 20 11.4705 20 12.25C20 13.0295 20.5102 13.692 21.2162 13.9176C21.9047 14.1373 22.5 14.7546 22.5 15.601V16.75C22.5 18.2692 21.2692 19.5 19.75 19.5H3.75C2.23079 19.5 1 18.2692 1 16.75V15.601C1 14.7537 1.59725 14.137 2.28366 13.9176C2.98966 13.6921 3.5 13.0295 3.5 12.25C3.5 11.4706 2.98995 10.8082 2.28413 10.5825M3.75 6.5C3.05921 6.5 2.5 7.05921 2.5 7.75V8.899C2.5 8.94632 2.51471 8.98893 2.54891 9.03111C2.5859 9.07673 2.64943 9.12461 2.73987 9.15346C4.04987 9.57193 5 10.7995 5 12.25C5 13.7005 4.05022 14.928 2.74022 15.3464C2.74018 15.3464 2.74026 15.3464 2.74022 15.3464C2.65018 15.3752 2.58638 15.4232 2.54908 15.4691C2.51456 15.5117 2.5 15.5543 2.5 15.601V16.75C2.5 17.4408 3.05921 18 3.75 18H19.75C20.4408 18 21 17.4408 21 16.75V15.601C21 15.5537 20.9853 15.5111 20.9511 15.4689C20.9141 15.4233 20.8506 15.3754 20.7601 15.3465C19.4501 14.9281 18.5 13.7005 18.5 12.25C18.5 10.7996 19.4497 9.57212 20.7597 9.15361C20.8498 9.1248 20.9136 9.07683 20.9509 9.03085C20.9854 8.98833 21 8.94574 21 8.899V7.75C21 7.05921 20.4408 6.5 19.75 6.5H3.75ZM1 7.75V8.899ZM1 8.899C1 9.74543 1.59567 10.3628 2.28413 10.5825Z" fill="#464A4D"/>
</svg>
