<svg width="24" height="24" viewBox="0 0 24 24" fill="none" xmlns="http://www.w3.org/2000/svg">
<path d="M21.543 10.071C22.414 9.79198 23 9.01998 23 8.14998V7.00098C23 5.34698 21.654 4.00098 20 4.00098H17V8.00098H15V4.00098H4C2.346 4.00098 1 5.34698 1 7.00098V8.14998C1 9.02098 1.585 9.79298 2.458 10.071C3.082 10.27 3.5 10.844 3.5 11.5C3.5 12.156 3.081 12.73 2.458 12.929C1.586 13.207 1 13.979 1 14.85V15.999C1 17.653 2.346 18.999 4 18.999H15V14.999H17V18.999H20C21.654 18.999 23 17.653 23 15.999V14.85C23 13.979 22.414 13.206 21.543 12.929C20.919 12.73 20.5 12.155 20.5 11.5C20.5 10.845 20.919 10.27 21.543 10.071ZM17 13H15V9.99998H17V13Z" fill="black"/>
</svg>
