<svg width="24" height="24" viewBox="0 0 24 24" fill="none" xmlns="http://www.w3.org/2000/svg">
<path d="M16.75 10.75H15.25V13.75H16.75V10.75Z" fill="black"/>
<path d="M21.47 10.58C22.24 10.33 22.75 9.66 22.75 8.9V7.75C22.75 6.23 21.52 5 20 5H4C2.48 5 1.25 6.23 1.25 7.75V8.9C1.25 9.66 1.77 10.34 2.53 10.58C3.26 10.81 3.75 11.48 3.75 12.25C3.75 13.02 3.26 13.69 2.53 13.92C1.76 14.17 1.25 14.84 1.25 15.6V16.75C1.25 18.27 2.48 19.5 4 19.5H20C21.52 19.5 22.75 18.27 22.75 16.75V15.6C22.75 14.84 22.23 14.16 21.47 13.92C20.74 13.69 20.25 13.02 20.25 12.25C20.25 11.48 20.74 10.81 21.47 10.58ZM21.01 15.35C21.12 15.39 21.25 15.47 21.25 15.6V16.75C21.25 17.44 20.69 18 20 18H16.75V15.75H15.25V18H4C3.31 18 2.75 17.44 2.75 16.75V15.6C2.75 15.47 2.88 15.38 2.99 15.35C4.34 14.92 5.25 13.67 5.25 12.25C5.25 10.83 4.34 9.59 2.99 9.15C2.88 9.11 2.75 9.03 2.75 8.9V7.75C2.75 7.06 3.31 6.5 4 6.5H15.25V8.75H16.75V6.5H20C20.69 6.5 21.25 7.06 21.25 7.75V8.9C21.25 9.03 21.12 9.12 21.01 9.15C19.66 9.58 18.75 10.83 18.75 12.25C18.75 13.67 19.66 14.91 21.01 15.35Z" fill="black"/>
</svg>
