<svg width="24" height="24" viewBox="0 0 24 24" fill="none" xmlns="http://www.w3.org/2000/svg">
<path fill-rule="evenodd" clip-rule="evenodd" d="M1.25 7C1.25 5.48579 2.48579 4.25 4 4.25H20C21.5142 4.25 22.75 5.48579 22.75 7V17C22.75 18.5142 21.5142 19.75 20 19.75H4C2.48579 19.75 1.25 18.5142 1.25 17V7ZM4 5.75C3.31421 5.75 2.75 6.31421 2.75 7V17C2.75 17.6858 3.31421 18.25 4 18.25H20C20.6858 18.25 21.25 17.6858 21.25 17V7C21.25 6.31421 20.6858 5.75 20 5.75H4Z" fill="black"/>
<path fill-rule="evenodd" clip-rule="evenodd" d="M22 10.75H2V9.25H22V10.75Z" fill="black"/>
<path fill-rule="evenodd" clip-rule="evenodd" d="M9 14.75H5V13.25H9V14.75Z" fill="black"/>
<path fill-rule="evenodd" clip-rule="evenodd" d="M15 14.75H11V13.25H15V14.75Z" fill="black"/>
</svg>
