<svg width="24" height="24" viewBox="0 0 24 24" fill="none" xmlns="http://www.w3.org/2000/svg">
<path d="M11 12.936L9.00702 10.943L7.59302 12.357L11 15.764L16.407 10.357L14.993 8.943L11 12.936Z" fill="black"/>
<path d="M4.80002 7.599L3.20102 6.398C1.76102 8.315 0.999023 10.598 0.999023 13.001C0.999023 15.897 2.11802 18.631 4.14902 20.701L5.57702 19.301C3.91502 17.607 2.99902 15.369 2.99902 13.001C2.99902 11.036 3.62202 9.168 4.79902 7.6L4.80002 7.599Z" fill="black"/>
<path d="M20.799 6.397L19.199 7.598C20.378 9.165 21 11.033 21 12.999C21 15.368 20.085 17.604 18.422 19.299L19.85 20.699C21.881 18.63 23 15.894 23 12.999C23 10.596 22.238 8.313 20.799 6.397Z" fill="black"/>
<path d="M12 2C9.02402 2 6.23802 3.172 4.15502 5.301L5.58502 6.699C7.28802 4.958 9.56602 4 12 4C14.434 4 16.713 4.958 18.415 6.699L19.845 5.301C17.763 3.173 14.977 2 12 2Z" fill="black"/>
</svg>
