<svg width="24" height="24" viewBox="0 0 24 24" fill="none" xmlns="http://www.w3.org/2000/svg">
<path fill-rule="evenodd" clip-rule="evenodd" d="M12 4.25C12.2278 4.25 12.4433 4.35357 12.5856 4.53148L16.2069 9.05803L21.6646 6.32918C21.9079 6.20751 22.1981 6.22716 22.4228 6.38053C22.6475 6.53391 22.7715 6.79695 22.7469 7.0679L21.7469 18.0679C21.7118 18.4542 21.3879 18.75 21 18.75H2.99999C2.61209 18.75 2.28819 18.4542 2.25307 18.0679L1.25307 7.0679C1.22844 6.79695 1.35247 6.53391 1.57719 6.38053C1.80191 6.22716 2.09206 6.20751 2.3354 6.32918L7.7931 9.05803L11.4143 4.53148C11.5567 4.35357 11.7722 4.25 12 4.25ZM12 6.20059L8.58564 10.4685C8.36472 10.7447 7.9809 10.829 7.66458 10.6708L2.86881 8.27293L3.6849 17.25H20.3151L21.1312 8.27293L16.3354 10.6708C16.0191 10.829 15.6353 10.7447 15.4143 10.4685L12 6.20059Z" fill="black"/>
</svg>
