<svg width="24" height="24" viewBox="0 0 24 24" fill="none" xmlns="http://www.w3.org/2000/svg">
<path d="M18.25 5C18.25 4.86193 18.1381 4.75 18 4.75H6C5.86193 4.75 5.75 4.86193 5.75 5V17C5.75 17.1381 5.86193 17.25 6 17.25H18C18.1381 17.25 18.25 17.1381 18.25 17V5ZM19.75 17C19.75 17.9665 18.9665 18.75 18 18.75H6C5.0335 18.75 4.25 17.9665 4.25 17V5C4.25 4.0335 5.0335 3.25 6 3.25H18C18.9665 3.25 19.75 4.0335 19.75 5V17Z" fill="black"/>
<path d="M7.75 18V21H6.25V18H7.75Z" fill="black"/>
<path d="M17.75 18V21H16.25V18H17.75Z" fill="black"/>
<path d="M12.75 9V18H11.25V9H12.75Z" fill="black"/>
<path d="M19 8.25V9.75H5V8.25H19Z" fill="black"/>
</svg>
