<svg width="24" height="24" viewBox="0 0 24 24" fill="none" xmlns="http://www.w3.org/2000/svg">
<path d="M21.25 4C21.25 3.86193 21.1381 3.75 21 3.75H3C2.86193 3.75 2.75 3.86193 2.75 4V20C2.75 20.1381 2.86193 20.25 3 20.25H21C21.1381 20.25 21.25 20.1381 21.25 20V4ZM22.75 20C22.75 20.9665 21.9665 21.75 21 21.75H3C2.0335 21.75 1.25 20.9665 1.25 20V4C1.25 3.0335 2.0335 2.25 3 2.25H21C21.9665 2.25 22.75 3.0335 22.75 4V20Z" fill="black"/>
<path d="M6 10.125V11.625H2V10.125H6Z" fill="black"/>
<path d="M9.75 3C9.75 5.28555 8.94373 7.37762 8.16504 8.87207C7.77305 9.62437 7.3811 10.2384 7.08594 10.666C7.01785 10.7646 6.95138 10.8512 6.89453 10.9297C6.96264 11.0521 7.04485 11.1967 7.13281 11.3643C7.42362 11.9181 7.81021 12.7105 8.19629 13.6729C8.9652 15.5895 9.75 18.2209 9.75 21H8.25C8.25 18.4851 7.5348 16.0538 6.80371 14.2314C6.43993 13.3247 6.07633 12.5789 5.80469 12.0615C5.66897 11.803 5.55609 11.6015 5.47852 11.4668C5.44005 11.4 5.41042 11.3495 5.39062 11.3164C5.3807 11.2998 5.3728 11.2869 5.36816 11.2793C5.36597 11.2757 5.36328 11.2715 5.36328 11.2715L5.3623 11.2705L5.36328 11.2695L5.0791 10.8135L5.4209 10.3984C5.4209 10.3984 5.42367 10.3952 5.42578 10.3926C5.43 10.3874 5.43697 10.3789 5.44629 10.3672C5.46525 10.3433 5.49441 10.3056 5.53223 10.2559C5.60786 10.1565 5.7183 10.0075 5.85156 9.81445C6.11889 9.4272 6.47698 8.86574 6.83496 8.17871C7.5562 6.79445 8.25 4.94927 8.25 3H9.75Z" fill="black"/>
<path d="M22 10.125V11.625H18V10.125H22Z" fill="black"/>
<path d="M15.75 3C15.75 4.94927 16.4438 6.79445 17.165 8.17871C17.523 8.86574 17.8811 9.4272 18.1484 9.81445C18.2817 10.0075 18.3921 10.1565 18.4678 10.2559C18.5056 10.3056 18.5347 10.3433 18.5537 10.3672C18.563 10.3789 18.57 10.3874 18.5742 10.3926C18.5763 10.3952 18.5791 10.3984 18.5791 10.3984L18.9209 10.8135L18.6367 11.2695V11.2715C18.6367 11.2715 18.634 11.2757 18.6318 11.2793C18.6272 11.2869 18.6193 11.2998 18.6094 11.3164C18.5896 11.3495 18.5599 11.4 18.5215 11.4668C18.4439 11.6015 18.331 11.803 18.1953 12.0615C17.9237 12.5789 17.5601 13.3247 17.1963 14.2314C16.4652 16.0538 15.75 18.4851 15.75 21H14.25C14.25 18.2209 15.0348 15.5895 15.8037 13.6729C16.1898 12.7105 16.5764 11.9181 16.8672 11.3643C16.9551 11.1969 17.0364 11.052 17.1045 10.9297C17.0477 10.8513 16.982 10.7645 16.9141 10.666C16.6189 10.2384 16.227 9.62437 15.835 8.87207C15.0563 7.37762 14.25 5.28555 14.25 3H15.75Z" fill="black"/>
</svg>
