<svg width="24" height="24" viewBox="0 0 24 24" fill="none" xmlns="http://www.w3.org/2000/svg">
<path d="M21 2H3C1.9 2 1 2.9 1 4V20C1 21.1 1.9 22 3 22H21C22.1 22 23 21.1 23 20V4C23 2.9 22.1 2 21 2ZM21 9.88H18.5C17.88 9.01 16.39 6.68 16.07 4H21V9.88ZM16.8 10.95C16.04 12.34 14.29 15.93 14.03 20H9.96C9.7 15.93 7.95 12.33 7.19 10.95C7.99 9.83 9.62 7.15 9.93 4H14.06C14.37 7.15 16.01 9.83 16.8 10.95ZM3 4H7.93C7.61 6.68 6.12 9.01 5.5 9.88H3V4ZM3 11.88H5.42C6.07 13.07 7.69 16.37 7.96 20H3V11.88ZM16.04 20C16.31 16.37 17.93 13.07 18.58 11.88H21V20H16.04Z" fill="black"/>
</svg>
