<svg width="24" height="24" viewBox="0 0 24 24" fill="none" xmlns="http://www.w3.org/2000/svg">
<path d="M18.5251 2.22238C19.4472 2.15673 20.3457 2.3438 20.9861 2.9841C21.6266 3.6246 21.8135 4.52374 21.7478 5.44601C21.6818 6.37084 21.359 7.41966 20.8513 8.51535C20.3431 9.61194 19.6322 10.7938 18.7507 11.9997C19.6322 13.2056 20.3431 14.3875 20.8513 15.4841C21.3591 16.5799 21.6818 17.6295 21.7478 18.5544C21.8134 19.4765 21.6264 20.375 20.9861 21.0154C20.3457 21.6557 19.4472 21.8427 18.5251 21.7771C17.6002 21.7111 16.5506 21.3884 15.4548 20.8806C14.3582 20.3724 13.1763 19.6615 11.9704 18.78C10.7645 19.6615 9.58264 20.3724 8.48605 20.8806C7.39037 21.3883 6.34155 21.7111 5.41672 21.7771C4.49444 21.8428 3.59531 21.6559 2.9548 21.0154C2.31451 20.375 2.12743 19.4765 2.19308 18.5544C2.25903 17.6295 2.58274 16.5799 3.09055 15.4841C3.59871 14.3876 4.30878 13.2054 5.19015 11.9997C4.30878 10.794 3.5987 9.61182 3.09055 8.51535C2.58279 7.41966 2.25907 6.37085 2.19308 5.44601C2.12733 4.52374 2.3143 3.6246 2.9548 2.9841C3.59531 2.3436 4.49444 2.15663 5.41672 2.22238C6.34155 2.28837 7.39036 2.61208 8.48605 3.11984C9.58253 3.628 10.7647 4.33808 11.9704 5.21945C13.1762 4.33808 14.3583 3.62801 15.4548 3.11984C16.5506 2.61203 17.6002 2.28832 18.5251 2.22238ZM6.14914 13.2361C5.43758 14.2457 4.86549 15.2203 4.4509 16.115C3.9862 17.1177 3.73754 17.9825 3.68918 18.6609C3.6407 19.3415 3.79679 19.7362 4.01535 19.9548C4.234 20.1735 4.62933 20.3295 5.31027 20.281C5.98851 20.2325 6.85267 19.9838 7.85519 19.5193C8.74977 19.1047 9.72356 18.5315 10.7331 17.82C9.92731 17.1608 9.1194 16.4319 8.32883 15.6413C7.53787 14.8504 6.80865 14.0423 6.14914 13.2361ZM17.7907 13.2361C17.1313 14.0421 16.4028 14.8505 15.612 15.6413C14.8212 16.4321 14.0128 17.1606 13.2068 17.82C14.2165 18.5318 15.1909 19.1046 16.0857 19.5193C17.0884 19.984 17.9532 20.2326 18.6316 20.281C19.3124 20.3295 19.7069 20.1734 19.9255 19.9548C20.1441 19.7362 20.3002 19.3416 20.2517 18.6609C20.2033 17.9825 19.9547 17.1177 19.49 16.115C19.0753 15.2202 18.5025 14.2458 17.7907 13.2361ZM11.9704 7.10715C11.1133 7.78998 10.2442 8.56385 9.38937 9.41867C8.53455 10.2735 7.76068 11.1426 7.07785 11.9997C7.76068 12.8569 8.53455 13.7259 9.38937 14.5808C10.244 15.4354 11.1135 16.2086 11.9704 16.8913C12.8274 16.2086 13.6968 15.4355 14.5515 14.5808C15.4062 13.7261 16.1793 12.8567 16.862 11.9997C16.1793 11.1428 15.4061 10.2733 14.5515 9.41867C13.6966 8.56385 12.8276 7.78998 11.9704 7.10715ZM5.31027 3.71847C4.62933 3.66993 4.234 3.826 4.01535 4.04465C3.7967 4.2633 3.64063 4.65863 3.68918 5.33957C3.73762 6.0178 3.98633 6.88198 4.4509 7.88449C4.86538 8.77891 5.43781 9.75305 6.14914 10.7624C6.80853 9.95641 7.53806 9.14889 8.32883 8.35812C9.11959 7.56736 9.92712 6.83783 10.7331 6.17844C9.72375 5.46711 8.74962 4.89468 7.85519 4.48019C6.85269 4.01562 5.9885 3.76692 5.31027 3.71847ZM18.6316 3.71847C17.9532 3.76684 17.0884 4.0155 16.0857 4.48019C15.191 4.89479 14.2164 5.46688 13.2068 6.17844C14.013 6.83795 14.8211 7.56717 15.612 8.35812C16.4026 9.14869 17.1315 9.95661 17.7907 10.7624C18.5022 9.75286 19.0754 8.77907 19.49 7.88449C19.9545 6.88197 20.2032 6.01781 20.2517 5.33957C20.3002 4.65863 20.1442 4.2633 19.9255 4.04465C19.7069 3.82608 19.3122 3.66999 18.6316 3.71847Z" fill="#464A4D"/>
</svg>
