<svg width="24" height="24" viewBox="0 0 24 24" fill="none" xmlns="http://www.w3.org/2000/svg">
<path fill-rule="evenodd" clip-rule="evenodd" d="M12 6.51377C11.9765 6.44565 11.9524 6.37857 11.9279 6.31252C11.4061 4.9076 10.6501 3.93666 9.72809 3.38347C7.84425 2.25317 5.7001 3.0643 4.3822 4.3822C3.0643 5.7001 2.25317 7.84425 3.38347 9.72809C3.93666 10.6501 4.9076 11.4061 6.31252 11.9279C6.37857 11.9524 6.44565 11.9765 6.51377 12C6.44565 12.0236 6.37857 12.0476 6.31252 12.0722C4.9076 12.594 3.93666 13.35 3.38347 14.272C2.25317 16.1558 3.0643 18.3 4.3822 19.6179C5.7001 20.9358 7.84425 21.7469 9.72809 20.6166C10.6501 20.0634 11.4061 19.0925 11.9279 17.6875C11.9524 17.6215 11.9765 17.5544 12 17.4863C12.0236 17.5544 12.0476 17.6215 12.0722 17.6875C12.594 19.0925 13.35 20.0634 14.272 20.6166C16.1558 21.7469 18.3 20.9358 19.6179 19.6179C20.9358 18.3 21.7469 16.1558 20.6166 14.272C20.0634 13.35 19.0925 12.594 17.6875 12.0722C17.6215 12.0476 17.5544 12.0236 17.4863 12C17.5544 11.9765 17.6215 11.9524 17.6875 11.9279C19.0925 11.4061 20.0634 10.6501 20.6166 9.72809C21.7469 7.84425 20.9358 5.7001 19.6179 4.3822C18.3 3.0643 16.1558 2.25317 14.272 3.38347C13.35 3.93666 12.594 4.9076 12.0722 6.31252C12.0476 6.37857 12.0236 6.44565 12 6.51377ZM12.761 11.2391C12.8176 9.31937 13.089 7.88278 13.4783 6.8348C13.9162 5.65574 14.4891 5.00246 15.0437 4.66971C16.113 4.02814 17.5126 4.39826 18.5572 5.44286C19.6018 6.48746 19.9719 7.88706 19.3303 8.95635C18.9976 9.51093 18.3443 10.0838 17.1653 10.5218C16.1173 10.911 14.6807 11.1825 12.761 11.2391ZM12.761 12.761C14.6807 12.8176 16.1173 13.089 17.1653 13.4783C18.3443 13.9162 18.9976 14.4891 19.3303 15.0437C19.9719 16.113 19.6018 17.5126 18.5572 18.5572C17.5126 19.6018 16.113 19.9719 15.0437 19.3303C14.4891 18.9976 13.9162 18.3443 13.4783 17.1653C13.089 16.1173 12.8176 14.6807 12.761 12.761ZM11.2391 12.761C11.1825 14.6807 10.911 16.1173 10.5218 17.1653C10.0838 18.3443 9.51093 18.9976 8.95635 19.3303C7.88706 19.9719 6.48746 19.6018 5.44286 18.5572C4.39826 17.5126 4.02814 16.113 4.66971 15.0437C5.00246 14.4891 5.65574 13.9162 6.8348 13.4783C7.88278 13.089 9.31937 12.8176 11.2391 12.761ZM11.2391 11.2391C9.31937 11.1825 7.88278 10.911 6.8348 10.5218C5.65574 10.0838 5.00246 9.51093 4.66971 8.95635C4.02814 7.88706 4.39826 6.48746 5.44286 5.44286C6.48746 4.39826 7.88706 4.02814 8.95635 4.66971C9.51093 5.00246 10.0838 5.65574 10.5218 6.8348C10.911 7.88278 11.1825 9.31937 11.2391 11.2391Z" fill="#464A4D"/>
</svg>
