<svg width="24" height="24" viewBox="0 0 24 24" fill="none" xmlns="http://www.w3.org/2000/svg">
<path d="M16.243 12C20.932 8.56 22.288 5.54599 21.94 3.799C21.759 2.891 21.109 2.24 20.201 2.059C18.447 1.713 15.439 3.068 12 7.756C8.56101 3.069 5.54901 1.712 3.79901 2.05999C2.89101 2.24099 2.24001 2.89199 2.05901 3.79999C1.71101 5.548 3.06701 8.561 7.75601 12.001C3.06701 15.441 1.71101 18.455 2.05901 20.202C2.24001 21.11 2.89101 21.761 3.79901 21.941C3.97001 21.975 4.15201 21.993 4.34601 21.993C6.13801 21.993 8.89601 20.475 12 16.244C15.439 20.932 18.445 22.289 20.201 21.941C21.109 21.76 21.76 21.11 21.94 20.202C22.288 18.455 20.932 15.441 16.243 12.001V12Z" fill="black"/>
</svg>
