<svg width="24" height="24" viewBox="0 0 24 24" fill="none" xmlns="http://www.w3.org/2000/svg">
<path d="M22 10.6999H19.07C19.994 9.3519 20.5 7.7579 20.5 6.0999C20.5 5.5479 20.053 5.0999 19.5 5.0999H17.326C17.764 4.2639 18 3.3379 18 2.3999C18 1.8479 17.553 1.3999 17 1.3999H7C6.448 1.3999 6 1.8479 6 2.3999C6 3.3379 6.236 4.2639 6.674 5.0999H4.5C3.948 5.0999 3.5 5.5479 3.5 6.0999C3.5 7.7499 4.009 9.3449 4.938 10.6999H2C1.448 10.6999 1 11.1479 1 11.6999C1 17.6549 5.935 22.4999 12 22.4999C18.065 22.4999 23 17.6549 23 11.6999C23 11.1479 22.553 10.6999 22 10.6999Z" fill="#464A4D"/>
</svg>
