<svg width="24" height="24" viewBox="0 0 24 24" fill="none" xmlns="http://www.w3.org/2000/svg">
<path d="M19.0771 12.4551C18.8011 12.2891 18.5021 12.1381 18.1811 12.0001C18.5021 11.8621 18.8011 11.7111 19.0771 11.5451C20.5751 10.6461 21.4001 9.3161 21.4001 7.8001C21.4001 5.1271 18.8731 2.6001 16.2001 2.6001C14.6831 2.6001 13.3531 3.4251 12.4551 4.9231C12.2891 5.1991 12.1381 5.4981 12.0001 5.8191C11.8621 5.4981 11.7111 5.1991 11.5451 4.9231C10.6461 3.4251 9.3161 2.6001 7.8001 2.6001C5.1271 2.6001 2.6001 5.1271 2.6001 7.8001C2.6001 8.8441 3.0081 10.8131 5.8071 12.0061C5.4911 12.1421 5.1961 12.2921 4.9231 12.4561C3.4251 13.3541 2.6001 14.6851 2.6001 16.2011C2.6001 18.8741 5.1271 21.4011 7.8001 21.4011C9.3171 21.4011 10.6461 20.5761 11.5451 19.0781C11.7091 18.8061 11.8581 18.5111 11.9951 18.1941C13.1881 20.9931 15.1571 21.4011 16.2011 21.4011C18.8741 21.4011 21.4011 18.8741 21.4011 16.2011C21.4011 14.6841 20.5761 13.3541 19.0781 12.4561L19.0771 12.4551Z" fill="#464A4D"/>
</svg>
