<svg width="24" height="24" viewBox="0 0 24 24" fill="none" xmlns="http://www.w3.org/2000/svg">
<path fill-rule="evenodd" clip-rule="evenodd" d="M9.27072 7.28611C8.23318 6.34859 7.22579 5.77869 6.29767 5.51215C4.70952 5.05605 3.26133 5.49542 2.60083 6.63713C1.93766 7.78347 2.29043 9.25197 3.49628 10.3831C4.18202 11.0264 5.15724 11.5882 6.45116 12.0002C5.15724 12.4122 4.18202 12.974 3.49628 13.6173C2.29043 14.7484 1.93766 16.2169 2.60083 17.3633C3.26133 18.505 4.70952 18.9443 6.29767 18.4882C7.19925 18.2293 8.17565 17.6841 9.18182 16.7938C8.90458 18.1242 8.91878 19.253 9.14917 20.1704C9.55217 21.7751 10.6659 22.8002 11.9875 22.8002C13.3118 22.8002 14.4196 21.7715 14.8087 20.1641C15.0349 19.2294 15.0348 18.0761 14.7293 16.7143C15.7669 17.6518 16.7743 18.2217 17.7024 18.4882C19.2905 18.9443 20.7387 18.505 21.3992 17.3633C22.0624 16.2169 21.7096 14.7484 20.5038 13.6173C19.818 12.974 18.8428 12.4122 17.5489 12.0002C18.8428 11.5882 19.818 11.0264 20.5038 10.3831C21.7096 9.25197 22.0624 7.78347 21.3992 6.63713C20.7387 5.49542 19.2905 5.05605 17.7024 5.51215C16.8008 5.77107 15.8244 6.31625 14.8182 7.2066C15.0955 5.87619 15.0813 4.74744 14.8509 3.83002C14.4479 2.22533 13.3342 1.2002 12.0125 1.2002C10.6882 1.2002 9.58044 2.22892 9.19139 3.83626C8.96515 4.77094 8.96525 5.92427 9.27072 7.28611ZM12.5742 9.31023C13.5706 6.95064 13.6632 5.25932 13.3961 4.19537C13.2527 3.62471 13.0105 3.24666 12.7617 3.01829C12.5149 2.7917 12.2512 2.7002 12.0125 2.7002C11.7741 2.7002 11.513 2.79144 11.2703 3.01617C11.0254 3.24287 10.7872 3.61919 10.6493 4.18913C10.3924 5.2505 10.4994 6.93841 11.5131 9.29317C11.6711 9.26493 11.8339 9.2502 12 9.2502C12.1969 9.2502 12.389 9.2709 12.5742 9.31023ZM14.0922 10.2153C14.3097 10.4701 14.4815 10.765 14.5949 11.0875C17.1521 10.7867 18.6783 10.0389 19.4775 9.28913C19.9073 8.88594 20.1166 8.49385 20.1922 8.17246C20.267 7.85436 20.2168 7.5888 20.1008 7.38826C19.9845 7.18725 19.7764 7.00741 19.4569 6.90892C19.1346 6.80961 18.6847 6.79067 18.1164 6.95387C17.0593 7.25747 15.6394 8.18316 14.0922 10.2153ZM14.5949 12.9129C14.4815 13.2354 14.3097 13.5303 14.0922 13.785C15.6394 15.8172 17.0593 16.7429 18.1164 17.0465C18.6847 17.2097 19.1346 17.1908 19.4569 17.0915C19.7764 16.993 19.9845 16.8131 20.1008 16.6121C20.2168 16.4116 20.267 16.146 20.1922 15.8279C20.1166 15.5065 19.9073 15.1144 19.4775 14.7113C18.6783 13.9615 17.1521 13.2137 14.5949 12.9129ZM12.487 14.7072C12.3289 14.7355 12.1662 14.7502 12 14.7502C11.8031 14.7502 11.611 14.7295 11.4258 14.6902C10.4294 17.0498 10.3368 18.7411 10.604 19.805C10.7473 20.3757 10.9896 20.7537 11.2383 20.9821C11.4851 21.2087 11.7489 21.3002 11.9875 21.3002C12.2259 21.3002 12.487 21.2089 12.7298 20.9842C12.9746 20.7575 13.2128 20.3812 13.3508 19.8113C13.6077 18.7499 13.5007 17.062 12.487 14.7072ZM9.90788 13.785C9.69035 13.5303 9.51853 13.2354 9.40512 12.9129C6.84796 13.2137 5.32175 13.9615 4.52252 14.7113C4.09271 15.1144 3.88342 15.5065 3.80785 15.8279C3.73304 16.146 3.7832 16.4116 3.89922 16.6121C4.0155 16.8131 4.22363 16.993 4.5432 17.0915C4.86541 17.1908 5.31535 17.2097 5.88363 17.0465C6.94077 16.7429 8.36065 15.8172 9.90788 13.785ZM9.40512 11.0875C6.84796 10.7867 5.32175 10.0389 4.52252 9.28913C4.09271 8.88594 3.88342 8.49385 3.80785 8.17246C3.73304 7.85436 3.7832 7.5888 3.89922 7.38826C4.0155 7.18725 4.22363 7.00741 4.5432 6.90892C4.86541 6.80961 5.31535 6.79067 5.88363 6.95387C6.94077 7.25747 8.36065 8.18316 9.90788 10.2153C9.69035 10.4701 9.51853 10.765 9.40512 11.0875ZM12 10.7502C11.3097 10.7502 10.75 11.3098 10.75 12.0002C10.75 12.6906 11.3097 13.2502 12 13.2502C12.6904 13.2502 13.25 12.6906 13.25 12.0002C13.25 11.3098 12.6904 10.7502 12 10.7502Z" fill="#464A4D"/>
</svg>
