<svg width="24" height="24" viewBox="0 0 24 24" fill="none" xmlns="http://www.w3.org/2000/svg">
<path d="M19.077 12.4551C18.801 12.2891 18.502 12.1381 18.181 12.0001C18.502 11.8621 18.801 11.7111 19.077 11.5451C20.575 10.6461 21.4 9.3161 21.4 7.8001C21.4 5.1271 18.873 2.6001 16.2 2.6001C14.683 2.6001 13.353 3.4251 12.455 4.9231C12.289 5.1991 12.138 5.4981 12 5.8191C11.862 5.4981 11.711 5.1991 11.545 4.9231C10.646 3.4251 9.31601 2.6001 7.80001 2.6001C5.12701 2.6001 2.60001 5.1271 2.60001 7.8001C2.60001 8.8441 3.00801 10.8131 5.80701 12.0061C5.49101 12.1421 5.19601 12.2921 4.92301 12.4561C3.42501 13.3541 2.60001 14.6851 2.60001 16.2011C2.60001 18.8741 5.12701 21.4011 7.80001 21.4011C9.31701 21.4011 10.646 20.5761 11.545 19.0781C11.709 18.8061 11.858 18.5111 11.995 18.1941C13.188 20.9931 15.157 21.4011 16.201 21.4011C18.874 21.4011 21.401 18.8741 21.401 16.2011C21.401 14.6841 20.576 13.3541 19.078 12.4561L19.077 12.4551Z" fill="black"/>
</svg>
