<svg width="24" height="24" viewBox="0 0 24 24" fill="none" xmlns="http://www.w3.org/2000/svg">
<path fill-rule="evenodd" clip-rule="evenodd" d="M6.25 2.3999C6.25 1.98569 6.58579 1.6499 7 1.6499H17C17.4142 1.6499 17.75 1.98569 17.75 2.3999C17.75 3.50157 17.4247 4.5038 16.8989 5.3499H19.5C19.9142 5.3499 20.25 5.68569 20.25 6.0999C20.25 7.95289 19.6049 9.62574 18.5762 10.9499H22C22.4142 10.9499 22.75 11.2857 22.75 11.6999C22.75 17.5288 17.8994 22.2499 12 22.2499C6.10065 22.2499 1.25 17.5288 1.25 11.6999C1.25 11.2857 1.58579 10.9499 2 10.9499H5.42635C4.35713 9.57845 3.75 7.90192 3.75 6.0999C3.75 5.68569 4.08579 5.3499 4.5 5.3499H7.10113C6.57532 4.5038 6.25 3.50157 6.25 2.3999ZM7.82073 3.1499C8.00102 4.0953 8.51269 4.9223 9.20172 5.54243C9.43255 5.75017 9.51147 6.07867 9.40022 6.3686C9.28896 6.65853 9.01054 6.8499 8.7 6.8499H5.29385C5.49013 8.51603 6.33755 10.0181 7.67678 11.121C7.92115 11.3222 8.01284 11.6552 7.90594 11.9532C7.79904 12.2511 7.51656 12.4499 7.2 12.4499H2.78168C3.17388 17.0747 7.15837 20.7499 12 20.7499C16.8416 20.7499 20.8261 17.0747 21.2183 12.4499H16.8C16.4825 12.4499 16.1994 12.25 16.0932 11.9508C15.987 11.6517 16.0807 11.318 16.3271 11.1178C17.5903 10.0914 18.5 8.58758 18.7059 6.8499H15.3C14.9895 6.8499 14.711 6.65853 14.5998 6.3686C14.4885 6.07867 14.5675 5.75017 14.7983 5.54243C15.4873 4.9223 15.999 4.0953 16.1793 3.1499H7.82073Z" fill="#464A4D"/>
</svg>
