<svg width="24" height="24" viewBox="0 0 24 24" fill="none" xmlns="http://www.w3.org/2000/svg">
<path d="M21.1629 2.80815C19.3169 0.965154 15.6169 2.27615 11.9709 4.91415C8.32488 2.27515 4.62388 0.963154 2.77788 2.80815C0.93288 4.65315 2.24488 8.35415 4.88388 12.0012C2.24488 15.6482 0.93388 19.3492 2.77788 21.1932C3.37288 21.7892 4.16188 22.0552 5.07988 22.0552C7.00588 22.0552 9.50088 20.8752 11.9709 19.0882C14.4399 20.8752 16.9349 22.0552 18.8619 22.0552C19.7789 22.0552 20.5689 21.7872 21.1639 21.1932C23.0079 19.3482 21.6959 15.6472 19.0579 12.0012C21.6969 8.35415 23.0089 4.65415 21.1639 2.80915L21.1629 2.80815ZM19.7489 4.22215C20.4389 4.91215 19.8399 7.32915 17.7709 10.3542C17.1489 9.61015 16.4859 8.87915 15.7889 8.18215C15.0919 7.48515 14.3609 6.82315 13.6179 6.20115C16.6429 4.13315 19.0569 3.53415 19.7489 4.22215ZM16.5409 12.0002C15.9079 12.7832 15.1909 13.5882 14.3749 14.4042C13.5589 15.2202 12.7539 15.9362 11.9709 16.5702C11.1879 15.9372 10.3819 15.2202 9.56588 14.4042C8.74988 13.5882 8.03288 12.7822 7.39988 12.0002C8.03288 11.2172 8.74988 10.4122 9.56588 9.59615C10.3799 8.78215 11.1829 8.06815 11.9639 7.43615C12.7499 8.07115 13.5549 8.77715 14.3749 9.59615C15.1909 10.4122 15.9079 11.2182 16.5409 12.0002ZM4.19188 4.22215C4.37388 4.04015 4.67588 3.94715 5.07788 3.94715C6.19788 3.94715 8.09588 4.67815 10.3229 6.20115C9.57888 6.82315 8.84888 7.48515 8.15188 8.18215C7.45488 8.87915 6.79288 9.61015 6.16988 10.3542C4.10088 7.32915 3.50188 4.91315 4.19188 4.22215ZM4.19188 19.7782C3.50188 19.0882 4.10088 16.6722 6.16988 13.6462C6.79188 14.3902 7.45488 15.1212 8.15188 15.8182C8.84888 16.5152 9.57788 17.1802 10.3209 17.8022C7.29688 19.8692 4.88288 20.4672 4.19188 19.7782ZM19.7489 19.7782C19.0599 20.4662 16.6449 19.8682 13.6209 17.8012C14.3639 17.1792 15.0929 16.5142 15.7889 15.8182C16.4859 15.1212 17.1479 14.3902 17.7709 13.6462C19.8399 16.6712 20.4389 19.0872 19.7489 19.7782Z" fill="#464A4D"/>
</svg>
