<svg width="24" height="24" viewBox="0 0 24 24" fill="none" xmlns="http://www.w3.org/2000/svg">
<path fill-rule="evenodd" clip-rule="evenodd" d="M12.0046 3.88899C15.3079 1.73108 18.5435 1.78506 20.4032 3.63004C22.27 5.48196 22.3167 8.70263 20.111 12.0046C22.2689 15.3079 22.2149 18.5435 20.3699 20.4032C18.518 22.2699 15.2974 22.3166 11.9954 20.111C8.69204 22.2689 5.45652 22.2149 3.59679 20.3699C1.73092 18.5189 1.68338 15.3003 3.88594 11.9999C1.68218 8.69591 1.73286 5.45647 3.59467 3.59465C5.45736 1.73196 8.69896 1.68211 12.0046 3.88899ZM4.65533 4.65531C3.44997 5.86067 3.11875 8.41312 5.40656 11.5589L5.72738 12L5.40656 12.4411C3.11726 15.5889 3.45214 18.1135 4.65322 19.305C5.86104 20.5033 8.41835 20.8298 11.565 18.5891L12.0046 18.276L12.4411 18.5934C15.5889 20.8827 18.1135 20.5478 19.3051 19.3468C20.5033 18.1389 20.8298 15.5816 18.5891 12.435L18.276 11.9954L18.5935 11.5589C20.8828 8.41107 20.5479 5.88646 19.3468 4.69492C18.139 3.49669 15.5817 3.17015 12.4351 5.4109L11.9954 5.724L11.5589 5.40653C8.41314 3.11872 5.8607 3.44995 4.65533 4.65531Z" fill="#464A4D"/>
</svg>
