<svg width="24" height="24" viewBox="0 0 24 24" fill="none" xmlns="http://www.w3.org/2000/svg">
<path d="M21.163 2.80815C19.317 0.965154 15.617 2.27615 11.971 4.91415C8.325 2.27515 4.624 0.963154 2.778 2.80815C0.933002 4.65315 2.245 8.35415 4.884 12.0012C2.245 15.6482 0.934003 19.3492 2.778 21.1932C3.373 21.7892 4.162 22.0552 5.08 22.0552C7.006 22.0552 9.501 20.8752 11.971 19.0882C14.44 20.8752 16.935 22.0552 18.862 22.0552C19.779 22.0552 20.569 21.7872 21.164 21.1932C23.008 19.3482 21.696 15.6472 19.058 12.0012C21.697 8.35415 23.009 4.65415 21.164 2.80915L21.163 2.80815ZM19.749 4.22215C20.439 4.91215 19.84 7.32915 17.771 10.3542C17.149 9.61015 16.486 8.87915 15.789 8.18215C15.092 7.48515 14.361 6.82315 13.618 6.20115C16.643 4.13315 19.057 3.53415 19.749 4.22215ZM16.541 12.0002C15.908 12.7832 15.191 13.5882 14.375 14.4042C13.559 15.2202 12.754 15.9362 11.971 16.5702C11.188 15.9372 10.382 15.2202 9.566 14.4042C8.75 13.5882 8.033 12.7822 7.4 12.0002C8.033 11.2172 8.75 10.4122 9.566 9.59615C10.38 8.78215 11.183 8.06815 11.964 7.43615C12.75 8.07115 13.555 8.77715 14.375 9.59615C15.191 10.4122 15.908 11.2182 16.541 12.0002ZM4.192 4.22215C4.374 4.04015 4.676 3.94715 5.078 3.94715C6.198 3.94715 8.096 4.67815 10.323 6.20115C9.579 6.82315 8.849 7.48515 8.152 8.18215C7.455 8.87915 6.793 9.61015 6.17 10.3542C4.101 7.32915 3.502 4.91315 4.192 4.22215ZM4.192 19.7782C3.502 19.0882 4.101 16.6722 6.17 13.6462C6.792 14.3902 7.455 15.1212 8.152 15.8182C8.849 16.5152 9.578 17.1802 10.321 17.8022C7.297 19.8692 4.883 20.4672 4.192 19.7782ZM19.749 19.7782C19.06 20.4662 16.645 19.8682 13.621 17.8012C14.364 17.1792 15.093 16.5142 15.789 15.8182C16.486 15.1212 17.148 14.3902 17.771 13.6462C19.84 16.6712 20.439 19.0872 19.749 19.7782Z" fill="black"/>
</svg>
