<svg width="24" height="24" viewBox="0 0 24 24" fill="none" xmlns="http://www.w3.org/2000/svg">
<path d="M18.287 12C20.651 11.074 21.744 9.63397 21.943 8.32597C22.14 7.02497 21.45 5.81897 20.223 5.32597C18.985 4.82497 17.179 5.02697 15.179 6.58297C15.537 4.06797 14.81 2.39797 13.757 1.57097C12.706 0.745974 11.3 0.748974 10.257 1.58097C9.21001 2.41597 8.49701 4.10297 8.89401 6.64097C6.86301 5.03097 5.02701 4.81997 3.77501 5.32697C2.54901 5.82097 1.85801 7.02697 2.05601 8.32697C2.25401 9.63497 3.34901 11.076 5.71301 12.001C3.34901 12.927 2.25501 14.367 2.05601 15.675C1.85801 16.976 2.54901 18.181 3.77501 18.675C4.16101 18.831 4.60301 18.919 5.08801 18.919C6.15901 18.919 7.44501 18.476 8.82101 17.406C8.45801 19.929 9.18701 21.603 10.241 22.431C10.764 22.842 11.376 23.047 11.987 23.047C12.603 23.047 13.218 22.838 13.742 22.421C14.79 21.585 15.503 19.895 15.103 17.351C16.508 18.465 17.821 18.919 18.911 18.919C19.396 18.919 19.838 18.831 20.223 18.675C21.45 18.181 22.14 16.976 21.943 15.675C21.744 14.367 20.65 12.927 18.287 12.001V12ZM11 12C11 11.449 11.449 11 12 11C12.551 11 13 11.449 13 12C13 12.551 12.551 13 12 13C11.449 13 11 12.551 11 12Z" fill="black"/>
</svg>
