<svg width="24" height="24" viewBox="0 0 24 24" fill="none" xmlns="http://www.w3.org/2000/svg">
<path fill-rule="evenodd" clip-rule="evenodd" d="M12 8.18374C10.2093 5.69171 8.48656 4.06782 7.0092 3.16205C6.18718 2.65807 5.40693 2.35554 4.7099 2.27705C4.01174 2.19844 3.32216 2.34207 2.83217 2.83205C2.34219 3.32203 2.19856 4.01162 2.27717 4.70978C2.35566 5.40681 2.65819 6.18706 3.16217 7.00908C4.06794 8.48644 5.69184 10.2092 8.18386 11.9999C5.69184 13.7906 4.06794 15.5133 3.16217 16.9907C2.65819 17.8127 2.35566 18.5929 2.27717 19.29C2.19856 19.9881 2.34219 20.6777 2.83217 21.1677C3.32216 21.6577 4.01174 21.8013 4.7099 21.7227C5.40693 21.6442 6.18718 21.3417 7.0092 20.8377C8.48656 19.9319 10.2093 18.308 12 15.816C13.7907 18.308 15.5134 19.9319 16.9908 20.8377C17.8128 21.3417 18.5931 21.6442 19.2901 21.7227C19.9883 21.8013 20.6778 21.6577 21.1678 21.1677C21.6578 20.6777 21.8014 19.9881 21.7228 19.29C21.6443 18.5929 21.3418 17.8127 20.8378 16.9907C19.9321 15.5133 18.3082 13.7906 15.8161 11.9999C18.3082 10.2092 19.9321 8.48644 20.8378 7.00908C21.3418 6.18706 21.6443 5.40681 21.7228 4.70978C21.8014 4.01162 21.6578 3.32203 21.1678 2.83205C20.6778 2.34207 19.9883 2.19844 19.2901 2.27705C18.5931 2.35554 17.8128 2.65807 16.9908 3.16205C15.5134 4.06782 13.7907 5.69171 12 8.18374ZM4.44096 6.22505C5.3024 7.63011 7.02328 9.43917 9.91725 11.3767C10.1252 11.5159 10.25 11.7496 10.25 11.9999C10.25 12.2501 10.1252 12.4839 9.91725 12.6231C7.02328 14.5606 5.3024 16.3697 4.44096 17.7747C4.009 18.4792 3.81388 19.0482 3.76775 19.4578C3.72176 19.8663 3.82657 20.0408 3.89283 20.107C3.9591 20.1733 4.13357 20.2781 4.54206 20.2321C4.95167 20.186 5.52064 19.9909 6.22518 19.5589C7.63023 18.6975 9.43929 16.9766 11.3768 14.0826C11.516 13.8747 11.7498 13.7499 12 13.7499C12.2502 13.7499 12.484 13.8747 12.6232 14.0826C14.5607 16.9766 16.3698 18.6975 17.7748 19.5589C18.4794 19.9909 19.0483 20.186 19.4579 20.2321C19.8664 20.2781 20.0409 20.1733 20.1072 20.107C20.1734 20.0408 20.2782 19.8663 20.2323 19.4578C20.1861 19.0482 19.991 18.4792 19.559 17.7747C18.6976 16.3697 16.9767 14.5606 14.0828 12.6231C13.8748 12.4839 13.75 12.2501 13.75 11.9999C13.75 11.7496 13.8748 11.5159 14.0828 11.3767C16.9767 9.43917 18.6976 7.63011 19.559 6.22505C19.991 5.52051 20.1861 4.95154 20.2323 4.54194C20.2782 4.13345 20.1734 3.95898 20.1072 3.89271C20.0409 3.82644 19.8664 3.72164 19.4579 3.76763C19.0483 3.81375 18.4794 4.00888 17.7748 4.44084C16.3698 5.30228 14.5607 7.02316 12.6232 9.91712C12.484 10.1251 12.2502 10.2499 12 10.2499C11.7498 10.2499 11.516 10.1251 11.3768 9.91712C9.43929 7.02316 7.63023 5.30228 6.22518 4.44084C5.52064 4.00888 4.95167 3.81375 4.54206 3.76763C4.13357 3.72164 3.9591 3.82644 3.89283 3.89271C3.82657 3.95898 3.72176 4.13345 3.76775 4.54194C3.81388 4.95154 4.009 5.52051 4.44096 6.22505Z" fill="black"/>
</svg>
