<svg width="24" height="24" viewBox="0 0 24 24" fill="none" xmlns="http://www.w3.org/2000/svg">
<path fill-rule="evenodd" clip-rule="evenodd" d="M11.9999 8.18374C10.2092 5.69171 8.48644 4.06782 7.00908 3.16205C6.18706 2.65807 5.40681 2.35554 4.70978 2.27705C4.01162 2.19844 3.32203 2.34207 2.83205 2.83205C2.34207 3.32203 2.19844 4.01162 2.27705 4.70978C2.35554 5.40681 2.65807 6.18706 3.16205 7.00908C4.06782 8.48644 5.69171 10.2092 8.18374 11.9999C5.69171 13.7906 4.06782 15.5133 3.16205 16.9907C2.65807 17.8127 2.35554 18.5929 2.27705 19.29C2.19844 19.9881 2.34207 20.6777 2.83205 21.1677C3.32203 21.6577 4.01162 21.8013 4.70978 21.7227C5.40681 21.6442 6.18706 21.3417 7.00908 20.8377C8.48644 19.9319 10.2092 18.308 11.9999 15.816C13.7906 18.308 15.5133 19.9319 16.9907 20.8377C17.8127 21.3417 18.5929 21.6442 19.29 21.7227C19.9881 21.8013 20.6777 21.6577 21.1677 21.1677C21.6577 20.6777 21.8013 19.9881 21.7227 19.29C21.6442 18.5929 21.3417 17.8127 20.8377 16.9907C19.9319 15.5133 18.308 13.7906 15.816 11.9999C18.308 10.2092 19.9319 8.48644 20.8377 7.00908C21.3417 6.18706 21.6442 5.40681 21.7227 4.70978C21.8013 4.01162 21.6577 3.32203 21.1677 2.83205C20.6777 2.34207 19.9881 2.19844 19.29 2.27705C18.5929 2.35554 17.8127 2.65807 16.9907 3.16205C15.5133 4.06782 13.7906 5.69171 11.9999 8.18374ZM4.44084 6.22505C5.30228 7.63011 7.02316 9.43917 9.91712 11.3767C10.1251 11.5159 10.2499 11.7496 10.2499 11.9999C10.2499 12.2501 10.1251 12.4839 9.91712 12.6231C7.02316 14.5606 5.30228 16.3697 4.44084 17.7747C4.00888 18.4792 3.81375 19.0482 3.76763 19.4578C3.72164 19.8663 3.82644 20.0408 3.89271 20.107C3.95898 20.1733 4.13345 20.2781 4.54194 20.2321C4.95154 20.186 5.52051 19.9909 6.22505 19.5589C7.63011 18.6975 9.43917 16.9766 11.3767 14.0826C11.5159 13.8747 11.7496 13.7499 11.9999 13.7499C12.2501 13.7499 12.4839 13.8747 12.6231 14.0826C14.5606 16.9766 16.3697 18.6975 17.7747 19.5589C18.4792 19.9909 19.0482 20.186 19.4578 20.2321C19.8663 20.2781 20.0408 20.1733 20.107 20.107C20.1733 20.0408 20.2781 19.8663 20.2321 19.4578C20.186 19.0482 19.9909 18.4792 19.5589 17.7747C18.6975 16.3697 16.9766 14.5606 14.0826 12.6231C13.8747 12.4839 13.7499 12.2501 13.7499 11.9999C13.7499 11.7496 13.8747 11.5159 14.0826 11.3767C16.9766 9.43917 18.6975 7.63011 19.5589 6.22505C19.9909 5.52051 20.186 4.95154 20.2321 4.54194C20.2781 4.13345 20.1733 3.95898 20.107 3.89271C20.0408 3.82644 19.8663 3.72164 19.4578 3.76763C19.0482 3.81375 18.4792 4.00888 17.7747 4.44084C16.3697 5.30228 14.5606 7.02316 12.6231 9.91712C12.4839 10.1251 12.2501 10.2499 11.9999 10.2499C11.7496 10.2499 11.5159 10.1251 11.3767 9.91712C9.43917 7.02316 7.63011 5.30228 6.22505 4.44084C5.52051 4.00888 4.95154 3.81375 4.54194 3.76763C4.13345 3.72164 3.95898 3.82644 3.89271 3.89271C3.82644 3.95898 3.72164 4.13345 3.76763 4.54194C3.81375 4.95154 4.00888 5.52051 4.44084 6.22505Z" fill="#464A4D"/>
</svg>
