<svg width="24" height="24" viewBox="0 0 24 24" fill="none" xmlns="http://www.w3.org/2000/svg">
<path d="M19.0002 5.25C19.4144 5.25011 19.7502 5.58585 19.7502 6V12.25H20.0002C20.6909 12.2499 21.2502 11.6907 21.2502 11V10C21.2502 9.58579 21.586 9.25 22.0002 9.25C22.4144 9.25011 22.7502 9.58585 22.7502 10V11C22.7502 12.5191 21.5194 13.7499 20.0002 13.75H19.7502V18.25H22.0002C22.4144 18.2501 22.7502 18.5859 22.7502 19C22.7502 19.4141 22.4144 19.7499 22.0002 19.75H1.61743C1.29941 19.75 1.0162 19.5489 0.9104 19.249C0.804805 18.9492 0.899253 18.6155 1.14673 18.416L9.83911 11.416L9.94751 11.3438C10.2101 11.1989 10.5394 11.2227 10.7795 11.416L18.2502 17.4326V11.75H18.0002C16.481 11.75 15.2502 10.5192 15.2502 9V8C15.2502 7.58579 15.586 7.25 16.0002 7.25C16.4144 7.25011 16.7502 7.58585 16.7502 8V9C16.7502 9.69079 17.3095 10.25 18.0002 10.25H18.2502V6C18.2502 5.58579 18.586 5.25 19.0002 5.25ZM3.74438 18.25H12.0344C12.0758 18.2499 12.1681 18.2319 12.3 18.1562C12.4279 18.0829 12.5567 17.9759 12.6594 17.8555C12.7389 17.7622 12.7826 17.6786 12.8079 17.6211C12.5556 17.3406 12.0836 17.0224 11.4934 16.6787C11.2198 16.5194 10.8366 16.3063 10.5901 16.1611C10.395 16.0462 10.1822 15.9156 10.0032 15.7773L9.83716 15.6367C9.45178 15.272 9.30219 14.785 9.24731 14.3721C9.22381 14.1951 9.21702 14.0154 9.21899 13.8389L3.74438 18.25ZM10.7581 13.3516C10.7158 13.6534 10.7036 13.9411 10.7346 14.1748C10.7666 14.4148 10.8323 14.5133 10.8674 14.5469L11.0295 14.6689C11.1086 14.722 11.2148 14.7885 11.3518 14.8691C11.6396 15.0386 11.8852 15.1714 12.2483 15.3828C12.8635 15.741 13.6599 16.2338 14.0969 16.8291L14.1887 16.9756C14.374 17.3215 14.3539 17.6925 14.2756 17.9746C14.2493 18.0693 14.2128 18.1608 14.1721 18.25H16.8733L10.762 13.3262C10.7607 13.3346 10.7592 13.3431 10.7581 13.3516ZM5.00024 2.25C6.51893 2.25011 7.75024 3.48128 7.75024 5C7.75024 6.51872 6.51893 7.74989 5.00024 7.75C3.48146 7.75 2.25024 6.51878 2.25024 5C2.25024 3.48122 3.48146 2.25 5.00024 2.25ZM5.00024 3.75C4.30989 3.75 3.75024 4.30964 3.75024 5C3.75024 5.69036 4.30989 6.25 5.00024 6.25C5.69051 6.24989 6.25024 5.69029 6.25024 5C6.25024 4.30971 5.69051 3.75011 5.00024 3.75Z" fill="black"/>
</svg>
