<svg width="24" height="24" viewBox="0 0 24 24" fill="none" xmlns="http://www.w3.org/2000/svg">
<path d="M5 8C6.654 8 8 6.654 8 5C8 3.346 6.654 2 5 2C3.346 2 2 3.346 2 5C2 6.654 3.346 8 5 8ZM5 4C5.551 4 6 4.449 6 5C6 5.551 5.551 6 5 6C4.449 6 4 5.551 4 5C4 4.449 4.449 4 5 4Z" fill="black"/>
<path d="M23 11V10C23 9.448 22.553 9 22 9C21.4471 9 21 9.448 21 10V11C21 11.551 20.552 12 20 12V6C20 5.448 19.553 5 19 5C18.4471 5 18 5.448 18 6V10C17.448 10 17 9.551 17 9V8C17 7.448 16.553 7 16 7C15.4471 7 15 7.448 15 8V9C15 10.654 16.346 12 18 12V16.911L10.937 11.221C10.571 10.926 10.048 10.926 9.68205 11.221L0.99005 18.221C0.66005 18.488 0.53305 18.933 0.67505 19.333C0.81605 19.732 1.19405 20 1.61805 20H22.001C22.554 20 23.001 19.553 23.001 19C23.001 18.447 22.554 18 22.001 18H20.001V14C21.655 14 23 12.654 23 11ZM4.45305 18L8.99905 14.339C9.06505 14.893 9.24905 15.425 9.66405 15.818C9.95205 16.089 10.383 16.335 10.929 16.644C11.446 16.937 12.121 17.32 12.497 17.662C12.37 17.819 12.151 17.988 12.034 18H4.45305Z" fill="black"/>
</svg>
