<svg width="24" height="24" viewBox="0 0 24 24" fill="none" xmlns="http://www.w3.org/2000/svg">
<path d="M4.99988 8C6.65388 8 7.99988 6.654 7.99988 5C7.99988 3.346 6.65388 2 4.99988 2C3.34588 2 1.99988 3.346 1.99988 5C1.99988 6.654 3.34588 8 4.99988 8ZM4.99988 4C5.55088 4 5.99988 4.449 5.99988 5C5.99988 5.551 5.55088 6 4.99988 6C4.44888 6 3.99988 5.551 3.99988 5C3.99988 4.449 4.44888 4 4.99988 4Z" fill="#464A4D"/>
<path d="M22.9999 11V10C22.9999 9.448 22.5529 9 21.9999 9C21.4469 9 20.9999 9.448 20.9999 10V11C20.9999 11.551 20.5519 12 19.9999 12V6C19.9999 5.448 19.5529 5 18.9999 5C18.4469 5 17.9999 5.448 17.9999 6V10C17.4479 10 16.9999 9.551 16.9999 9V8C16.9999 7.448 16.5529 7 15.9999 7C15.4469 7 14.9999 7.448 14.9999 8V9C14.9999 10.654 16.3459 12 17.9999 12V16.911L10.9369 11.221C10.5709 10.926 10.0479 10.926 9.68193 11.221L0.989928 18.221C0.659928 18.488 0.532928 18.933 0.674928 19.333C0.815928 19.732 1.19393 20 1.61793 20H22.0009C22.5539 20 23.0009 19.553 23.0009 19C23.0009 18.447 22.5539 18 22.0009 18H20.0009V14C21.6549 14 22.9999 12.654 22.9999 11ZM4.45293 18L8.99893 14.339C9.06493 14.893 9.24893 15.425 9.66393 15.818C9.95193 16.089 10.3829 16.335 10.9289 16.644C11.4459 16.937 12.1209 17.32 12.4969 17.662C12.3699 17.819 12.1509 17.988 12.0339 18H4.45293Z" fill="#464A4D"/>
</svg>
