<svg width="24" height="24" viewBox="0 0 24 24" fill="none" xmlns="http://www.w3.org/2000/svg">
<path d="M19.7211 14H16.0311C17.7191 12.074 19.0001 10.253 19.0001 8.075C19.0001 4.372 15.6631 1 12.0001 1C8.27106 1 5.00006 4.306 5.00006 8.075C5.00006 10.293 6.27506 12.1 7.95106 14H4.27906L1.61206 22H22.3871L19.7201 14H19.7211ZM12.0001 5.2C13.5701 5.2 14.8001 6.43 14.8001 8C14.8001 9.57 13.5711 10.8 12.0001 10.8C10.4291 10.8 9.20006 9.57 9.20006 8C9.20006 6.43 10.4301 5.2 12.0001 5.2ZM4.38706 20L5.72006 16H9.76906C10.2511 16.525 10.7421 17.066 11.2371 17.648C11.4271 17.871 11.7061 18 11.9991 18C12.2921 18 12.5701 17.871 12.7611 17.648C13.2541 17.067 13.7441 16.526 14.2241 16H18.2791L19.6121 20H4.38706Z" fill="#464A4D"/>
</svg>
