<svg width="24" height="24" viewBox="0 0 24 24" fill="none" xmlns="http://www.w3.org/2000/svg">
<path d="M19.721 14H16.031C17.719 12.074 19 10.253 19 8.075C19 4.372 15.663 1 12 1C8.271 1 5 4.306 5 8.075C5 10.293 6.275 12.1 7.951 14H4.279L1.612 22H22.387L19.72 14H19.721ZM12 5.2C13.57 5.2 14.8 6.43 14.8 8C14.8 9.57 13.571 10.8 12 10.8C10.429 10.8 9.2 9.57 9.2 8C9.2 6.43 10.43 5.2 12 5.2ZM4.387 20L5.72 16H9.769C10.251 16.525 10.742 17.066 11.237 17.648C11.427 17.871 11.706 18 11.999 18C12.292 18 12.57 17.871 12.761 17.648C13.254 17.067 13.744 16.526 14.224 16H18.279L19.612 20H4.387Z" fill="black"/>
</svg>
