<svg width="24" height="24" viewBox="0 0 24 24" fill="none" xmlns="http://www.w3.org/2000/svg">
<path fill-rule="evenodd" clip-rule="evenodd" d="M7 4.75C6.86221 4.75 6.75 4.86221 6.75 5V8H5.25V5C5.25 4.03379 6.03379 3.25 7 3.25H20C20.9662 3.25 21.75 4.03379 21.75 5V16C21.75 16.9662 20.9662 17.75 20 17.75H11V16.25H20C20.1378 16.25 20.25 16.1378 20.25 16V5C20.25 4.86221 20.1378 4.75 20 4.75H7Z" fill="black"/>
<path fill-rule="evenodd" clip-rule="evenodd" d="M4 8.75C3.86193 8.75 3.75 8.86193 3.75 9V19C3.75 19.1381 3.86193 19.25 4 19.25H10C10.1381 19.25 10.25 19.1381 10.25 19V9C10.25 8.86193 10.1381 8.75 10 8.75H4ZM2.25 9C2.25 8.0335 3.0335 7.25 4 7.25H10C10.9665 7.25 11.75 8.0335 11.75 9V19C11.75 19.9665 10.9665 20.75 10 20.75H4C3.0335 20.75 2.25 19.9665 2.25 19V9Z" fill="black"/>
</svg>
