<svg width="24" height="24" viewBox="0 0 24 24" fill="none" xmlns="http://www.w3.org/2000/svg">
<path d="M19 2H5C3.35 2 2 3.35 2 5V19C2 20.65 3.35 22 5 22H19C20.65 22 22 20.65 22 19V5C22 3.35 20.65 2 19 2ZM9 16C8.45 16 8 15.55 8 15C8 14.45 8.45 14 9 14C9.55 14 10 14.45 10 15C10 15.55 9.55 16 9 16ZM9 10C8.45 10 8 9.55 8 9C8 8.45 8.45 8 9 8C9.55 8 10 8.45 10 9C10 9.55 9.55 10 9 10ZM12 13C11.45 13 11 12.55 11 12C11 11.45 11.45 11 12 11C12.55 11 13 11.45 13 12C13 12.55 12.55 13 12 13ZM15 16C14.45 16 14 15.55 14 15C14 14.45 14.45 14 15 14C15.55 14 16 14.45 16 15C16 15.55 15.55 16 15 16ZM15 10C14.45 10 14 9.55 14 9C14 8.45 14.45 8 15 8C15.55 8 16 8.45 16 9C16 9.55 15.55 10 15 10Z" fill="black"/>
</svg>
