<svg width="24" height="24" viewBox="0 0 24 24" fill="none" xmlns="http://www.w3.org/2000/svg">
<path d="M22.71 11.2898L21.02 9.59977L21.66 7.25977C21.73 6.99977 21.7 6.72977 21.57 6.49977C21.44 6.26977 21.22 6.09977 20.97 6.02977L18.62 5.37977L17.97 3.02977C17.9 2.76977 17.73 2.55977 17.5 2.42977C17.27 2.29977 17 2.25977 16.74 2.33977L14.4 2.98977L12.71 1.29977C12.52 1.10977 12.27 1.00977 12 1.00977C11.73 1.00977 11.48 1.11977 11.29 1.29977L9.60001 2.98977L7.26001 2.33977C7.00001 2.26977 6.73001 2.29977 6.50001 2.42977C6.27001 2.55977 6.10001 2.77977 6.03001 3.02977L5.38001 5.37977L3.03001 6.02977C2.77001 6.09977 2.56001 6.26977 2.43001 6.49977C2.30001 6.72977 2.26001 6.99977 2.34001 7.25977L2.99001 9.59977L1.30001 11.2898C1.11001 11.4798 1.01001 11.7298 1.01001 11.9998C1.01001 12.2698 1.12001 12.5198 1.30001 12.7098L2.99001 14.3998L2.34001 16.7398C2.27001 16.9898 2.30001 17.2698 2.43001 17.4998C2.56001 17.7298 2.78001 17.8998 3.03001 17.9698L5.38001 18.6198L6.03001 20.9698C6.10001 21.2298 6.27001 21.4398 6.50001 21.5698C6.73001 21.6998 7.00001 21.7398 7.26001 21.6598L9.60001 21.0198L11.29 22.7098C11.49 22.9098 11.74 22.9998 12 22.9998C12.26 22.9998 12.51 22.8998 12.71 22.7098L14.4 21.0198L16.74 21.6598C17.27 21.8098 17.82 21.4898 17.97 20.9598L18.62 18.6098L20.97 17.9598C21.5 17.8098 21.81 17.2598 21.67 16.7298L21.03 14.3898L22.72 12.6998C23.11 12.3098 23.11 11.6798 22.72 11.2898H22.71ZM9.00001 7.99977C9.55001 7.99977 10 8.44977 10 8.99977C10 9.54977 9.55001 9.99977 9.00001 9.99977C8.45001 9.99977 8.00001 9.54977 8.00001 8.99977C8.00001 8.44977 8.45001 7.99977 9.00001 7.99977ZM15 15.9998C14.45 15.9998 14 15.5498 14 14.9998C14 14.4498 14.45 13.9998 15 13.9998C15.55 13.9998 16 14.4498 16 14.9998C16 15.5498 15.55 15.9998 15 15.9998ZM8.71001 16.7098L7.30001 15.2998L15.29 7.28977L16.7 8.69977L8.70001 16.6998L8.71001 16.7098Z" fill="black"/>
</svg>
