<svg width="24" height="24" viewBox="0 0 24 24" fill="none" xmlns="http://www.w3.org/2000/svg">
<path d="M11.5264 1.41797C11.821 1.17781 12.2558 1.1952 12.5303 1.46973L14.3214 3.26074L16.8008 2.57715L16.9464 2.55176C17.0928 2.54127 17.2406 2.57395 17.3702 2.64746C17.5431 2.74561 17.6698 2.90893 17.7227 3.10059L18.4092 5.58984L20.8995 6.27734C21.0911 6.33025 21.2544 6.45697 21.3526 6.62988C21.4506 6.80272 21.4757 7.00764 21.4229 7.19922L20.7383 9.67773L22.5303 11.4697C22.8232 11.7626 22.8231 12.2374 22.5303 12.5303L20.7383 14.3213L21.4229 16.8008C21.4757 16.9923 21.4506 17.1973 21.3526 17.3701C21.2545 17.543 21.0911 17.6697 20.8995 17.7227L18.4092 18.4092L17.7227 20.8994C17.6698 21.0911 17.5431 21.2544 17.3702 21.3525C17.1973 21.4506 16.9925 21.4756 16.8008 21.4229L14.3214 20.7383L12.5303 22.5303C12.2374 22.8232 11.7627 22.8232 11.4698 22.5303L9.6778 20.7383L7.19928 21.4229C7.00766 21.4757 6.80284 21.4506 6.62994 21.3525C6.45697 21.2544 6.33031 21.0911 6.2774 20.8994L5.5899 18.4092L3.10065 17.7227C2.90892 17.6698 2.7457 17.5431 2.64752 17.3701C2.54949 17.1972 2.5244 16.9924 2.57721 16.8008L3.2608 14.3213L1.46979 12.5303C1.17692 12.2374 1.1769 11.7626 1.46979 11.4697L3.2608 9.67773L2.57721 7.19922C2.46727 6.80003 2.70149 6.38749 3.10065 6.27734L5.5899 5.58984L6.2774 3.10059L6.30084 3.02734C6.43854 2.67326 6.82512 2.47403 7.19928 2.57715L9.6778 3.26074L11.4698 1.46973L11.5264 1.41797ZM10.4307 4.62988C10.2399 4.82073 9.96044 4.89499 9.70026 4.82324L7.52252 4.22266L6.92291 6.39941C6.85272 6.65385 6.65389 6.8526 6.39948 6.92285L4.22272 7.52246L4.8233 9.7002C4.89506 9.96033 4.8207 10.2398 4.62994 10.4307L3.06061 12L4.62994 13.5693C4.82076 13.7602 4.89499 14.0397 4.8233 14.2998L4.22272 16.4766L6.39948 17.0771L6.49225 17.1094C6.70165 17.198 6.86147 17.378 6.92291 17.6006L7.52252 19.7764L9.70026 19.1768C9.9604 19.1051 10.2399 19.1793 10.4307 19.3701L12.0001 20.9395L13.5694 19.3701L13.6456 19.3037C13.8303 19.163 14.0723 19.114 14.2999 19.1768L16.4766 19.7764L17.0772 17.6006L17.1094 17.5078C17.1981 17.2984 17.3781 17.1386 17.6006 17.0771L19.7764 16.4766L19.1768 14.2998C19.1051 14.0396 19.1793 13.7602 19.3702 13.5693L20.9395 12L19.3702 10.4307C19.1793 10.2398 19.105 9.96039 19.1768 9.7002L19.7764 7.52246L17.6006 6.92285C17.3462 6.85264 17.1474 6.65391 17.0772 6.39941L16.4766 4.22266L14.2999 4.82324C14.0397 4.89502 13.7603 4.82075 13.5694 4.62988L12.0001 3.06055L10.4307 4.62988ZM16.5303 8.53027L8.53033 16.5303L7.46979 15.4697L15.4698 7.46973L16.5303 8.53027ZM15.0001 14C15.5522 14.0001 16 14.4478 16.0001 15C16.0001 15.5522 15.5523 15.9999 15.0001 16C14.4478 16 14.0001 15.5523 14.0001 15C14.0002 14.4478 14.4478 14 15.0001 14ZM9.00006 8C9.55223 8.00007 9.99996 8.44784 10.0001 9C10.0001 9.55224 9.55229 9.99993 9.00006 10C8.44778 10 8.00006 9.55228 8.00006 9C8.00016 8.4478 8.44784 8 9.00006 8Z" fill="black"/>
</svg>
