<svg width="24" height="24" viewBox="0 0 24 24" fill="none" xmlns="http://www.w3.org/2000/svg">
<path fill-rule="evenodd" clip-rule="evenodd" d="M12.5179 2.4577L12 3.00021L11.4821 2.4577L12 1.96338L12.5179 2.4577ZM12 4.04409C11.8029 4.23664 11.5633 4.4726 11.3053 4.73054C10.6301 5.4058 9.85202 6.20933 9.37617 6.78035C8.38364 7.97138 7.43028 9.2167 6.77082 10.5356C6.09804 11.8812 5.75 13.0618 5.75 14.1002C5.75 17.479 8.50716 20.2502 12 20.2502C15.4928 20.2502 18.25 17.479 18.25 14.1002C18.25 13.0618 17.902 11.8812 17.2292 10.5356C16.5697 9.2167 15.6164 7.97138 14.6238 6.78035C14.148 6.20933 13.3699 5.4058 12.6947 4.73054C12.4367 4.4726 12.1971 4.23664 12 4.04409ZM11.4821 2.4577C11.4822 2.45767 11.4821 2.4577 12 3.00021C12.5179 2.4577 12.5178 2.45767 12.5179 2.4577L12.5438 2.48257L12.6165 2.55236C12.6794 2.61289 12.7702 2.70047 12.8821 2.80924C13.1058 3.02667 13.4147 3.32925 13.7553 3.66988C14.4301 4.34463 15.252 5.1911 15.7762 5.82008C16.7836 7.02904 17.8303 8.38372 18.5708 9.8648C19.298 11.3192 19.75 12.7387 19.75 14.1002C19.75 18.3214 16.3072 21.7502 12 21.7502C7.69284 21.7502 4.25 18.3214 4.25 14.1002C4.25 12.7387 4.70196 11.3192 5.42918 9.8648C6.16972 8.38372 7.21636 7.02904 8.22383 5.82008C8.74798 5.1911 9.56993 4.34463 10.2447 3.66988C10.5853 3.32925 10.8942 3.02667 11.1179 2.80924C11.2298 2.70047 11.3206 2.61289 11.3835 2.55236L11.4562 2.48257L11.4821 2.4577Z" fill="#464A4D"/>
</svg>
