<svg width="24" height="24" viewBox="0 0 24 24" fill="none" xmlns="http://www.w3.org/2000/svg">
<path d="M20.25 12.0001C20.25 7.44377 16.5563 3.75012 12 3.75012C7.44365 3.75012 3.75 7.44377 3.75 12.0001C3.75 16.5565 7.44365 20.2501 12 20.2501C16.5563 20.2501 20.25 16.5565 20.25 12.0001ZM21.75 12.0001C21.75 17.3849 17.3848 21.7501 12 21.7501C6.61522 21.7501 2.25 17.3849 2.25 12.0001C2.25 6.61534 6.61522 2.25012 12 2.25012C17.3848 2.25012 21.75 6.61534 21.75 12.0001Z" fill="black"/>
<path d="M11.4697 2.46984C11.7443 2.19524 12.179 2.17778 12.4736 2.41809L12.5303 2.46984L12.6504 2.59777C12.9269 2.90937 13.1704 3.30341 13.3906 3.68371C13.6651 4.15769 13.9018 4.60695 14.2031 5.10461C14.7936 6.07995 15.448 6.91184 16.3193 7.32141C16.6912 7.49599 17.2945 7.51842 18.0527 7.44738C18.4148 7.41345 18.7669 7.36398 19.1103 7.31945C19.4343 7.27745 19.7787 7.23616 20.0615 7.23742C20.4756 7.23937 20.8094 7.57625 20.8076 7.99035C20.8058 8.40455 20.4689 8.73925 20.0547 8.73742C19.8891 8.73668 19.6451 8.7625 19.3037 8.80676C18.9817 8.8485 18.59 8.90336 18.1934 8.94055C17.4814 9.00727 16.5787 9.0389 15.8291 8.7423L15.6816 8.67883C14.3852 8.06935 13.5383 6.90082 12.9209 5.88098C12.6183 5.38111 12.3232 4.83363 12.0928 4.43566C11.9029 4.10784 11.7447 3.8601 11.6045 3.68371L11.4697 3.53039L11.418 3.47375C11.1777 3.17917 11.1951 2.74445 11.4697 2.46984Z" fill="black"/>
<path d="M7.41501 3.48659C7.65589 3.14999 8.12405 3.07218 8.46091 3.31277L7.58884 4.53347C7.58906 4.53339 7.59636 4.52345 8.02536 3.92312C8.44506 3.33581 8.46021 3.31349 8.46091 3.31277L8.46189 3.31374L8.46384 3.31472C8.4651 3.31563 8.46683 3.31726 8.46872 3.31863C8.47245 3.32132 8.47732 3.32493 8.48337 3.32937C8.4958 3.33849 8.51343 3.3511 8.53513 3.36745C8.57882 3.40039 8.64067 3.44844 8.71775 3.51003C8.87177 3.63312 9.08752 3.81291 9.34275 4.04616C9.85252 4.51207 10.5262 5.19613 11.1816 6.07155L11.3476 6.31472C11.502 6.56103 11.6225 6.81461 11.7265 7.05007C11.8775 7.39195 11.9776 7.65419 12.124 7.95632C12.3559 8.43488 12.6377 8.86021 13.1396 9.20534L13.3681 9.34792L13.4531 9.40456C13.4799 9.42495 13.5054 9.44711 13.5293 9.47097L13.6133 9.56374C13.7962 9.78808 13.8865 10.054 13.9345 10.262C13.9936 10.5175 14.0128 10.7909 14.0068 11.0442C14.0008 11.2982 13.9686 11.5597 13.9082 11.7952C13.8597 11.984 13.7699 12.246 13.5927 12.4592C13.2899 12.8774 13.3753 13.0922 13.2871 13.7395C13.2429 14.064 13.1384 14.4435 12.8261 14.8059C12.531 15.1484 12.1037 15.4133 11.5381 15.6409C11.4404 15.6802 11.3356 15.6985 11.2304 15.6946C10.288 15.6599 9.72521 15.046 9.38376 14.4446C9.06065 13.8753 8.83646 13.1352 8.64841 12.6116C8.54622 12.327 8.45026 12.0875 8.34763 11.8928C8.24374 11.6958 8.15405 11.5869 8.08493 11.5305C8.03206 11.4875 7.98762 11.4708 7.91697 11.471C7.84302 11.4711 7.71256 11.4937 7.50779 11.5872C7.21743 11.9656 6.80747 12.1483 6.43845 12.2356C6.01281 12.3363 5.53358 12.3407 5.13864 12.3411C4.70704 12.3416 4.35057 12.3362 4.03513 12.3762C3.7179 12.4165 3.574 12.4902 3.50974 12.5501C3.20655 12.8322 2.73235 12.8151 2.45017 12.512C2.16796 12.2088 2.18509 11.7346 2.48825 11.4524C2.89449 11.0743 3.4149 10.9428 3.84665 10.888C4.27999 10.833 4.75748 10.8415 5.13669 10.8411C5.55273 10.8406 5.86192 10.8303 6.09275 10.7757C6.3076 10.7248 6.32742 10.6665 6.33103 10.6594L6.3906 10.5628C6.45654 10.4712 6.54245 10.3952 6.64255 10.3411L6.80271 10.2591C7.17499 10.0783 7.54575 9.97189 7.91306 9.97097C8.35311 9.96996 8.72892 10.1213 9.0322 10.3684C9.3193 10.6024 9.52274 10.9052 9.67478 11.1936C9.82808 11.4845 9.95172 11.8045 10.0595 12.1048C10.2915 12.7508 10.4495 13.2834 10.6884 13.7044C10.8574 14.0019 11.0027 14.1263 11.1494 14.1721C11.4765 14.0236 11.6229 13.9044 11.6894 13.8274C11.7492 13.7581 11.7801 13.6888 11.8008 13.5374C11.8413 13.2396 11.7821 12.3887 12.3955 11.5559L12.4209 11.5247C12.4284 11.5077 12.4417 11.4749 12.4551 11.4231C12.483 11.314 12.5031 11.1666 12.5068 11.0081C12.5105 10.8491 12.4971 10.7058 12.4726 10.5999C12.4681 10.5802 12.4611 10.5645 12.457 10.551C11.5661 9.99524 11.0983 9.27894 10.7744 8.61062C10.6162 8.28413 10.4682 7.91317 10.3545 7.65554C10.26 7.44172 10.1724 7.26442 10.0781 7.11355L9.98044 6.97097C9.39382 6.18739 8.78875 5.57193 8.33103 5.15359C8.10273 4.94494 7.91229 4.78664 7.78122 4.68191C7.71594 4.62974 7.6658 4.59059 7.63279 4.5657C7.61628 4.55325 7.60401 4.54375 7.59665 4.53835L7.58884 4.53347L7.52927 4.48562C7.24366 4.23452 7.18916 3.80264 7.41501 3.48659Z" fill="black"/>
<path d="M11.25 21.0001C11.25 20.5879 11.4053 20.1192 11.5957 19.7081C11.7956 19.2766 12.0755 18.8204 12.4072 18.4181C12.7343 18.0215 13.1442 17.6373 13.6152 17.3995C13.9722 17.2194 14.3934 17.112 14.833 17.1769C14.8414 17.1408 14.8509 17.0948 14.8574 17.0372C14.8866 16.7782 14.8674 16.4484 14.8271 16.0489L14.7334 15.2013C14.6871 14.7619 14.6516 14.2874 14.6894 13.8712C14.7389 13.3279 14.9492 12.5664 15.7578 12.2902L15.8623 12.2628C16.1077 12.2169 16.3634 12.2966 16.54 12.4796C17.265 13.2304 17.8253 13.4521 18.4141 13.6134C18.9486 13.7598 19.661 13.8778 20.4727 14.2892L20.8262 14.4845L20.8896 14.5275C21.1943 14.7545 21.284 15.1796 21.085 15.5128C20.8857 15.846 20.4683 15.9688 20.124 15.8077L20.0557 15.7716L19.791 15.6251C19.1886 15.3175 18.6907 15.2441 18.0176 15.0597C17.4314 14.8991 16.8317 14.6714 16.1738 14.1642C16.1643 14.5091 16.2128 14.9407 16.2715 15.4552C16.3333 15.9972 16.4098 16.656 16.3477 17.2062C16.3158 17.4883 16.2419 17.8083 16.0615 18.0929C15.891 18.3619 15.6432 18.5698 15.3262 18.6837L15.1865 18.7267C15.0632 18.7583 14.9345 18.7582 14.8125 18.7267L14.6934 18.6847C14.614 18.6491 14.4981 18.6339 14.291 18.7384C14.0711 18.8494 13.8161 19.067 13.5644 19.3722C13.3178 19.6713 13.1055 20.0177 12.957 20.338C12.799 20.6791 12.75 20.9123 12.75 21.0001C12.75 21.4143 12.4142 21.7501 12 21.7501C11.5858 21.7501 11.25 21.4143 11.25 21.0001Z" fill="black"/>
</svg>
