<svg width="24" height="24" viewBox="0 0 24 24" fill="none" xmlns="http://www.w3.org/2000/svg">
<path d="M20.2501 12.0001C20.2501 7.44377 16.5564 3.75012 12.0001 3.75012C7.44371 3.75012 3.75006 7.44377 3.75006 12.0001C3.75006 16.5565 7.44371 20.2501 12.0001 20.2501C16.5564 20.2501 20.2501 16.5565 20.2501 12.0001ZM21.7501 12.0001C21.7501 17.3849 17.3848 21.7501 12.0001 21.7501C6.61528 21.7501 2.25006 17.3849 2.25006 12.0001C2.25006 6.61534 6.61528 2.25012 12.0001 2.25012C17.3848 2.25012 21.7501 6.61534 21.7501 12.0001Z" fill="#464A4D"/>
<path d="M11.4698 2.46984C11.7444 2.19524 12.1791 2.17778 12.4737 2.41809L12.5303 2.46984L12.6504 2.59777C12.927 2.90937 13.1704 3.30341 13.3907 3.68371C13.6652 4.15769 13.9019 4.60695 14.2032 5.10461C14.7937 6.07995 15.448 6.91184 16.3194 7.32141C16.6912 7.49599 17.2946 7.51842 18.0528 7.44738C18.4149 7.41345 18.767 7.36398 19.1104 7.31945C19.4344 7.27745 19.7787 7.23616 20.0616 7.23742C20.4757 7.23937 20.8095 7.57625 20.8077 7.99035C20.8058 8.40455 20.4689 8.73925 20.0547 8.73742C19.8891 8.73668 19.6452 8.7625 19.3038 8.80676C18.9818 8.8485 18.59 8.90336 18.1934 8.94055C17.4815 9.00727 16.5787 9.0389 15.8292 8.7423L15.6817 8.67883C14.3852 8.06935 13.5384 6.90082 12.921 5.88098C12.6183 5.38111 12.3233 4.83363 12.0928 4.43566C11.903 4.10784 11.7447 3.8601 11.6045 3.68371L11.4698 3.53039L11.418 3.47375C11.1777 3.17917 11.1952 2.74445 11.4698 2.46984Z" fill="#464A4D"/>
<path d="M7.41507 3.48659C7.65595 3.14999 8.12411 3.07218 8.46097 3.31277L7.5889 4.53347C7.58912 4.53339 7.59642 4.52345 8.02542 3.92312C8.44512 3.33581 8.46027 3.31349 8.46097 3.31277L8.46195 3.31374L8.4639 3.31472C8.46516 3.31563 8.46689 3.31726 8.46878 3.31863C8.47251 3.32132 8.47738 3.32493 8.48343 3.32937C8.49587 3.33849 8.51349 3.3511 8.53519 3.36745C8.57888 3.40039 8.64073 3.44844 8.71781 3.51003C8.87183 3.63312 9.08758 3.81291 9.34281 4.04616C9.85258 4.51207 10.5263 5.19613 11.1817 6.07155L11.3477 6.31472C11.502 6.56103 11.6226 6.81461 11.7266 7.05007C11.8776 7.39195 11.9776 7.65419 12.1241 7.95632C12.356 8.43488 12.6378 8.86021 13.1397 9.20534L13.3682 9.34792L13.4532 9.40456C13.4799 9.42495 13.5055 9.44711 13.5293 9.47097L13.6133 9.56374C13.7963 9.78808 13.8865 10.054 13.9346 10.262C13.9936 10.5175 14.0129 10.7909 14.0069 11.0442C14.0009 11.2982 13.9686 11.5597 13.9082 11.7952C13.8598 11.984 13.77 12.246 13.5928 12.4592C13.2899 12.8774 13.3753 13.0922 13.2871 13.7395C13.2429 14.064 13.1385 14.4435 12.8262 14.8059C12.531 15.1484 12.1037 15.4133 11.5381 15.6409C11.4405 15.6802 11.3357 15.6985 11.2305 15.6946C10.2881 15.6599 9.72527 15.046 9.38382 14.4446C9.06071 13.8753 8.83652 13.1352 8.64847 12.6116C8.54628 12.327 8.45032 12.0875 8.34769 11.8928C8.2438 11.6958 8.15411 11.5869 8.08499 11.5305C8.03212 11.4875 7.98768 11.4708 7.91703 11.471C7.84308 11.4711 7.71262 11.4937 7.50785 11.5872C7.21749 11.9656 6.80753 12.1483 6.43851 12.2356C6.01287 12.3363 5.53364 12.3407 5.13871 12.3411C4.7071 12.3416 4.35063 12.3362 4.03519 12.3762C3.71796 12.4165 3.57406 12.4902 3.5098 12.5501C3.20662 12.8322 2.73242 12.8151 2.45023 12.512C2.16802 12.2088 2.18515 11.7346 2.48831 11.4524C2.89455 11.0743 3.41496 10.9428 3.84671 10.888C4.28005 10.833 4.75754 10.8415 5.13675 10.8411C5.55279 10.8406 5.86198 10.8303 6.09281 10.7757C6.30766 10.7248 6.32748 10.6665 6.33109 10.6594L6.39066 10.5628C6.4566 10.4712 6.54251 10.3952 6.64261 10.3411L6.80277 10.2591C7.17505 10.0783 7.54581 9.97189 7.91312 9.97097C8.35317 9.96996 8.72898 10.1213 9.03226 10.3684C9.31936 10.6024 9.5228 10.9052 9.67484 11.1936C9.82814 11.4845 9.95178 11.8045 10.0596 12.1048C10.2916 12.7508 10.4495 13.2834 10.6885 13.7044C10.8574 14.0019 11.0027 14.1263 11.1494 14.1721C11.4766 14.0236 11.623 13.9044 11.6895 13.8274C11.7493 13.7581 11.7802 13.6888 11.8008 13.5374C11.8414 13.2396 11.7822 12.3887 12.3955 11.5559L12.4209 11.5247C12.4285 11.5077 12.4418 11.4749 12.4551 11.4231C12.4831 11.314 12.5031 11.1666 12.5069 11.0081C12.5106 10.8491 12.4971 10.7058 12.4727 10.5999C12.4682 10.5802 12.4611 10.5645 12.4571 10.551C11.5661 9.99524 11.0984 9.27894 10.7744 8.61062C10.6162 8.28413 10.4683 7.91317 10.3545 7.65554C10.2601 7.44172 10.1725 7.26442 10.0782 7.11355L9.9805 6.97097C9.39388 6.18739 8.78882 5.57193 8.33109 5.15359C8.10279 4.94494 7.91235 4.78664 7.78128 4.68191C7.716 4.62974 7.66586 4.59059 7.63285 4.5657C7.61634 4.55325 7.60407 4.54375 7.59671 4.53835L7.5889 4.53347L7.52933 4.48562C7.24372 4.23452 7.18922 3.80264 7.41507 3.48659Z" fill="#464A4D"/>
<path d="M11.2501 21.0001C11.2501 20.5879 11.4054 20.1192 11.5958 19.7081C11.7956 19.2766 12.0756 18.8204 12.4073 18.4181C12.7343 18.0215 13.1443 17.6373 13.6153 17.3995C13.9722 17.2194 14.3935 17.112 14.8331 17.1769C14.8415 17.1408 14.851 17.0948 14.8575 17.0372C14.8867 16.7782 14.8674 16.4484 14.8272 16.0489L14.7335 15.2013C14.6872 14.7619 14.6516 14.2874 14.6895 13.8712C14.739 13.3279 14.9492 12.5664 15.7579 12.2902L15.8624 12.2628C16.1077 12.2169 16.3634 12.2966 16.5401 12.4796C17.265 13.2304 17.8253 13.4521 18.4141 13.6134C18.9487 13.7598 19.6611 13.8778 20.4727 14.2892L20.8262 14.4845L20.8897 14.5275C21.1944 14.7545 21.2841 15.1796 21.085 15.5128C20.8857 15.846 20.4683 15.9688 20.1241 15.8077L20.0557 15.7716L19.7911 15.6251C19.1887 15.3175 18.6907 15.2441 18.0176 15.0597C17.4315 14.8991 16.8318 14.6714 16.1739 14.1642C16.1643 14.5091 16.2129 14.9407 16.2715 15.4552C16.3333 15.9972 16.4099 16.656 16.3477 17.2062C16.3158 17.4883 16.2419 17.8083 16.0616 18.0929C15.891 18.3619 15.6433 18.5698 15.3262 18.6837L15.1866 18.7267C15.0633 18.7583 14.9345 18.7582 14.8126 18.7267L14.6934 18.6847C14.6141 18.6491 14.4982 18.6339 14.2911 18.7384C14.0712 18.8494 13.8162 19.067 13.5645 19.3722C13.3179 19.6713 13.1055 20.0177 12.9571 20.338C12.7991 20.6791 12.7501 20.9123 12.7501 21.0001C12.7501 21.4143 12.4143 21.7501 12.0001 21.7501C11.5858 21.7501 11.2501 21.4143 11.2501 21.0001Z" fill="#464A4D"/>
</svg>
