<svg width="24" height="24" viewBox="0 0 24 24" fill="none" xmlns="http://www.w3.org/2000/svg">
<path fill-rule="evenodd" clip-rule="evenodd" d="M15.5058 3.32157C16.1918 2.6346 17.1227 2.25 18.092 2.25C19.0621 2.25 19.9927 2.63614 20.6781 3.32147C21.3653 4.00752 21.75 4.93853 21.75 5.908C21.75 6.87807 21.3639 7.80863 20.6786 8.49406C20.6785 8.49415 20.6787 8.49397 20.6786 8.49406L7.46537 21.75H2.25V16.5346L15.5058 3.32157C15.506 3.32137 15.5056 3.32176 15.5058 3.32157ZM18.092 3.75C17.5196 3.75 16.9707 3.97718 16.5668 4.38184L16.5655 4.38318L3.75 17.1574V20.25H6.84263L19.6177 7.43367C20.0222 7.02912 20.25 6.4798 20.25 5.908C20.25 5.33561 20.0228 4.78674 19.6182 4.38282C19.2136 3.97827 18.6638 3.75 18.092 3.75Z" fill="black"/>
<path fill-rule="evenodd" clip-rule="evenodd" d="M17.7006 10.4533L13.5466 6.29931L14.6073 5.23865L18.7613 9.39265L17.7006 10.4533Z" fill="black"/>
</svg>
