<svg width="24" height="24" viewBox="0 0 24 24" fill="none" xmlns="http://www.w3.org/2000/svg">
<path d="M21.71 6.19C21.71 5.39 21.4 4.63 20.83 4.07L19.42 2.66C18.29 1.53 16.31 1.53 15.18 2.66L13.47 4.37C12.69 3.59 11.42 3.59 10.64 4.37L9.23 5.78C8.85 6.16 8.64 6.66 8.64 7.19C8.64 7.72 8.85 8.23 9.23 8.6L3.28 14.56V15.97L2.93 16.32C2.34 16.9 2.02 17.68 2.02 18.51C2.02 19.34 2.34 20.12 2.93 20.7C3.52 21.28 4.29 21.61 5.12 21.61C5.95 21.61 6.73 21.29 7.31 20.7L7.7 20.31L8.97 20.17L14.87 14.27C15.25 14.64 15.75 14.85 16.28 14.85C16.81 14.85 17.32 14.64 17.69 14.26L19.1 12.85C19.48 12.47 19.69 11.97 19.69 11.44C19.69 10.91 19.48 10.4 19.11 10.03L20.82 8.32C21.39 7.75 21.7 7 21.7 6.2L21.71 6.19ZM12.34 14L6.71 13.98L10.65 10.04L13.48 12.87L12.34 14.01V14ZM16.3 12.85L10.64 7.19L12.05 5.77L17.71 11.43L16.3 12.84V12.85ZM19.42 6.9L17.72 8.6L14.89 5.77L16.59 4.07C16.97 3.69 17.63 3.69 18.01 4.07L19.42 5.48C19.61 5.67 19.71 5.92 19.71 6.19C19.71 6.46 19.61 6.71 19.42 6.9Z" fill="black"/>
</svg>
