<svg width="24" height="24" viewBox="0 0 24 24" fill="none" xmlns="http://www.w3.org/2000/svg">
<path d="M17.8889 11.6152C17.9865 11.5176 17.9865 11.3593 17.8889 11.2616L12.232 5.60479C12.1344 5.50716 11.9761 5.50716 11.8784 5.60479L10.4642 7.019C10.3666 7.11663 10.3666 7.27493 10.4642 7.37256L16.1211 13.0294C16.2187 13.127 16.377 13.127 16.4746 13.0294L17.8889 11.6152ZM17.5353 14.0901C16.8519 14.7735 15.7438 14.7735 15.0604 14.0901L9.40357 8.43322C8.72015 7.7498 8.72015 6.64176 9.40357 5.95834L10.8178 4.54413C11.5012 3.86071 12.6092 3.86071 13.2927 4.54413L18.9495 10.201C19.6329 10.8844 19.6329 11.9924 18.9495 12.6759L17.5353 14.0901Z" fill="black"/>
<path d="M15.951 12.8603L8.87387 19.9365L8.61215 19.9658L7.60336 20.0761L7.15024 20.5302C6.03736 21.6431 4.23286 21.6431 3.11996 20.5302C2.00707 19.4174 2.00707 17.6129 3.11996 16.5L3.53989 16.0791V14.6699L10.6502 7.55954L15.951 12.8603ZM5.03989 15.291V16.7011L4.18051 17.5605C3.6534 18.0876 3.6534 18.9426 4.18051 19.4697C4.70762 19.9967 5.5626 19.9968 6.08969 19.4697L6.91586 18.6435L7.17758 18.6142L8.18539 18.5029L13.8289 12.8593L10.6493 9.68064L5.03989 15.291Z" fill="black"/>
<path d="M15.3599 2.83978C16.4328 1.76698 18.1776 1.76692 19.2505 2.83978L20.6607 4.24993C21.7333 5.32282 21.7334 7.06774 20.6607 8.14056L17.7202 11.081L12.4195 5.78021L15.3599 2.83978ZM18.19 3.90032C17.7029 3.41325 16.9075 3.41331 16.4204 3.90032L14.5405 5.78021L17.7202 8.95989L19.6001 7.08001C20.087 6.59298 20.0869 5.79758 19.6001 5.31048L18.19 3.90032Z" fill="black"/>
<path d="M12.7429 14.2504L12.737 15.7504L4.27707 15.7201L4.28293 14.2201L12.7429 14.2504Z" fill="black"/>
</svg>
