<svg width="24" height="24" viewBox="0 0 24 24" fill="none" xmlns="http://www.w3.org/2000/svg">
<path d="M3.75 18.999C3.75001 19.6898 4.31021 20.25 5.00098 20.25H8V21.75H5.00098C3.48178 21.75 2.25001 20.5182 2.25 18.999V16H3.75V18.999ZM21.75 18.999C21.75 20.5182 20.5182 21.75 18.999 21.75H16V20.25H18.999C19.6898 20.25 20.25 19.6898 20.25 18.999V16H21.75V18.999ZM15.0967 14.3945C15.4309 14.1499 15.9008 14.2225 16.1455 14.5566C16.3901 14.8908 16.3175 15.3608 15.9834 15.6055C14.995 16.3289 13.5538 16.75 12 16.75C10.5435 16.75 9.18638 16.3796 8.20801 15.7373L8.0166 15.6055L7.95703 15.5566C7.67481 15.3023 7.62525 14.8699 7.85449 14.5566C8.08387 14.2434 8.51105 14.1602 8.83887 14.3525L8.90332 14.3945L9.03418 14.4863C9.7175 14.9334 10.7698 15.25 12 15.25C13.312 15.25 14.4211 14.889 15.0967 14.3945ZM12 7.25C12.4142 7.25 12.75 7.58579 12.75 8V11.2002C12.75 11.5392 12.6653 11.8815 12.4893 12.1631C12.3198 12.4342 11.9898 12.75 11.5 12.75H11C10.5858 12.75 10.25 12.4142 10.25 12C10.25 11.5858 10.5858 11.25 11 11.25H11.2471C11.2485 11.2344 11.25 11.2178 11.25 11.2002V8C11.25 7.58579 11.5858 7.25 12 7.25ZM8 7.25C8.41421 7.25 8.75 7.58579 8.75 8V10C8.75 10.4142 8.41421 10.75 8 10.75C7.58579 10.75 7.25 10.4142 7.25 10V8C7.25 7.58579 7.58579 7.25 8 7.25ZM16 7.25C16.4142 7.25 16.75 7.58579 16.75 8V10C16.75 10.4142 16.4142 10.75 16 10.75C15.5858 10.75 15.25 10.4142 15.25 10V8C15.25 7.58579 15.5858 7.25 16 7.25ZM8 3.75H5.00098C4.31021 3.75001 3.75001 4.31021 3.75 5.00098V8H2.25V5.00098C2.25001 3.48178 3.48178 2.25001 5.00098 2.25H8V3.75ZM18.999 2.25C20.5182 2.25001 21.75 3.48178 21.75 5.00098V8H20.25V5.00098C20.25 4.31021 19.6898 3.75001 18.999 3.75H16V2.25H18.999Z" fill="black"/>
</svg>
