<svg width="24" height="24" viewBox="0 0 24 24" fill="none" xmlns="http://www.w3.org/2000/svg">
<path d="M20 7.00005C18.621 7.00005 17.674 8.10105 16.837 9.07205C16.177 9.83805 15.681 10.3791 15.185 10.5661C15.055 10.2771 14.88 10.0171 14.68 9.77605C15.69 8.16505 17 5.24705 17 3.97705C17 1.98605 15.317 0.977051 12 0.977051C8.68298 0.977051 6.99998 1.98605 6.99998 3.97705C6.99998 5.35205 8.09798 6.30905 9.06698 7.15305C9.81098 7.80205 10.359 8.31505 10.557 8.82005C10.276 8.94805 10.021 9.11805 9.78598 9.31205C8.17198 8.30305 5.26798 6.99905 4.00098 6.99905C2.00998 6.99905 1.00098 8.68105 1.00098 11.9991C1.00098 15.317 2.00998 16.9991 4.00098 16.9991C5.37698 16.9991 6.32998 15.9001 7.16898 14.9311C7.82798 14.1701 8.32798 13.6371 8.82198 13.4451C8.94998 13.725 9.11898 13.9801 9.31298 14.2151C8.30398 15.8291 6.99998 18.7331 6.99998 20.0001C6.99998 21.9901 8.68198 23.0001 12 23.0001C15.318 23.0001 17 21.9901 17 20.0001C17 18.6261 15.906 17.6721 14.941 16.8301C14.182 16.1681 13.649 15.6681 13.458 15.1721C13.733 15.0451 13.983 14.8791 14.214 14.6881C15.828 15.6961 18.732 17.0001 20 17.0001C21.99 17.0001 23 15.3171 23 12.0001C23 8.68305 21.99 7.00005 20 7.00005ZM12 13.5001C11.173 13.5001 10.5 12.8271 10.5 12.0001C10.5 11.1731 11.173 10.5001 12 10.5001C12.827 10.5001 13.5 11.1731 13.5 12.0001C13.5 12.8271 12.827 13.5001 12 13.5001Z" fill="black"/>
</svg>
