<svg width="24" height="24" viewBox="0 0 24 24" fill="none" xmlns="http://www.w3.org/2000/svg">
<path fill-rule="evenodd" clip-rule="evenodd" d="M9.00018 3.36527C8.84702 3.51037 8.75 3.69085 8.75 3.97705C8.75 4.21297 8.86561 4.48815 9.18634 4.85807C9.45888 5.17241 9.80533 5.47467 10.2057 5.82398C10.2847 5.89292 10.3659 5.96369 10.4489 6.03676C10.9233 6.45397 11.4564 6.94292 11.8374 7.51161C12.2323 8.10119 12.4903 8.81574 12.3544 9.65673L10.8736 9.41738C10.9332 9.04887 10.8372 8.71366 10.5912 8.34647C10.3312 7.95837 9.93632 7.58352 9.45831 7.1631C9.38813 7.10137 9.31559 7.03823 9.24157 6.97379C8.8427 6.62655 8.40085 6.24189 8.053 5.84069C7.63501 5.35859 7.25 4.74114 7.25 3.97705C7.25 3.26326 7.52798 2.69374 7.96857 2.27634C8.38692 1.88001 8.92081 1.64824 9.41896 1.50591C10.3956 1.22687 11.4806 1.22699 11.9791 1.22705C11.9862 1.22705 11.9932 1.22705 12 1.22705C12.0068 1.22705 12.0138 1.22705 12.0209 1.22705C12.5194 1.22699 13.6044 1.22687 14.581 1.50591C15.0792 1.64824 15.6131 1.88001 16.0314 2.27634C16.472 2.69374 16.75 3.26326 16.75 3.97705C16.75 4.42799 16.5927 5.01411 16.4003 5.57859C16.1988 6.16998 15.9249 6.83167 15.6288 7.47101C15.3324 8.11097 15.0081 8.74052 14.7022 9.26777C14.4082 9.7743 14.0958 10.2492 13.818 10.5288L12.754 9.47135C12.8832 9.34139 13.1135 9.01681 13.4048 8.51491C13.684 8.03371 13.9874 7.44589 14.2677 6.8406C14.5483 6.23469 14.8004 5.62325 14.9805 5.0947C15.1698 4.53924 15.25 4.15861 15.25 3.97705C15.25 3.69085 15.153 3.51037 14.9998 3.36527C14.8244 3.1991 14.5458 3.05587 14.169 2.9482C13.4095 2.73121 12.5114 2.72705 12 2.72705C11.4886 2.72705 10.5905 2.73121 9.83104 2.9482C9.45419 3.05587 9.17558 3.1991 9.00018 3.36527Z" fill="black"/>
<path fill-rule="evenodd" clip-rule="evenodd" d="M2.97115 9.83104C2.75416 10.5905 2.75 11.4886 2.75 12C2.75 12.5114 2.75416 13.4095 2.97115 14.169C3.07882 14.5458 3.22205 14.8244 3.38822 14.9998C3.53332 15.153 3.7138 15.25 4 15.25C4.23553 15.25 4.50904 15.1349 4.87622 14.8152C5.18872 14.5431 5.48872 14.1971 5.83584 13.7968C5.90415 13.718 5.97429 13.6371 6.04671 13.5543C6.46102 13.0803 6.94719 12.547 7.5141 12.1659C8.10229 11.7704 8.81573 11.5127 9.65668 11.6486L9.41733 13.1294C9.04878 13.0698 8.71534 13.1657 8.35106 13.4107C7.9655 13.6699 7.59361 14.0638 7.17604 14.5415C7.11491 14.6114 7.05237 14.6837 6.98853 14.7575C6.64357 15.1562 6.261 15.5983 5.86126 15.9464C5.38072 16.3648 4.76448 16.75 4 16.75C3.28621 16.75 2.71669 16.472 2.29929 16.0314C1.90296 15.6131 1.67119 15.0792 1.52886 14.581C1.24982 13.6044 1.24994 12.5194 1.25 12.0209C1.25 12.0138 1.25 12.0068 1.25 12C1.25 11.9932 1.25 11.9862 1.25 11.9791C1.24994 11.4806 1.24982 10.3956 1.52886 9.41896C1.67119 8.92081 1.90296 8.38692 2.29929 7.96857C2.71669 7.52798 3.28621 7.25 4 7.25C4.45094 7.25 5.03706 7.40731 5.60154 7.59969C6.19293 7.80124 6.85462 8.07509 7.49396 8.3712C8.13392 8.66761 8.76347 8.99188 9.29071 9.29784C9.79725 9.59178 10.2722 9.90421 10.5517 10.182L9.4943 11.246C9.36434 11.1168 9.03976 10.8865 8.53785 10.5952C8.05666 10.316 7.46883 10.0126 6.86355 9.7323C6.25764 9.45166 5.6462 9.19963 5.11765 9.0195C4.56219 8.83019 4.18156 8.75 4 8.75C3.7138 8.75 3.53332 8.84702 3.38822 9.00018C3.22205 9.17558 3.07882 9.45419 2.97115 9.83104Z" fill="black"/>
<path fill-rule="evenodd" clip-rule="evenodd" d="M9.0195 18.8823C8.83019 19.4378 8.75 19.8184 8.75 19.9999C8.75 20.2862 8.84702 20.4666 9.00018 20.6117C9.17558 20.7779 9.45419 20.9211 9.83104 21.0288C10.5905 21.2458 11.4886 21.2499 12 21.2499C12.5114 21.2499 13.4095 21.2458 14.169 21.0288C14.5458 20.9211 14.8244 20.7779 14.9998 20.6117C15.153 20.4666 15.25 20.2862 15.25 19.9999C15.25 19.7632 15.1346 19.4886 14.8159 19.1203C14.5448 18.8071 14.2002 18.5062 13.8016 18.1582C13.7229 18.0895 13.6421 18.0189 13.5593 17.946C13.087 17.5303 12.5559 17.0426 12.1765 16.4748C11.7829 15.8858 11.5268 15.1723 11.6626 14.3323L13.1434 14.5716C13.0837 14.9411 13.1795 15.2759 13.4237 15.6414C13.682 16.0281 14.0746 16.4012 14.5504 16.8201C14.6203 16.8816 14.6925 16.9445 14.7662 17.0087C15.1633 17.3547 15.6035 17.7383 15.9501 18.1387C16.3669 18.6202 16.75 19.2367 16.75 19.9999C16.75 20.7137 16.472 21.2833 16.0314 21.7007C15.6131 22.097 15.0792 22.3288 14.581 22.4711C13.6044 22.7501 12.5194 22.75 12.0209 22.7499H11.9791C11.4806 22.75 10.3956 22.7501 9.41896 22.4711C8.92081 22.3288 8.38692 22.097 7.96857 21.7007C7.52798 21.2833 7.25 20.7137 7.25 19.9999C7.25 19.549 7.40731 18.9629 7.59969 18.3984C7.80124 17.807 8.07509 17.1453 8.3712 16.506C8.66761 15.866 8.99188 15.2365 9.29784 14.7092C9.59178 14.2027 9.90421 13.7278 10.182 13.4482L11.246 14.5056C11.1168 14.6356 10.8865 14.9602 10.5952 15.4621C10.316 15.9433 10.0126 16.5311 9.7323 17.1364C9.45166 17.7423 9.19963 18.3538 9.0195 18.8823Z" fill="black"/>
<path fill-rule="evenodd" clip-rule="evenodd" d="M16.5015 11.8358C15.9144 12.2323 15.2016 12.4904 14.3603 12.3544L14.5997 10.8736C14.9679 10.9331 15.2999 10.8372 15.6621 10.5927C16.0458 10.3336 16.4155 9.93978 16.831 9.46167C16.8917 9.39186 16.9538 9.31968 17.0171 9.24601C17.3604 8.84688 17.7415 8.40389 18.1401 8.05516C18.6194 7.63592 19.2349 7.25 20 7.25C20.7138 7.25 21.2833 7.52798 21.7007 7.96857C22.0971 8.38692 22.3288 8.92081 22.4711 9.41896C22.7502 10.3956 22.7501 11.4806 22.75 11.9791V12.0209C22.7501 12.5194 22.7502 13.6044 22.4711 14.581C22.3288 15.0792 22.0971 15.6131 21.7007 16.0314C21.2833 16.472 20.7138 16.75 20 16.75C19.5491 16.75 18.9629 16.5927 18.3985 16.4003C17.8071 16.1988 17.1454 15.9249 16.5061 15.6288C15.8661 15.3324 15.2365 15.0081 14.7093 14.7022C14.2028 14.4082 13.7278 14.0958 13.4483 13.818L14.5057 12.754C14.6357 12.8832 14.9603 13.1135 15.4622 13.4048C15.9433 13.684 16.5312 13.9874 17.1365 14.2677C17.7424 14.5483 18.3538 14.8004 18.8824 14.9805C19.4378 15.1698 19.8184 15.25 20 15.25C20.2862 15.25 20.4667 15.153 20.6118 14.9998C20.778 14.8244 20.9212 14.5458 21.0289 14.169C21.2459 13.4095 21.25 12.5114 21.25 12C21.25 11.4886 21.2459 10.5905 21.0289 9.83104C20.9212 9.45419 20.778 9.17558 20.6118 9.00018C20.4667 8.84702 20.2862 8.75 20 8.75C19.7651 8.75 19.493 8.86471 19.1277 9.18419C18.8165 9.45639 18.5181 9.80255 18.1726 10.2034C18.1048 10.2821 18.0351 10.3628 17.9632 10.4456C17.5511 10.9198 17.067 11.454 16.5015 11.8358Z" fill="black"/>
<path fill-rule="evenodd" clip-rule="evenodd" d="M12 10.25C11.0335 10.25 10.25 11.0335 10.25 12C10.25 12.9665 11.0335 13.75 12 13.75C12.9665 13.75 13.75 12.9665 13.75 12C13.75 11.0335 12.9665 10.25 12 10.25ZM8.75 12C8.75 10.2051 10.2051 8.75 12 8.75C13.7949 8.75 15.25 10.2051 15.25 12C15.25 13.7949 13.7949 15.25 12 15.25C10.2051 15.25 8.75 13.7949 8.75 12Z" fill="black"/>
</svg>
