<svg width="24" height="24" viewBox="0 0 24 24" fill="none" xmlns="http://www.w3.org/2000/svg">
<path d="M20.471 7.11829C20.147 6.94529 19.75 6.96429 19.445 7.16829L13.445 11.1683C13.167 11.3543 13 11.6663 13 12.0003C13 12.3343 13.167 12.6463 13.445 12.8323L19.445 16.8323C19.612 16.9433 19.805 17.0003 20 17.0003C20.162 17.0003 20.324 16.9613 20.472 16.8823C20.797 16.7083 21 16.3693 21 16.0003V8.00029C21 7.63129 20.796 7.29229 20.471 7.11829Z" fill="#464A4D"/>
<path d="M11.471 7.1183C11.146 6.9443 10.752 6.9633 10.445 7.1683L4.445 11.1683C4.167 11.3543 4 11.6663 4 12.0003C4 12.3343 4.167 12.6463 4.445 12.8323L10.445 16.8323C10.612 16.9433 10.806 17.0003 11 17.0003C11.162 17.0003 11.324 16.9613 11.472 16.8823C11.797 16.7083 12 16.3693 12 16.0003V8.0003C12 7.6313 11.796 7.2923 11.471 7.1183Z" fill="#464A4D"/>
</svg>
