<svg width="24" height="24" viewBox="0 0 24 24" fill="none" xmlns="http://www.w3.org/2000/svg">
<path d="M20.472 7.11805C20.148 6.94505 19.751 6.96405 19.446 7.16805L13.446 11.168C13.168 11.354 13.001 11.666 13.001 12C13.001 12.334 13.168 12.646 13.446 12.832L19.446 16.832C19.613 16.943 19.806 17 20.001 17C20.163 17 20.325 16.961 20.473 16.882C20.798 16.708 21.001 16.369 21.001 16V8.00005C21.001 7.63105 20.797 7.29205 20.472 7.11805Z" fill="black"/>
<path d="M11.472 7.11806C11.147 6.94406 10.753 6.96306 10.446 7.16806L4.44598 11.1681C4.16798 11.3541 4.00098 11.6661 4.00098 12.0001C4.00098 12.3341 4.16798 12.6461 4.44598 12.8321L10.446 16.8321C10.613 16.9431 10.807 17.0001 11.001 17.0001C11.163 17.0001 11.325 16.9611 11.473 16.8821C11.798 16.7081 12.001 16.3691 12.001 16.0001V8.00006C12.001 7.63106 11.797 7.29206 11.472 7.11806Z" fill="black"/>
</svg>
