<svg width="24" height="24" viewBox="0 0 24 24" fill="none" xmlns="http://www.w3.org/2000/svg">
<path d="M11.555 11.168L5.55501 7.16803C5.24801 6.96203 4.85201 6.94403 4.52901 7.11803C4.20401 7.29203 4.00101 7.63103 4.00101 8.00003V16C4.00101 16.369 4.20401 16.708 4.52901 16.882C4.67601 16.961 4.83901 17 5.00101 17C5.19501 17 5.38801 16.943 5.55601 16.832L11.556 12.832C11.834 12.646 12.001 12.334 12.001 12C12.001 11.666 11.833 11.354 11.555 11.168Z" fill="black"/>
<path d="M20.555 11.168L14.555 7.16802C14.248 6.96302 13.853 6.94502 13.529 7.11802C13.204 7.29202 13.001 7.63102 13.001 8.00002V16C13.001 16.369 13.204 16.708 13.529 16.882C13.676 16.961 13.839 17 14.001 17C14.195 17 14.389 16.943 14.556 16.832L20.556 12.832C20.834 12.646 21.001 12.334 21.001 12C21.001 11.666 20.833 11.354 20.555 11.168Z" fill="black"/>
</svg>
