<svg width="24" height="24" viewBox="0 0 24 24" fill="none" xmlns="http://www.w3.org/2000/svg">
<path d="M11.2693 16.2308H8.73079C8.2288 16.2308 7.73794 16.3795 7.32053 16.6583C6.90312 16.9372 6.57726 17.3338 6.38513 17.7976C6.19307 18.2612 6.143 18.7718 6.24079 19.264C6.33874 19.7564 6.581 20.2091 6.93601 20.5641C7.29102 20.9191 7.74368 21.1614 8.2361 21.2593C8.72833 21.3571 9.23888 21.307 9.70255 21.115C10.1663 20.9228 10.5629 20.597 10.8418 20.1796C11.1206 19.7622 11.2693 19.2713 11.2693 18.7693V16.2308ZM18.0264 11.7488C17.9687 11.1678 17.7113 10.6218 17.2948 10.2053C16.8188 9.72922 16.1733 9.46158 15.5001 9.46158C14.8268 9.46158 14.1813 9.72922 13.7053 10.2053C13.2292 10.6813 12.9616 11.3268 12.9616 12.0001C12.9616 12.6733 13.2292 13.3188 13.7053 13.7948C14.1813 14.2709 14.8268 14.5385 15.5001 14.5385C16.1733 14.5385 16.8188 14.2709 17.2948 13.7948C17.7709 13.3188 18.0385 12.6733 18.0385 12.0001L18.0264 11.7488ZM6.19232 12.0001C6.19232 12.6733 6.45995 13.3188 6.93601 13.7948C7.41206 14.2709 8.05754 14.5385 8.73079 14.5385H11.2693V9.46158H8.73079C8.05754 9.46158 7.41207 9.72922 6.93601 10.2053C6.45995 10.6813 6.19232 11.3268 6.19232 12.0001ZM18.0264 4.97959C17.9687 4.39857 17.7113 3.85249 17.2948 3.43601C16.8188 2.95995 16.1733 2.69232 15.5001 2.69232H12.9616V7.76926H15.5001C16.1733 7.76926 16.8188 7.50162 17.2948 7.02557C17.7709 6.54951 18.0385 5.90403 18.0385 5.23079L18.0264 4.97959ZM6.19232 5.23079C6.19232 5.90403 6.45995 6.54951 6.93601 7.02557C7.41206 7.50163 8.05754 7.76926 8.73079 7.76926H11.2693V2.69232H8.73079C8.05754 2.69232 7.41207 2.95995 6.93601 3.43601C6.45995 3.91207 6.19232 4.55754 6.19232 5.23079ZM19.7253 5.44013C19.6736 6.48598 19.2353 7.47815 18.4914 8.22209C18.3485 8.36491 18.1961 8.49571 18.0363 8.61542C18.1961 8.73514 18.3485 8.86593 18.4914 9.00875C19.2848 9.80218 19.7308 10.878 19.7308 12.0001L19.7253 12.2094C19.6736 13.2552 19.2353 14.2474 18.4914 14.9914C17.6979 15.7848 16.6221 16.2308 15.5001 16.2308C14.5791 16.2308 13.6897 15.9299 12.9616 15.3836V18.7693C12.9616 19.6059 12.7135 20.4237 12.2487 21.1194C11.7839 21.815 11.1233 22.3581 10.3504 22.6784C9.57735 22.9986 8.72622 23.0818 7.90556 22.9186C7.08487 22.7553 6.33118 22.3523 5.73949 21.7606C5.1478 21.1689 4.74478 20.4152 4.58153 19.5945C4.41831 18.7739 4.50151 17.9228 4.82172 17.1497C5.11273 16.4473 5.58832 15.8389 6.19452 15.3847C6.03477 15.265 5.88231 15.1342 5.73949 14.9914C4.94606 14.1979 4.5 13.1221 4.5 12.0001C4.5 10.878 4.94606 9.80218 5.73949 9.00875C5.8821 8.86615 6.03392 8.73499 6.19342 8.61542C6.03392 8.49585 5.8821 8.3647 5.73949 8.22209C4.94606 7.42866 4.5 6.35286 4.5 5.23079C4.5 4.10871 4.94606 3.03292 5.73949 2.23949C6.53292 1.44606 7.60871 1 8.73079 1H15.5001C16.6221 1 17.6979 1.44606 18.4914 2.23949C19.2848 3.03292 19.7308 4.10871 19.7308 5.23079L19.7253 5.44013Z" fill="black"/>
</svg>
