<svg width="24" height="24" viewBox="0 0 24 24" fill="none" xmlns="http://www.w3.org/2000/svg">
<path d="M10 17.111C10 13.741 12.742 11 16.111 11C17.591 11 18.949 11.53 20.008 12.408V8.586L13.422 2H6.008C4.905 2 4.008 2.897 4.008 4V20C4.008 21.103 4.905 22 6.008 22H12.461C10.971 20.885 10 19.111 10 17.111ZM14.008 5.414L16.594 8H14.008V5.414Z" fill="black"/>
<path d="M16.222 17.111C16.222 17.051 16.17 17 16.112 17C16.052 17 16.001 17.052 16.001 17.111C16.001 17.17 16.053 17.221 16.112 17.221C16.171 17.221 16.222 17.17 16.222 17.111Z" fill="black"/>
<path d="M21.707 21.293L19.626 19.212C19.996 18.595 20.222 17.882 20.222 17.112C20.222 14.845 18.378 13.001 16.112 13.001C13.846 13.001 12.001 14.846 12.001 17.112C12.001 19.378 13.846 21.222 16.112 21.222C16.882 21.222 17.595 20.996 18.212 20.626L20.293 22.707L21.707 21.293ZM14 17.111C14 15.947 14.947 15 16.111 15C17.275 15 18.221 15.947 18.221 17.111C18.221 18.275 17.275 19.221 16.111 19.221C14.947 19.221 14 18.275 14 17.111Z" fill="black"/>
</svg>
