<svg width="24" height="24" viewBox="0 0 24 24" fill="none" xmlns="http://www.w3.org/2000/svg">
<path d="M19 2.25C20.5188 2.25 21.75 3.48122 21.75 5V19C21.75 20.5188 20.5188 21.75 19 21.75H5C3.48122 21.75 2.25 20.5188 2.25 19V5C2.25 3.48122 3.48122 2.25 5 2.25H19ZM3.75 19C3.75 19.6904 4.30964 20.25 5 20.25H7.25V16.75H3.75V19ZM8.75 20.25H15.25V3.75H8.75V20.25ZM16.75 20.25H19C19.6904 20.25 20.25 19.6904 20.25 19V16.75H16.75V20.25ZM3.75 15.25H7.25V12.75H3.75V15.25ZM16.75 15.25H20.25V12.75H16.75V15.25ZM3.75 11.25H7.25V8.75H3.75V11.25ZM16.75 8.75V11.25H20.25V8.75H16.75ZM16.75 7.25H20.25V5C20.25 4.30964 19.6904 3.75 19 3.75H16.75V7.25ZM5 3.75C4.30964 3.75 3.75 4.30964 3.75 5V7.25H7.25V3.75H5Z" fill="black"/>
</svg>
