<svg width="24" height="24" viewBox="0 0 24 24" fill="none" xmlns="http://www.w3.org/2000/svg">
<path fill-rule="evenodd" clip-rule="evenodd" d="M9.64791 8.61294C10.201 8.06988 10.9992 7.75002 11.8 7.75002C12.6093 7.75002 13.416 8.07673 13.9697 8.63035C14.606 9.26667 15.15 10.1863 15.15 11C15.15 13.221 15.6791 15.0198 16.2077 16.2885L17.5923 15.7116C17.1209 14.5802 16.65 12.979 16.65 11C16.65 9.61377 15.794 8.33338 15.0303 7.56969C14.184 6.72332 12.9907 6.25002 11.8 6.25002C10.6093 6.25002 9.41604 6.72332 8.56967 7.56969L8.55201 7.58735L8.53557 7.60615C7.71549 8.54338 7.25 9.81905 7.25 11H8.75C8.75 10.1888 9.07816 9.27429 9.64791 8.61294Z" fill="black"/>
<path fill-rule="evenodd" clip-rule="evenodd" d="M11.25 13V11H12.75V13C12.75 13.4929 12.8762 14.1116 13.0711 14.794C13.217 15.3046 13.3886 15.8096 13.5527 16.2926C13.6069 16.452 13.6602 16.6089 13.7115 16.7629L12.2885 17.2372C12.2426 17.0997 12.193 16.9536 12.1412 16.8012C11.9748 16.3114 11.7859 15.7559 11.6289 15.2061C11.4238 14.4884 11.25 13.7071 11.25 13Z" fill="black"/>
<path fill-rule="evenodd" clip-rule="evenodd" d="M8.28347 18.2221C8.07977 17.6112 7.25 15.1225 7.25 13H8.75C8.75 14.8596 9.50616 17.1468 9.71151 17.7629L8.28849 18.2372L8.28347 18.2221Z" fill="black"/>
<path fill-rule="evenodd" clip-rule="evenodd" d="M5.3 3.65002C4.93413 3.65002 4.5167 3.84398 4.23033 4.13035L4.20096 4.15973L4.16852 4.18568C3.89492 4.40456 3.75 4.75754 3.75 5.20002V8.00002H2.25V5.20002C2.25 4.45397 2.49742 3.6211 3.19883 3.04093C3.71265 2.54099 4.48151 2.15002 5.3 2.15002H8.1V3.65002H5.3Z" fill="black"/>
<path fill-rule="evenodd" clip-rule="evenodd" d="M2.25 18.8V16H3.75V18.8C3.75 19.2425 3.89492 19.5955 4.16852 19.8144L4.20096 19.8403L4.23033 19.8697C4.5167 20.1561 4.93413 20.35 5.3 20.35H8.1V21.85H5.3C4.48151 21.85 3.71265 21.4591 3.19883 20.9591C2.49742 20.3789 2.25 19.5461 2.25 18.8Z" fill="black"/>
<path fill-rule="evenodd" clip-rule="evenodd" d="M18.8 3.75002H16V2.25002H18.8C19.5461 2.25002 20.3789 2.49744 20.9591 3.19885C21.459 3.71267 21.85 4.48153 21.85 5.30002V8.10002H20.35V5.30002C20.35 4.93415 20.156 4.51673 19.8697 4.23035L19.8403 4.20098L19.8143 4.16855C19.5955 3.89494 19.2425 3.75002 18.8 3.75002Z" fill="black"/>
<path fill-rule="evenodd" clip-rule="evenodd" d="M21.85 15.9V18.7C21.85 19.5185 21.459 20.2874 20.9591 20.8012C20.3789 21.5026 19.5461 21.75 18.8 21.75H16V20.25H18.8C19.2425 20.25 19.5955 20.1051 19.8143 19.8315L19.8403 19.7991L19.8697 19.7697C20.156 19.4833 20.35 19.0659 20.35 18.7V15.9H21.85Z" fill="black"/>
</svg>
