<svg width="24" height="24" viewBox="0 0 24 24" fill="none" xmlns="http://www.w3.org/2000/svg">
<path d="M13 11H11V13C11 15.879 11.347 17.938 13.179 20.571L14.822 19.428C13.443 17.447 13.001 15.885 13.001 12.999V10.999L13 11Z" fill="#464A4D"/>
<path d="M15 13C15 15.453 15.444 17.122 16.486 18.581L18.113 17.419C17.333 16.326 17 15.004 17 13H15Z" fill="#464A4D"/>
<path d="M9.66199 17.726C8.97899 15.334 8.98999 13.234 8.99799 11.546L8.99999 11C8.99999 10.296 9.21599 8 12 8C14.446 8 15 10.534 15 11H17C17 9.256 15.533 6 12 6C8.54599 6 6.99999 8.511 6.99999 11L6.99799 11.535C6.98899 13.255 6.97699 15.609 7.73499 18.263C8.01899 19.303 8.46299 20.18 8.89299 21.027L9.10499 21.448L10.894 20.553L10.676 20.122C10.274 19.329 9.89499 18.58 9.66199 17.726Z" fill="#464A4D"/>
<path d="M21.567 15.02C21.251 14.54 21 14.161 21 12C21 9.654 20.322 2 11.6 2C6.10201 2 4.16001 6.42 4.07901 6.609L5.91701 7.396C5.97801 7.257 7.45301 4 11.599 4C18.038 4 18.999 9.012 18.999 12C18.999 14.569 19.355 15.301 19.898 16.122C19.971 16.233 20.048 16.349 20.125 16.485L21.873 15.514C21.769 15.327 21.667 15.17 21.566 15.019L21.567 15.02Z" fill="#464A4D"/>
<path d="M5.00001 11H3.00001V11.958C2.89001 14.616 3.47501 17.117 4.03201 19.252L5.96801 18.746C5.32201 16.271 4.91001 14.184 5.00001 11.999V10.999V11Z" fill="#464A4D"/>
</svg>
