<svg width="24" height="24" viewBox="0 0 24 24" fill="none" xmlns="http://www.w3.org/2000/svg">
<path d="M15.978 16.385C15.263 14.669 14.901 12.858 14.901 11C14.901 10.198 14.304 9.31798 13.794 8.80798C12.782 7.79598 10.818 7.79698 9.80901 8.80798C9.32801 9.35998 9.00101 10.219 9.00101 11.001H7.00101C7.00101 9.73698 7.50501 8.40598 8.34901 7.44198C9.27901 6.50798 10.521 6.00098 11.801 6.00098C13.081 6.00098 14.323 6.50898 15.208 7.39398C15.605 7.78998 16.901 9.22398 16.901 11.001C16.901 12.593 17.212 14.147 17.824 15.616L15.978 16.385Z" fill="black"/>
<path d="M12.051 17.316L11.899 16.866C11.498 15.686 11 14.219 11 13V11H13V13C13 13.889 13.439 15.183 13.793 16.223L13.948 16.684L12.051 17.316Z" fill="black"/>
<path d="M8.051 18.316C7.182 15.713 7 13.988 7 13H9C9 13.841 9.165 15.335 9.949 17.684L8.052 18.317L8.051 18.316Z" fill="black"/>
<path d="M4 8.00002H2V5.20002C2 4.24002 2.366 3.41002 3.032 2.85502C3.651 2.25602 4.494 1.90002 5.3 1.90002H8.1V3.90002H5.3C5.01 3.90002 4.651 4.06402 4.407 4.30702L4.324 4.38102C4.055 4.59602 3.999 4.94502 3.999 5.20002L4 8.00002Z" fill="black"/>
<path d="M8.1 22.1H5.3C4.494 22.1 3.651 21.745 3.032 21.146C2.366 20.59 2 19.76 2 18.8V16H4V18.8C4 19.055 4.057 19.404 4.325 19.62L4.407 19.692C4.651 19.936 5.01 20.099 5.3 20.099H8.1V22.1Z" fill="black"/>
<path d="M22.1 8.1H20.1V5.3C20.1 5.009 19.937 4.651 19.693 4.407L19.621 4.325C19.405 4.056 19.056 4 18.801 4H16.001V2H18.801C19.761 2 20.591 2.366 21.147 3.032C21.746 3.651 22.101 4.494 22.101 5.3L22.1 8.1Z" fill="black"/>
<path d="M18.8 22H16V20H18.8C19.055 20 19.404 19.943 19.62 19.675L19.693 19.593C19.936 19.35 20.099 18.991 20.099 18.7V15.9H22.099V18.7C22.099 19.507 21.744 20.35 21.145 20.969C20.589 21.634 19.76 22 18.8 22Z" fill="black"/>
</svg>
