<svg width="24" height="24" viewBox="0 0 24 24" fill="none" xmlns="http://www.w3.org/2000/svg">
<path fill-rule="evenodd" clip-rule="evenodd" d="M11.2501 13V11H12.7501V13C12.7501 14.4188 12.8486 15.519 13.1237 16.5277C13.3968 17.529 13.8541 18.4769 14.6158 19.5717L13.3844 20.4283C12.546 19.2231 12.0034 18.121 11.6765 16.9223C11.3516 15.731 11.2501 14.4812 11.2501 13Z" fill="#464A4D"/>
<path fill-rule="evenodd" clip-rule="evenodd" d="M16.6898 18.4359C15.5598 16.854 15.2501 15.0719 15.2501 13H16.7501C16.7501 14.9281 17.0404 16.346 17.9104 17.5641L16.6898 18.4359Z" fill="#464A4D"/>
<path fill-rule="evenodd" clip-rule="evenodd" d="M9.4589 8.79581C8.96788 9.40467 8.75009 10.2238 8.75009 11C8.75009 11.1765 8.7492 11.3574 8.7483 11.5424C8.73986 13.2726 8.72962 15.3733 9.42123 17.794L9.42371 17.8026C9.65886 18.6649 10.024 19.3857 10.4487 20.2241C10.5212 20.3671 10.5954 20.5135 10.6709 20.6646L9.32927 21.3354C9.26078 21.1984 9.19097 21.061 9.12067 20.9226C8.6974 20.0894 8.25633 19.2212 7.97771 18.2017C7.22565 15.567 7.23845 13.2645 7.24805 11.5377C7.24909 11.3517 7.25009 11.1723 7.25009 11C7.25009 9.97618 7.53229 8.79533 8.29128 7.85419C9.07191 6.88621 10.2953 6.25 12.0001 6.25C13.7827 6.25 14.9931 7.12713 15.7324 8.14742C16.4471 9.1337 16.7501 10.2868 16.7501 11H15.2501C15.2501 10.6132 15.0531 9.7663 14.5178 9.02758C14.0071 8.32287 13.2175 7.75 12.0001 7.75C10.7049 7.75 9.92827 8.21379 9.4589 8.79581Z" fill="#464A4D"/>
<path fill-rule="evenodd" clip-rule="evenodd" d="M5.69006 7.29401C5.69019 7.29369 5.69033 7.29336 5.00009 7C4.30984 6.70664 4.30999 6.70628 4.31015 6.7059L4.31135 6.7031L4.31352 6.69809L4.31983 6.68374C4.32493 6.67229 4.33181 6.65708 4.34052 6.63838C4.35794 6.60099 4.38272 6.54954 4.41525 6.48606C4.48027 6.35919 4.57659 6.18361 4.70747 5.9756C4.96861 5.56053 5.37107 5.01039 5.9421 4.46C7.09299 3.35071 8.92215 2.25 11.6001 2.25C15.5439 2.25 17.8909 3.87088 19.2106 5.97674C20.4945 8.02548 20.7501 10.4412 20.7501 12C20.7501 13.4742 20.8754 14.1429 21.0169 14.5298C21.0849 14.7157 21.1635 14.8552 21.2643 15.0124C21.2876 15.0488 21.3149 15.09 21.3449 15.1355C21.4354 15.2723 21.5506 15.4465 21.6557 15.6358L20.3445 16.3642C20.2693 16.229 20.2025 16.128 20.1228 16.0075C20.0859 15.9516 20.0461 15.8916 20.0015 15.8219C19.8679 15.6135 19.7277 15.3718 19.6082 15.0452C19.3748 14.4071 19.2501 13.5258 19.2501 12C19.2501 10.5588 19.0057 8.47452 17.9396 6.77326C16.9092 5.12912 15.0563 3.75 11.6001 3.75C9.37802 3.75 7.90718 4.64929 6.98307 5.54C6.5166 5.98961 6.18781 6.43947 5.97708 6.7744C5.87202 6.94139 5.79724 7.07831 5.75015 7.17019C5.72663 7.21608 5.7101 7.25058 5.70023 7.27178L5.69006 7.29401Z" fill="#464A4D"/>
<path fill-rule="evenodd" clip-rule="evenodd" d="M4.75009 11V12C4.75009 12.0104 4.74987 12.0208 4.74944 12.0312C4.65437 14.3128 5.1286 16.5214 5.7258 18.8107L4.27437 19.1893C3.67284 16.8834 3.148 14.4972 3.25009 11.9846V11H4.75009Z" fill="#464A4D"/>
</svg>
