<svg width="24" height="24" viewBox="0 0 24 24" fill="none" xmlns="http://www.w3.org/2000/svg">
<path fill-rule="evenodd" clip-rule="evenodd" d="M11.25 13V11H12.75V13C12.75 14.4188 12.8485 15.519 13.1236 16.5277C13.3967 17.529 13.854 18.4769 14.6157 19.5717L13.3843 20.4283C12.5459 19.2231 12.0033 18.121 11.6764 16.9223C11.3515 15.731 11.25 14.4812 11.25 13Z" fill="black"/>
<path fill-rule="evenodd" clip-rule="evenodd" d="M16.6897 18.4359C15.5597 16.854 15.25 15.0719 15.25 13H16.75C16.75 14.9281 17.0403 16.346 17.9103 17.5641L16.6897 18.4359Z" fill="black"/>
<path fill-rule="evenodd" clip-rule="evenodd" d="M9.4588 8.79581C8.96779 9.40467 8.74999 10.2238 8.74999 11C8.74999 11.1765 8.74911 11.3574 8.74821 11.5424C8.73977 13.2726 8.72953 15.3733 9.42114 17.794L9.42362 17.8026C9.65877 18.6649 10.0239 19.3857 10.4486 20.2241C10.5211 20.3671 10.5953 20.5135 10.6708 20.6646L9.32917 21.3354C9.26068 21.1984 9.19088 21.061 9.12058 20.9226C8.69731 20.0894 8.25624 19.2212 7.97762 18.2017C7.22556 15.567 7.23836 13.2645 7.24796 11.5377C7.249 11.3517 7.24999 11.1723 7.24999 11C7.24999 9.97618 7.5322 8.79533 8.29118 7.85419C9.07181 6.88621 10.2952 6.25 12 6.25C13.7826 6.25 14.993 7.12713 15.7323 8.14742C16.447 9.1337 16.75 10.2868 16.75 11H15.25C15.25 10.6132 15.053 9.7663 14.5177 9.02758C14.007 8.32287 13.2174 7.75 12 7.75C10.7048 7.75 9.92817 8.21379 9.4588 8.79581Z" fill="black"/>
<path fill-rule="evenodd" clip-rule="evenodd" d="M5.68996 7.29401C5.6901 7.29369 5.69024 7.29336 4.99999 7C4.30975 6.70664 4.3099 6.70628 4.31006 6.7059L4.31126 6.7031L4.31343 6.69809L4.31974 6.68374C4.32484 6.67229 4.33172 6.65708 4.34043 6.63838C4.35785 6.60099 4.38263 6.54954 4.41516 6.48606C4.48018 6.35919 4.5765 6.18361 4.70737 5.9756C4.96852 5.56053 5.37098 5.01039 5.94201 4.46C7.0929 3.35071 8.92206 2.25 11.6 2.25C15.5438 2.25 17.8908 3.87088 19.2105 5.97674C20.4944 8.02548 20.75 10.4412 20.75 12C20.75 13.4742 20.8753 14.1429 21.0168 14.5298C21.0849 14.7157 21.1634 14.8552 21.2642 15.0124C21.2875 15.0488 21.3148 15.09 21.3448 15.1355C21.4353 15.2723 21.5505 15.4465 21.6556 15.6358L20.3444 16.3642C20.2692 16.229 20.2024 16.128 20.1227 16.0075C20.0858 15.9516 20.046 15.8916 20.0014 15.8219C19.8678 15.6135 19.7276 15.3718 19.6082 15.0452C19.3747 14.4071 19.25 13.5258 19.25 12C19.25 10.5588 19.0056 8.47452 17.9395 6.77326C16.9091 5.12912 15.0562 3.75 11.6 3.75C9.37793 3.75 7.90709 4.64929 6.98298 5.54C6.51651 5.98961 6.18772 6.43947 5.97699 6.7744C5.87192 6.94139 5.79715 7.07831 5.75006 7.17019C5.72654 7.21608 5.71001 7.25058 5.70014 7.27178L5.68996 7.29401Z" fill="black"/>
<path fill-rule="evenodd" clip-rule="evenodd" d="M4.74999 11V12C4.74999 12.0104 4.74978 12.0208 4.74934 12.0312C4.65428 14.3128 5.12851 16.5214 5.72571 18.8107L4.27428 19.1893C3.67274 16.8834 3.14791 14.4972 3.24999 11.9846V11H4.74999Z" fill="black"/>
</svg>
