<svg width="24" height="24" viewBox="0 0 24 24" fill="none" xmlns="http://www.w3.org/2000/svg">
<path d="M16.759 7.44413C16.506 7.09213 16.054 6.94613 15.645 7.07513C15.232 7.20613 14.952 7.58813 14.948 8.02013C14.942 8.78313 14.746 9.35613 14.472 9.78513C14.729 7.98113 14.54 6.42713 13.906 5.07613C12.863 2.85313 11.334 2.54213 11.163 2.51413C10.876 2.46513 10.581 2.55013 10.358 2.73713C10.134 2.92513 10.004 3.20313 10.001 3.49413C10.001 3.51513 9.95601 5.68313 8.29101 7.34913C6.10901 9.53113 5.00101 11.2361 5.00101 14.5001C5.00101 20.0371 9.58001 21.5001 12.001 21.5001C14.422 21.5001 19.001 20.0371 19.001 14.5001C19.001 10.6011 16.851 7.57113 16.759 7.44413Z" fill="black"/>
</svg>
