<svg width="24" height="24" viewBox="0 0 24 24" fill="none" xmlns="http://www.w3.org/2000/svg">
<path d="M17.9999 19.9998V16.9998H19.9989C20.7109 16.9998 21.3689 16.6218 21.7269 16.0068C22.0849 15.3918 22.0899 14.6328 21.7389 14.0138L21.3789 13.3778C21.6829 12.7818 21.6689 12.0698 21.3369 11.4838L21.0129 10.9128C21.3339 10.3098 21.3269 9.58284 20.9879 8.98584L18.7379 5.01384C18.3829 4.38684 17.7189 4.00084 16.9989 3.99984C16.2799 3.99984 15.6149 4.38684 15.2599 5.01384L15.2539 5.02484L12.8279 1.43984C12.4569 0.889844 11.5439 0.889844 11.1719 1.43984L8.74494 5.02684L8.73794 5.01484C8.38294 4.38784 7.71894 4.00184 6.99894 4.00084C6.27994 4.00084 5.61494 4.38784 5.25994 5.01484L3.00994 8.98684C2.67194 9.58384 2.66394 10.3108 2.98494 10.9138L2.66094 11.4848C2.32894 12.0708 2.31494 12.7828 2.61894 13.3788L2.25894 14.0148C1.90794 14.6338 1.91294 15.3928 2.27094 16.0078C2.62894 16.6228 3.28694 17.0008 3.99894 17.0008H5.99994V20.0008H1.99994V22.0008H21.9999V20.0008L17.9999 19.9998ZM7.99994 16.9998H9.99894C10.7109 16.9998 11.3689 16.6218 11.7269 16.0068C12.0849 15.3918 12.0899 14.6328 11.7389 14.0138L11.3789 13.3778C11.6829 12.7818 11.6689 12.0698 11.3369 11.4838L11.0129 10.9128C11.3339 10.3098 11.3269 9.58284 10.9879 8.98584L9.84494 6.96884L11.9999 3.78484L14.1529 6.96784L13.0099 8.98684C12.6719 9.58384 12.6639 10.3108 12.9849 10.9138L12.6609 11.4848C12.3289 12.0708 12.3149 12.7828 12.6189 13.3788L12.2589 14.0148C11.9079 14.6338 11.9129 15.3928 12.2709 16.0078C12.6289 16.6228 13.2869 17.0008 13.9989 17.0008H15.9999V20.0008H7.99994V16.9998Z" fill="#464A4D"/>
<path d="M6.99792 4L6.99894 4.00084L6.99992 4H6.99792Z" fill="#464A4D"/>
<path d="M16.9979 4L16.9989 3.99984L16.9999 4H16.9979Z" fill="#464A4D"/>
</svg>
