<svg width="24" height="24" viewBox="0 0 24 24" fill="none" xmlns="http://www.w3.org/2000/svg">
<path d="M18 19.9998V16.9998H19.999C20.711 16.9998 21.369 16.6218 21.727 16.0068C22.085 15.3918 22.09 14.6328 21.739 14.0138L21.379 13.3778C21.683 12.7818 21.669 12.0698 21.337 11.4838L21.013 10.9128C21.334 10.3098 21.327 9.58284 20.988 8.98584L18.738 5.01384C18.383 4.38684 17.719 4.00084 16.999 3.99984C16.28 3.99984 15.615 4.38684 15.26 5.01384L15.254 5.02484L12.828 1.43984C12.457 0.889844 11.544 0.889844 11.172 1.43984L8.745 5.02684L8.738 5.01484C8.383 4.38784 7.719 4.00184 6.999 4.00084C6.28 4.00084 5.615 4.38784 5.26 5.01484L3.01 8.98684C2.672 9.58384 2.664 10.3108 2.985 10.9138L2.661 11.4848C2.329 12.0708 2.315 12.7828 2.619 13.3788L2.259 14.0148C1.908 14.6338 1.913 15.3928 2.271 16.0078C2.629 16.6228 3.287 17.0008 3.999 17.0008H6V20.0008H2V22.0008H22V20.0008L18 19.9998ZM8 16.9998H9.999C10.711 16.9998 11.369 16.6218 11.727 16.0068C12.085 15.3918 12.09 14.6328 11.739 14.0138L11.379 13.3778C11.683 12.7818 11.669 12.0698 11.337 11.4838L11.013 10.9128C11.334 10.3098 11.327 9.58284 10.988 8.98584L9.845 6.96884L12 3.78484L14.153 6.96784L13.01 8.98684C12.672 9.58384 12.664 10.3108 12.985 10.9138L12.661 11.4848C12.329 12.0708 12.315 12.7828 12.619 13.3788L12.259 14.0148C11.908 14.6338 11.913 15.3928 12.271 16.0078C12.629 16.6228 13.287 17.0008 13.999 17.0008H16V20.0008H8V16.9998Z" fill="black"/>
</svg>
