<svg width="24" height="24" viewBox="0 0 24 24" fill="none" xmlns="http://www.w3.org/2000/svg">
<path d="M18.2266 6.25H21C21.9665 6.25 22.75 7.0335 22.75 8V20C22.75 20.9665 21.9665 21.75 21 21.75H3C2.0335 21.75 1.25 20.9665 1.25 20V8C1.25 7.0335 2.0335 6.25 3 6.25H5.77344L12 2.09863L18.2266 6.25ZM13.041 18.2686L13.04 18.2695L10.9092 20.25H21C21.1381 20.25 21.25 20.1381 21.25 20V16.6387L18.0029 13.6426L13.041 18.2686ZM2.87305 20.2139C2.91041 20.2361 2.95337 20.25 3 20.25H8.70605L11.4258 17.7217L8.49902 15.0195L2.87305 20.2139ZM3 7.75C2.86193 7.75 2.75 7.86193 2.75 8V18.2871L8.5 12.9795L12.5273 16.6963L17.9971 11.5977L21.25 14.5977V8C21.25 7.86193 21.1381 7.75 21 7.75H3ZM8.47656 6.25H15.5234L12 3.90137L8.47656 6.25Z" fill="black"/>
</svg>
