<svg width="24" height="24" viewBox="0 0 24 24" fill="none" xmlns="http://www.w3.org/2000/svg">
<path d="M7.5 11C8.3 11 9 10.3 9 9.5C9 8.7 8.3 8 7.5 8C6.7 8 6 8.7 6 9.5C6 10.3 6.7 11 7.5 11Z" fill="black"/>
<path fill-rule="evenodd" clip-rule="evenodd" d="M16.6984 9.01477L22.4854 13.9283L21.5146 15.0717L16.7016 10.9853L5.48728 20.5701L4.5127 19.4299L16.6984 9.01477Z" fill="black"/>
<path fill-rule="evenodd" clip-rule="evenodd" d="M4 4.75C3.30964 4.75 2.75 5.30964 2.75 6V18C2.75 18.6904 3.30964 19.25 4 19.25H20C20.6904 19.25 21.25 18.6904 21.25 18V6C21.25 5.30964 20.6904 4.75 20 4.75H4ZM1.25 6C1.25 4.48122 2.48122 3.25 4 3.25H20C21.5188 3.25 22.75 4.48122 22.75 6V18C22.75 19.5188 21.5188 20.75 20 20.75H4C2.48122 20.75 1.25 19.5188 1.25 18V6Z" fill="black"/>
</svg>
