<svg width="24" height="24" viewBox="0 0 24 24" fill="none" xmlns="http://www.w3.org/2000/svg">
<path d="M14.5 11.1001C15.0523 11.1001 15.5 10.6524 15.5 10.1001C15.5 9.54781 15.0523 9.1001 14.5 9.1001C13.9477 9.1001 13.5 9.54781 13.5 10.1001C13.5 10.6524 13.9477 11.1001 14.5 11.1001Z" fill="black"/>
<path d="M17.5 13.1001C18.0523 13.1001 18.5 12.6524 18.5 12.1001C18.5 11.5478 18.0523 11.1001 17.5 11.1001C16.9477 11.1001 16.5 11.5478 16.5 12.1001C16.5 12.6524 16.9477 13.1001 17.5 13.1001Z" fill="black"/>
<path fill-rule="evenodd" clip-rule="evenodd" d="M4.93988 6.7499C4.40529 6.95202 4.04999 7.43805 4.04999 7.9999V8.02247L3.54882 16.3419C3.48466 17.5975 4.85432 18.322 5.84957 17.6001L8.09922 15.8618L8.16458 15.8291C8.1769 15.8229 8.1894 15.8167 8.20207 15.8103C8.58328 15.6193 9.12102 15.3499 9.79999 15.3499H14.2C14.8226 15.3499 15.3917 15.4812 15.95 15.8999L15.9586 15.9064L18.1504 17.6001C19.1456 18.322 20.5152 17.5976 20.4512 16.342C20.4511 16.3411 20.4511 16.3402 20.451 16.3393L19.9521 8.15793C19.8783 7.40796 19.1699 6.7499 18.5 6.7499H4.93988ZM6.24999 5.2499V5.1499H5.49999C3.93974 5.1499 2.56345 6.32926 2.55009 7.9757L2.05135 16.2548L2.05103 16.2605C1.91735 18.8004 4.74 20.2739 6.74351 18.8047L6.75111 18.7991L8.90031 17.1384C9.27885 16.9507 9.51734 16.8499 9.79999 16.8499H14.2C14.5753 16.8499 14.8058 16.9179 15.0461 17.097L17.2489 18.7991L17.2565 18.8047C19.26 20.2739 22.0826 18.8004 21.949 16.2605L21.4479 8.04312L21.4469 8.032C21.3155 6.58606 20.0271 5.2499 18.5 5.2499H6.24999Z" fill="black"/>
<path fill-rule="evenodd" clip-rule="evenodd" d="M7.75 13.6001V8.6001H9.25V13.6001H7.75Z" fill="black"/>
<path fill-rule="evenodd" clip-rule="evenodd" d="M6 10.3501H11V11.8501H6V10.3501Z" fill="black"/>
</svg>
