<svg width="24" height="24" viewBox="0 0 24 24" fill="none" xmlns="http://www.w3.org/2000/svg">
<path d="M21.696 7.9749C21.547 6.3449 20.086 4.9029 18.504 4.8999H5.50003C3.70603 4.8999 2.30003 6.2959 2.30203 7.9749L1.80203 16.2469C1.73603 17.5089 2.37403 18.6599 3.46903 19.2509C4.56703 19.8449 5.87903 19.7499 6.91203 18.9909L9.03503 17.3509C9.35203 17.1939 9.57103 17.0989 9.80103 17.0989H14.201C14.562 17.0989 14.731 17.1719 14.889 17.2899L17.11 19.0059C17.68 19.4249 18.346 19.6369 19.014 19.6369C19.533 19.6369 20.053 19.5089 20.533 19.2499C21.627 18.6589 22.265 17.5079 22.199 16.2379L21.697 7.9729L21.696 7.9749ZM11 11.9999H9.50003V13.4999H7.50003V11.9999H6.00003V9.9999H7.50003V8.4999H9.50003V9.9999H11V11.9999ZM14.5 11.0999C13.948 11.0999 13.5 10.6519 13.5 10.0999C13.5 9.5479 13.948 9.0999 14.5 9.0999C15.052 9.0999 15.5 9.5479 15.5 10.0999C15.5 10.6519 15.052 11.0999 14.5 11.0999ZM17.5 13.0999C16.948 13.0999 16.5 12.6519 16.5 12.0999C16.5 11.5479 16.948 11.0999 17.5 11.0999C18.052 11.0999 18.5 11.5479 18.5 12.0999C18.5 12.6519 18.052 13.0999 17.5 13.0999Z" fill="black"/>
</svg>
