<svg width="24" height="24" viewBox="0 0 24 24" fill="none" xmlns="http://www.w3.org/2000/svg">
<path d="M12 2.25C15.4365 2.25 18.4588 4.0396 20.1904 6.72363C20.3818 7.02046 20.3396 7.41042 20.0898 7.66016L15.75 12L20.0898 16.3398C20.3396 16.5896 20.3818 16.9795 20.1904 17.2764C18.4588 19.9604 15.4365 21.75 12 21.75C6.61579 21.75 2.25 17.3842 2.25 12C2.25 6.61579 6.61579 2.25 12 2.25ZM12 3.75C7.44421 3.75 3.75 7.44421 3.75 12C3.75 16.5558 7.44421 20.25 12 20.25C14.6884 20.25 17.0787 18.9536 18.584 16.9551L14.1602 12.5303C13.8673 12.2374 13.8673 11.7626 14.1602 11.4697L18.584 7.04395C17.0787 5.04577 14.6881 3.75 12 3.75ZM12 7C12.5523 7 13 7.44772 13 8C13 8.55228 12.5523 9 12 9C11.4477 9 11 8.55228 11 8C11 7.44772 11.4477 7 12 7Z" fill="black"/>
</svg>
