<svg width="24" height="24" viewBox="0 0 24 24" fill="none" xmlns="http://www.w3.org/2000/svg">
<path d="M3.25 6V3H4.75V6C4.75 6.68579 5.31421 7.25 6 7.25H18C18.6858 7.25 19.25 6.68579 19.25 6V3H20.75V6C20.75 7.51421 19.5142 8.75 18 8.75H6C4.48579 8.75 3.25 7.51421 3.25 6Z" fill="black"/>
<path d="M19.25 18C19.25 17.3142 18.6858 16.75 18 16.75H6C5.31421 16.75 4.75 17.3142 4.75 18V21H3.25V18C3.25 16.4858 4.48579 15.25 6 15.25H18C19.5142 15.25 20.75 16.4858 20.75 18V21H19.25V18Z" fill="black"/>
<path d="M19 11.25V12.75H5V11.25H19Z" fill="black"/>
</svg>
