<svg width="24" height="24" viewBox="0 0 24 24" fill="none" xmlns="http://www.w3.org/2000/svg">
<path d="M7.25 18V6C7.25 5.31421 6.68579 4.75 6 4.75H3V3.25H6C7.51421 3.25 8.75 4.48579 8.75 6V18C8.75 19.5142 7.51421 20.75 6 20.75H3V19.25H6C6.68579 19.25 7.25 18.6858 7.25 18Z" fill="black"/>
<path d="M15.25 18V6C15.25 4.48579 16.4858 3.25 18 3.25H21V4.75H18C17.3142 4.75 16.75 5.31421 16.75 6V18C16.75 18.6858 17.3142 19.25 18 19.25H21V20.75H18C16.4858 20.75 15.25 19.5142 15.25 18Z" fill="black"/>
<path d="M12.75 5V19H11.25V5H12.75Z" fill="black"/>
</svg>
