<svg width="24" height="24" viewBox="0 0 24 24" fill="none" xmlns="http://www.w3.org/2000/svg">
<path d="M11.9999 17H12.9999V20H6.99994V17H8.99894C9.71094 17 10.3689 16.622 10.7269 16.007C11.0849 15.392 11.0899 14.633 10.7389 14.014L10.3789 13.378C10.6829 12.782 10.6689 12.07 10.3369 11.484L10.0129 10.913C10.3339 10.31 10.3269 9.583 9.98794 8.986L7.73794 5.014C7.38294 4.387 6.71992 4.001 5.99992 4C5.28092 4 4.61494 4.387 4.25994 5.014L2.00994 8.986C1.67194 9.583 1.66394 10.31 1.98494 10.913L1.66094 11.484C1.32894 12.07 1.31494 12.782 1.61894 13.378L1.25894 14.014C0.907937 14.633 0.912937 15.392 1.27094 16.007C1.62894 16.622 2.28694 17 2.99894 17H4.99994V20H1.99994V22H21.9999V20H20.9999V17H21.9999V15H11.9999V17ZM18.9999 17V20H14.9999V17H18.9999Z" fill="#464A4D"/>
<path d="M21.9999 12H11.9999V14H21.9999V12Z" fill="#464A4D"/>
<path d="M18.9999 9C20.6539 9 21.9999 7.654 21.9999 6C21.9999 4.346 20.6539 3 18.9999 3C17.3459 3 15.9999 4.346 15.9999 6C15.9999 7.654 17.3459 9 18.9999 9ZM18.9999 5C19.5519 5 19.9999 5.449 19.9999 6C19.9999 6.551 19.5519 7 18.9999 7C18.4479 7 17.9999 6.551 17.9999 6C17.9999 5.449 18.4479 5 18.9999 5Z" fill="#464A4D"/>
</svg>
