<svg width="24" height="24" viewBox="0 0 24 24" fill="none" xmlns="http://www.w3.org/2000/svg">
<path d="M12 17H13V20H7V17H8.999C9.711 17 10.369 16.622 10.727 16.007C11.085 15.392 11.09 14.633 10.739 14.014L10.379 13.378C10.683 12.782 10.669 12.07 10.337 11.484L10.013 10.913C10.334 10.31 10.327 9.583 9.988 8.986L7.738 5.014C7.383 4.387 6.719 4.001 5.999 4C5.28 4 4.615 4.387 4.26 5.014L2.01 8.986C1.672 9.583 1.664 10.31 1.985 10.913L1.661 11.484C1.329 12.07 1.315 12.782 1.619 13.378L1.259 14.014C0.907998 14.633 0.912998 15.392 1.271 16.007C1.629 16.622 2.287 17 2.999 17H5V20H2V22H22V20H21V17H22V15H12V17ZM19 17V20H15V17H19Z" fill="black"/>
<path d="M22 12H12V14H22V12Z" fill="black"/>
<path d="M19 9C20.654 9 22 7.654 22 6C22 4.346 20.654 3 19 3C17.346 3 16 4.346 16 6C16 7.654 17.346 9 19 9ZM19 5C19.552 5 20 5.449 20 6C20 6.551 19.552 7 19 7C18.448 7 18 6.551 18 6C18 5.449 18.448 5 19 5Z" fill="black"/>
</svg>
