<svg width="24" height="24" viewBox="0 0 24 24" fill="none" xmlns="http://www.w3.org/2000/svg">
<path d="M21.9999 20.25V21.75H1.99992V20.25H21.9999Z" fill="#464A4D"/>
<path d="M5.99992 6L8.24992 9.972H7.18292L8.59792 12.47H7.56692L8.99992 15H2.99992L4.43292 12.47H3.40192L4.81692 9.972H3.74992L5.99992 6ZM5.99992 4.5C5.45992 4.5 4.96092 4.791 4.69492 5.261L2.44492 9.233C2.18192 9.697 2.18492 10.267 2.45392 10.728C2.48892 10.788 2.52692 10.844 2.56892 10.898L2.09692 11.732C1.83392 12.196 1.83692 12.766 2.10592 13.227C2.13492 13.277 2.16692 13.324 2.19992 13.37L1.69392 14.263C1.43092 14.727 1.43492 15.297 1.70292 15.758C1.97192 16.219 2.46492 16.503 2.99892 16.503H8.99892C9.53292 16.503 10.0259 16.219 10.2949 15.758C10.5639 15.297 10.5669 14.728 10.3039 14.263L9.79792 13.37C9.83192 13.325 9.86292 13.277 9.89192 13.227C10.1609 12.766 10.1639 12.197 9.90092 11.732L9.42892 10.898C9.47092 10.845 9.50892 10.788 9.54392 10.728C9.81292 10.267 9.81592 9.698 9.55292 9.233L7.30292 5.261C7.03692 4.791 6.53792 4.5 5.99792 4.5H5.99992Z" fill="#464A4D"/>
<path d="M6.74992 16V21H5.24992V16H6.74992Z" fill="#464A4D"/>
<path d="M21.9999 15.25V16.75H11.9999V15.25H21.9999Z" fill="#464A4D"/>
<path d="M21.9999 12.25V13.75H11.9999V12.25H21.9999Z" fill="#464A4D"/>
<path d="M14.7499 16V21H13.2499V16H14.7499Z" fill="#464A4D"/>
<path d="M20.7499 16V21H19.2499V16H20.7499Z" fill="#464A4D"/>
<path d="M20.2499 6C20.2499 5.30964 19.6903 4.75 18.9999 4.75C18.3096 4.75 17.7499 5.30964 17.7499 6C17.7499 6.69036 18.3096 7.25 18.9999 7.25C19.6903 7.25 20.2499 6.69036 20.2499 6ZM21.7499 6C21.7499 7.51878 20.5187 8.75 18.9999 8.75C17.4811 8.75 16.2499 7.51878 16.2499 6C16.2499 4.48122 17.4811 3.25 18.9999 3.25C20.5187 3.25 21.7499 4.48122 21.7499 6Z" fill="#464A4D"/>
</svg>
