<svg width="24" height="24" viewBox="0 0 24 24" fill="none" xmlns="http://www.w3.org/2000/svg">
<path d="M22 20.25V21.75H1.99998V20.25H22Z" fill="black"/>
<path d="M5.99998 6L8.24998 9.972H7.18298L8.59798 12.47H7.56698L8.99998 15H2.99998L4.43298 12.47H3.40198L4.81698 9.972H3.74998L5.99998 6ZM5.99998 4.5C5.45998 4.5 4.96098 4.791 4.69498 5.261L2.44498 9.233C2.18198 9.697 2.18498 10.267 2.45398 10.728C2.48898 10.788 2.52698 10.844 2.56898 10.898L2.09698 11.732C1.83398 12.196 1.83698 12.766 2.10598 13.227C2.13498 13.277 2.16698 13.324 2.19998 13.37L1.69398 14.263C1.43098 14.727 1.43498 15.297 1.70298 15.758C1.97198 16.219 2.46498 16.503 2.99898 16.503H8.99898C9.53298 16.503 10.026 16.219 10.295 15.758C10.564 15.297 10.567 14.728 10.304 14.263L9.79798 13.37C9.83198 13.325 9.86298 13.277 9.89198 13.227C10.161 12.766 10.164 12.197 9.90098 11.732L9.42898 10.898C9.47098 10.845 9.50898 10.788 9.54398 10.728C9.81298 10.267 9.81598 9.698 9.55298 9.233L7.30298 5.261C7.03698 4.791 6.53798 4.5 5.99798 4.5H5.99998Z" fill="black"/>
<path d="M6.74998 16V21H5.24998V16H6.74998Z" fill="black"/>
<path d="M22 15.25V16.75H12V15.25H22Z" fill="black"/>
<path d="M22 12.25V13.75H12V12.25H22Z" fill="black"/>
<path d="M14.75 16V21H13.25V16H14.75Z" fill="black"/>
<path d="M20.75 16V21H19.25V16H20.75Z" fill="black"/>
<path d="M20.25 6C20.25 5.30964 19.6903 4.75 19 4.75C18.3096 4.75 17.75 5.30964 17.75 6C17.75 6.69036 18.3096 7.25 19 7.25C19.6903 7.25 20.25 6.69036 20.25 6ZM21.75 6C21.75 7.51878 20.5188 8.75 19 8.75C17.4812 8.75 16.25 7.51878 16.25 6C16.25 4.48122 17.4812 3.25 19 3.25C20.5188 3.25 21.75 4.48122 21.75 6Z" fill="black"/>
</svg>
