<svg width="24" height="24" viewBox="0 0 24 24" fill="none" xmlns="http://www.w3.org/2000/svg">
<path fill-rule="evenodd" clip-rule="evenodd" d="M11.25 20.9999V5.99988H12.75V20.9999H11.25Z" fill="black"/>
<path fill-rule="evenodd" clip-rule="evenodd" d="M3.25 9.24988H20.75V21.7499H3.25V9.24988ZM4.75 10.7499V20.2499H19.25V10.7499H4.75Z" fill="black"/>
<path fill-rule="evenodd" clip-rule="evenodd" d="M2.25 5.24988H21.75V10.7499H2.25V5.24988ZM3.75 6.74988V9.24988H20.25V6.74988H3.75Z" fill="black"/>
<path fill-rule="evenodd" clip-rule="evenodd" d="M7.5912 2.74204C6.47335 2.5983 5.75 3.42574 5.75 3.99988C5.75 4.25824 5.8894 4.55353 6.23503 4.81053C6.58041 5.06736 7.09459 5.24988 7.7 5.24988H10.6705C10.5328 5.04968 10.3762 4.83558 10.2026 4.61934C9.46513 3.70053 8.54616 2.89923 7.5912 2.74204ZM12 5.99988C12.6708 5.66447 12.6707 5.66429 12.6706 5.66409L12.6698 5.66247L12.6681 5.65915L12.6628 5.64865L12.6443 5.6127C12.6284 5.58232 12.6057 5.53931 12.5762 5.48536C12.5175 5.37756 12.4318 5.22561 12.3215 5.04312C12.1016 4.67936 11.7797 4.18793 11.3724 3.68042C10.5874 2.70235 9.36006 1.50595 7.81849 1.2593L7.80883 1.25775L7.79912 1.25646C5.92247 1.00624 4.25 2.37568 4.25 3.99988C4.25 4.84152 4.7106 5.54623 5.33997 6.01423C5.96959 6.4824 6.80541 6.74988 7.7 6.74988H13.2135L12.6706 5.66409L12 5.99988Z" fill="black"/>
<path fill-rule="evenodd" clip-rule="evenodd" d="M16.2009 1.25646C18.0775 1.00624 19.75 2.37568 19.75 3.99988C19.75 4.84152 19.2894 5.54623 18.66 6.01423C18.0304 6.4824 17.1946 6.74988 16.3 6.74988H10.7865L11.3292 5.66447L12 5.99988C11.3292 5.66447 11.3291 5.66467 11.3292 5.66447L11.3302 5.66247L11.3319 5.65915L11.3372 5.64865L11.3557 5.6127C11.3716 5.58232 11.3943 5.53931 11.4238 5.48536C11.4825 5.37756 11.5682 5.22561 11.6785 5.04312C11.8984 4.67936 12.2203 4.18793 12.6276 3.68042C13.4126 2.70235 14.6399 1.50595 16.1815 1.2593L16.1912 1.25775L16.2009 1.25646ZM13.3295 5.24988H16.3C16.9054 5.24988 17.4196 5.06736 17.765 4.81053C18.1106 4.55353 18.25 4.25824 18.25 3.99988C18.25 3.42574 17.5266 2.5983 16.4088 2.74204C15.4538 2.89923 14.5349 3.70053 13.7974 4.61934C13.6238 4.83558 13.4672 5.04968 13.3295 5.24988Z" fill="black"/>
</svg>
