<svg width="24" height="24" viewBox="0 0 24 24" fill="none" xmlns="http://www.w3.org/2000/svg">
<path d="M20 4.25C21.5142 4.25 22.75 5.48579 22.75 7V17C22.75 18.5142 21.5142 19.75 20 19.75H4C2.48579 19.75 1.25 18.5142 1.25 17V7C1.25 5.48579 2.48579 4.25 4 4.25H20ZM4 5.75C3.31421 5.75 2.75 6.31421 2.75 7V17C2.75 17.6858 3.31421 18.25 4 18.25H14.25V12.8105L11.5303 15.5303L10.4697 14.4697L13.1895 11.75H13C12.1605 11.75 11.4574 11.5614 10.9561 11.1299C10.4369 10.6829 10.2501 10.0763 10.25 9.5C10.2501 8.24786 11.3008 7.25854 12.4863 7.25098C12.4894 7.25092 12.493 7.25102 12.4961 7.25098C12.4974 7.25097 12.4987 7.25 12.5 7.25C13.1798 7.24176 13.7706 7.52802 14.25 7.96777V5.75H4ZM15.75 7.96777C16.2293 7.52829 16.8203 7.24273 17.5 7.25098H17.5029C17.5064 7.25102 17.5102 7.24994 17.5137 7.25L17.5127 7.25098C18.6987 7.258 19.7499 8.24752 19.75 9.5C19.7499 10.0877 19.549 10.6913 19.0303 11.1328C18.5284 11.5598 17.8288 11.75 17 11.75H16.8105L19.5303 14.4697L18.4697 15.5303L15.75 12.8105V18.25H20C20.6858 18.25 21.25 17.6858 21.25 17V7C21.25 6.31421 20.6858 5.75 20 5.75H15.75V7.96777ZM12.5 8.75C12.1113 8.75 11.7501 9.09717 11.75 9.5C11.75 9.75343 11.8238 9.89779 11.9346 9.99316C12.0633 10.1039 12.3601 10.25 13 10.25H13.9844C13.8242 9.85095 13.6375 9.52619 13.4375 9.2832C13.1047 8.87908 12.7848 8.74534 12.5137 8.75H12.5ZM17.4863 8.75C17.2152 8.74534 16.8953 8.87908 16.5625 9.2832C16.3625 9.52619 16.1758 9.85095 16.0156 10.25H17C17.621 10.25 17.9219 10.1056 18.0576 9.99023C18.1761 9.88939 18.2499 9.74196 18.25 9.5C18.2499 9.09717 17.8887 8.75 17.5 8.75H17.4863Z" fill="black"/>
</svg>
