<svg width="24" height="24" viewBox="0 0 24 24" fill="none" xmlns="http://www.w3.org/2000/svg">
<path d="M11 13.0001H3V22H11V13.0001Z" fill="#464A4D"/>
<path d="M21 13.0001H13V22H21V13.0001Z" fill="#464A4D"/>
<path d="M11 5.00005H2V11.0001H11V5.00005Z" fill="#464A4D"/>
<path d="M22 5.00005H13V11.0001H22V5.00005Z" fill="#464A4D"/>
<path d="M7.7 5.00005C6.727 5.00005 6 4.47205 6 4.00005C6 3.78205 6.135 3.53405 6.36 3.33705C6.63 3.10105 6.985 2.97505 7.344 2.97505C7.41 2.97505 7.477 2.97905 7.543 2.98805C8.544 3.14805 9.499 4.09405 10.186 5.00105H13.814C14.499 4.09505 15.447 3.15005 16.432 2.99205C16.881 2.93105 17.322 3.05805 17.64 3.33805C17.866 3.53505 18 3.78305 18 4.00105C18 4.47305 17.272 5.00105 16.3 5.00105H19.781C19.914 4.68805 20 4.35505 20 4.00105C20 3.20305 19.62 2.41305 18.957 1.83305C18.205 1.17405 17.191 0.87205 16.142 1.01405C14.3 1.30805 12.864 2.86905 12 4.08805C11.134 2.86905 9.691 1.30705 7.833 1.01005C6.814 0.87505 5.796 1.17405 5.043 1.83305C4.38 2.41305 4.001 3.20305 4.001 4.00105C4.001 4.35505 4.087 4.68805 4.22 5.00105H7.701L7.7 5.00005Z" fill="#464A4D"/>
</svg>
