<svg width="24" height="24" viewBox="0 0 24 24" fill="none" xmlns="http://www.w3.org/2000/svg">
<path d="M11 13H3V22H11V13Z" fill="black"/>
<path d="M21 13H13V22H21V13Z" fill="black"/>
<path d="M11 5H2V11H11V5Z" fill="black"/>
<path d="M22 5H13V11H22V5Z" fill="black"/>
<path d="M7.69998 4.99981C6.72698 4.99981 5.99998 4.47181 5.99998 3.99981C5.99998 3.78181 6.13498 3.53381 6.35998 3.33681C6.62998 3.10081 6.98498 2.97481 7.34398 2.97481C7.40998 2.97481 7.47698 2.97881 7.54298 2.98781C8.54398 3.14781 9.49898 4.09381 10.186 5.00081H13.814C14.499 4.09481 15.447 3.14981 16.432 2.99181C16.881 2.93081 17.322 3.05781 17.64 3.33781C17.866 3.53481 18 3.78281 18 4.00081C18 4.47281 17.272 5.00081 16.3 5.00081H19.781C19.914 4.68781 20 4.35481 20 4.00081C20 3.20281 19.62 2.41281 18.957 1.83281C18.205 1.17381 17.191 0.871806 16.142 1.01381C14.3 1.30781 12.864 2.86881 12 4.08781C11.134 2.86881 9.69098 1.30681 7.83298 1.00981C6.81398 0.874806 5.79598 1.17381 5.04298 1.83281C4.37998 2.41281 4.00098 3.20281 4.00098 4.00081C4.00098 4.35481 4.08698 4.68781 4.21998 5.00081H7.70098L7.69998 4.99981Z" fill="black"/>
</svg>
