<svg width="24" height="24" viewBox="0 0 24 24" fill="none" xmlns="http://www.w3.org/2000/svg">
<path d="M12 9.5C12 9.69 12 10 13 10H13.6C13.26 9.34 12.86 9 12.53 9C12.29 9.01 12 9.21 12 9.5Z" fill="black"/>
<path d="M1 7V17C1 18.65 2.35 20 4 20H14V13.41L11.71 15.71L10.29 14.29L12.59 11.99C10.69 11.83 10 10.63 10 9.5C10 8.15 11.15 7 12.5 7C13.04 6.97 13.55 7.13 14 7.44V4H4C2.35 4 1 5.35 1 7Z" fill="black"/>
<path d="M18 9.5C18 9.21 17.72 9.01 17.49 9C17.15 9 16.74 9.34 16.4 10H17C18 10 18 9.66 18 9.5Z" fill="black"/>
<path d="M20 4H16V7.46C16.46 7.15 16.97 6.99 17.52 7C18.86 7 20 8.15 20 9.5C20 10.63 19.31 11.83 17.41 11.99L19.71 14.29L18.29 15.71L16 13.41V20H20C21.65 20 23 18.65 23 17V7C23 5.35 21.65 4 20 4Z" fill="black"/>
</svg>
