<svg width="24" height="24" viewBox="0 0 24 24" fill="none" xmlns="http://www.w3.org/2000/svg">
<path d="M13.0001 16.904C14.1921 16.687 15.3001 16.094 16.1321 15.196C17.1941 14.049 17.7351 12.497 17.6141 10.939L16.9971 2.92398C16.9571 2.40298 16.5221 2.00098 16.0001 2.00098H8.00007C7.47807 2.00098 7.04307 2.40298 7.00307 2.92398L6.38607 10.94C6.26607 12.498 6.80707 14.05 7.86907 15.196C8.70207 16.096 9.80807 16.688 11.0001 16.905V20.001H7.00007V22.001H17.0001V20.001H13.0001V16.905V16.904ZM15.0741 3.99998L15.4591 8.99998H8.54107L8.92607 3.99998H15.0741Z" fill="#464A4D"/>
</svg>
