<svg width="24" height="24" viewBox="0 0 24 24" fill="none" xmlns="http://www.w3.org/2000/svg">
<path d="M13 16.904C14.192 16.687 15.3 16.094 16.132 15.196C17.194 14.049 17.735 12.497 17.614 10.939L16.997 2.92398C16.957 2.40298 16.522 2.00098 16 2.00098H8.00001C7.47801 2.00098 7.04301 2.40298 7.00301 2.92398L6.38601 10.94C6.26601 12.498 6.80701 14.05 7.86901 15.196C8.70201 16.096 9.80801 16.688 11 16.905V20.001H7.00001V22.001H17V20.001H13V16.905V16.904ZM15.074 3.99998L15.459 8.99998H8.54101L8.92601 3.99998H15.074Z" fill="black"/>
</svg>
