<svg width="24" height="24" viewBox="0 0 24 24" fill="none" xmlns="http://www.w3.org/2000/svg">
<path d="M19.071 16.0712C22.969 12.1722 22.969 5.8282 19.071 1.9292L17.657 3.3432C20.776 6.4622 20.776 11.5372 17.657 14.6572C14.539 17.7752 9.46102 17.7772 6.34302 14.6572L4.92902 16.0712C6.62402 17.7662 8.78202 18.7222 11 18.9432V19.9992H7.00002V21.9992H17V19.9992H13V18.9422C15.218 18.7212 17.376 17.7662 19.071 16.0712Z" fill="black"/>
<path d="M12 15.625C15.653 15.625 18.625 12.653 18.625 9C18.625 5.347 15.653 2.375 12 2.375C8.347 2.375 5.375 5.347 5.375 9C5.375 12.653 8.347 15.625 12 15.625Z" fill="black"/>
</svg>
