<svg width="24" height="24" viewBox="0 0 24 24" fill="none" xmlns="http://www.w3.org/2000/svg">
<path d="M19.071 16.0712C22.969 12.1722 22.969 5.8282 19.071 1.9292L17.657 3.3432C20.776 6.4622 20.776 11.5372 17.657 14.6572C14.539 17.7752 9.46096 17.7772 6.34296 14.6572L4.92896 16.0712C6.62396 17.7662 8.78196 18.7222 11 18.9432V19.9992H6.99996V21.9992H17V19.9992H13V18.9422C15.218 18.7212 17.376 17.7662 19.071 16.0712Z" fill="#464A4D"/>
<path d="M11.9999 15.625C15.6529 15.625 18.6249 12.653 18.6249 9C18.6249 5.347 15.6529 2.375 11.9999 2.375C8.34694 2.375 5.37494 5.347 5.37494 9C5.37494 12.653 8.34694 15.625 11.9999 15.625Z" fill="#464A4D"/>
</svg>
