<svg width="24" height="24" viewBox="0 0 24 24" fill="none" xmlns="http://www.w3.org/2000/svg">
<path d="M22.371 7.07076L12.372 3.07076C12.133 2.97576 11.868 2.97576 11.629 3.07076L1.628 7.07076C1.263 7.21676 1.017 7.56476 1.001 7.95776C1.001 7.97176 1.005 7.98476 1.005 7.99976H1V15.9998H3V9.61776L5 10.6178V15.9998C5 18.2798 8.009 19.9998 12 19.9998C15.991 19.9998 19 18.2798 19 15.9998V10.6178L22.447 8.89376C22.8 8.71776 23.015 8.35176 22.999 7.95776C22.983 7.56376 22.737 7.21676 22.371 7.07076Z" fill="#464A4D"/>
</svg>
