<svg width="24" height="24" viewBox="0 0 24 24" fill="none" xmlns="http://www.w3.org/2000/svg">
<path d="M16.085 13.823C19.504 12.236 22 8.792 22 5C22 4.448 21.553 4 21 4H3.00002C2.44802 4 2.00002 4.448 2.00002 5C2.00002 8.793 4.49602 12.237 7.91502 13.824L6.26902 16.292C5.88202 16.11 5.45502 16 4.99902 16C3.34502 16 1.99902 17.346 1.99902 19C1.99902 20.654 3.34502 22 4.99902 22C6.65302 22 7.99902 20.654 7.99902 19C7.99902 18.648 7.92702 18.314 7.81502 18H16.464L18.167 20.555C18.359 20.844 18.677 21 19 21C19.19 21 19.383 20.945 19.554 20.832C20.014 20.525 20.138 19.905 19.831 19.445L16.085 13.823ZM5.00002 20C4.44902 20 4.00002 19.552 4.00002 19C4.00002 18.448 4.44902 18 5.00002 18C5.55102 18 6.00002 18.448 6.00002 19C6.00002 19.552 5.55102 20 5.00002 20ZM8.86802 16L9.86902 14.499C10.561 14.659 11.273 14.75 12 14.75C12.727 14.75 13.439 14.658 14.131 14.499L15.132 16H8.86802Z" fill="#464A4D"/>
<path d="M10 7.00004C9.71202 7.00004 9.42702 6.87604 9.22902 6.63704C8.87702 6.21204 8.93702 5.58104 9.36202 5.22904C9.45002 5.15604 9.49902 5.07404 9.49902 5.00004C9.49902 4.92604 9.45002 4.84404 9.36202 4.77104C8.81402 4.31704 8.49902 3.67204 8.49902 3.00004C8.49902 2.32804 8.81302 1.68304 9.36202 1.22904C9.78802 0.877041 10.417 0.936041 10.77 1.36204C11.122 1.78704 11.062 2.41804 10.637 2.77004C10.549 2.84304 10.5 2.92504 10.5 2.99904C10.5 3.07304 10.549 3.15504 10.637 3.22804C11.185 3.68204 11.5 4.32704 11.5 4.99904C11.5 5.67104 11.186 6.31604 10.637 6.77004C10.45 6.92404 10.225 7.00004 10 7.00004Z" fill="#464A4D"/>
<path d="M14.001 7.00004C13.713 7.00004 13.427 6.87604 13.23 6.63704C12.878 6.21204 12.938 5.58104 13.363 5.22904C13.452 5.15604 13.501 5.07404 13.501 5.00004C13.501 4.92604 13.452 4.84404 13.363 4.77104C12.815 4.31704 12.501 3.67204 12.501 3.00004C12.501 2.32804 12.815 1.68304 13.363 1.22904C13.79 0.876041 14.422 0.937041 14.771 1.36204C15.124 1.78704 15.063 2.41804 14.638 2.77004C14.549 2.84304 14.5 2.92504 14.5 2.99904C14.5 3.07304 14.549 3.15504 14.638 3.22804C15.186 3.68204 15.5 4.32704 15.5 4.99904C15.5 5.67104 15.186 6.31604 14.638 6.77004C14.451 6.92404 14.225 7.00004 14.001 7.00004Z" fill="#464A4D"/>
<path d="M9.50002 5C9.50002 5.075 9.45102 5.156 9.36302 5.229C8.93702 5.581 8.87802 6.211 9.23002 6.637C9.42802 6.876 9.71303 7 10.001 7C10.226 7 10.451 6.925 10.638 6.771C11.186 6.317 11.501 5.672 11.501 5C11.501 4.651 11.413 4.311 11.254 4H8.74702C8.89402 4.288 9.10002 4.552 9.36302 4.771C9.45102 4.844 9.50002 4.926 9.50002 5Z" fill="white"/>
<path d="M13.501 5.00004C13.501 5.07504 13.452 5.15604 13.363 5.22904C12.938 5.58104 12.878 6.21204 13.23 6.63704C13.427 6.87604 13.713 7.00004 14.001 7.00004C14.225 7.00004 14.45 6.925 14.637 6.771C15.185 6.317 15.499 5.672 15.499 5C15.499 4.651 15.411 4.311 15.252 4H12.745C12.891 4.288 13.097 4.552 13.361 4.771C13.45 4.844 13.499 4.926 13.499 5L13.501 5.00004Z" fill="white"/>
</svg>
