<svg width="24" height="24" viewBox="0 0 24 24" fill="none" xmlns="http://www.w3.org/2000/svg">
<path d="M16.085 13.823C19.504 12.236 22 8.792 22 5C22 4.448 21.553 4 21 4H2.99999C2.44799 4 1.99999 4.448 1.99999 5C1.99999 8.793 4.49599 12.237 7.91499 13.824L6.26899 16.292C5.88199 16.11 5.45499 16 4.99899 16C3.34499 16 1.99899 17.346 1.99899 19C1.99899 20.654 3.34499 22 4.99899 22C6.65299 22 7.99899 20.654 7.99899 19C7.99899 18.648 7.92699 18.314 7.81499 18H16.464L18.167 20.555C18.359 20.844 18.677 21 19 21C19.19 21 19.383 20.945 19.554 20.832C20.014 20.525 20.138 19.905 19.831 19.445L16.085 13.823ZM4.99999 20C4.44899 20 3.99999 19.552 3.99999 19C3.99999 18.448 4.44899 18 4.99999 18C5.55099 18 5.99999 18.448 5.99999 19C5.99999 19.552 5.55099 20 4.99999 20ZM8.86799 16L9.86899 14.499C10.561 14.659 11.273 14.75 12 14.75C12.727 14.75 13.439 14.658 14.131 14.499L15.132 16H8.86799Z" fill="black"/>
<path d="M9.99999 6.99995C9.71199 6.99995 9.42699 6.87595 9.22899 6.63695C8.87699 6.21195 8.93699 5.58095 9.36199 5.22895C9.44999 5.15595 9.49899 5.07395 9.49899 4.99995C9.49899 4.92595 9.44999 4.84395 9.36199 4.77095C8.81399 4.31695 8.49899 3.67195 8.49899 2.99995C8.49899 2.32795 8.81299 1.68295 9.36199 1.22895C9.78799 0.876949 10.417 0.935949 10.77 1.36195C11.122 1.78695 11.062 2.41795 10.637 2.76995C10.549 2.84295 10.5 2.92495 10.5 2.99895C10.5 3.07295 10.549 3.15495 10.637 3.22795C11.185 3.68195 11.5 4.32695 11.5 4.99895C11.5 5.67095 11.186 6.31595 10.637 6.76995C10.45 6.92395 10.225 6.99995 9.99999 6.99995Z" fill="black"/>
<path d="M14.001 7.00004C13.713 7.00004 13.427 6.87604 13.23 6.63704C12.878 6.21204 12.938 5.58104 13.363 5.22904C13.452 5.15604 13.501 5.07404 13.501 5.00004C13.501 4.92604 13.452 4.84404 13.363 4.77104C12.815 4.31704 12.501 3.67204 12.501 3.00004C12.501 2.32804 12.815 1.68304 13.363 1.22904C13.79 0.876041 14.422 0.937041 14.771 1.36204C15.124 1.78704 15.063 2.41804 14.638 2.77004C14.549 2.84304 14.5 2.92504 14.5 2.99904C14.5 3.07304 14.549 3.15504 14.638 3.22804C15.186 3.68204 15.5 4.32704 15.5 4.99904C15.5 5.67104 15.186 6.31604 14.638 6.77004C14.451 6.92404 14.225 7.00004 14.001 7.00004Z" fill="black"/>
</svg>
