<svg width="24" height="24" viewBox="0 0 24 24" fill="none" xmlns="http://www.w3.org/2000/svg">
<path d="M21.664 10.2521L12 1.66211L7.99996 5.21711V2.99911H5.99996V6.99411L2.33496 10.2511L3.66396 11.7461L3.99896 11.4481V22.9991H19.999V11.4481L20.335 11.7471L21.664 10.2521ZM11 21.0001V18.0001H13V21.0001H11ZM15 21.0001V16.0001H8.99996V21.0001H5.99996V15.0001H18V21.0001H15ZM18 13.0001H5.99996V9.67211L12 4.33811L18 9.67111V13.0001Z" fill="#464A4D"/>
<path d="M9.18396 9.82088C9.18396 11.3739 10.447 12.6379 12 12.6379C13.553 12.6379 14.816 11.3739 14.816 9.82088C14.816 8.26788 13.552 7.00488 12 7.00488C10.448 7.00488 9.18396 8.26788 9.18396 9.82088ZM12.816 9.82088C12.816 10.2709 12.45 10.6369 12 10.6369C11.55 10.6369 11.184 10.2709 11.184 9.82088C11.184 9.37088 11.55 9.00488 12 9.00488C12.45 9.00488 12.816 9.37088 12.816 9.82088Z" fill="#464A4D"/>
</svg>
