<svg width="24" height="24" viewBox="0 0 24 24" fill="none" xmlns="http://www.w3.org/2000/svg">
<path d="M12 3.25C12.7656 3.25 13.4633 3.51591 13.9717 4.02246C14.4805 4.52949 14.75 5.22802 14.75 6C14.75 7.43395 13.6177 8.1661 13.0918 8.58594C12.7707 8.84233 12.6282 8.99364 12.5693 9.12305C12.5479 9.17021 12.5122 9.261 12.5762 9.45996L21.291 13.8174L21.4541 13.9043C22.2481 14.3686 22.7402 15.2289 22.7402 16.1504C22.74 17.5844 21.5737 18.75 20.1396 18.75H3.84961C2.4157 18.7498 1.25021 17.5843 1.25 16.1504C1.25 15.1751 1.79314 14.2582 2.68848 13.8174L11.0723 9.61914C11.0012 9.2292 11.0435 8.85531 11.2041 8.50195C11.4294 8.00655 11.8512 7.65761 12.1562 7.41406C12.8828 6.83398 13.25 6.56587 13.25 6C13.25 5.58198 13.1093 5.28043 12.9131 5.08496C12.7165 4.88911 12.4143 4.75 12 4.75C11.2918 4.75 10.75 5.28667 10.75 6C10.75 6.41421 10.4142 6.75 10 6.75C9.58579 6.75 9.25 6.41421 9.25 6C9.25 4.45333 10.4682 3.25 12 3.25ZM3.35156 15.1631C2.98717 15.3424 2.75 15.7258 2.75 16.1504C2.75021 16.7559 3.24413 17.2498 3.84961 17.25H20.1396C20.7453 17.25 21.24 16.756 21.2402 16.1504C21.2402 15.7333 20.9998 15.3456 20.6289 15.1631L11.9854 10.8408L3.35156 15.1631Z" fill="black"/>
</svg>
