<svg width="24" height="24" viewBox="0 0 24 24" fill="none" xmlns="http://www.w3.org/2000/svg">
<path d="M21.41 13.5998L12.79 9.28977C12.79 9.14977 12.94 9.01977 13.4 8.66977C14.04 8.16977 15 7.40977 15 6.00977C15 4.26977 13.74 3.00977 12 3.00977C10.26 3.00977 9 4.32977 9 6.00977C9 6.55977 9.45 7.00977 10 7.00977C10.55 7.00977 11 6.55977 11 6.00977C11 5.45977 11.43 5.00977 12 5.00977C12.64 5.00977 13 5.36977 13 6.00977C13 6.39977 12.76 6.62977 12.16 7.09977C11.61 7.52977 10.67 8.26977 10.8 9.48977L2.58 13.5898C1.62 14.0598 1 15.0698 1 16.1498C1 17.7198 2.28 18.9998 3.85 18.9998H20.14C21.71 18.9998 22.99 17.7198 22.99 16.1498C22.99 15.0698 22.37 14.0698 21.41 13.5998ZM20.14 16.9998H3.85C3.38 16.9998 3 16.6198 3 16.1498C3 15.8198 3.18 15.5298 3.47 15.3798L11.99 11.1198L20.52 15.3898C20.81 15.5298 20.99 15.8298 20.99 16.1498C20.99 16.6198 20.61 16.9998 20.14 16.9998Z" fill="black"/>
</svg>
