<svg width="24" height="24" viewBox="0 0 24 24" fill="none" xmlns="http://www.w3.org/2000/svg">
<path d="M12 1.5C6.2 1.5 1.5 6.2 1.5 12C1.5 17.8 6.2 22.5 12 22.5C17.8 22.5 22.5 17.8 22.5 12C22.5 6.2 17.8 1.5 12 1.5ZM8.5 8C9.3 8 10 8.7 10 9.5C10 10.3 9.3 11 8.5 11C7.7 11 7 10.3 7 9.5C7 8.7 7.7 8 8.5 8ZM12 17.4C10.3 17.4 8.6 16.8 7.3 15.5L8.7 14.1C10.5 15.9 13.5 15.9 15.3 14.1L16.7 15.5C15.4 16.8 13.7 17.4 12 17.4ZM15.5 11C14.7 11 14 10.3 14 9.5C14 8.7 14.7 8 15.5 8C16.3 8 17 8.7 17 9.5C17 10.3 16.3 11 15.5 11Z" fill="black"/>
</svg>
