<svg width="24" height="24" viewBox="0 0 24 24" fill="none" xmlns="http://www.w3.org/2000/svg">
<path d="M19.0001 14H15.5301L16.5301 9.99999H19.0001C19.5531 9.99999 20.0001 9.55199 20.0001 8.99999C20.0001 8.44799 19.5531 7.99999 19.0001 7.99999H17.0301L17.9691 4.24299C18.1041 3.70699 17.7781 3.16399 17.2411 3.02999C16.7051 2.89299 16.1631 3.22199 16.0291 3.75799L14.9681 8.00099H11.0291L11.9681 4.24399C12.1021 3.70799 11.7761 3.16499 11.2401 3.03099C10.7051 2.89699 10.1611 3.22299 10.0271 3.75899L8.96607 8.00199H4.99707C4.44507 8.00199 3.99707 8.44999 3.99707 9.00199C3.99707 9.55399 4.44507 10.002 4.99707 10.002H8.46607L7.46607 14.002H4.99707C4.44507 14.002 3.99707 14.449 3.99707 15.002C3.99707 15.555 4.44507 16.002 4.99707 16.002H6.96607L6.02707 19.76C5.89307 20.295 6.21907 20.838 6.75507 20.972C6.83707 20.993 6.91807 21.002 6.99907 21.002C7.44707 21.002 7.85407 20.699 7.96807 20.244L9.02907 16.002H12.9671L12.0271 19.76C11.8931 20.295 12.2191 20.838 12.7551 20.972C12.8371 20.993 12.9181 21.002 12.9991 21.002C13.4471 21.002 13.8541 20.699 13.9681 20.244L15.0291 16.002H18.9991C19.5521 16.002 19.9991 15.555 19.9991 15.002C19.9991 14.449 19.5521 14.002 18.9991 14.002L19.0001 14ZM9.53107 14L10.5311 9.99999H14.4701L13.4701 14H9.53107Z" fill="#464A4D"/>
</svg>
