<svg width="24" height="24" viewBox="0 0 24 24" fill="none" xmlns="http://www.w3.org/2000/svg">
<path fill-rule="evenodd" clip-rule="evenodd" d="M4.25 9C4.25 8.58579 4.58579 8.25 5 8.25H19C19.4142 8.25 19.75 8.58579 19.75 9C19.75 9.41421 19.4142 9.75 19 9.75H5C4.58579 9.75 4.25 9.41421 4.25 9Z" fill="black"/>
<path fill-rule="evenodd" clip-rule="evenodd" d="M4.25 15C4.25 14.5858 4.58579 14.25 5 14.25H19C19.4142 14.25 19.75 14.5858 19.75 15C19.75 15.4142 19.4142 15.75 19 15.75H5C4.58579 15.75 4.25 15.4142 4.25 15Z" fill="black"/>
<path fill-rule="evenodd" clip-rule="evenodd" d="M11.1819 3.27239C11.5837 3.37285 11.8281 3.78005 11.7276 4.1819L7.7276 20.1819C7.62714 20.5837 7.21994 20.8281 6.81809 20.7276C6.41625 20.6271 6.17193 20.2199 6.27239 19.8181L10.2724 3.81809C10.3728 3.41625 10.78 3.17193 11.1819 3.27239Z" fill="black"/>
<path fill-rule="evenodd" clip-rule="evenodd" d="M17.1819 3.27239C17.5837 3.37285 17.8281 3.78005 17.7276 4.1819L13.7276 20.1819C13.6271 20.5837 13.2199 20.8281 12.8181 20.7276C12.4162 20.6271 12.1719 20.2199 12.2724 19.8181L16.2724 3.81809C16.3728 3.41625 16.78 3.17193 17.1819 3.27239Z" fill="black"/>
</svg>
