<svg width="24" height="24" viewBox="0 0 24 24" fill="none" xmlns="http://www.w3.org/2000/svg">
<path d="M19 14H15.53L16.53 9.99999H19C19.553 9.99999 20 9.55199 20 8.99999C20 8.44799 19.553 7.99999 19 7.99999H17.03L17.969 4.24299C18.104 3.70699 17.778 3.16399 17.241 3.02999C16.705 2.89299 16.163 3.22199 16.029 3.75799L14.968 8.00099H11.029L11.968 4.24399C12.102 3.70799 11.776 3.16499 11.24 3.03099C10.705 2.89699 10.161 3.22299 10.027 3.75899L8.96601 8.00199H4.99701C4.44501 8.00199 3.99701 8.44999 3.99701 9.00199C3.99701 9.55399 4.44501 10.002 4.99701 10.002H8.46601L7.46601 14.002H4.99701C4.44501 14.002 3.99701 14.449 3.99701 15.002C3.99701 15.555 4.44501 16.002 4.99701 16.002H6.96601L6.02701 19.76C5.89301 20.295 6.21901 20.838 6.75501 20.972C6.83701 20.993 6.91801 21.002 6.99901 21.002C7.44701 21.002 7.85401 20.699 7.96801 20.244L9.02901 16.002H12.967L12.027 19.76C11.893 20.295 12.219 20.838 12.755 20.972C12.837 20.993 12.918 21.002 12.999 21.002C13.447 21.002 13.854 20.699 13.968 20.244L15.029 16.002H18.999C19.552 16.002 19.999 15.555 19.999 15.002C19.999 14.449 19.552 14.002 18.999 14.002L19 14ZM9.53101 14L10.531 9.99999H14.47L13.47 14H9.53101Z" fill="black"/>
</svg>
