<svg width="24" height="24" viewBox="0 0 24 24" fill="none" xmlns="http://www.w3.org/2000/svg">
<path fill-rule="evenodd" clip-rule="evenodd" d="M4.5 12.75C3.51421 12.75 2.75 13.5142 2.75 14.5V18.5C2.75 19.4858 3.51421 20.25 4.5 20.25C5.48579 20.25 6.25 19.4858 6.25 18.5V14.5C6.25 13.5142 5.48579 12.75 4.5 12.75ZM1.25 14.5C1.25 12.6858 2.68579 11.25 4.5 11.25C6.31421 11.25 7.75 12.6858 7.75 14.5V18.5C7.75 20.3142 6.31421 21.75 4.5 21.75C2.68579 21.75 1.25 20.3142 1.25 18.5V14.5Z" fill="black"/>
<path fill-rule="evenodd" clip-rule="evenodd" d="M19.5 12.75C18.5142 12.75 17.75 13.5142 17.75 14.5V18.5C17.75 19.4858 18.5142 20.25 19.5 20.25C20.4858 20.25 21.25 19.4858 21.25 18.5V14.5C21.25 13.5142 20.4858 12.75 19.5 12.75ZM16.25 14.5C16.25 12.6858 17.6858 11.25 19.5 11.25C21.3142 11.25 22.75 12.6858 22.75 14.5V18.5C22.75 20.3142 21.3142 21.75 19.5 21.75C17.6858 21.75 16.25 20.3142 16.25 18.5V14.5Z" fill="black"/>
<path fill-rule="evenodd" clip-rule="evenodd" d="M12 3.55005C8.31421 3.55005 5.25 6.61426 5.25 10.3V12C5.25 12.4143 4.91421 12.75 4.5 12.75C4.08579 12.75 3.75 12.4143 3.75 12V10.3C3.75 5.78584 7.48579 2.05005 12 2.05005C16.5142 2.05005 20.25 5.78584 20.25 10.3V12C20.25 12.4143 19.9142 12.75 19.5 12.75C19.0858 12.75 18.75 12.4143 18.75 12V10.3C18.75 6.61426 15.6858 3.55005 12 3.55005Z" fill="black"/>
</svg>
