<svg width="24" height="24" viewBox="0 0 24 24" fill="none" xmlns="http://www.w3.org/2000/svg">
<path d="M20.5 11.157V10.3C20.5 5.61305 16.687 1.80005 12 1.80005C7.313 1.80005 3.5 5.61305 3.5 10.3V11.157C2.043 11.58 1 12.889 1 14.5V18.5C1 20.463 2.538 22 4.5 22C6.462 22 8 20.463 8 18.5V14.5C8 12.889 6.957 11.58 5.5 11.157V10.3C5.5 6.77705 8.477 3.80005 12 3.80005C15.523 3.80005 18.5 6.77705 18.5 10.3V11.157C17.043 11.58 16 12.889 16 14.5V18.5C16 20.463 17.537 22 19.5 22C21.463 22 23 20.463 23 18.5V14.5C23 12.889 21.957 11.58 20.5 11.157Z" fill="black"/>
</svg>
