<svg width="24" height="24" viewBox="0 0 24 24" fill="none" xmlns="http://www.w3.org/2000/svg">
<path d="M20.493 10.155C20.414 5.53505 16.638 1.80005 12 1.80005C7.362 1.80005 3.586 5.53505 3.507 10.155C2.046 10.576 1 11.887 1 13.5V17.5C1 19.463 2.538 21 4.5 21C6.462 21 8 19.463 8 17.5V13.5C8 11.892 6.96 10.584 5.507 10.159C5.585 6.69805 8.524 3.80005 12 3.80005C15.476 3.80005 18.414 6.69805 18.493 10.159C17.04 10.584 16 11.892 16 13.5V17.5C16 18.109 16.162 18.668 16.424 19.161L15.585 20H14.721C14.374 19.4051 13.736 19 12.999 19H10.999C9.896 19 8.999 19.897 8.999 21C8.999 22.1031 9.896 23 10.999 23H12.999C13.736 23 14.374 22.595 14.721 22H15.999C16.265 22 16.519 21.8951 16.706 21.7071L17.837 20.576C18.331 20.8391 18.89 21 19.498 21C21.461 21 22.998 19.463 22.998 17.5V13.5C22.998 11.886 21.951 10.575 20.491 10.155H20.493Z" fill="black"/>
</svg>
