<svg width="24" height="24" viewBox="0 0 24 24" fill="none" xmlns="http://www.w3.org/2000/svg">
<path fill-rule="evenodd" clip-rule="evenodd" d="M1.25 8.062C1.25 4.79228 4.02567 2.25 7.389 2.25C9.12236 2.25 10.8313 2.96155 12 4.16672C13.169 2.96151 14.8785 2.25 16.611 2.25C19.9743 2.25 22.75 4.79228 22.75 8.062C22.75 10.4692 21.5356 12.474 19.6563 14.5234C18.333 15.9664 16.6076 17.5049 14.6286 19.2695C13.8201 19.9903 12.9693 20.7489 12.0864 21.5542C11.8 21.8153 11.3619 21.8153 11.0756 21.5541C10.9881 21.4743 10.9011 21.395 10.8147 21.3162C7.87087 18.6315 5.51589 16.4838 3.89534 14.4886C2.20865 12.412 1.25 10.4214 1.25 8.062ZM7.389 3.75C4.76433 3.75 2.75 5.70772 2.75 8.062C2.75 9.95461 3.49785 11.62 5.05966 13.5429C6.55319 15.3817 8.7289 17.383 11.582 19.9858C12.3215 19.3162 13.0268 18.6873 13.6956 18.091C15.6434 16.3543 17.2813 14.8939 18.5507 13.5096C20.3389 11.5595 21.25 9.90783 21.25 8.062C21.25 5.70772 19.2357 3.75 16.611 3.75C14.9956 3.75 13.4414 4.55368 12.622 5.77001C12.4827 5.97693 12.2495 6.101 12 6.101C11.7505 6.101 11.5173 5.97693 11.378 5.77001C10.5586 4.55363 9.00533 3.75 7.389 3.75Z" fill="black"/>
</svg>
