<svg width="24" height="24" viewBox="0 0 24 24" fill="none" xmlns="http://www.w3.org/2000/svg">
<path fill-rule="evenodd" clip-rule="evenodd" d="M11.25 18V16H12.75V18H11.25Z" fill="black"/>
<path fill-rule="evenodd" clip-rule="evenodd" d="M12 3.75C7.44365 3.75 3.75 7.44365 3.75 12C3.75 16.5563 7.44365 20.25 12 20.25C16.5563 20.25 20.25 16.5563 20.25 12C20.25 7.44365 16.5563 3.75 12 3.75ZM2.25 12C2.25 6.61522 6.61522 2.25 12 2.25C17.3848 2.25 21.75 6.61522 21.75 12C21.75 17.3848 17.3848 21.75 12 21.75C6.61522 21.75 2.25 17.3848 2.25 12Z" fill="black"/>
<path fill-rule="evenodd" clip-rule="evenodd" d="M12 7.75C10.7142 7.75 9.75 8.71421 9.75 10H8.25C8.25 7.88579 9.88579 6.25 12 6.25C14.0045 6.25 15.75 7.58398 15.75 9.6C15.75 11.5249 14.4233 12.3208 13.895 12.6377L13.8859 12.6431C13.6604 12.7784 13.355 12.9856 13.1128 13.2471C12.8686 13.5109 12.75 13.7619 12.75 14V15H11.25V14C11.25 13.2381 11.6314 12.6391 12.0122 12.2279C12.395 11.8144 12.8396 11.5216 13.1141 11.3569C13.5922 11.07 14.25 10.664 14.25 9.6C14.25 8.61602 13.3955 7.75 12 7.75Z" fill="black"/>
</svg>
