<svg width="24" height="24" viewBox="0 0 24 24" fill="none" xmlns="http://www.w3.org/2000/svg">
<path d="M22.9089 11.584C22.2039 10.039 19.3309 5 11.9999 5C11.2769 5 10.1899 5.085 9.39389 5.274L9.85689 7.219C10.3929 7.092 11.2949 6.999 12.0009 6.999C17.5769 6.999 20.0439 10.419 20.8849 11.998C20.4929 12.73 19.7109 13.935 18.3859 14.967L19.6159 16.545C21.5149 15.064 22.4949 13.321 22.9099 12.416L23.0999 12L22.9089 11.584Z" fill="#464A4D"/>
<path d="M1.58588 4.414L4.51888 7.347C2.50888 8.852 1.47088 10.752 1.09088 11.584L0.900879 12L1.09088 12.416C1.79688 13.96 4.66988 19 12.0009 19C13.2999 19 14.5309 18.828 15.6799 18.507L19.5869 22.414L21.0009 21L2.99988 3L1.58588 4.414ZM11.9999 17C6.42288 17 3.95488 13.578 3.11488 12C3.55388 11.171 4.43888 9.826 5.94788 8.777L8.14488 10.974C8.05288 11.34 7.99988 11.716 7.99988 12.001C7.99988 14.207 9.79388 16.001 11.9999 16.001C12.1919 16.001 12.5919 15.976 13.0389 15.868L14.0089 16.838C13.3659 16.944 12.6959 17 11.9999 17Z" fill="#464A4D"/>
</svg>
