<svg width="24" height="24" viewBox="0 0 24 24" fill="none" xmlns="http://www.w3.org/2000/svg">
<path fill-rule="evenodd" clip-rule="evenodd" d="M8.34257 11.1991C8.39932 10.9298 8.48976 10.619 8.62668 10.3578L9.9552 11.0542C9.90812 11.144 9.85306 11.3057 9.81031 11.5085C9.7685 11.7068 9.74994 11.8894 9.74994 12C9.74994 13.2278 10.7722 14.25 11.9999 14.25C12.2836 14.25 12.6848 14.1936 12.9825 14.0503L13.6333 15.4017C13.063 15.6764 12.4163 15.75 11.9999 15.75C9.94373 15.75 8.24994 14.0562 8.24994 12C8.24994 11.7616 8.28488 11.4727 8.34257 11.1991Z" fill="#464A4D"/>
<path fill-rule="evenodd" clip-rule="evenodd" d="M2.83313 11.9997C3.31038 11.0643 4.41382 9.32055 6.45886 8.15686L5.71701 6.85315C3.02151 8.38696 1.74239 10.7595 1.31784 11.6882L1.17529 12L1.3178 12.3118C2.00321 13.8114 4.8184 18.75 11.9999 18.75C13.6193 18.75 15.0263 18.4974 16.242 18.0829L15.7579 16.6631C14.7036 17.0226 13.4606 17.25 11.9999 17.25C6.12548 17.25 3.62318 13.5429 2.83313 11.9997Z" fill="#464A4D"/>
<path fill-rule="evenodd" clip-rule="evenodd" d="M11.9999 6.75C11.3273 6.75 10.3995 6.83397 9.79818 6.97672L9.45172 5.51728C10.1984 5.34003 11.2486 5.25 11.9999 5.25C19.1815 5.25 21.9967 10.1886 22.6821 11.6882L22.8247 12.0003L22.6819 12.3122C22.3154 13.1126 21.3586 14.869 19.4611 16.3485L18.5388 15.1655C19.9621 14.0558 20.7748 12.7621 21.1664 11.9996C20.3759 10.456 17.8735 6.75 11.9999 6.75Z" fill="#464A4D"/>
<path fill-rule="evenodd" clip-rule="evenodd" d="M19.7626 22.2374L1.7626 4.23736L2.82326 3.1767L20.8233 21.1767L19.7626 22.2374Z" fill="#464A4D"/>
</svg>
