<svg width="24" height="24" viewBox="0 0 24 24" fill="none" xmlns="http://www.w3.org/2000/svg">
<path fill-rule="evenodd" clip-rule="evenodd" d="M8.34263 11.1991C8.39938 10.9298 8.48982 10.619 8.62674 10.3578L9.95526 11.0542C9.90818 11.144 9.85312 11.3057 9.81037 11.5085C9.76856 11.7068 9.75 11.8894 9.75 12C9.75 13.2278 10.7722 14.25 12 14.25C12.2837 14.25 12.6849 14.1936 12.9826 14.0503L13.6334 15.4017C13.0631 15.6764 12.4163 15.75 12 15.75C9.94379 15.75 8.25 14.0562 8.25 12C8.25 11.7616 8.28494 11.4727 8.34263 11.1991Z" fill="black"/>
<path fill-rule="evenodd" clip-rule="evenodd" d="M2.8332 11.9997C3.31044 11.0643 4.41388 9.32055 6.45892 8.15686L5.71707 6.85315C3.02157 8.38696 1.74245 10.7595 1.3179 11.6882L1.17535 12L1.31786 12.3118C2.00328 13.8114 4.81846 18.75 12 18.75C13.6194 18.75 15.0263 18.4974 16.242 18.0829L15.758 16.6631C14.7036 17.0226 13.4606 17.25 12 17.25C6.12554 17.25 3.62325 13.5429 2.8332 11.9997Z" fill="black"/>
<path fill-rule="evenodd" clip-rule="evenodd" d="M12 6.75C11.3273 6.75 10.3996 6.83397 9.79824 6.97672L9.45178 5.51728C10.1985 5.34003 11.2487 5.25 12 5.25C19.1815 5.25 21.9967 10.1886 22.6821 11.6882L22.8248 12.0003L22.6819 12.3122C22.3154 13.1126 21.3587 14.869 19.4612 16.3485L18.5389 15.1655C19.9622 14.0558 20.7748 12.7621 21.1665 11.9996C20.376 10.456 17.8736 6.75 12 6.75Z" fill="black"/>
<path fill-rule="evenodd" clip-rule="evenodd" d="M19.7627 22.2374L1.76266 4.23736L2.82332 3.1767L20.8233 21.1767L19.7627 22.2374Z" fill="black"/>
</svg>
