<svg width="24" height="24" viewBox="0 0 24 24" fill="none" xmlns="http://www.w3.org/2000/svg">
<path d="M22.909 11.584C22.204 10.039 19.331 5 12 5C11.277 5 10.19 5.085 9.39401 5.274L9.85701 7.219C10.393 7.092 11.295 6.999 12.001 6.999C17.577 6.999 20.044 10.419 20.885 11.998C20.493 12.73 19.711 13.935 18.386 14.967L19.616 16.545C21.515 15.064 22.495 13.321 22.91 12.416L23.1 12L22.909 11.584Z" fill="black"/>
<path d="M1.586 4.414L4.519 7.347C2.509 8.852 1.471 10.752 1.091 11.584L0.901001 12L1.091 12.416C1.797 13.96 4.67 19 12.001 19C13.3 19 14.531 18.828 15.68 18.507L19.587 22.414L21.001 21L3 3L1.586 4.414ZM12 17C6.423 17 3.955 13.578 3.115 12C3.554 11.171 4.439 9.826 5.948 8.777L8.145 10.974C8.053 11.34 8 11.716 8 12.001C8 14.207 9.794 16.001 12 16.001C12.192 16.001 12.592 15.976 13.039 15.868L14.009 16.838C13.366 16.944 12.696 17 12 17Z" fill="black"/>
</svg>
