<svg width="24" height="24" viewBox="0 0 24 24" fill="none" xmlns="http://www.w3.org/2000/svg">
<path fill-rule="evenodd" clip-rule="evenodd" d="M2.25 14.25H8V15.75H3.75V21H2.25V14.25Z" fill="black"/>
<path fill-rule="evenodd" clip-rule="evenodd" d="M12 3.75C7.44321 3.75 3.75 7.44321 3.75 12H2.25C2.25 6.61479 6.61479 2.25 12 2.25C17.3852 2.25 21.75 6.61479 21.75 12C21.75 17.3852 17.3852 21.75 12 21.75C8.25523 21.75 5.00479 19.6382 3.37215 16.5449C3.34827 16.5176 3.31645 16.4817 3.27791 16.4385C3.18882 16.3387 3.07204 16.2092 2.95264 16.0769L2.94266 16.0658C2.8208 15.9307 2.69692 15.7933 2.60217 15.687C2.55507 15.6341 2.51287 15.5864 2.48089 15.5495C2.46532 15.5315 2.44897 15.5123 2.43461 15.4948C2.42777 15.4865 2.41755 15.4739 2.40667 15.4595C2.4013 15.4524 2.39257 15.4407 2.38263 15.4261L2.38244 15.4259C2.37607 15.4165 2.35257 15.3822 2.32918 15.3354L3.67082 14.6646C3.64834 14.6196 3.6262 14.5873 3.62101 14.5797L3.62069 14.5793C3.61231 14.567 3.60558 14.558 3.60264 14.5541C3.59661 14.5462 3.59296 14.5418 3.59429 14.5434C3.59627 14.5458 3.60265 14.5534 3.6153 14.5681C3.63976 14.5963 3.67594 14.6373 3.72186 14.6888C3.81314 14.7912 3.93382 14.9251 4.05659 15.0612L4.06871 15.0746C4.18655 15.2053 4.30536 15.3371 4.39694 15.4397C4.44404 15.4924 4.48613 15.5399 4.51797 15.5766C4.53351 15.5945 4.54961 15.6133 4.56366 15.6303C4.57036 15.6384 4.58019 15.6505 4.59062 15.6641C4.59576 15.6708 4.60404 15.6818 4.61348 15.6953L4.61363 15.6955C4.61971 15.7042 4.64182 15.7359 4.66437 15.779L4.66626 15.7826L4.66625 15.7826C6.03855 18.4373 8.80836 20.25 12 20.25C16.5568 20.25 20.25 16.5568 20.25 12C20.25 7.44321 16.5568 3.75 12 3.75Z" fill="black"/>
<path fill-rule="evenodd" clip-rule="evenodd" d="M11.25 7H12.75V11.6893L15.5303 14.4697L14.4697 15.5303L11.25 12.3107V7Z" fill="black"/>
</svg>
