<svg width="24" height="24" viewBox="0 0 24 24" fill="none" xmlns="http://www.w3.org/2000/svg">
<path fill-rule="evenodd" clip-rule="evenodd" d="M11.2197 2.21967C11.5126 1.92678 11.9874 1.92678 12.2803 2.21967L21.2803 11.2197C21.5732 11.5126 21.5732 11.9874 21.2803 12.2803C20.9874 12.5732 20.5126 12.5732 20.2197 12.2803L11.75 3.81066L3.28033 12.2803C2.98744 12.5732 2.51256 12.5732 2.21967 12.2803C1.92678 11.9874 1.92678 11.5126 2.21967 11.2197L11.2197 2.21967Z" fill="#464A4D"/>
<path fill-rule="evenodd" clip-rule="evenodd" d="M4 19.75V9.75H5.5V19.75C5.5 19.8796 5.53991 19.9293 5.55533 19.9447C5.57075 19.9601 5.62044 20 5.75 20H17.75C17.8796 20 17.9293 19.9601 17.9447 19.9447C17.9601 19.9293 18 19.8796 18 19.75V9.75H19.5V19.75C19.5 20.2204 19.3399 20.6707 19.0053 21.0053C18.6707 21.3399 18.2204 21.5 17.75 21.5H5.75C5.27956 21.5 4.82925 21.3399 4.49467 21.0053C4.16009 20.6707 4 20.2204 4 19.75Z" fill="#464A4D"/>
<path fill-rule="evenodd" clip-rule="evenodd" d="M11.75 14.5C11.0642 14.5 10.5 15.0642 10.5 15.75V20.75H9V15.75C9 14.2358 10.2358 13 11.75 13C13.2642 13 14.5 14.2358 14.5 15.75V20.75H13V15.75C13 15.0642 12.4358 14.5 11.75 14.5Z" fill="#464A4D"/>
</svg>
