<svg width="24" height="24" viewBox="0 0 24 24" fill="none" xmlns="http://www.w3.org/2000/svg">
<path fill-rule="evenodd" clip-rule="evenodd" d="M11.4697 2.46967C11.7626 2.17678 12.2374 2.17678 12.5303 2.46967L21.5303 11.4697C21.8232 11.7626 21.8232 12.2374 21.5303 12.5303C21.2374 12.8232 20.7626 12.8232 20.4697 12.5303L12 4.06066L3.53033 12.5303C3.23744 12.8232 2.76256 12.8232 2.46967 12.5303C2.17678 12.2374 2.17678 11.7626 2.46967 11.4697L11.4697 2.46967Z" fill="black"/>
<path fill-rule="evenodd" clip-rule="evenodd" d="M4.25 20V10H5.75V20C5.75 20.1296 5.78991 20.1793 5.80533 20.1947C5.82075 20.2101 5.87044 20.25 6 20.25H18C18.1296 20.25 18.1793 20.2101 18.1947 20.1947C18.2101 20.1793 18.25 20.1296 18.25 20V10H19.75V20C19.75 20.4704 19.5899 20.9207 19.2553 21.2553C18.9207 21.5899 18.4704 21.75 18 21.75H6C5.52956 21.75 5.07925 21.5899 4.74467 21.2553C4.41009 20.9207 4.25 20.4704 4.25 20Z" fill="black"/>
<path fill-rule="evenodd" clip-rule="evenodd" d="M12 14.75C11.3142 14.75 10.75 15.3142 10.75 16V21H9.25V16C9.25 14.4858 10.4858 13.25 12 13.25C13.5142 13.25 14.75 14.4858 14.75 16V21H13.25V16C13.25 15.3142 12.6858 14.75 12 14.75Z" fill="black"/>
</svg>
