<svg width="24" height="24" viewBox="0 0 24 24" fill="none" xmlns="http://www.w3.org/2000/svg">
<path d="M21.549 12.9291C21.576 12.6981 21.61 12.4671 21.61 12.2311C21.61 9.85209 20.195 7.69509 18.083 6.70409C17.815 3.58109 15.191 1.12109 11.999 1.12109C8.80703 1.12109 6.18603 3.58009 5.91603 6.70109C3.83803 7.67609 2.39203 9.78309 2.39203 12.2261C2.39203 12.4641 2.42503 12.6961 2.45303 12.9291H0.590027L1.05603 14.2601C2.05003 17.0951 4.73703 19.0001 7.74303 19.0001H11V21.0001H7.00003V23.0001H17V21.0001H13V19.0001H16.257C19.261 19.0001 21.948 17.0951 22.944 14.2601L23.412 12.9291H21.549ZM19.61 12.2301C19.61 12.4671 19.589 12.7001 19.548 12.9281H14.546C14.573 12.6951 14.607 12.4631 14.607 12.2251C14.607 10.9001 14.178 9.67509 13.458 8.67309C14.407 8.12309 15.565 7.96309 16.693 8.29709C18.411 8.81309 19.61 10.4301 19.61 12.2301ZM12 3.12009C13.905 3.12009 15.497 4.42909 15.968 6.15409C14.545 6.04509 13.148 6.42609 12.005 7.23209C11.012 6.53309 9.80503 6.11909 8.50103 6.11909C8.35103 6.11909 8.20403 6.13109 8.05603 6.14209C8.53703 4.40609 10.114 3.12009 12.001 3.12009H12ZM4.39303 12.2261C4.39303 10.4571 5.52403 8.95909 7.09603 8.38309H7.09903C7.53803 8.22209 8.00603 8.12109 8.50003 8.12109C10.765 8.12109 12.607 9.96309 12.607 12.2271C12.607 12.4651 12.586 12.7001 12.545 12.9301H4.45503C4.41403 12.7001 4.39303 12.4651 4.39303 12.2271V12.2261Z" fill="black"/>
</svg>
