<svg width="24" height="24" viewBox="0 0 24 24" fill="none" xmlns="http://www.w3.org/2000/svg">
<path d="M21.5491 12.9291C21.5761 12.6981 21.6101 12.4671 21.6101 12.2311C21.6101 9.85209 20.1951 7.69509 18.0831 6.70409C17.8151 3.58109 15.1911 1.12109 11.9991 1.12109C8.80709 1.12109 6.18609 3.58009 5.91609 6.70109C3.83809 7.67609 2.39209 9.78309 2.39209 12.2261C2.39209 12.4641 2.42509 12.6961 2.45309 12.9291H0.590088L1.05609 14.2601C2.05009 17.0951 4.73709 19.0001 7.74309 19.0001H11.0001V21.0001H7.00009V23.0001H17.0001V21.0001H13.0001V19.0001H16.2571C19.2611 19.0001 21.9481 17.0951 22.9441 14.2601L23.4121 12.9291H21.5491ZM19.6101 12.2301C19.6101 12.4671 19.5891 12.7001 19.5481 12.9281H14.5461C14.5731 12.6951 14.6071 12.4631 14.6071 12.2251C14.6071 10.9001 14.1781 9.67509 13.4581 8.67309C14.4071 8.12309 15.5651 7.96309 16.6931 8.29709C18.4111 8.81309 19.6101 10.4301 19.6101 12.2301ZM12.0001 3.12009C13.9051 3.12009 15.4971 4.42909 15.9681 6.15409C14.5451 6.04509 13.1481 6.42609 12.0051 7.23209C11.0121 6.53309 9.80509 6.11909 8.50109 6.11909C8.35109 6.11909 8.20409 6.13109 8.05609 6.14209C8.53709 4.40609 10.1141 3.12009 12.0011 3.12009H12.0001ZM4.39309 12.2261C4.39309 10.4571 5.52409 8.95909 7.09609 8.38309H7.09909C7.53809 8.22209 8.00609 8.12109 8.50009 8.12109C10.7651 8.12109 12.6071 9.96309 12.6071 12.2271C12.6071 12.4651 12.5861 12.7001 12.5451 12.9301H4.45509C4.41409 12.7001 4.39309 12.4651 4.39309 12.2271V12.2261Z" fill="#464A4D"/>
</svg>
