<svg width="24" height="24" viewBox="0 0 24 24" fill="none" xmlns="http://www.w3.org/2000/svg">
<path d="M19.788 11.385C19.683 11.251 19.544 11.156 19.392 11.091C19.463 10.679 19.5 10.259 19.5 9.83301C19.5 5.69701 16.136 2.33301 12 2.33301C7.86397 2.33301 4.49997 5.69701 4.49997 9.83301C4.49997 10.258 4.53797 10.678 4.60897 11.091C4.45597 11.157 4.31697 11.251 4.21197 11.385C4.02297 11.628 3.95497 11.944 4.02997 12.243L5.02997 16.243C5.14097 16.688 5.54097 17.001 5.99997 17.001H7.17997L8.01897 21.197C8.11197 21.664 8.52297 22.001 8.99897 22.001H14.999C15.476 22.001 15.886 21.664 15.979 21.197L16.818 17.001H17.998C18.457 17.001 18.856 16.689 18.968 16.243L19.968 12.243C20.043 11.944 19.976 11.628 19.786 11.385H19.788ZM14.181 20H9.81997L9.21997 17H14.781L14.181 20ZM17.219 15H6.78097L6.28097 13H17.719L17.219 15Z" fill="black"/>
</svg>
