<svg width="24" height="24" viewBox="0 0 24 24" fill="none" xmlns="http://www.w3.org/2000/svg">
<path fill-rule="evenodd" clip-rule="evenodd" d="M12 1.37012C15.1097 1.3703 17.6554 3.79842 17.8467 6.86035C19.9147 7.76183 21.3604 9.82617 21.3604 12.2305C21.3603 12.5513 21.3343 12.8683 21.2822 13.1797H23.0576L22.708 14.1777C21.7464 16.917 19.1591 18.751 16.2568 18.751H12.75V21.25H17V22.75H7V21.25H11.25V18.751H7.74316C4.84 18.751 2.25259 16.9174 1.29199 14.1777L0.942383 13.1797H2.72266C2.67074 12.8687 2.6426 12.5509 2.64258 12.2266C2.64258 9.82942 4.08796 7.76747 6.15234 6.86133C6.34313 3.79892 8.88995 1.3703 12 1.37012ZM3.17969 14.6797C4.13233 16.2527 5.85117 17.251 7.74316 17.251H16.2568C18.1479 17.251 19.8671 16.2529 20.8203 14.6797H3.17969ZM8.5 7.86914C8.04354 7.86918 7.60322 7.93958 7.18945 8.07031C7.17713 8.07546 7.16406 8.07849 7.15137 8.08301C5.40687 8.65208 4.14258 10.2937 4.14258 12.2266C4.14261 12.5561 4.18047 12.8736 4.25098 13.1797H12.749C12.8193 12.8733 12.8564 12.5555 12.8564 12.2266C12.8564 11.0072 12.3528 9.90396 11.543 9.1123C11.5136 9.08957 11.4845 9.06575 11.458 9.03809C11.4472 9.02682 11.4377 9.01467 11.4277 9.00293C10.6537 8.29917 9.62618 7.86925 8.5 7.86914ZM15.5 7.87012C14.6064 7.87012 13.7811 8.13819 13.0947 8.59961C13.884 9.59777 14.3564 10.8573 14.3564 12.2266C14.3564 12.5505 14.3293 12.8685 14.2773 13.1797H19.7529C19.8239 12.8736 19.8603 12.5567 19.8604 12.2305C19.8604 10.26 18.5553 8.59586 16.7646 8.05859C16.359 7.93792 15.9314 7.87012 15.5 7.87012ZM12 2.87012C9.87033 2.87029 8.09525 4.40229 7.71582 6.42285C7.97243 6.3884 8.23407 6.36916 8.5 6.36914C9.81313 6.36923 11.0264 6.80328 12.0039 7.53516C12.9773 6.80239 14.1869 6.37012 15.5 6.37012C15.7654 6.37012 16.0273 6.39067 16.2842 6.42578C15.906 4.40379 14.1307 2.87029 12 2.87012Z" fill="black"/>
</svg>
