<svg width="24" height="24" viewBox="0 0 24 24" fill="none" xmlns="http://www.w3.org/2000/svg">
<path d="M10.1 8.66667C10.1583 8.87179 10.2167 9.09401 10.2834 9.33332C10.35 9.58118 10.425 9.82908 10.5083 10.094C10.5916 10.359 10.6667 10.6154 10.75 10.8804C10.825 11.1368 10.9 11.3846 10.975 11.6154C11.05 11.8376 11.1167 12.0513 11.1667 12.2308H9.04997C9.17497 11.8718 9.3 11.4701 9.41667 11.0342C9.55 10.6069 9.67497 10.1795 9.79997 9.76926C9.91663 9.40175 10.0083 9.03419 10.0833 8.66667H10.1Z" fill="black"/>
<path fill-rule="evenodd" clip-rule="evenodd" d="M18.4583 2C20.4167 2 22 3.62393 22 5.63248V18.3675C22 20.3761 20.4167 22 18.4583 22H5.54167C3.58333 22 2 20.3761 2 18.3675V5.63248C2 3.62393 3.58333 2 5.54167 2H18.4583ZM15.3416 9.29918C15.2667 9.29919 15.2333 9.33333 15.2333 9.41879V16C15.2333 16.0854 15.275 16.1367 15.3583 16.1367H16.9917C17.0667 16.1367 17.1 16.094 17.1 16V9.41879C17.1 9.34188 17.0667 9.29919 16.9917 9.29918H15.3416ZM9 7.08547C8.95834 7.09402 8.92503 7.13673 8.93335 7.17945C8.93335 7.36748 8.91663 7.55553 8.8833 7.73501C8.84997 7.83757 8.82497 7.93166 8.79997 8.01713L6.1167 15.9401C6.0917 16.0427 6.11667 16.094 6.20833 16.094H7.77498C7.84998 16.1025 7.91668 16.0513 7.93335 15.9744L8.56665 13.9658H11.6667L12.35 16C12.3667 16.0598 12.425 16.1025 12.4833 16.094H14.225C14.3083 16.094 14.3333 16.0513 14.3083 15.9572L11.2667 7.15383C11.2584 7.1111 11.225 7.08548 11.1584 7.08547H9ZM16.1833 6.43593C15.9083 6.43593 15.6417 6.5385 15.4417 6.73508C15.2417 6.93165 15.1334 7.20513 15.1417 7.49571C15.1334 7.7863 15.2333 8.06838 15.425 8.28205C15.625 8.47863 15.8917 8.58974 16.1667 8.5812C16.45 8.59829 16.7333 8.48717 16.925 8.28205C17.125 8.06838 17.225 7.78631 17.2166 7.49571C17.225 7.21367 17.125 6.9402 16.9417 6.73508C16.7583 6.5385 16.5083 6.43593 16.1833 6.43593Z" fill="black"/>
</svg>
