<svg width="24" height="24" viewBox="0 0 24 24" fill="none" xmlns="http://www.w3.org/2000/svg">
<path fill-rule="evenodd" clip-rule="evenodd" d="M4.63806 3.00781C3.73706 3.00781 3.00806 3.73681 3.00806 4.63781V19.3618C3.00806 20.2618 3.73706 20.9928 4.63806 20.9928H19.3621C20.2621 20.9928 20.9931 20.2628 20.9931 19.3618V4.63781C20.9921 3.73581 20.2621 3.00781 19.3611 3.00781H4.63806ZM10.1161 7.58281C10.1161 8.19881 9.61506 8.66281 9.01806 8.66281V8.68481C8.41406 8.68481 7.92806 8.19881 7.92806 7.59681C7.92806 6.99181 8.41406 6.50481 9.01806 6.50481C9.61506 6.50481 10.1161 6.97681 10.1161 7.58281ZM14.7211 15.2908C14.7211 15.0308 14.7541 14.7578 14.8351 14.4788L15.3631 12.5728C15.4311 12.3648 15.4491 12.1678 15.4491 11.9918C15.4491 11.3768 15.0741 11.0078 14.4781 11.0078C13.7171 11.0078 13.2181 11.5508 12.9581 12.6058L11.9251 16.7518H10.1141L10.4411 15.4488C9.90706 16.3218 9.17006 16.8608 8.25806 16.8608C7.15606 16.8608 6.64106 16.2288 6.64106 15.2768C6.64706 15.0048 6.67606 14.7308 6.73706 14.4658L7.56306 11.0998H6.28506L6.67306 9.66981H9.74806L8.53206 14.4738C8.45206 14.7828 8.42206 15.0328 8.42206 15.2118C8.42206 15.5188 8.57006 15.6078 8.80706 15.6638C8.95306 15.6938 10.1021 15.6748 10.7251 14.2878L11.5231 11.0998H10.2291L10.6201 9.69581H13.4071L13.0481 11.3128C13.5321 10.4138 14.5001 9.55081 15.4541 9.55081C16.4661 9.55081 17.3091 10.2788 17.3091 11.6618C17.3091 12.0618 17.2461 12.4578 17.1291 12.8418L16.6091 14.6998C16.5661 14.8878 16.5341 15.0468 16.5341 15.1918C16.5341 15.5178 16.6701 15.6758 16.9021 15.6758C17.1401 15.6758 17.4551 15.4948 17.8011 14.5038L18.5091 14.7758C18.0951 16.2488 17.3271 16.8568 16.3721 16.8568C15.2601 16.8568 14.7211 16.1948 14.7211 15.2908Z" fill="#464A4D"/>
</svg>
