<svg width="24" height="24" viewBox="0 0 24 24" fill="none" xmlns="http://www.w3.org/2000/svg">
<path d="M15.5098 2.38574C18.6854 2.38574 21.2598 4.96108 21.2598 8.13672C21.2595 11.3121 18.6852 13.8867 15.5098 13.8867C14.1925 13.8867 12.9793 13.4424 12.0098 12.6973L8.79297 15.915L10.9141 18.0361L7.02539 21.9248L4.9043 19.8037L4.02051 20.6875L2.95996 19.627L10.9492 11.6367C10.204 10.6672 9.75988 9.45403 9.75977 8.13672C9.75977 4.96116 12.3342 2.38586 15.5098 2.38574ZM5.96484 18.7432L7.02539 19.8037L8.79297 18.0361L7.73242 16.9756L5.96484 18.7432ZM15.5098 3.88672C13.1627 3.88684 11.2598 5.78958 11.2598 8.13672C11.26 10.4836 13.1628 12.3866 15.5098 12.3867C17.8568 12.3867 19.7595 10.4837 19.7598 8.13672C19.7598 5.78951 17.857 3.88672 15.5098 3.88672Z" fill="black"/>
</svg>
