<svg width="24" height="24" viewBox="0 0 24 24" fill="none" xmlns="http://www.w3.org/2000/svg">
<path d="M15.51 2.13579C12.201 2.13579 9.50996 4.82679 9.50996 8.13579C9.50996 9.42979 9.92596 10.6258 10.625 11.6068L2.78296 19.4488L4.19696 20.8628L4.90396 20.1558L7.02496 22.2768L11.267 18.0348L9.14596 15.9138L12.039 13.0198C13.02 13.7188 14.216 14.1338 15.509 14.1338C18.818 14.1338 21.509 11.4428 21.509 8.13379C21.509 4.82479 18.818 2.13379 15.509 2.13379L15.51 2.13579ZM15.51 12.1358C13.304 12.1358 11.51 10.3418 11.51 8.13579C11.51 5.92979 13.304 4.13579 15.51 4.13579C17.716 4.13579 19.51 5.92979 19.51 8.13579C19.51 10.3418 17.716 12.1358 15.51 12.1358Z" fill="#464A4D"/>
</svg>
