<svg width="24" height="24" viewBox="0 0 24 24" fill="none" xmlns="http://www.w3.org/2000/svg">
<path fill-rule="evenodd" clip-rule="evenodd" d="M10.2277 3.22643C12.8636 0.590538 17.1374 0.590538 19.7733 3.22643C22.4092 5.86232 22.4092 10.1362 19.7733 12.7721C17.8624 14.683 15.1008 15.1912 12.7238 14.3367L11.75 15.3104V18.7498H8.75703L8.78503 21.7498H3.25V15.6891L8.66327 10.2758C7.80959 7.8984 8.31652 5.13758 10.2277 3.22643ZM18.7127 4.28709C16.6626 2.23698 13.3384 2.23698 11.2883 4.28709C9.70563 5.86979 9.35781 8.21124 10.2281 10.1484L10.4401 10.6203L4.75 16.3104V20.2498H7.27097L7.24297 17.2498H10.25V14.6891L12.3797 12.5594L12.8517 12.7718C14.7874 13.6427 17.1298 13.2943 18.7127 11.7114C20.7628 9.66132 20.7628 6.3372 18.7127 4.28709Z" fill="black"/>
</svg>
