<svg width="24" height="24" viewBox="0 0 24 24" fill="none" xmlns="http://www.w3.org/2000/svg">
<path d="M15 1.25C15.2999 1.25 15.5712 1.42854 15.6895 1.7041L18.6895 8.7041C18.7888 8.93582 18.7648 9.20262 18.626 9.41309C18.4872 9.62342 18.252 9.75 18 9.75H12.75V22C12.75 22.4142 12.4142 22.75 12 22.75C11.5858 22.75 11.25 22.4142 11.25 22V9.75H6C5.74799 9.75 5.51282 9.62342 5.37402 9.41309C5.23524 9.20262 5.21124 8.93582 5.31055 8.7041L8.31055 1.7041L8.3623 1.60547C8.49753 1.38678 8.73767 1.25 9 1.25H15ZM7.1377 8.25H16.8623L14.5049 2.75H9.49512L7.1377 8.25Z" fill="black"/>
<path d="M9 22H15" stroke="black" stroke-width="2" stroke-linecap="round" stroke-linejoin="round"/>
</svg>
