<svg width="24" height="24" viewBox="0 0 24 24" fill="none" xmlns="http://www.w3.org/2000/svg">
<path d="M18.92 8.61L15.92 1.61C15.76 1.24 15.4 1 15 1H9.00002C8.60002 1 8.24002 1.24 8.08002 1.61L5.08002 8.61C4.95002 8.92 4.98002 9.27 5.16002 9.55C5.35002 9.83 5.66002 10 5.99002 10H10.99V21H8.99002C8.44002 21 7.99002 21.45 7.99002 22C7.99002 22.55 8.44002 23 8.99002 23H14.99C15.54 23 15.99 22.55 15.99 22C15.99 21.45 15.54 21 14.99 21H12.99V10H17.99C18.33 10 18.64 9.83 18.82 9.55C19 9.27 19.04 8.91 18.9 8.61H18.92Z" fill="black"/>
</svg>
