<svg width="24" height="24" viewBox="0 0 24 24" fill="none" xmlns="http://www.w3.org/2000/svg">
<path fill-rule="evenodd" clip-rule="evenodd" d="M7.25 3.25V2H8.75V3.25H13V4.75H11.75V6C11.75 7.72627 10.6787 9.33561 9.32704 10.5137C10.2371 10.9817 11.1816 11.25 12 11.25V12.75C10.6839 12.75 9.25551 12.256 8 11.4865C6.7445 12.256 5.31609 12.75 4 12.75V11.25C4.81842 11.25 5.76285 10.9817 6.67296 10.5137C5.32132 9.33561 4.25 7.72627 4.25 6H5.75C5.75 7.17808 6.55668 8.48642 7.84993 9.54453C7.89951 9.5851 7.94955 9.62507 8 9.66445C8.05046 9.62507 8.10049 9.5851 8.15007 9.54453C9.44332 8.48642 10.25 7.17808 10.25 6V4.75H3V3.25H7.25ZM17 9.18754L22.6828 21.6896L21.3172 22.3104L19.6989 18.75H14.3011L12.6828 22.3104L11.3172 21.6896L17 9.18754ZM14.9829 17.25H19.0171L17 12.8125L14.9829 17.25Z" fill="black"/>
</svg>
