<svg width="24" height="24" viewBox="0 0 24 24" fill="none" xmlns="http://www.w3.org/2000/svg">
<path d="M2.514 8.874L11.514 13.874C11.665 13.958 11.832 14 12 14C12.168 14 12.334 13.958 12.486 13.874L21.486 8.874C21.803 8.698 22.001 8.363 22.001 8C22.001 7.637 21.804 7.302 21.486 7.126L12.486 2.126C12.183 1.958 11.817 1.958 11.514 2.126L2.514 7.126C2.197 7.302 2 7.637 2 8C2 8.363 2.197 8.698 2.514 8.874Z" fill="black"/>
<path d="M20.515 11.1259L12 15.8559L3.486 11.1259C3.002 10.8579 2.394 11.0319 2.126 11.5139C1.857 11.9969 2.032 12.6059 2.514 12.8739L11.514 17.8739C11.665 17.9579 11.832 17.9999 12 17.9999C12.168 17.9999 12.334 17.9579 12.486 17.8739L21.486 12.8739C21.969 12.6059 22.143 11.9969 21.875 11.5139C21.606 11.0319 20.998 10.8579 20.516 11.1259H20.515Z" fill="black"/>
<path d="M20.515 15.1259L12 19.8559L3.486 15.1259C3.002 14.8549 2.394 15.0309 2.126 15.5149C1.857 15.9969 2.032 16.6059 2.514 16.8739L11.514 21.8739C11.665 21.9579 11.832 21.9999 12 21.9999C12.168 21.9999 12.334 21.9579 12.486 21.8739L21.486 16.8739C21.969 16.6049 22.143 15.9969 21.875 15.5149C21.606 15.0319 20.998 14.8559 20.516 15.1259H20.515Z" fill="black"/>
</svg>
