<svg width="24" height="24" viewBox="0 0 24 24" fill="none" xmlns="http://www.w3.org/2000/svg">
<path fill-rule="evenodd" clip-rule="evenodd" d="M11.6358 2.34438C11.8623 2.21854 12.1377 2.21854 12.3642 2.34438L21.3642 7.34438C21.6023 7.47666 21.75 7.72762 21.75 8C21.75 8.27238 21.6023 8.52334 21.3642 8.65562L12.3642 13.6556C12.1377 13.7815 11.8623 13.7815 11.6358 13.6556L2.63577 8.65562C2.39767 8.52334 2.25 8.27238 2.25 8C2.25 7.72762 2.39767 7.47666 2.63577 7.34438L11.6358 2.34438ZM4.54434 8L12 12.142L19.4557 8L12 3.85797L4.54434 8Z" fill="black"/>
<path fill-rule="evenodd" clip-rule="evenodd" d="M2.3444 11.6357C2.54556 11.2736 3.00216 11.1431 3.36425 11.3443L12 16.1419L20.6358 11.3443C20.9979 11.1431 21.4545 11.2736 21.6556 11.6357C21.8568 11.9977 21.7263 12.4544 21.3642 12.6555L12.3642 17.6555C12.1377 17.7814 11.8623 17.7814 11.6358 17.6555L2.63578 12.6555C2.27369 12.4544 2.14324 11.9977 2.3444 11.6357Z" fill="black"/>
<path fill-rule="evenodd" clip-rule="evenodd" d="M2.3444 15.6357C2.54556 15.2736 3.00216 15.1431 3.36425 15.3443L12 20.1419L20.6358 15.3443C20.9979 15.1431 21.4545 15.2736 21.6556 15.6357C21.8568 15.9977 21.7263 16.4544 21.3642 16.6555L12.3642 21.6555C12.1377 21.7814 11.8623 21.7814 11.6358 21.6555L2.63578 16.6555C2.27369 16.4544 2.14324 15.9977 2.3444 15.6357Z" fill="black"/>
</svg>
