<svg width="24" height="24" viewBox="0 0 24 24" fill="none" xmlns="http://www.w3.org/2000/svg">
<path d="M21.75 2V22H20.25V2H21.75Z" fill="black"/>
<path d="M16.25 10C16.25 9.86193 16.1381 9.75 16 9.75H4C3.86193 9.75 3.75 9.86193 3.75 10V14C3.75 14.1381 3.86193 14.25 4 14.25H16C16.1381 14.25 16.25 14.1381 16.25 14V10ZM17.75 14C17.75 14.9665 16.9665 15.75 16 15.75H4C3.0335 15.75 2.25 14.9665 2.25 14V10C2.25 9.0335 3.0335 8.25 4 8.25H16C16.9665 8.25 17.75 9.0335 17.75 10V14Z" fill="black"/>
</svg>
