<svg width="24" height="24" viewBox="0 0 24 24" fill="none" xmlns="http://www.w3.org/2000/svg">
<path d="M19.78 4.22C17.7 2.14 14.94 1 12 1C9.06 1 6.3 2.14 4.22 4.22C2.14 6.3 1 9.06 1 12C1 14.94 2.14 17.7 4.22 19.78C6.3 21.86 9.06 23 12 23C14.94 23 17.7 21.86 19.78 19.78C21.86 17.7 23 14.94 23 12C23 9.06 21.86 6.3 19.78 4.22ZM19.03 17.61L16.89 15.47C17.42 14.73 17.76 13.89 17.91 13H20.94C20.75 14.69 20.09 16.28 19.03 17.61ZM4.97 17.61C3.9 16.28 3.24 14.69 3.06 13H6.09C6.24 13.89 6.59 14.73 7.11 15.47L4.97 17.61ZM4.97 6.39L7.11 8.53C6.58 9.27 6.24 10.11 6.09 11H3.06C3.25 9.31 3.91 7.72 4.97 6.39ZM9.17 14.84C8.42 14.08 8 13.07 8 12C8 10.93 8.42 9.93 9.16 9.17C9.92 8.42 10.93 8 12 8C13.07 8 14.07 8.42 14.83 9.16C15.58 9.92 16 10.93 16 12C16 13.07 15.58 14.07 14.84 14.83C14.08 15.58 13.07 16 12 16C10.93 16 9.93 15.58 9.17 14.84ZM17.91 11C17.76 10.11 17.41 9.27 16.89 8.53L19.03 6.39C20.1 7.72 20.76 9.31 20.94 11H17.91ZM17.61 4.97L15.47 7.11C14.46 6.39 13.26 6 12 6C10.74 6 9.54 6.39 8.53 7.11L6.39 4.97C7.98 3.69 9.94 3 12 3C14.06 3 16.02 3.7 17.61 4.97ZM6.39 19.03L8.53 16.89C9.54 17.61 10.74 18 12 18C13.26 18 14.46 17.61 15.47 16.89L17.61 19.03C16.02 20.31 14.06 21 12 21C9.94 21 7.98 20.3 6.39 19.03Z" fill="black"/>
</svg>
