<svg width="24" height="24" viewBox="0 0 24 24" fill="none" xmlns="http://www.w3.org/2000/svg">
<path d="M21.25 12C21.25 9.44711 20.2153 7.13521 18.54 5.45996C16.8648 3.78471 14.5529 2.75 12 2.75C9.44711 2.75 7.13521 3.78471 5.45996 5.45996C3.78471 7.13521 2.75 9.44711 2.75 12C2.75 14.5529 3.78471 16.8648 5.45996 18.54C7.13521 20.2153 9.44711 21.25 12 21.25C14.5529 21.25 16.8648 20.2153 18.54 18.54C20.2153 16.8648 21.25 14.5529 21.25 12ZM16.25 12C16.25 10.8302 15.7774 9.76935 15.0127 8.99316L14.8633 8.85254C14.1022 8.16755 13.0993 7.75 12 7.75C10.8273 7.75 9.76401 8.225 8.9873 8.99316C8.22256 9.76935 7.75 10.8302 7.75 12C7.75 13.1698 8.22256 14.2307 8.9873 15.0068L9.13672 15.1475C9.89776 15.8324 10.9007 16.25 12 16.25C13.1727 16.25 14.236 15.775 15.0127 15.0068C15.7774 14.2307 16.25 13.1698 16.25 12ZM17.75 12C17.75 13.5873 17.1051 15.0241 16.0732 16.0674L16.0674 16.0732C15.0241 17.1051 13.5873 17.75 12 17.75C10.4127 17.75 8.97592 17.1051 7.93262 16.0732L7.92676 16.0674C6.89492 15.0241 6.25 13.5873 6.25 12C6.25 10.4127 6.89492 8.97592 7.92676 7.93262L7.93262 7.92676C8.97592 6.89492 10.4127 6.25 12 6.25C13.4881 6.25 14.8438 6.81713 15.8672 7.73828L16.0674 7.92676L16.0732 7.93262C17.1051 8.97592 17.75 10.4127 17.75 12ZM22.75 12C22.75 14.9671 21.5453 17.6558 19.6006 19.6006C17.6558 21.5453 14.9671 22.75 12 22.75C9.03289 22.75 6.34416 21.5453 4.39941 19.6006C2.45467 17.6558 1.25 14.9671 1.25 12C1.25 9.03289 2.45467 6.34416 4.39941 4.39941C6.34416 2.45467 9.03289 1.25 12 1.25C14.9671 1.25 17.6558 2.45467 19.6006 4.39941C21.5453 6.34416 22.75 9.03289 22.75 12Z" fill="black"/>
<path d="M18.54 4.39973C18.8329 4.10697 19.3077 4.10657 19.6006 4.39941C19.8933 4.69227 19.8933 5.16741 19.6005 5.46027L16.0703 8.99055C15.7774 9.28326 15.3026 9.28326 15.0097 8.99055C14.7169 8.6977 14.717 8.2229 15.0097 7.93L18.54 4.39973Z" fill="black"/>
<path d="M7.93 15.0097C8.2229 14.717 8.6977 14.7169 8.99055 15.0097C9.28326 15.3026 9.28326 15.7774 8.99055 16.0703L5.46027 19.6005C5.16741 19.8933 4.69227 19.8933 4.39941 19.6006C4.10657 19.3077 4.10697 18.8329 4.39973 18.54L7.93 15.0097Z" fill="black"/>
<path d="M22 11.25C22.4142 11.25 22.75 11.5858 22.75 12C22.75 12.4142 22.4142 12.75 22 12.75H17C16.5858 12.75 16.25 12.4142 16.25 12C16.25 11.5858 16.5858 11.25 17 11.25H22Z" fill="black"/>
<path d="M16.25 12C16.25 10.8302 15.7774 9.76935 15.0127 8.99316L14.8633 8.85254C14.1022 8.16755 13.0993 7.75 12 7.75C10.8273 7.75 9.76401 8.225 8.9873 8.99316C8.22256 9.76935 7.75 10.8302 7.75 12C7.75 13.1698 8.22256 14.2307 8.9873 15.0068L9.13672 15.1475C9.89776 15.8324 10.9007 16.25 12 16.25C13.1727 16.25 14.236 15.775 15.0127 15.0068C15.7774 14.2307 16.25 13.1698 16.25 12ZM17.75 12C17.75 13.5873 17.1051 15.0241 16.0732 16.0674L16.0674 16.0732C15.0241 17.1051 13.5873 17.75 12 17.75C10.4127 17.75 8.97592 17.1051 7.93262 16.0732L7.92676 16.0674C6.89492 15.0241 6.25 13.5873 6.25 12C6.25 10.4127 6.89492 8.97592 7.92676 7.93262L7.93262 7.92676C8.97592 6.89492 10.4127 6.25 12 6.25C13.4881 6.25 14.8438 6.81713 15.8672 7.73828L16.0674 7.92676L16.0732 7.93262C17.1051 8.97592 17.75 10.4127 17.75 12Z" fill="black"/>
<path d="M7 11.25C7.41421 11.25 7.75 11.5858 7.75 12C7.75 12.4142 7.41421 12.75 7 12.75H2C1.58579 12.75 1.25 12.4142 1.25 12C1.25 11.5858 1.58579 11.25 2 11.25H7Z" fill="black"/>
<path d="M15.0097 15.0097C15.3026 14.7168 15.7774 14.7168 16.0703 15.0097L19.6005 18.54C19.8932 18.8329 19.8934 19.3078 19.6006 19.6006C19.3078 19.8934 18.8329 19.8932 18.54 19.6005L15.0097 16.0703C14.7168 15.7774 14.7168 15.3026 15.0097 15.0097Z" fill="black"/>
<path d="M4.39941 4.39941C4.69231 4.10652 5.16738 4.10683 5.46027 4.39973L8.99055 7.93C9.28317 8.22292 9.28335 8.69774 8.99055 8.99055C8.69774 9.28335 8.22292 9.28317 7.93 8.99055L4.39973 5.46027C4.10683 5.16738 4.10652 4.69231 4.39941 4.39941Z" fill="black"/>
</svg>
