<svg width="24" height="24" viewBox="0 0 24 24" fill="none" xmlns="http://www.w3.org/2000/svg">
<path d="M20.93 8.631C20.779 8.25 20.41 8 20 8H14.681L17.679 2.477C17.847 2.167 17.84 1.791 17.659 1.489C17.478 1.186 17.152 1 16.8 1H10.4C10.019 1 9.67099 1.217 9.50299 1.56L4.10299 12.56C3.95099 12.87 3.96899 13.236 4.15199 13.53C4.33499 13.823 4.65499 14.001 5.00099 14.001H8.83099L5.29499 21.578C5.09199 22.013 5.22699 22.53 5.61499 22.811C5.79099 22.938 5.99599 23 6.20099 23C6.44899 23 6.69499 22.908 6.88699 22.728L20.687 9.728C20.986 9.447 21.082 9.012 20.93 8.631Z" fill="black"/>
</svg>
