<svg width="24" height="24" viewBox="0 0 24 24" fill="none" xmlns="http://www.w3.org/2000/svg">
<path fill-rule="evenodd" clip-rule="evenodd" d="M15.3443 9.69829L9.68727 15.3553L8.62661 14.2946L14.2836 8.63763L15.3443 9.69829Z" fill="#464A4D"/>
<path fill-rule="evenodd" clip-rule="evenodd" d="M17.8185 6.16316C16.1595 4.50331 13.4685 4.50311 11.8083 6.16329L10.3943 7.57729L9.33361 6.51663L10.7476 5.10263C12.9934 2.85681 16.6344 2.85662 18.8794 5.10277C21.1239 7.34846 21.1253 10.9882 18.8793 13.2343L17.4641 14.6485L16.4038 13.5874L17.8186 12.1736C17.8187 12.1736 17.8185 12.1737 17.8186 12.1736C19.4784 10.5137 19.4779 7.82341 17.8185 6.16316Z" fill="#464A4D"/>
<path fill-rule="evenodd" clip-rule="evenodd" d="M6.15376 11.8178L7.56601 10.4055L7.03594 9.87496C6.50561 9.34463 6.5056 9.34464 6.50559 9.34465L5.09161 10.7586L5.08875 10.7615C2.86859 13.0058 2.87781 16.6228 5.1176 18.8373C7.36263 21.0572 10.9422 21.1471 13.2204 18.8931L13.2233 18.8903L14.6373 17.4763L13.5766 16.4156L12.1655 17.8268C12.165 17.8273 12.1645 17.8277 12.1641 17.8282C10.4942 19.4788 7.85679 19.4363 6.17228 17.7707C4.52656 16.1436 4.51331 13.4776 6.15376 11.8178Z" fill="#464A4D"/>
</svg>
