<svg width="24" height="24" viewBox="0 0 24 24" fill="none" xmlns="http://www.w3.org/2000/svg">
<path d="M22 6H6V8H22V6Z" fill="black"/>
<path d="M22 11H6V13H22V11Z" fill="black"/>
<path d="M22 16H6V18H22V16Z" fill="black"/>
<path d="M2.859 5.67596H2.86V9.21596H3.771V4.83496H2.857L1.724 5.62096V6.43496L2.841 5.67596H2.859Z" fill="black"/>
<path d="M2.22098 11.1239C2.22498 10.9919 2.25998 10.8749 2.32398 10.7719C2.38898 10.6689 2.47798 10.5869 2.59098 10.5259C2.70398 10.4649 2.83598 10.4349 2.98598 10.4349C3.11598 10.4349 3.22998 10.4609 3.32898 10.5139C3.42798 10.5669 3.50598 10.6389 3.56298 10.7309C3.61998 10.8229 3.64798 10.9299 3.64798 11.0509V11.0569C3.64798 11.1579 3.62998 11.2549 3.59498 11.3469C3.55898 11.4389 3.49298 11.5439 3.39598 11.6609C3.29898 11.7789 3.15598 11.9249 2.96798 12.1009L1.41998 13.5489V14.1769H4.60498V13.4479H2.61898V13.4499L2.61798 13.4109L3.53498 12.5749C3.78798 12.3419 3.98698 12.1419 4.13298 11.9739C4.27898 11.8059 4.38298 11.6469 4.44698 11.4959C4.51098 11.3449 4.54298 11.1809 4.54298 11.0029V10.9969C4.54298 10.7479 4.47698 10.5279 4.34498 10.3369C4.21398 10.1449 4.02998 9.99492 3.79598 9.88592C3.56098 9.77692 3.28898 9.72192 2.97898 9.72192C2.67098 9.72192 2.39598 9.78192 2.15198 9.90092C1.90798 10.0199 1.71598 10.1859 1.57698 10.3969C1.43798 10.6089 1.36798 10.8519 1.36798 11.1269V11.1509H2.21798L2.22098 11.1239Z" fill="black"/>
<path d="M3.63001 17.0189V17.0009C3.80001 16.9669 3.95401 16.9049 4.09301 16.8159C4.23101 16.7269 4.34101 16.6129 4.42201 16.4739C4.50301 16.3359 4.54401 16.1749 4.54401 15.9929V15.9869C4.54401 15.7569 4.48101 15.5549 4.35301 15.3829C4.22501 15.2109 4.04601 15.0769 3.81401 14.9809C3.58201 14.8849 3.30901 14.8369 2.99301 14.8369C2.68701 14.8369 2.41801 14.8879 2.18501 14.9929C1.95201 15.0979 1.76801 15.2439 1.63101 15.4319C1.49501 15.6199 1.41501 15.8409 1.39301 16.0939L1.39001 16.1329H2.23401L2.23701 16.1029C2.25101 15.9899 2.29001 15.8909 2.35501 15.8069C2.42001 15.7229 2.50701 15.6579 2.61601 15.6129C2.72601 15.5679 2.85101 15.5449 2.99301 15.5449C3.13701 15.5449 3.26001 15.5679 3.36201 15.6119C3.46401 15.6559 3.54201 15.7209 3.59601 15.8059C3.64901 15.8909 3.67601 15.9929 3.67601 16.1129V16.1189C3.67601 16.2369 3.64501 16.3399 3.58201 16.4289C3.52001 16.5179 3.43201 16.5869 3.32001 16.6379C3.20801 16.6879 3.07501 16.7139 2.92101 16.7139H2.43201V17.3699H2.93301C3.19801 17.3699 3.40401 17.4259 3.55201 17.5369C3.70001 17.6489 3.77401 17.8089 3.77401 18.0169V18.0229C3.77401 18.1419 3.74201 18.2479 3.67801 18.3399C3.61401 18.4319 3.52501 18.5029 3.40901 18.5549C3.29401 18.6059 3.15601 18.6319 2.99901 18.6319C2.84201 18.6319 2.70401 18.6089 2.58501 18.5609C2.46701 18.5129 2.37301 18.4479 2.30301 18.3659C2.23301 18.2849 2.19101 18.1909 2.17701 18.0859L2.17101 18.0519H1.29401L1.29701 18.0919C1.31901 18.3429 1.40201 18.5649 1.54601 18.7569C1.68901 18.9499 1.88501 19.0999 2.13301 19.2079L2.13101 19.2059C2.37901 19.3149 2.66901 19.3689 3.00101 19.3689C3.34301 19.3689 3.64201 19.3139 3.89701 19.2049C4.15201 19.0959 4.35001 18.9429 4.49201 18.7449C4.63401 18.5469 4.70501 18.3179 4.70501 18.0569V18.0509C4.70501 17.7539 4.60701 17.5149 4.41201 17.3349C4.21701 17.1549 3.95601 17.0489 3.63001 17.0189Z" fill="black"/>
</svg>
