<svg width="24" height="24" viewBox="0 0 24 24" fill="none" xmlns="http://www.w3.org/2000/svg">
<path d="M2.85912 5.67596H2.84112L1.72412 6.43496V5.62096L2.85712 4.83496H3.77112V9.21596H2.86012L2.85912 5.67596Z" fill="black"/>
<path d="M2.61816 13.4499V13.4109L3.53516 12.5749C3.78816 12.3419 3.98716 12.1419 4.13316 11.9739C4.27916 11.8059 4.38316 11.6469 4.44716 11.4959C4.51116 11.3449 4.54316 11.1809 4.54316 11.0029V10.9969C4.54316 10.7479 4.47716 10.5279 4.34516 10.3369C4.21416 10.1449 4.03016 9.99492 3.79616 9.88592C3.56116 9.77692 3.28916 9.72192 2.97916 9.72192C2.67116 9.72192 2.39616 9.78192 2.15216 9.90092C1.90816 10.0199 1.71616 10.1859 1.57716 10.3969C1.43816 10.6089 1.36816 10.8519 1.36816 11.1269V11.1509H2.21816L2.22116 11.1239C2.22516 10.9919 2.26016 10.8749 2.32416 10.7719C2.38916 10.6689 2.47816 10.5869 2.59116 10.5259C2.70416 10.4649 2.83616 10.4349 2.98616 10.4349C3.11616 10.4349 3.23016 10.4609 3.32916 10.5139C3.42816 10.5669 3.50616 10.6389 3.56316 10.7309C3.62016 10.8229 3.64816 10.9299 3.64816 11.0509V11.0569C3.64816 11.1579 3.63016 11.2549 3.59516 11.3469C3.55916 11.4389 3.49316 11.5439 3.39616 11.6609C3.29916 11.7789 3.15616 11.9249 2.96816 12.1009L1.42016 13.5489V14.1769H4.60516V13.4479H2.61916L2.61816 13.4499Z" fill="black"/>
<path d="M2.13295 19.2079C1.88495 19.0999 1.68895 18.9499 1.54595 18.7569C1.40195 18.5649 1.31895 18.3429 1.29695 18.0919L1.29395 18.0519H2.17095L2.17695 18.0859C2.19095 18.1909 2.23295 18.2849 2.30295 18.3659C2.37295 18.4479 2.46695 18.5129 2.58495 18.5609C2.70395 18.6089 2.84195 18.6319 2.99895 18.6319C3.15595 18.6319 3.29395 18.6059 3.40895 18.5549C3.52495 18.5029 3.61395 18.4319 3.67795 18.3399C3.74195 18.2479 3.77395 18.1419 3.77395 18.0229V18.0169C3.77395 17.8089 3.69995 17.6489 3.55195 17.5369C3.40395 17.4259 3.19795 17.3699 2.93295 17.3699H2.43195V16.7139H2.92095C3.07495 16.7139 3.20795 16.6879 3.31995 16.6379C3.43195 16.5869 3.51995 16.5179 3.58195 16.4289C3.64495 16.3399 3.67595 16.2369 3.67595 16.1189V16.1129C3.67595 15.9929 3.64895 15.8909 3.59595 15.8059C3.54195 15.7209 3.46395 15.6559 3.36195 15.6119C3.25995 15.5679 3.13695 15.5449 2.99295 15.5449C2.85095 15.5449 2.72595 15.5679 2.61595 15.6129C2.50695 15.6579 2.41995 15.7229 2.35495 15.8069C2.28995 15.8909 2.25095 15.9899 2.23695 16.1029L2.23395 16.1329H1.38995L1.39295 16.0939C1.41495 15.8409 1.49495 15.6199 1.63095 15.4319C1.76795 15.2439 1.95195 15.0979 2.18495 14.9929C2.41795 14.8879 2.68695 14.8369 2.99295 14.8369C3.30895 14.8369 3.58195 14.8849 3.81395 14.9809C4.04595 15.0769 4.22495 15.2109 4.35295 15.3829C4.48095 15.5549 4.54395 15.7569 4.54395 15.9869V15.9929C4.54395 16.1749 4.50295 16.3359 4.42195 16.4739C4.34095 16.6129 4.23095 16.7269 4.09295 16.8159C3.95395 16.9049 3.79995 16.9669 3.62995 17.0009V17.0189C3.95595 17.0489 4.21695 17.1549 4.41195 17.3349C4.60695 17.5149 4.70495 17.7539 4.70495 18.0509V18.0569C4.70495 18.3179 4.63395 18.5469 4.49195 18.7449C4.34995 18.9429 4.15195 19.0959 3.89695 19.2049C3.64195 19.3139 3.34295 19.3689 3.00095 19.3689C2.66895 19.3689 2.37895 19.3149 2.13095 19.2059L2.13295 19.2079Z" fill="black"/>
<path fill-rule="evenodd" clip-rule="evenodd" d="M22 7.75H6V6.25H22V7.75Z" fill="black"/>
<path fill-rule="evenodd" clip-rule="evenodd" d="M22 12.75H6V11.25H22V12.75Z" fill="black"/>
<path fill-rule="evenodd" clip-rule="evenodd" d="M22 17.75H6V16.25H22V17.75Z" fill="black"/>
</svg>
