<svg width="24" height="24" viewBox="0 0 24 24" fill="none" xmlns="http://www.w3.org/2000/svg">
<path d="M21.9999 6H5.99994V8H21.9999V6Z" fill="#464A4D"/>
<path d="M21.9999 11H5.99994V13H21.9999V11Z" fill="#464A4D"/>
<path d="M21.9999 16H5.99994V18H21.9999V16Z" fill="#464A4D"/>
<path d="M2.85894 5.67596L2.85994 9.21596H3.77094V4.83496H2.85694L1.72394 5.62096V6.43496L2.84094 5.67596H2.85894Z" fill="#464A4D"/>
<path d="M2.22092 11.1239C2.22492 10.9919 2.25992 10.8749 2.32392 10.7719C2.38892 10.6689 2.47792 10.5869 2.59092 10.5259C2.70392 10.4649 2.83592 10.4349 2.98592 10.4349C3.11592 10.4349 3.22992 10.4609 3.32892 10.5139C3.42792 10.5669 3.50592 10.6389 3.56292 10.7309C3.61992 10.8229 3.64792 10.9299 3.64792 11.0509V11.0569C3.64792 11.1579 3.62992 11.2549 3.59492 11.3469C3.55892 11.4389 3.49292 11.5439 3.39592 11.6609C3.29892 11.7789 3.15592 11.9249 2.96792 12.1009L1.41992 13.5489V14.1769H4.60492V13.4479H2.61892V13.4499L2.61792 13.4109L3.53492 12.5749C3.78792 12.3419 3.98692 12.1419 4.13292 11.9739C4.27892 11.8059 4.38292 11.6469 4.44692 11.4959C4.51092 11.3449 4.54292 11.1809 4.54292 11.0029V10.9969C4.54292 10.7479 4.47692 10.5279 4.34492 10.3369C4.21392 10.1449 4.02992 9.99492 3.79592 9.88592C3.56092 9.77692 3.28892 9.72192 2.97892 9.72192C2.67092 9.72192 2.39592 9.78192 2.15192 9.90092C1.90792 10.0199 1.71592 10.1859 1.57692 10.3969C1.43792 10.6089 1.36792 10.8519 1.36792 11.1269V11.1509H2.21792L2.22092 11.1239Z" fill="#464A4D"/>
<path d="M3.62995 17.0189V17.0009C3.79995 16.9669 3.95395 16.9049 4.09295 16.8159C4.23095 16.7269 4.34095 16.6129 4.42195 16.4739C4.50295 16.3359 4.54395 16.1749 4.54395 15.9929V15.9869C4.54395 15.7569 4.48095 15.5549 4.35295 15.3829C4.22495 15.2109 4.04595 15.0769 3.81395 14.9809C3.58195 14.8849 3.30895 14.8369 2.99295 14.8369C2.68695 14.8369 2.41795 14.8879 2.18495 14.9929C1.95195 15.0979 1.76795 15.2439 1.63095 15.4319C1.49495 15.6199 1.41495 15.8409 1.39295 16.0939L1.38995 16.1329H2.23395L2.23695 16.1029C2.25095 15.9899 2.28995 15.8909 2.35495 15.8069C2.41995 15.7229 2.50695 15.6579 2.61595 15.6129C2.72595 15.5679 2.85095 15.5449 2.99295 15.5449C3.13695 15.5449 3.25995 15.5679 3.36195 15.6119C3.46395 15.6559 3.54195 15.7209 3.59595 15.8059C3.64895 15.8909 3.67595 15.9929 3.67595 16.1129V16.1189C3.67595 16.2369 3.64495 16.3399 3.58195 16.4289C3.51995 16.5179 3.43195 16.5869 3.31995 16.6379C3.20795 16.6879 3.07495 16.7139 2.92095 16.7139H2.43195V17.3699H2.93295C3.19795 17.3699 3.40395 17.4259 3.55195 17.5369C3.69995 17.6489 3.77395 17.8089 3.77395 18.0169V18.0229C3.77395 18.1419 3.74195 18.2479 3.67795 18.3399C3.61395 18.4319 3.52495 18.5029 3.40895 18.5549C3.29395 18.6059 3.15595 18.6319 2.99895 18.6319C2.84195 18.6319 2.70395 18.6089 2.58495 18.5609C2.46695 18.5129 2.37295 18.4479 2.30295 18.3659C2.23295 18.2849 2.19095 18.1909 2.17695 18.0859L2.17095 18.0519H1.29395L1.29695 18.0919C1.31895 18.3429 1.40195 18.5649 1.54595 18.7569C1.68895 18.9499 1.88495 19.0999 2.13295 19.2079L2.13095 19.2059C2.37895 19.3149 2.66895 19.3689 3.00095 19.3689C3.34295 19.3689 3.64195 19.3139 3.89695 19.2049C4.15195 19.0959 4.34995 18.9429 4.49195 18.7449C4.63395 18.5469 4.70495 18.3179 4.70495 18.0569V18.0509C4.70495 17.7539 4.60695 17.5149 4.41195 17.3349C4.21695 17.1549 3.95595 17.0489 3.62995 17.0189Z" fill="#464A4D"/>
</svg>
