<svg width="24" height="24" viewBox="0 0 24 24" fill="none" xmlns="http://www.w3.org/2000/svg">
<path d="M22.93 8.65499C22.92 8.62799 22.91 8.60199 22.898 8.57599C22.85 8.47399 22.79 8.37899 22.711 8.29799C22.704 8.29099 22.694 8.28599 22.687 8.27899C22.634 8.22899 22.579 8.18099 22.515 8.14299L12.515 2.14299C12.198 1.95299 11.803 1.95299 11.486 2.14299L1.48502 8.14299C1.42002 8.18199 1.36402 8.22999 1.31102 8.28099C1.30402 8.28699 1.29602 8.29099 1.28902 8.29799C1.20902 8.37899 1.14902 8.47499 1.10002 8.57799C1.08802 8.60299 1.07902 8.62799 1.06902 8.65499C1.02802 8.76499 0.999023 8.87999 0.999023 9.00099V19.001C0.999023 19.044 1.01102 19.083 1.01202 19.126C1.01402 19.143 1.01402 19.16 1.01802 19.178C1.11702 20.749 2.49902 22.002 4.19902 22.002H19.799C21.5 22.002 22.882 20.749 22.98 19.177C22.983 19.161 22.983 19.145 22.985 19.129C22.987 19.086 22.999 19.046 22.999 19.002V9.00199C22.999 8.88099 22.97 8.76699 22.929 8.65699L22.93 8.65499ZM3.00002 10.766L8.24902 13.915L3.00002 17.196V10.766ZM19.8 20H4.20002C3.74902 20 3.35902 19.773 3.15502 19.457L10.174 15.07L11.486 15.857C11.645 15.952 11.822 16 12.001 16C12.18 16 12.357 15.952 12.516 15.857L13.828 15.07L20.847 19.457C20.642 19.773 20.253 20 19.802 20H19.8ZM21 17.196L15.751 13.916L21 10.767V17.197V17.196Z" fill="#464A4D"/>
</svg>
