<svg width="24" height="24" viewBox="0 0 24 24" fill="none" xmlns="http://www.w3.org/2000/svg">
<path fill-rule="evenodd" clip-rule="evenodd" d="M11.6141 2.35688C11.8516 2.21437 12.1484 2.21437 12.3859 2.35688L22.3859 8.35688C22.6118 8.49242 22.75 8.73655 22.75 9C22.75 9.26345 22.6118 9.50758 22.3859 9.64312L12.3859 15.6431C12.1484 15.7856 11.8516 15.7856 11.6141 15.6431L1.61413 9.64312C1.38822 9.50758 1.25 9.26345 1.25 9C1.25 8.73655 1.38822 8.49242 1.61413 8.35688L11.6141 2.35688ZM3.45774 9L12 14.1254L20.5423 9L12 3.87464L3.45774 9Z" fill="black"/>
<path fill-rule="evenodd" clip-rule="evenodd" d="M2 8.25C2.41421 8.25 2.75 8.58579 2.75 9V19C2.75 19.618 3.34304 20.25 4.2 20.25H19.8C20.657 20.25 21.25 19.618 21.25 19V9C21.25 8.58579 21.5858 8.25 22 8.25C22.4142 8.25 22.75 8.58579 22.75 9V19C22.75 20.582 21.343 21.75 19.8 21.75H4.2C2.65696 21.75 1.25 20.582 1.25 19V9C1.25 8.58579 1.58579 8.25 2 8.25Z" fill="black"/>
<path fill-rule="evenodd" clip-rule="evenodd" d="M10.636 13.6025C10.8555 13.9537 10.7487 14.4164 10.3975 14.636L2.39748 19.636C2.04623 19.8555 1.58351 19.7487 1.36398 19.3975C1.14445 19.0462 1.25123 18.5835 1.60248 18.364L9.60248 13.364C9.95373 13.1444 10.4164 13.2512 10.636 13.6025Z" fill="black"/>
<path fill-rule="evenodd" clip-rule="evenodd" d="M13.364 13.6025C13.5835 13.2512 14.0462 13.1444 14.3975 13.364L22.3975 18.364C22.7487 18.5835 22.8555 19.0462 22.636 19.3975C22.4164 19.7487 21.9537 19.8555 21.6025 19.636L13.6025 14.636C13.2512 14.4164 13.1444 13.9537 13.364 13.6025Z" fill="black"/>
</svg>
