<svg width="24" height="24" viewBox="0 0 24 24" fill="none" xmlns="http://www.w3.org/2000/svg">
<path d="M21.525 2.14899C21.23 1.96699 20.863 1.95099 20.552 2.10499L14.999 4.88099L9.44599 2.10499C9.16499 1.96399 8.83299 1.96399 8.55099 2.10499L2.55099 5.10499C2.21199 5.27399 1.99799 5.62099 1.99799 5.99999V20C1.99799 20.347 2.17799 20.668 2.47199 20.851C2.63299 20.951 2.81499 21 2.99799 21C3.15099 21 3.30399 20.965 3.44499 20.895L8.99799 18.119L14.551 20.895C14.832 21.036 15.164 21.036 15.446 20.895L21.446 17.895C21.785 17.725 21.999 17.379 21.999 17V2.99999C21.999 2.65299 21.82 2.33199 21.525 2.14899ZM9.99999 4.61799L14 6.61799V18.382L9.99999 16.382V4.61799ZM3.99999 6.61799L7.99999 4.61799V16.382L3.99999 18.382V6.61799ZM20 16.382L16 18.382V6.61799L20 4.61799V16.382Z" fill="black"/>
</svg>
