<svg width="24" height="24" viewBox="0 0 24 24" fill="none" xmlns="http://www.w3.org/2000/svg">
<path d="M21.525 2.14899C21.23 1.96699 20.863 1.95099 20.552 2.10499L14.999 4.88099L9.44605 2.10499C9.16505 1.96399 8.83305 1.96399 8.55105 2.10499L2.55105 5.10499C2.21205 5.27399 1.99805 5.62099 1.99805 5.99999V20C1.99805 20.347 2.17805 20.668 2.47205 20.851C2.63305 20.951 2.81505 21 2.99805 21C3.15105 21 3.30405 20.965 3.44505 20.895L8.99805 18.119L14.551 20.895C14.832 21.036 15.164 21.036 15.446 20.895L21.446 17.895C21.785 17.725 21.999 17.379 21.999 17V2.99999C21.999 2.65299 21.82 2.33199 21.525 2.14899ZM10 4.61799L14 6.61799V18.382L10 16.382V4.61799ZM4.00005 6.61799L8.00005 4.61799V16.382L4.00005 18.382V6.61799ZM20 16.382L16 18.382V6.61799L20 4.61799V16.382Z" fill="#464A4D"/>
</svg>
