<svg width="24" height="24" viewBox="0 0 24 24" fill="none" xmlns="http://www.w3.org/2000/svg">
<path fill-rule="evenodd" clip-rule="evenodd" d="M21.3943 2.36201C21.6154 2.49867 21.75 2.74007 21.75 3V17C21.75 17.2841 21.5895 17.5438 21.3354 17.6708L15.3354 20.6708C15.1243 20.7764 14.8757 20.7764 14.6646 20.6708L9 17.8385L3.33541 20.6708C3.10292 20.7871 2.82681 20.7746 2.6057 20.638C2.38459 20.5013 2.25 20.2599 2.25 20V6C2.25 5.71592 2.4105 5.45622 2.66459 5.32918L8.66459 2.32918C8.87574 2.22361 9.12426 2.22361 9.33541 2.32918L15 5.16148L20.6646 2.32918C20.8971 2.21293 21.1732 2.22536 21.3943 2.36201ZM3.75 6.46353V18.7865L8.66459 16.3292C8.87574 16.2236 9.12426 16.2236 9.33541 16.3292L15 19.1615L20.25 16.5365V4.21353L15.3354 6.67082C15.1243 6.77639 14.8757 6.77639 14.6646 6.67082L9 3.83853L3.75 6.46353Z" fill="black"/>
<path fill-rule="evenodd" clip-rule="evenodd" d="M8.25 17V3H9.75V17H8.25Z" fill="black"/>
<path fill-rule="evenodd" clip-rule="evenodd" d="M14.25 20V6H15.75V20H14.25Z" fill="black"/>
</svg>
