<svg width="24" height="24" viewBox="0 0 24 24" fill="none" xmlns="http://www.w3.org/2000/svg">
<path d="M22.8428 8.08789L18.5762 14.4844C18.688 14.9718 18.75 15.4787 18.75 16C18.75 19.7279 15.7279 22.75 12 22.75C8.27208 22.75 5.25 19.7279 5.25 16C5.25 15.4791 5.3102 14.9723 5.42188 14.4854L1.15723 8.08789L3.49219 2.25H20.5078L22.8428 8.08789ZM12 10.75C9.10051 10.75 6.75 13.1005 6.75 16C6.75 18.8995 9.10051 21.25 12 21.25C14.8995 21.25 17.25 18.8995 17.25 16C17.25 13.1005 14.8995 10.75 12 10.75ZM12 13.25C13.5188 13.25 14.75 14.4812 14.75 16C14.75 17.5188 13.5188 18.75 12 18.75C10.4812 18.75 9.25 17.5188 9.25 16C9.25 14.4812 10.4812 13.25 12 13.25ZM12 14.75C11.3096 14.75 10.75 15.3096 10.75 16C10.75 16.6904 11.3096 17.25 12 17.25C12.6904 17.25 13.25 16.6904 13.25 16C13.25 15.3096 12.6904 14.75 12 14.75ZM2.84277 7.91113L6.07617 12.7617C6.7026 11.6182 7.65009 10.6753 8.79785 10.0557L4.22363 4.45898L2.84277 7.91113ZM15.2012 10.0557C16.3489 10.675 17.2963 11.6175 17.9229 12.7607L21.1562 7.91113L19.7754 4.45898L15.2012 10.0557ZM10.2617 9.47656C10.8164 9.32915 11.3989 9.25 12 9.25C12.6007 9.25 13.1829 9.3293 13.7373 9.47656L15.1484 7.75H8.85059L10.2617 9.47656ZM7.625 6.25H16.375L18.418 3.75H5.58203L7.625 6.25Z" fill="#464A4D"/>
</svg>
