<svg width="24" height="24" viewBox="0 0 24 24" fill="none" xmlns="http://www.w3.org/2000/svg">
<path d="M23.124 8.117L20.677 2H3.32298L0.875977 8.117L5.15598 14.537C5.05498 15.009 4.99998 15.498 4.99998 16C4.99998 19.859 8.13998 23 12 23C15.86 23 19 19.859 19 16C19 15.498 18.944 15.009 18.843 14.536L23.124 8.117ZM17.931 12.3C17.34 11.357 16.533 10.566 15.576 9.994L19.701 4.946L20.876 7.883L17.931 12.3ZM10.36 9.202L9.37798 8H14.623L13.641 9.202C13.114 9.075 12.567 9 12.001 9C11.435 9 10.888 9.075 10.361 9.202H10.36ZM3.12398 7.883L4.29898 4.946L8.42398 9.993C7.46698 10.565 6.65998 11.356 6.06898 12.3L3.12398 7.883ZM12 21C9.24298 21 6.99998 18.757 6.99998 16C6.99998 13.243 9.24298 11 12 11C14.757 11 17 13.243 17 16C17 18.757 14.757 21 12 21Z" fill="#464A4D"/>
<path d="M12 13C10.346 13 8.99998 14.346 8.99998 16C8.99998 17.654 10.346 19 12 19C13.654 19 15 17.654 15 16C15 14.346 13.654 13 12 13Z" fill="#464A4D"/>
</svg>
