<svg width="24" height="24" viewBox="0 0 24 24" fill="none" xmlns="http://www.w3.org/2000/svg">
<path d="M21.05 16.255C22.362 13.463 22.312 10.192 20.898 7.43697C19.679 5.06097 17.608 3.30197 15.066 2.48297C12.523 1.66497 9.815 1.88597 7.438 3.10497C2.532 5.62097 0.587999 11.658 3.104 16.563C4.323 18.94 6.394 20.699 8.937 21.517C9.946 21.841 10.981 22.002 12.011 22.002C13.467 22.002 14.914 21.68 16.263 21.044L20.671 21.767C20.99 21.826 21.316 21.714 21.544 21.484C21.772 21.254 21.874 20.926 21.817 20.607L21.049 16.254L21.05 16.255ZM12 15H7V13H12V15ZM17 11H7V8.99997H17V11Z" fill="black"/>
</svg>
