<svg width="24" height="24" viewBox="0 0 24 24" fill="none" xmlns="http://www.w3.org/2000/svg">
<path d="M21.0499 16.255C22.3619 13.463 22.3119 10.192 20.8979 7.43697C19.6789 5.06097 17.6079 3.30197 15.0659 2.48297C12.5229 1.66497 9.81494 1.88597 7.43794 3.10497C2.53194 5.62097 0.587938 11.658 3.10394 16.563C4.32294 18.94 6.39394 20.699 8.93694 21.517C9.94594 21.841 10.9809 22.002 12.0109 22.002C13.4669 22.002 14.9139 21.68 16.2629 21.044L20.6709 21.767C20.9899 21.826 21.3159 21.714 21.5439 21.484C21.7719 21.254 21.8739 20.926 21.8169 20.607L21.0489 16.254L21.0499 16.255ZM12.9999 18H10.9999V16H12.9999V18ZM14.0149 12.857C13.3789 13.238 12.9999 13.665 12.9999 14V15H10.9999V14C10.9999 12.909 11.6869 11.921 12.9849 11.143C13.5409 10.81 13.9999 10.464 13.9999 9.60097C13.9999 8.67397 13.1589 8.00097 11.9999 8.00097C10.8599 8.00097 9.99994 8.86097 9.99994 10.001H7.99994C7.99994 7.75797 9.75694 6.00097 11.9999 6.00097C14.2799 6.00097 15.9999 7.54897 15.9999 9.60097C15.9999 11.668 14.5579 12.532 14.0149 12.857Z" fill="#464A4D"/>
</svg>
