<svg width="24" height="24" viewBox="0 0 24 24" fill="none" xmlns="http://www.w3.org/2000/svg">
<path d="M7.55216 3.32635C12.3425 0.869761 18.2182 2.76037 20.6752 7.55096L20.8051 7.81366C22.0702 10.4725 22.0638 13.5626 20.7885 16.218L21.5717 20.6506C21.6139 20.8899 21.5374 21.1348 21.3666 21.3078C21.1957 21.4808 20.9513 21.56 20.7113 21.5207L16.2192 20.7844C11.4722 23.0663 5.74458 21.1638 3.32658 16.4494C0.869548 11.6588 2.76159 5.78339 7.55216 3.32635ZM19.3402 8.23553C17.2614 4.18239 12.2903 2.58253 8.23673 4.66131C4.1833 6.74028 2.58257 11.7114 4.66154 15.7648C6.74045 19.818 11.7125 21.4181 15.766 19.339L15.8764 19.2931C15.9897 19.2563 16.1112 19.2463 16.2299 19.2658L19.9096 19.8693L19.2699 16.2375C19.2415 16.0763 19.2665 15.9104 19.3412 15.7648C20.5539 13.4019 20.5528 10.5985 19.3402 8.23553Z" fill="#464A4D"/>
<path d="M12.75 16V18H11.25V16H12.75Z" fill="#464A4D"/>
<path d="M11.25 14C11.25 13.2381 11.631 12.6388 12.0118 12.2276C12.3946 11.8141 12.8397 11.5212 13.1143 11.3565C13.5923 11.0696 14.25 10.6634 14.25 9.59963C14.2498 8.61581 13.3954 7.75002 12 7.75002C10.7142 7.75002 9.75003 8.71423 9.75003 10H8.25003C8.25003 7.88581 9.88582 6.25002 12 6.25002C14.0044 6.25002 15.7498 7.58383 15.75 9.59963C15.75 11.5357 14.4077 12.3304 13.8858 12.6436C13.6604 12.7788 13.3553 12.9858 13.1133 13.2471C12.8691 13.5109 12.75 13.7619 12.75 14V15H11.25V14Z" fill="#464A4D"/>
</svg>
