<svg width="24" height="24" viewBox="0 0 24 24" fill="none" xmlns="http://www.w3.org/2000/svg">
<path d="M21.0499 16.255C22.3619 13.463 22.3119 10.192 20.8979 7.43697C19.6789 5.06097 17.6079 3.30197 15.0659 2.48297C12.5229 1.66497 9.81494 1.88597 7.43794 3.10497C2.53194 5.62097 0.587938 11.658 3.10394 16.563C4.32294 18.94 6.39394 20.699 8.93694 21.517C9.94594 21.841 10.9809 22.002 12.0109 22.002C13.4669 22.002 14.9139 21.68 16.2629 21.044L20.6709 21.767C20.9899 21.826 21.3159 21.714 21.5439 21.484C21.7719 21.254 21.8739 20.926 21.8169 20.607L21.0489 16.254L21.0499 16.255ZM11.9999 15H6.99994V13H11.9999V15ZM16.9999 11H6.99994V8.99997H16.9999V11Z" fill="#464A4D"/>
</svg>
