<svg width="24" height="24" viewBox="0 0 24 24" fill="none" xmlns="http://www.w3.org/2000/svg">
<path d="M7.55216 3.32635C12.3425 0.869761 18.2182 2.76037 20.6752 7.55096L20.8051 7.81366C22.0702 10.4725 22.0638 13.5626 20.7885 16.218L21.5717 20.6506C21.6139 20.8899 21.5374 21.1348 21.3666 21.3078C21.1957 21.4808 20.9513 21.56 20.7113 21.5207L16.2192 20.7844C11.4722 23.0663 5.74458 21.1638 3.32658 16.4494C0.869548 11.6588 2.76159 5.78339 7.55216 3.32635ZM19.3402 8.23553C17.2614 4.18239 12.2903 2.58253 8.23673 4.66131C4.1833 6.74028 2.58257 11.7114 4.66154 15.7648C6.74045 19.818 11.7125 21.4181 15.766 19.339L15.8764 19.2931C15.9897 19.2563 16.1112 19.2463 16.2299 19.2658L19.9096 19.8693L19.2699 16.2375C19.2415 16.0763 19.2665 15.9104 19.3412 15.7648C20.5539 13.4019 20.5528 10.5985 19.3402 8.23553Z" fill="#464A4D"/>
<path d="M17.0303 9.53029L10.5 16.0606L6.96976 12.5303L8.03031 11.4697L10.5 13.9395L15.9698 8.46975L17.0303 9.53029Z" fill="#464A4D"/>
</svg>
