<svg width="24" height="24" viewBox="0 0 24 24" fill="none" xmlns="http://www.w3.org/2000/svg">
<path d="M7.52899 5.36892L6.41299 3.70892C5.18399 4.53592 4.17599 5.59992 3.41599 6.87292L5.13399 7.89692C5.74098 6.87892 6.54699 6.02892 7.52899 5.36892Z" fill="#464A4D"/>
<path d="M4 12.0079C4 11.1539 4.136 10.3069 4.405 9.49291L2.506 8.86591C2.171 9.88291 2 10.9399 2 12.0079C2 12.4039 2.024 12.8059 2.072 13.1999L4.057 12.9619C4.019 12.6439 4 12.3249 4 12.0079Z" fill="#464A4D"/>
<path d="M18.629 4.51092C17.538 3.54592 16.219 2.81792 14.815 2.40692L14.253 4.32592C15.377 4.65592 16.433 5.23792 17.306 6.00992L18.63 4.51192L18.629 4.51092Z" fill="#464A4D"/>
<path d="M19.118 8.34993C19.467 9.02793 19.717 9.75493 19.86 10.5099L21.825 10.1359C21.645 9.19293 21.333 8.28393 20.897 7.43593C20.664 6.98293 20.396 6.54593 20.1 6.13593L18.479 7.30693C18.716 7.63593 18.931 7.98693 19.118 8.34993Z" fill="#464A4D"/>
<path d="M4.458 14.6669L2.573 15.3369C2.721 15.7539 2.9 16.1669 3.104 16.5639C3.571 17.4749 4.17 18.3039 4.885 19.0289L6.309 17.6249C5.738 17.0449 5.258 16.3819 4.884 15.6509C4.72 15.3329 4.577 15.0019 4.459 14.6679L4.458 14.6669Z" fill="#464A4D"/>
<path d="M6.59 20.41C7.817 21.197 9.23 21.717 10.677 21.911L10.944 19.929C9.785 19.774 8.652 19.358 7.67 18.727L6.59 20.41Z" fill="#464A4D"/>
<path d="M8.35199 2.69098L9.08299 4.55198C10.181 4.12098 11.353 3.93898 12.524 4.01698L12.657 2.02198C11.189 1.92598 9.72599 2.15198 8.35199 2.69098Z" fill="#464A4D"/>
<path d="M21.049 16.255C21.313 15.695 21.523 15.112 21.678 14.519C21.864 13.806 21.971 13.068 21.995 12.326L19.997 12.258C19.976 12.854 19.891 13.446 19.742 14.016C19.596 14.578 19.386 15.129 19.118 15.653C19.018 15.847 18.985 16.068 19.023 16.283L19.602 19.568L16.27 19.021C16.058 18.983 15.842 19.019 15.653 19.117C15.268 19.314 14.87 19.48 14.468 19.61L14.471 19.623L14.467 19.61C13.901 19.795 13.317 19.916 12.73 19.968L12.912 21.96C13.602 21.897 14.286 21.754 14.953 21.547L14.955 21.554C14.978 21.547 15.007 21.535 15.031 21.527C15.049 21.521 15.069 21.518 15.087 21.512L15.085 21.507C15.463 21.379 15.916 21.208 16.261 21.045L20.67 21.769C20.724 21.779 20.778 21.783 20.832 21.783C21.097 21.783 21.354 21.678 21.543 21.486C21.772 21.256 21.873 20.928 21.816 20.609L21.047 16.256L21.049 16.255Z" fill="#464A4D"/>
</svg>
