<svg width="24" height="24" viewBox="0 0 24 24" fill="none" xmlns="http://www.w3.org/2000/svg">
<path d="M7.52899 5.36898L6.41299 3.70898C5.18399 4.53598 4.17599 5.59998 3.41599 6.87298L5.13399 7.89698C5.74098 6.87898 6.54699 6.02898 7.52899 5.36898Z" fill="black"/>
<path d="M4 12.008C4 11.154 4.136 10.307 4.405 9.49297L2.506 8.86597C2.171 9.88297 2 10.94 2 12.008C2 12.404 2.024 12.806 2.072 13.2L4.057 12.962C4.019 12.644 4 12.325 4 12.008Z" fill="black"/>
<path d="M18.629 4.51098C17.538 3.54598 16.219 2.81798 14.815 2.40698L14.253 4.32598C15.377 4.65598 16.433 5.23798 17.306 6.00998L18.63 4.51198L18.629 4.51098Z" fill="black"/>
<path d="M19.118 8.34999C19.467 9.02799 19.717 9.75499 19.86 10.51L21.825 10.136C21.645 9.19299 21.333 8.28399 20.897 7.43599C20.664 6.98299 20.396 6.54599 20.1 6.13599L18.479 7.30699C18.716 7.63599 18.931 7.98699 19.118 8.34999Z" fill="black"/>
<path d="M4.458 14.667L2.573 15.337C2.721 15.754 2.9 16.167 3.104 16.564C3.571 17.475 4.17 18.304 4.885 19.029L6.309 17.625C5.738 17.045 5.258 16.382 4.884 15.651C4.72 15.333 4.577 15.002 4.459 14.668L4.458 14.667Z" fill="black"/>
<path d="M6.59 20.4101C7.817 21.1971 9.23 21.7171 10.677 21.9111L10.944 19.9291C9.785 19.7741 8.652 19.3581 7.67 18.7271L6.59 20.4101Z" fill="black"/>
<path d="M8.35199 2.69104L9.08299 4.55204C10.181 4.12104 11.353 3.93904 12.524 4.01704L12.657 2.02204C11.189 1.92604 9.72599 2.15204 8.35199 2.69104Z" fill="black"/>
<path d="M21.049 16.2551C21.313 15.6951 21.523 15.1121 21.678 14.5191C21.864 13.8061 21.971 13.0681 21.995 12.3261L19.997 12.2581C19.976 12.8541 19.891 13.4461 19.742 14.0161C19.596 14.5781 19.386 15.1291 19.118 15.6531C19.018 15.8471 18.985 16.0681 19.023 16.2831L19.602 19.5681L16.27 19.0211C16.058 18.9831 15.842 19.0191 15.653 19.1171C15.268 19.3141 14.87 19.4801 14.468 19.6101L14.471 19.6231L14.467 19.6101C13.901 19.7951 13.317 19.9161 12.73 19.9681L12.912 21.9601C13.602 21.8971 14.286 21.7541 14.953 21.5471L14.955 21.5541C14.978 21.5471 15.007 21.5351 15.031 21.5271C15.049 21.5211 15.069 21.5181 15.087 21.5121L15.085 21.5071C15.463 21.3791 15.916 21.2081 16.261 21.0451L20.67 21.7691C20.724 21.7791 20.778 21.7831 20.832 21.7831C21.097 21.7831 21.354 21.6781 21.543 21.4861C21.772 21.2561 21.873 20.9281 21.816 20.6091L21.047 16.2561L21.049 16.2551Z" fill="black"/>
</svg>
