<svg width="24" height="24" viewBox="0 0 24 24" fill="none" xmlns="http://www.w3.org/2000/svg">
<path d="M7.5521 3.32635C12.3424 0.869761 18.2181 2.76037 20.6751 7.55096L20.805 7.81366C22.0701 10.4725 22.0638 13.5626 20.7884 16.218L21.5716 20.6506C21.6139 20.8899 21.5373 21.1348 21.3666 21.3078C21.1957 21.4808 20.9512 21.56 20.7113 21.5207L16.2191 20.7844C11.4721 23.0663 5.74452 21.1638 3.32652 16.4494C0.869487 11.6588 2.76153 5.78339 7.5521 3.32635ZM19.3402 8.23553C17.2614 4.18239 12.2902 2.58253 8.23667 4.66131C4.18324 6.74028 2.58251 11.7114 4.66148 15.7648C6.74039 19.818 11.7124 21.4181 15.766 19.339L15.8763 19.2931C15.9897 19.2563 16.1111 19.2463 16.2298 19.2658L19.9095 19.8693L19.2699 16.2375C19.2414 16.0763 19.2664 15.9104 19.3412 15.7648C20.5538 13.4019 20.5527 10.5985 19.3402 8.23553Z" fill="black"/>
<path d="M17 9.25002V10.75H6.99997V9.25002H17Z" fill="black"/>
<path d="M12 13.25V14.75H6.99997V13.25H12Z" fill="black"/>
</svg>
