<svg width="24" height="24" viewBox="0 0 24 24" fill="none" xmlns="http://www.w3.org/2000/svg">
<path fill-rule="evenodd" clip-rule="evenodd" d="M20.4697 21.5304L2.46973 3.53039L3.53039 2.46973L21.5304 20.4697L20.4697 21.5304Z" fill="#464A4D"/>
<path fill-rule="evenodd" clip-rule="evenodd" d="M12.0001 2.75C11.4041 2.75 10.8318 2.98689 10.4094 3.40933C9.98757 3.83039 9.75005 4.40279 9.75005 5H8.25005C8.25005 4.00533 8.64491 3.05137 9.34894 2.34845C10.0525 1.64503 11.0061 1.25 12.0001 1.25C12.9937 1.25 13.9488 1.64486 14.6519 2.34914C15.3536 3.0521 15.7501 4.00539 15.7501 5V10C15.7501 10.3701 15.6951 10.7386 15.5877 11.0921L14.1525 10.6559C14.217 10.4434 14.2501 10.2219 14.2501 10V5C14.2501 4.40461 14.0125 3.8319 13.5903 3.40886C13.1693 2.98714 12.5964 2.75 12.0001 2.75ZM9.75005 9.002V10.002C9.75005 10.3537 9.83256 10.7005 9.99023 11.0143C10.1476 11.3275 10.3771 11.6005 10.659 11.8097L10.66 11.8105C10.9413 12.02 11.2677 12.16 11.614 12.22C11.961 12.2801 12.3166 12.2582 12.6522 12.1563L13.0879 13.5917C12.5275 13.7618 11.9351 13.7979 11.3581 13.698C10.7807 13.598 10.2353 13.3642 9.76475 13.014C9.29484 12.6652 8.91248 12.2104 8.64988 11.6877C8.38755 11.1655 8.25005 10.5883 8.25005 10.002V9.002H9.75005Z" fill="#464A4D"/>
<path fill-rule="evenodd" clip-rule="evenodd" d="M19.7481 9.9989C19.7503 11.5148 19.3073 12.9979 18.4719 14.2632L17.2202 13.4368C17.8928 12.418 18.2498 11.2232 18.2481 10.0011L19.7481 9.9989ZM5.34489 13.9721C4.62742 12.7706 4.25005 11.3978 4.25005 10H5.75005C5.75005 11.128 6.05459 12.235 6.63296 13.2034C7.21046 14.1719 8.04008 14.9661 9.03319 15.5019C10.0258 16.0375 11.1444 16.2938 12.2724 16.2447C13.399 16.1956 14.492 15.8421 15.4351 15.2222L16.259 16.4758C15.0901 17.2439 13.7351 17.6824 12.3377 17.7433C10.9397 17.8042 9.55233 17.4865 8.32091 16.822C7.09018 16.158 6.06138 15.1735 5.34489 13.9721Z" fill="#464A4D"/>
<path fill-rule="evenodd" clip-rule="evenodd" d="M16.0001 21.75H8.00005V20.25H16.0001V21.75Z" fill="#464A4D"/>
<path fill-rule="evenodd" clip-rule="evenodd" d="M11.2501 21V17H12.7501V21H11.2501Z" fill="#464A4D"/>
</svg>
