<svg width="24" height="24" viewBox="0 0 24 24" fill="none" xmlns="http://www.w3.org/2000/svg">
<path d="M12 14C13.066 14 14.07 13.584 14.828 12.829C15.584 12.074 16 11.069 16 10V5C16 3.949 15.573 2.919 14.828 2.172C14.084 1.427 13.054 1 12 1C10.932 1 9.927 1.416 9.172 2.171C8.416 2.925 8 3.93 8 5V10C8 11.068 8.416 12.073 9.171 12.828C9.915 13.573 10.945 14 12 14Z" fill="black"/>
<path d="M17.657 15.657C19.168 14.145 20 12.136 20 10H18C18 11.603 17.376 13.109 16.243 14.243C15.109 15.376 13.602 16 12 16C10.398 16 8.89 15.376 7.757 14.243C6.624 13.109 6 11.602 6 10H4C4 12.136 4.832 14.145 6.343 15.657C7.615 16.929 9.243 17.713 11 17.931V20H8V22H16V20H13V17.931C14.757 17.713 16.384 16.929 17.657 15.657Z" fill="black"/>
</svg>
