<svg width="24" height="24" viewBox="0 0 24 24" fill="none" xmlns="http://www.w3.org/2000/svg">
<path d="M15.205 11.844C15.205 11.844 16 11.162 16 10V5C16 3.949 15.573 2.919 14.828 2.172C14.084 1.427 13.054 1 12 1C10.932 1 9.927 1.416 9.172 2.171C8.416 2.925 8 3.937 8 5C10.009 6.934 15.205 11.844 15.205 11.844Z" fill="black"/>
<path d="M19.998 9.99902L17.998 10.002C18 11.179 17.658 12.319 17.012 13.299L18.68 14.401C19.545 13.092 20 11.57 19.998 9.99902Z" fill="black"/>
<path d="M15.677 17.091L20.293 21.707L21.707 20.293L3.707 2.29297L2.293 3.70697L8 9.41397V10.002C8 10.623 8.147 11.245 8.426 11.8C8.704 12.355 9.116 12.844 9.614 13.215C10.113 13.586 10.701 13.838 11.315 13.944C11.54 13.983 11.768 14.003 11.996 14.003C12.181 14.003 12.365 13.988 12.548 13.963L14.166 15.581C13.558 15.818 12.917 15.967 12.261 15.995C11.181 16.047 10.103 15.795 9.151 15.282C8.198 14.767 7.401 14.004 6.846 13.075C6.292 12.147 5.999 11.083 5.999 9.99997H3.999C3.999 11.444 4.39 12.862 5.129 14.101C5.868 15.34 6.93 16.356 8.201 17.042C9.073 17.512 10.022 17.814 10.999 17.937V20H7.999V22H15.999V20H12.999V17.921C13.934 17.803 14.839 17.525 15.676 17.091H15.677Z" fill="black"/>
</svg>
