<svg width="24" height="24" viewBox="0 0 24 24" fill="none" xmlns="http://www.w3.org/2000/svg">
<path fill-rule="evenodd" clip-rule="evenodd" d="M12 2.75C11.404 2.75 10.8318 2.98689 10.4093 3.40933L10.4089 3.4098C9.98705 3.83086 9.75 4.40279 9.75 5V10C9.75 10.596 9.98689 11.1682 10.4093 11.5907L10.4098 11.5911C10.8308 12.0129 11.4037 12.25 12 12.25C12.5954 12.25 13.1681 12.0125 13.5911 11.5902C14.013 11.1691 14.25 10.5972 14.25 10V5C14.25 4.40461 14.0125 3.8319 13.5902 3.40886C13.1692 2.98714 12.5963 2.75 12 2.75ZM9.34889 2.34845C10.0524 1.64503 11.0061 1.25 12 1.25C12.9937 1.25 13.9488 1.64486 14.6518 2.34914C15.3535 3.0521 15.75 4.00539 15.75 5V10C15.75 10.9948 15.355 11.9489 14.6509 12.6518C13.9479 13.3535 12.9946 13.75 12 13.75C11.0063 13.75 10.0512 13.3551 9.3482 12.6509C8.64493 11.9473 8.25 10.9938 8.25 10V5C8.25 4.00533 8.64486 3.05137 9.34889 2.34845Z" fill="black"/>
<path fill-rule="evenodd" clip-rule="evenodd" d="M6.51947 15.4801C5.06708 14.0266 4.25 12.055 4.25 10H5.75C5.75 11.6569 6.40885 13.2472 7.58033 14.4197C7.5804 14.4197 7.58046 14.4198 7.58053 14.4199M7.58053 14.4199C8.7528 15.592 10.3419 16.25 12 16.25C13.6582 16.25 15.2474 15.592 16.4197 14.4197C17.592 13.2474 18.25 11.6582 18.25 10H19.75C19.75 12.0558 18.934 14.0266 17.4803 15.4803C16.0266 16.934 14.0558 17.75 12 17.75C9.94418 17.75 7.97339 16.934 6.51967 15.4803L6.51947 15.4801" fill="black"/>
<path fill-rule="evenodd" clip-rule="evenodd" d="M16 21.75H8V20.25H16V21.75Z" fill="black"/>
<path fill-rule="evenodd" clip-rule="evenodd" d="M11.25 21V17H12.75V21H11.25Z" fill="black"/>
</svg>
