<svg width="24" height="24" viewBox="0 0 24 24" fill="none" xmlns="http://www.w3.org/2000/svg">
<path fill-rule="evenodd" clip-rule="evenodd" d="M20.4697 21.5304L2.46967 3.53039L3.53033 2.46973L21.5303 20.4697L20.4697 21.5304Z" fill="black"/>
<path fill-rule="evenodd" clip-rule="evenodd" d="M12 2.75C11.404 2.75 10.8318 2.98689 10.4093 3.40933L10.4089 3.4098C9.98705 3.83086 9.75 4.40279 9.75 5H8.25C8.25 4.00533 8.64486 3.05137 9.34889 2.34845C10.0524 1.64503 11.0061 1.25 12 1.25C12.9937 1.25 13.9488 1.64486 14.6518 2.34914C15.3535 3.0521 15.75 4.00539 15.75 5V10C15.75 10.3701 15.695 10.7386 15.5876 11.0921L14.1524 10.6559C14.217 10.4434 14.25 10.2219 14.25 10V5C14.25 4.40461 14.0125 3.8319 13.5902 3.40886C13.1692 2.98714 12.5963 2.75 12 2.75ZM9.75 9.002V10.002C9.75 10.3537 9.83251 10.7005 9.99018 11.0143C10.1475 11.3275 10.377 11.6005 10.6589 11.8097L10.66 11.8105C10.9413 12.02 11.2676 12.16 11.614 12.22C11.961 12.2801 12.3165 12.2582 12.6521 12.1563L13.0879 13.5917C12.5275 13.7618 11.935 13.7979 11.358 13.698C10.7807 13.598 10.2352 13.3642 9.7647 13.014C9.29478 12.6652 8.91242 12.2104 8.64982 11.6877C8.38749 11.1655 8.25 10.5883 8.25 10.002V9.002H9.75Z" fill="black"/>
<path fill-rule="evenodd" clip-rule="evenodd" d="M19.748 9.9989C19.7502 11.5148 19.3073 12.9979 18.4719 14.2632L17.2201 13.4368C17.8927 12.418 18.2498 11.2232 18.248 10.0011L19.748 9.9989ZM5.34483 13.9721C4.62737 12.7706 4.25 11.3978 4.25 10H5.75C5.75 11.128 6.05454 12.235 6.6329 13.2034L6.63316 13.2039C7.21067 14.1723 8.04002 14.9661 9.03314 15.5019C10.0257 16.0375 11.1444 16.2938 12.2724 16.2447C13.399 16.1956 14.4919 15.8421 15.4351 15.2222L16.2589 16.4758C15.0901 17.2439 13.7351 17.6824 12.3377 17.7433L12.3376 17.7433C10.9396 17.8042 9.55227 17.4865 8.32086 16.822C7.09012 16.158 6.06158 15.1739 5.3451 13.9726" fill="black"/>
<path fill-rule="evenodd" clip-rule="evenodd" d="M16 21.75H8V20.25H16V21.75Z" fill="black"/>
<path fill-rule="evenodd" clip-rule="evenodd" d="M11.25 21V17H12.75V21H11.25Z" fill="black"/>
</svg>
