<svg width="24" height="24" viewBox="0 0 24 24" fill="none" xmlns="http://www.w3.org/2000/svg">
<path d="M19.993 8.96398C19.989 8.85898 19.968 8.75698 19.931 8.65698C19.923 8.63498 19.918 8.61298 19.908 8.59098C19.903 8.57898 19.901 8.56598 19.895 8.55398L18 4.76498V2.00098C18 1.44898 17.553 1.00098 17 1.00098H7.00002C6.44802 1.00098 6.00002 1.44898 6.00002 2.00098V4.76498L4.10502 8.55398C4.09902 8.56598 4.09702 8.57898 4.09202 8.59198C4.08202 8.61298 4.07702 8.63598 4.06902 8.65798C4.03302 8.75698 4.01202 8.85898 4.00702 8.96298C4.00702 8.97698 3.99902 8.98798 3.99902 9.00198V21.002C3.99902 21.555 4.44702 22.002 4.99902 22.002H18.999C19.552 22.002 19.999 21.555 19.999 21.002V9.00198C19.999 8.98898 19.992 8.97798 19.992 8.96598L19.993 8.96398ZM8.00002 2.99998H16V3.99998H8.00002V2.99998ZM18 20H6.00002V9.99998H18V20Z" fill="black"/>
</svg>
