<svg width="24" height="24" viewBox="0 0 24 24" fill="none" xmlns="http://www.w3.org/2000/svg">
<path d="M12 2.25C15.7252 2.25 18.75 5.27479 18.75 9V21.749H5.25V9C5.25 5.27479 8.27479 2.25 12 2.25ZM12 3.75C9.10321 3.75 6.75 6.10321 6.75 9V20.249H17.25V9C17.25 6.10321 14.8968 3.75 12 3.75ZM14.5186 10.0771C14.8114 9.78444 15.2862 9.78438 15.5791 10.0771C15.8718 10.37 15.8718 10.8448 15.5791 11.1377L11.0498 15.668C10.7569 15.9602 10.282 15.9605 9.98926 15.668C9.69653 15.3753 9.69693 14.9004 9.98926 14.6074L14.5186 10.0771ZM11.4697 8.50879C11.7626 8.21591 12.2374 8.21593 12.5303 8.50879C12.8231 8.80169 12.8231 9.27646 12.5303 9.56934L9.56934 12.5303C9.27646 12.8231 8.80169 12.8231 8.50879 12.5303C8.21593 12.2374 8.21591 11.7626 8.50879 11.4697L11.4697 8.50879Z" fill="black"/>
</svg>
