<svg width="24" height="24" viewBox="0 0 24 24" fill="none" xmlns="http://www.w3.org/2000/svg">
<path d="M12 2C8.14 2 5 5.14 5 9V22H19V9C19 5.14 15.86 2 12 2ZM17 20H7V9C7 6.24 9.24 4 12 4C14.76 4 17 6.24 17 9V20Z" fill="black"/>
<path d="M12.71 9.75C13.1 9.36 13.1 8.73 12.71 8.34C12.32 7.95 11.69 7.95 11.3 8.34L8.34 11.3C7.95 11.69 7.95 12.32 8.34 12.71C8.54 12.91 8.79 13 9.05 13C9.31 13 9.56 12.9 9.76 12.71L12.72 9.75H12.71Z" fill="black"/>
<path d="M14.34 9.9L9.81 14.43C9.42 14.82 9.42 15.45 9.81 15.84C10.01 16.04 10.26 16.13 10.52 16.13C10.78 16.13 11.03 16.03 11.23 15.84L15.76 11.31C16.15 10.92 16.15 10.29 15.76 9.9C15.37 9.51 14.74 9.51 14.35 9.9H14.34Z" fill="black"/>
</svg>
