<svg width="24" height="24" viewBox="0 0 24 24" fill="none" xmlns="http://www.w3.org/2000/svg">
<path d="M12 20C12.6 20 13 19.6 13 19C13 18.4 12.6 18 12 18C11.4 18 11 18.4 11 19C11 19.6 11.4 20 12 20Z" fill="black"/>
<path fill-rule="evenodd" clip-rule="evenodd" d="M8 2.75C7.30964 2.75 6.75 3.30964 6.75 4V20C6.75 20.6904 7.30964 21.25 8 21.25H16C16.6904 21.25 17.25 20.6904 17.25 20V4C17.25 3.30964 16.6904 2.75 16 2.75H8ZM5.25 4C5.25 2.48122 6.48122 1.25 8 1.25H16C17.5188 1.25 18.75 2.48122 18.75 4V20C18.75 21.5188 17.5188 22.75 16 22.75H8C6.48122 22.75 5.25 21.5188 5.25 20V4Z" fill="black"/>
</svg>
