<svg width="24" height="24" viewBox="0 0 24 24" fill="none" xmlns="http://www.w3.org/2000/svg">
<path fill-rule="evenodd" clip-rule="evenodd" d="M11.6699 2.76285C11.8081 3.03745 11.7648 3.36861 11.5606 3.59838C11.3689 3.81395 11.146 4.00351 10.9703 4.15293C10.9245 4.19191 10.8819 4.22816 10.8439 4.26142C10.642 4.43809 10.4767 4.60284 10.3317 4.8294C10.0433 5.28003 9.75 6.11251 9.75 8.00011C9.75 11.4859 12.5142 14.2501 16 14.2501C17.7059 14.2501 19.2137 13.6258 20.3697 12.4698C20.5928 12.2467 20.9316 12.1871 21.2174 12.3206C21.5033 12.4541 21.675 12.7523 21.6471 13.0665C21.2135 17.9444 17.3975 21.7501 12 21.7501C6.56452 21.7501 2.25 16.9927 2.25 12.0001C2.25 7.02405 6.03439 2.78854 10.9336 2.35306C11.2398 2.32584 11.5316 2.48826 11.6699 2.76285ZM8.86916 4.37266C5.87315 5.57106 3.75 8.56788 3.75 12.0001C3.75 16.2075 7.43548 20.2501 12 20.2501C15.8854 20.2501 18.76 17.9736 19.7818 14.7842C18.6536 15.4181 17.37 15.7501 16 15.7501C11.6858 15.7501 8.25 12.3143 8.25 8.00011C8.25 6.26441 8.47816 5.15722 8.86916 4.37266Z" fill="#464A4D"/>
</svg>
