<svg width="24" height="24" viewBox="0 0 24 24" fill="none" xmlns="http://www.w3.org/2000/svg">
<path d="M21.3 12.1001C20.9 11.9001 20.5 12.1001 20.2 12.3001C19.1 13.4001 17.6 14.0001 16 14.0001C12.6 14.0001 10 11.4001 10 8.0001C10 4.6001 11.5 4.0001 11.7 3.8001C11.9 3.6001 12.1 3.1001 11.9 2.7001C11.7 2.3001 11.3 2.1001 10.9 2.1001C5.9 2.5001 2 6.9001 2 12.0001C2 17.1001 6.7 22.0001 12 22.0001C17.3 22.0001 21.4 18.3001 21.9 13.1001C21.9 12.7001 21.7 12.3001 21.3 12.1001Z" fill="black"/>
</svg>
