<svg width="24" height="24" viewBox="0 0 24 24" fill="none" xmlns="http://www.w3.org/2000/svg">
<path d="M11.5 8C12.3284 8 13 7.32843 13 6.5C13 5.67157 12.3284 5 11.5 5C10.6716 5 10 5.67157 10 6.5C10 7.32843 10.6716 8 11.5 8Z" fill="black"/>
<path d="M11.5 13.5C12.3284 13.5 13 12.8284 13 12C13 11.1716 12.3284 10.5 11.5 10.5C10.6716 10.5 10 11.1716 10 12C10 12.8284 10.6716 13.5 11.5 13.5Z" fill="black"/>
<path d="M11.5 19C12.3284 19 13 18.3284 13 17.5C13 16.6716 12.3284 16 11.5 16C10.6716 16 10 16.6716 10 17.5C10 18.3284 10.6716 19 11.5 19Z" fill="black"/>
</svg>
