<svg width="24" height="24" viewBox="0 0 24 24" fill="none" xmlns="http://www.w3.org/2000/svg">
<path d="M20.9999 13C21.2659 13 21.5199 12.895 21.7069 12.707C21.8939 12.519 21.9999 12.266 21.9999 12V7C21.9999 6.448 21.5529 6 20.9999 6H18.2019L18.1219 4.8C18.0169 3.23 16.7019 2 15.1279 2H13.0269C12.4739 2 12.0269 2.448 12.0269 3C12.0269 3.552 12.4739 4 13.0269 4H15.1279C15.6519 4 16.0909 4.41 16.1259 4.934L16.2029 6.092L8.93792 7H1.99992C1.65292 7 1.33192 7.18 1.14892 7.474C0.966921 7.769 0.949921 8.137 1.10492 8.447L3.10492 12.447C3.27392 12.786 3.62092 13 3.99992 13H5.61192L5.26992 14.027C5.17892 14.021 5.09192 14 4.99992 14C2.79392 14 0.999921 15.794 0.999921 18C0.999921 20.206 2.79392 22 4.99992 22C7.20592 22 8.99992 20.206 8.99992 18C8.99992 16.595 8.26892 15.363 7.17092 14.649L7.72092 13H7.99992V14C7.99992 14.553 8.44792 15 8.99992 15H12.9999C13.2229 15 13.4379 14.926 13.6139 14.789L15.9149 12.998H16.6639L16.7459 14.221C15.1569 14.751 14.0009 16.235 14.0009 18C14.0009 20.206 15.7949 22 18.0009 22C20.2069 22 22.0009 20.206 22.0009 18C22.0009 16.048 20.5939 14.424 18.7419 14.075L18.6699 12.999H21.0009L20.9999 13ZM6.99992 18C6.99992 19.103 6.10292 20 4.99992 20C3.89692 20 2.99992 19.103 2.99992 18C2.99992 17.035 3.68792 16.227 4.59892 16.041L4.05092 17.684C3.87592 18.208 4.15892 18.775 4.68292 18.949C4.78792 18.984 4.89492 19.001 4.99892 19.001C5.41792 19.001 5.80792 18.736 5.94792 18.317L6.49192 16.684C6.80392 17.037 6.99892 17.495 6.99892 18.001L6.99992 18ZM19.9999 18C19.9999 19.103 19.1029 20 17.9999 20C16.8969 20 15.9999 19.103 15.9999 18C15.9999 17.309 16.3519 16.699 16.8869 16.34L17.0019 18.067C17.0369 18.595 17.4769 19.001 17.9989 19.001C18.0209 19.001 18.0439 19.001 18.0659 18.999C18.6169 18.962 19.0339 18.485 18.9979 17.935L18.8829 16.216C19.5419 16.544 19.9999 17.216 19.9999 18Z" fill="#464A4D"/>
</svg>
