<svg width="24" height="24" viewBox="0 0 24 24" fill="none" xmlns="http://www.w3.org/2000/svg">
<path d="M21 13C21.266 13 21.52 12.895 21.707 12.707C21.894 12.519 22 12.266 22 12V7C22 6.448 21.553 6 21 6H18.202L18.122 4.8C18.017 3.23 16.702 2 15.128 2H13.027C12.474 2 12.027 2.448 12.027 3C12.027 3.552 12.474 4 13.027 4H15.128C15.652 4 16.091 4.41 16.126 4.934L16.203 6.092L8.938 7H2C1.653 7 1.332 7.18 1.149 7.474C0.966998 7.769 0.949997 8.137 1.105 8.447L3.105 12.447C3.274 12.786 3.621 13 4 13H5.612L5.27 14.027C5.179 14.021 5.092 14 5 14C2.794 14 0.999997 15.794 0.999997 18C0.999997 20.206 2.794 22 5 22C7.206 22 9 20.206 9 18C9 16.595 8.269 15.363 7.171 14.649L7.721 13H8V14C8 14.553 8.448 15 9 15H13C13.223 15 13.438 14.926 13.614 14.789L15.915 12.998H16.664L16.746 14.221C15.157 14.751 14.001 16.235 14.001 18C14.001 20.206 15.795 22 18.001 22C20.207 22 22.001 20.206 22.001 18C22.001 16.048 20.594 14.424 18.742 14.075L18.67 12.999H21.001L21 13ZM7 18C7 19.103 6.103 20 5 20C3.897 20 3 19.103 3 18C3 17.035 3.688 16.227 4.599 16.041L4.051 17.684C3.876 18.208 4.159 18.775 4.683 18.949C4.788 18.984 4.895 19.001 4.999 19.001C5.418 19.001 5.808 18.736 5.948 18.317L6.492 16.684C6.804 17.037 6.999 17.495 6.999 18.001L7 18ZM20 18C20 19.103 19.103 20 18 20C16.897 20 16 19.103 16 18C16 17.309 16.352 16.699 16.887 16.34L17.002 18.067C17.037 18.595 17.477 19.001 17.999 19.001C18.021 19.001 18.044 19.001 18.066 18.999C18.617 18.962 19.034 18.485 18.998 17.935L18.883 16.216C19.542 16.544 20 17.216 20 18Z" fill="black"/>
</svg>
