<svg width="24" height="24" viewBox="0 0 24 24" fill="none" xmlns="http://www.w3.org/2000/svg">
<path d="M22.832 18.4451L16.832 9.44509C16.652 9.17509 16.353 9.00909 16.027 9.00009C15.693 8.97709 15.393 9.14009 15.2 9.39909L13.02 12.3051L9.781 7.44509C9.41 6.88809 8.488 6.88809 8.117 7.44509L0.785001 18.4451C0.580001 18.7521 0.561001 19.1461 0.735001 19.4711C0.909001 19.7961 1.248 19.9991 1.617 19.9991H22C22.369 19.9991 22.708 19.7961 22.882 19.4711C23.056 19.1461 23.037 18.7511 22.832 18.4451ZM3.485 18.0001L8.949 9.80309L14.413 18.0001H3.485Z" fill="black"/>
<path d="M19 8C20.654 8 22 6.654 22 5C22 3.346 20.654 2 19 2C17.346 2 16 3.346 16 5C16 6.654 17.346 8 19 8ZM19 4C19.552 4 20 4.449 20 5C20 5.551 19.552 6 19 6C18.448 6 18 5.551 18 5C18 4.449 18.448 4 19 4Z" fill="black"/>
</svg>
