<svg width="24" height="24" viewBox="0 0 24 24" fill="none" xmlns="http://www.w3.org/2000/svg">
<path d="M8.9494 7.25C9.20004 7.25012 9.43439 7.37543 9.57343 7.58398L13.009 12.7383L15.4006 9.5498L15.4592 9.48047C15.6046 9.32903 15.809 9.2441 16.0217 9.25C16.2646 9.257 16.4893 9.38173 16.6242 9.58398L22.6242 18.584L22.675 18.6729C22.7788 18.887 22.7754 19.1401 22.6613 19.3535C22.5309 19.5973 22.2767 19.7499 22.0002 19.75H1.61737C1.34084 19.75 1.08678 19.5973 0.956238 19.3535C0.825874 19.1097 0.840001 18.814 0.993347 18.584L8.32538 7.58398L8.38202 7.50977C8.52345 7.34615 8.73009 7.25 8.9494 7.25ZM3.01874 18.25H14.8801L8.9494 9.35156L3.01874 18.25ZM13.8908 14.0615L16.6828 18.25H20.5988L15.9641 11.2979L13.8908 14.0615ZM19.0002 2.25C20.5189 2.25008 21.7502 3.48126 21.7502 5C21.7502 6.51874 20.5189 7.74992 19.0002 7.75C17.4814 7.75 16.2502 6.51878 16.2502 5C16.2502 3.48122 17.4814 2.25 19.0002 2.25ZM19.0002 3.75C18.3098 3.75 17.7502 4.30964 17.7502 5C17.7502 5.69036 18.3098 6.25 19.0002 6.25C19.6905 6.24992 20.2502 5.69031 20.2502 5C20.2502 4.30969 19.6905 3.75008 19.0002 3.75Z" fill="black"/>
</svg>
