<svg width="24" height="24" viewBox="0 0 24 24" fill="none" xmlns="http://www.w3.org/2000/svg">
<path fill-rule="evenodd" clip-rule="evenodd" d="M6.5 15.75C5.5335 15.75 4.75 16.5335 4.75 17.5C4.75 18.4665 5.5335 19.25 6.5 19.25C7.4665 19.25 8.25 18.4665 8.25 17.5C8.25 16.5335 7.4665 15.75 6.5 15.75ZM3.25 17.5C3.25 15.7051 4.70507 14.25 6.5 14.25C8.29493 14.25 9.75 15.7051 9.75 17.5C9.75 19.2949 8.29493 20.75 6.5 20.75C4.70507 20.75 3.25 19.2949 3.25 17.5Z" fill="black"/>
<path fill-rule="evenodd" clip-rule="evenodd" d="M15.5 13.75C14.5335 13.75 13.75 14.5335 13.75 15.5C13.75 16.4665 14.5335 17.25 15.5 17.25C16.4665 17.25 17.25 16.4665 17.25 15.5C17.25 14.5335 16.4665 13.75 15.5 13.75ZM12.25 15.5C12.25 13.7051 13.7051 12.25 15.5 12.25C17.2949 12.25 18.75 13.7051 18.75 15.5C18.75 17.2949 17.2949 18.75 15.5 18.75C13.7051 18.75 12.25 17.2949 12.25 15.5Z" fill="black"/>
<path fill-rule="evenodd" clip-rule="evenodd" d="M18.75 3.06506V15.5H17.25V4.93499L9.75 6.60165V17.52H8.25V5.3984L18.75 3.06506Z" fill="black"/>
</svg>
