<svg width="24" height="24" viewBox="0 0 24 24" fill="none" xmlns="http://www.w3.org/2000/svg">
<path d="M12.3 4.09998H12.4C12.1 3.89998 11.6 4.09998 11.3 4.19998L6.6 7.99998H3C2.4 7.99998 2 8.39998 2 8.99998V15C2 15.6 2.4 16 3 16H6.6L11.3 19.8C11.5 19.9 11.7 20 11.9 20H12.3C12.6 19.8 12.9 19.5 12.9 19.1V4.99998C12.9 4.59998 12.7 4.29998 12.3 4.09998Z" fill="black"/>
<path d="M21.9 9.70005L20.5 8.30005L18.2 10.6L15.9 8.30005L14.5 9.70005L16.8 12L14.5 14.3L15.9 15.7L18.2 13.4L20.5 15.7L21.9 14.3L19.6 12L21.9 9.70005Z" fill="black"/>
</svg>
