<svg width="24" height="24" viewBox="0 0 24 24" fill="none" xmlns="http://www.w3.org/2000/svg">
<path fill-rule="evenodd" clip-rule="evenodd" d="M5.25 14.25H10.75V20C10.75 20.4704 10.5899 20.9207 10.2553 21.2553C9.92075 21.5899 9.47044 21.75 9 21.75H7C6.52956 21.75 6.07925 21.5899 5.74467 21.2553C5.41009 20.9207 5.25 20.4704 5.25 20V14.25ZM6.75 15.75V20C6.75 20.1296 6.78991 20.1793 6.80533 20.1947C6.82075 20.2101 6.87044 20.25 7 20.25H9C9.12956 20.25 9.17925 20.2101 9.19467 20.1947C9.21009 20.1793 9.25 20.1296 9.25 20V15.75H6.75Z" fill="black"/>
<path fill-rule="evenodd" clip-rule="evenodd" d="M18.3764 2.35132C18.6077 2.48551 18.75 2.73265 18.75 3V19C18.75 19.2674 18.6077 19.5145 18.3764 19.6487C18.1452 19.7829 17.86 19.7838 17.6279 19.6512L10.8008 15.75H3C2.58579 15.75 2.25 15.4142 2.25 15V7C2.25 6.58579 2.58579 6.25 3 6.25H10.8008L17.6279 2.34882C17.86 2.21617 18.1452 2.21713 18.3764 2.35132ZM17.25 4.29239L11.3721 7.65118C11.2588 7.71594 11.1305 7.75 11 7.75H3.75V14.25H11C11.1305 14.25 11.2588 14.2841 11.3721 14.3488L17.25 17.7076V4.29239Z" fill="black"/>
<path fill-rule="evenodd" clip-rule="evenodd" d="M20.25 11C20.25 9.71421 19.2858 8.75 18 8.75V7.25C20.1142 7.25 21.75 8.88579 21.75 11C21.75 13.1142 20.1142 14.75 18 14.75V13.25C19.2858 13.25 20.25 12.2858 20.25 11Z" fill="black"/>
</svg>
