<svg width="24" height="24" viewBox="0 0 24 24" fill="none" xmlns="http://www.w3.org/2000/svg">
<path d="M12 19C12.5523 19 13 19.4477 13 20C13 20.5523 12.5523 21 12 21C11.4477 21 11 20.5523 11 20C11 19.4477 11.4477 19 12 19Z" fill="black"/>
<path d="M21.0303 2.03027L17.9746 5.08496C20.086 5.92908 21.9773 7.20766 23.5371 8.80664L22.4629 9.85449C20.8987 8.25105 18.9687 7.00434 16.8086 6.25098L13.8857 9.17383C16.2506 9.58401 18.3586 10.7483 19.9502 12.3994L18.8701 13.4404C17.2497 11.7594 15.0171 10.6637 12.5342 10.5254L4.03027 19.0303L2.96973 17.9697L10.2676 10.6709C8.26501 11.0405 6.47722 12.0342 5.13086 13.4385L4.04883 12.4004C6.02913 10.3351 8.83439 9.02957 11.9287 9.00977L15.1553 5.7832C14.1389 5.5591 13.0832 5.44043 12 5.44043C7.89959 5.44043 4.19183 7.12368 1.53809 9.85352L0.461914 8.80762C3.38817 5.79746 7.48041 3.94043 12 3.94043C13.5217 3.94043 14.9944 4.15273 16.3906 4.54785L19.9697 0.969727L21.0303 2.03027Z" fill="black"/>
<path d="M12 14.21C13.6853 14.2101 15.2154 14.9226 16.2842 16.0947L15.7295 16.5996L15.1758 17.1055C14.3848 16.2381 13.2541 15.7101 12 15.71C10.7458 15.7101 9.61518 16.238 8.82422 17.1055L7.71484 16.0947C8.78368 14.9225 10.3146 14.2101 12 14.21Z" fill="black"/>
</svg>
