<svg width="24" height="24" viewBox="0 0 24 24" fill="none" xmlns="http://www.w3.org/2000/svg">
<path d="M12 19C12.5523 19 13 19.4477 13 20C13 20.5523 12.5523 21 12 21C11.4477 21 11 20.5523 11 20C11 19.4477 11.4477 19 12 19ZM21.2002 2.20996L18.4102 5C20.38 5.83996 22.17 7.05979 23.71 8.63965L22.2803 10.0303L22.2695 10.04C20.7196 8.45016 18.8695 7.28953 16.8496 6.55957L14.3701 9.04004C16.5401 9.51005 18.5601 10.6203 20.1201 12.2402L18.6797 13.6299C17.0798 11.9701 14.9001 10.9696 12.6104 10.8096L4.2002 19.2197L2.79004 17.8096L9.4502 11.1504C7.8902 11.6004 6.44957 12.4399 5.30957 13.6299L3.87012 12.2402C5.94002 10.0803 8.82972 8.83039 11.8096 8.78027L14.6396 5.9502C13.7698 5.79025 12.89 5.70021 11.9902 5.7002C8.09023 5.7002 4.42996 7.24004 1.70996 10.04L0.280273 8.63965C3.39024 5.44986 7.55016 3.69043 12 3.69043C13.4799 3.69043 14.9197 3.90033 16.3096 4.28027L19.79 0.799805L21.2002 2.20996ZM12 13.9697C13.6999 13.9697 15.3297 14.6799 16.4697 15.9297L14.9902 17.2803C14.2302 16.4503 13.14 15.9697 12 15.9697C10.86 15.9697 9.76977 16.4503 9.00977 17.2803L7.53027 15.9297C8.67026 14.6899 10.3001 13.9697 12 13.9697Z" fill="black"/>
</svg>
