<svg width="24" height="24" viewBox="0 0 24 24" fill="none" xmlns="http://www.w3.org/2000/svg">
<path fill-rule="evenodd" clip-rule="evenodd" d="M12.0001 1.13965L21.6501 6.561V16.3388L12.0038 21.7581L2.3501 16.4431V6.561L12.0001 1.13965ZM3.8501 7.43881V15.5567L11.9964 20.0417L20.1501 15.461V7.43881L12.0001 2.86015L3.8501 7.43881Z" fill="#464A4D"/>
<path fill-rule="evenodd" clip-rule="evenodd" d="M21.2674 7.75378L12.3674 12.7538L11.6328 11.446L20.5328 6.44602L21.2674 7.75378Z" fill="#464A4D"/>
<path fill-rule="evenodd" clip-rule="evenodd" d="M11.2501 20.9999V12.0999H12.7501V20.9999H11.2501Z" fill="#464A4D"/>
<path fill-rule="evenodd" clip-rule="evenodd" d="M3.47299 6.34917L12.373 11.4492L11.6272 12.7506L2.72721 7.65063L3.47299 6.34917Z" fill="#464A4D"/>
<path fill-rule="evenodd" clip-rule="evenodd" d="M7.23275 8.84602L16.1327 3.84602L16.8674 5.15378L7.96744 10.1538L7.23275 8.84602Z" fill="#464A4D"/>
</svg>
