<svg width="24" height="24" viewBox="0 0 24 24" fill="none" xmlns="http://www.w3.org/2000/svg">
<path fill-rule="evenodd" clip-rule="evenodd" d="M12 1.13965L21.65 6.561V16.3388L12.0037 21.7581L2.34998 16.4431V6.561L12 1.13965ZM3.84998 7.43881V15.5567L11.9963 20.0417L20.15 15.461V7.43881L12 2.86015L3.84998 7.43881Z" fill="black"/>
<path fill-rule="evenodd" clip-rule="evenodd" d="M21.2673 7.75378L12.3673 12.7538L11.6326 11.446L20.5326 6.44602L21.2673 7.75378Z" fill="black"/>
<path fill-rule="evenodd" clip-rule="evenodd" d="M11.25 20.9999V12.0999H12.75V20.9999H11.25Z" fill="black"/>
<path fill-rule="evenodd" clip-rule="evenodd" d="M3.47287 6.34917L12.3729 11.4492L11.6271 12.7506L2.72708 7.65063L3.47287 6.34917Z" fill="black"/>
<path fill-rule="evenodd" clip-rule="evenodd" d="M7.23263 8.84602L16.1326 3.84602L16.8673 5.15378L7.96732 10.1538L7.23263 8.84602Z" fill="black"/>
</svg>
