<svg width="24" height="24" viewBox="0 0 24 24" fill="none" xmlns="http://www.w3.org/2000/svg">
<path d="M20.988 5.848C20.913 5.36 20.493 5 20 5H15V4H13V5H11V4H8.99995V5H3.99995C3.50595 5 3.08695 5.36 3.01195 5.848L1.01195 18.848C0.967952 19.137 1.05195 19.43 1.24095 19.652C1.42995 19.874 1.70795 20.001 1.99995 20.001H10.2C10.677 20.001 11.087 19.664 11.18 19.197L11.819 16.001H12.179L12.819 19.197C12.913 19.664 13.323 20.001 13.799 20.001H21.999C22.291 20.001 22.568 19.874 22.758 19.652C22.948 19.43 23.032 19.137 22.987 18.848L20.987 5.848H20.988ZM19.603 10H18.599C18.268 10 17.999 9.701 17.999 9.333V7H19.141L19.603 10ZM5.99995 7V9.333C5.99995 9.701 5.73095 10 5.39995 10H4.39595L4.85795 7H5.99995ZM14.62 18L13.98 14.804C13.886 14.337 13.476 14 13 14H11C10.523 14 10.113 14.337 10.02 14.804L9.38095 18H3.16595L4.08895 12H5.39995C6.83395 12 7.99995 10.804 7.99995 9.333V7H8.99995V9H11V7H13V8H15V7H16V9.333C16 10.804 17.166 12 18.6 12H19.911L20.834 18H14.62Z" fill="#464A4D"/>
</svg>
