<svg width="24" height="24" viewBox="0 0 24 24" fill="none" xmlns="http://www.w3.org/2000/svg">
<path d="M20.988 5.848C20.913 5.36 20.493 5 20 5H15V4H13V5H11V4H9V5H4C3.506 5 3.087 5.36 3.012 5.848L1.012 18.848C0.967997 19.137 1.052 19.43 1.241 19.652C1.43 19.874 1.708 20.001 2 20.001H10.2C10.677 20.001 11.087 19.664 11.18 19.197L11.819 16.001H12.179L12.819 19.197C12.913 19.664 13.323 20.001 13.799 20.001H21.999C22.291 20.001 22.568 19.874 22.758 19.652C22.948 19.43 23.032 19.137 22.987 18.848L20.987 5.848H20.988ZM19.603 10H18.599C18.268 10 17.999 9.701 17.999 9.333V7H19.141L19.603 10ZM6 7V9.333C6 9.701 5.731 10 5.4 10H4.396L4.858 7H6ZM14.62 18L13.98 14.804C13.886 14.337 13.476 14 13 14H11C10.523 14 10.113 14.337 10.02 14.804L9.381 18H3.166L4.089 12H5.4C6.834 12 8 10.804 8 9.333V7H9V9H11V7H13V8H15V7H16V9.333C16 10.804 17.166 12 18.6 12H19.911L20.834 18H14.62Z" fill="black"/>
</svg>
