<svg width="24" height="24" viewBox="0 0 24 24" fill="none" xmlns="http://www.w3.org/2000/svg">
<path d="M20 5.25L20.1357 5.2627C20.4447 5.31938 20.6919 5.56571 20.7412 5.88574L22.7412 18.8857C22.7745 19.102 22.7118 19.3222 22.5693 19.4883C22.4269 19.6544 22.2188 19.75 22 19.75H13.7998C13.4425 19.7499 13.1347 19.4978 13.0645 19.1475L12.3848 15.75H11.6152L10.9356 19.1475C10.8653 19.4978 10.5575 19.7499 10.2002 19.75H2.00001C1.78118 19.75 1.57316 19.6544 1.43067 19.4883C1.28824 19.3222 1.22553 19.102 1.2588 18.8857L3.2588 5.88574L3.292 5.75391C3.39498 5.45702 3.67605 5.25 4.00001 5.25H20ZM2.87403 18.25H9.58497L10.2647 14.8525L10.3018 14.7266C10.4125 14.4433 10.6871 14.25 11 14.25H13C13.3574 14.25 13.6651 14.5022 13.7354 14.8525L14.415 18.25H21.126L19.3565 6.75H4.64356L2.87403 18.25Z" fill="black"/>
<path d="M10.75 4V9H9.25001V4H10.75Z" fill="black"/>
<path d="M14.75 4V8H13.25V4H14.75Z" fill="black"/>
<path d="M16.25 9.33301V6H17.75V9.33301C17.75 9.86893 18.1587 10.2498 18.5996 10.25H20.7686V11.75H18.5996C17.2729 11.7498 16.25 10.6388 16.25 9.33301Z" fill="black"/>
<path d="M6.24956 9.33301V6H7.74956V9.33301C7.74956 10.6389 6.72687 11.75 5.39995 11.75H3.23101V10.25H5.39995C5.84103 10.25 6.24956 9.86909 6.24956 9.33301Z" fill="black"/>
</svg>
