<svg width="24" height="24" viewBox="0 0 24 24" fill="none" xmlns="http://www.w3.org/2000/svg">
<path d="M19.5889 8.72461H19.583L20.8252 21.75H14.374L12.374 10.75H11.626L9.62598 21.75H3.1748L4.41113 8.77441H4.40527L4.48047 8.04883L4.4834 8.01953L4.48438 8.0127L5.07422 2.35938H18.9258L19.5889 8.72461ZM10.3408 4.11035C10.3406 6.62636 8.38526 8.68159 5.91113 8.84668L4.8252 20.25H8.37402L10.374 9.25H13.626L15.626 20.25H19.1748L18.0859 8.83203C15.6991 8.58043 13.8401 6.56403 13.8398 4.11035C13.8398 4.02682 13.8426 3.94319 13.8467 3.86035H10.333C10.3371 3.9432 10.3408 4.02681 10.3408 4.11035ZM6.06348 7.3252C7.63441 7.09616 8.84058 5.74506 8.84082 4.11035L8.83105 3.86035H6.42578L6.06348 7.3252ZM15.3398 4.11035C15.3401 5.67999 16.4515 6.98852 17.9307 7.29297L17.5742 3.86035H15.3496C15.3438 3.94111 15.3398 4.02459 15.3398 4.11035Z" fill="black"/>
</svg>
