<svg width="24" height="24" viewBox="0 0 24 24" fill="none" xmlns="http://www.w3.org/2000/svg">
<path d="M20.698 11.1881L13.093 18.6931C12.121 19.6651 10.809 20.2001 9.40001 20.2001C7.99101 20.2001 6.68001 19.6651 5.73701 18.7241C4.73101 17.6271 4.20001 16.3391 4.20001 14.9991C4.20001 13.5481 4.70701 12.3061 5.70101 11.3111L12.152 4.95712C12.623 4.41912 13.425 4.09912 14.299 4.09912C15.153 4.09912 15.891 4.40412 16.492 5.00612C17.094 5.60912 17.399 6.34612 17.399 7.19912C17.399 8.05212 17.093 8.78912 16.498 9.38612L10.092 15.6911C9.66601 16.1171 8.93001 16.1161 8.50601 15.6911C8.29401 15.4791 8.19901 15.2341 8.19901 14.8981C8.19901 14.5621 8.29301 14.3171 8.50601 14.1051L14.906 7.70512L13.492 6.29112L7.09201 12.6911C6.50801 13.2741 6.19901 14.0381 6.19901 14.8991C6.19901 15.7601 6.50801 16.5211 7.09301 17.1071C7.67701 17.6901 8.44101 17.9991 9.29901 17.9991C10.157 17.9991 10.922 17.6901 11.501 17.1121L17.907 10.8061C18.884 9.82812 19.4 8.58112 19.4 7.19912C19.4 5.81712 18.883 4.56912 17.907 3.59212C16.93 2.61512 15.683 2.09912 14.3 2.09912C12.836 2.09912 11.505 2.66112 10.698 3.58612L4.29301 9.89212C2.92401 11.2601 2.20001 13.0261 2.20001 14.9991C2.20001 16.8481 2.91301 18.6031 4.29301 20.1061C5.64401 21.4561 7.45701 22.1991 9.40001 22.1991C11.343 22.1991 13.157 21.4561 14.502 20.1111L22.103 12.6111L20.699 11.1871L20.698 11.1881Z" fill="black"/>
</svg>
