<svg width="24" height="24" viewBox="0 0 24 24" fill="none" xmlns="http://www.w3.org/2000/svg">
<path fill-rule="evenodd" clip-rule="evenodd" d="M10.8551 3.78412C11.7289 2.80102 13.0455 2.3501 14.3 2.3501C15.5952 2.3501 16.7871 2.82654 17.7303 3.76977C18.6736 4.713 19.15 5.90486 19.15 7.2001C19.15 8.49533 18.6736 9.6872 17.7303 10.6304L17.7262 10.6346L11.328 16.9328C10.7785 17.481 10.0844 17.7501 9.30001 17.7501C8.51449 17.7501 7.81953 17.4803 7.26968 16.9304C6.71984 16.3806 6.45001 15.6856 6.45001 14.9001C6.45001 14.1146 6.71984 13.4196 7.26968 12.8698L13.6697 6.46977L14.7303 7.53043L8.33034 13.9304C8.08019 14.1806 7.95001 14.4856 7.95001 14.9001C7.95001 15.3146 8.08019 15.6196 8.33034 15.8698C8.5805 16.1199 8.88553 16.2501 9.30001 16.2501C9.71449 16.2501 10.0195 16.1199 10.2697 15.8698L10.2739 15.8656L16.6717 9.56772C17.3271 8.91132 17.65 8.10392 17.65 7.2001C17.65 6.29533 17.3265 5.4872 16.6697 4.83043C16.0129 4.17366 15.2048 3.8501 14.3 3.8501C13.3639 3.8501 12.4908 4.19243 11.9644 4.79398L11.9461 4.81499L5.52833 11.1324C4.47516 12.1866 3.95001 13.493 3.95001 15.0001C3.95001 16.4762 4.55272 17.7973 5.54179 18.8812C6.59069 19.9238 7.99066 20.4501 9.40001 20.4501C10.8145 20.4501 12.2195 19.9199 13.2697 18.8698L13.2732 18.8663L20.8732 11.3663L21.9268 12.4339L14.3303 19.9304C14.3297 19.931 14.3291 19.9317 14.3285 19.9323C12.9789 21.2809 11.1847 21.9501 9.40001 21.9501C7.61449 21.9501 5.81953 21.2803 4.46968 19.9304L4.45816 19.9189L4.44715 19.9069C3.2428 18.5931 2.45001 16.9185 2.45001 15.0001C2.45001 13.1081 3.1242 11.4153 4.46968 10.0698L4.47386 10.0656L10.8551 3.78412Z" fill="black"/>
</svg>
