<svg width="24" height="24" viewBox="0 0 24 24" fill="none" xmlns="http://www.w3.org/2000/svg">
<path d="M20.698 11.1881L13.093 18.6931C12.121 19.6651 10.809 20.2001 9.39995 20.2001C7.99095 20.2001 6.67995 19.6651 5.73695 18.7241C4.73095 17.6271 4.19995 16.3391 4.19995 14.9991C4.19995 13.5481 4.70695 12.3061 5.70095 11.3111L12.152 4.95712C12.623 4.41912 13.425 4.09912 14.299 4.09912C15.153 4.09912 15.891 4.40412 16.492 5.00612C17.094 5.60912 17.399 6.34612 17.399 7.19912C17.399 8.05212 17.093 8.78912 16.498 9.38612L10.092 15.6911C9.66595 16.1171 8.92995 16.1161 8.50595 15.6911C8.29395 15.4791 8.19895 15.2341 8.19895 14.8981C8.19895 14.5621 8.29295 14.3171 8.50595 14.1051L14.906 7.70512L13.492 6.29112L7.09195 12.6911C6.50795 13.2741 6.19895 14.0381 6.19895 14.8991C6.19895 15.7601 6.50795 16.5211 7.09295 17.1071C7.67695 17.6901 8.44095 17.9991 9.29895 17.9991C10.157 17.9991 10.922 17.6901 11.501 17.1121L17.907 10.8061C18.884 9.82812 19.4 8.58112 19.4 7.19912C19.4 5.81712 18.883 4.56912 17.907 3.59212C16.93 2.61512 15.683 2.09912 14.3 2.09912C12.836 2.09912 11.505 2.66112 10.698 3.58612L4.29295 9.89212C2.92395 11.2601 2.19995 13.0261 2.19995 14.9991C2.19995 16.8481 2.91295 18.6031 4.29295 20.1061C5.64395 21.4561 7.45695 22.1991 9.39995 22.1991C11.343 22.1991 13.157 21.4561 14.502 20.1111L22.103 12.6111L20.6989 11.1871L20.698 11.1881Z" fill="#464A4D"/>
</svg>
