<svg width="24" height="24" viewBox="0 0 24 24" fill="none" xmlns="http://www.w3.org/2000/svg">
<path d="M20.047 5H4.047C2.393 5 1.047 6.346 1.047 8V16C1.047 17.654 2.393 19 4.047 19H20.047C21.701 19 23.047 17.654 23.047 16V8C23.047 6.346 21.701 5 20.047 5ZM8.915 13.25C8.729 13.571 8.394 13.75 8.048 13.75C7.935 13.75 7.823 13.723 7.713 13.684C7.624 14.145 7.237 14.5 6.75 14.5C6.263 14.5 5.876 14.145 5.787 13.684C5.677 13.723 5.565 13.75 5.452 13.75C5.106 13.75 4.77 13.571 4.585 13.25C4.34 12.824 4.457 12.307 4.819 12C4.457 11.693 4.339 11.175 4.585 10.75C4.831 10.325 5.338 10.167 5.785 10.328C5.869 9.861 6.259 9.5 6.75 9.5C7.241 9.5 7.631 9.861 7.715 10.328C8.161 10.167 8.668 10.325 8.915 10.75C9.16 11.175 9.043 11.693 8.681 12C9.043 12.307 9.161 12.824 8.915 13.25ZM14.165 13.25C13.979 13.571 13.644 13.75 13.298 13.75C13.185 13.75 13.073 13.723 12.963 13.684C12.874 14.145 12.488 14.5 12 14.5C11.512 14.5 11.126 14.145 11.037 13.684C10.927 13.723 10.815 13.75 10.702 13.75C10.356 13.75 10.02 13.571 9.835 13.25C9.59 12.824 9.707 12.307 10.069 12C9.707 11.693 9.589 11.175 9.835 10.75C10.081 10.325 10.588 10.167 11.035 10.328C11.119 9.861 11.509 9.5 12 9.5C12.491 9.5 12.881 9.861 12.965 10.328C13.411 10.167 13.919 10.324 14.165 10.75C14.411 11.175 14.293 11.693 13.931 12C14.293 12.307 14.411 12.824 14.165 13.25ZM19.415 13.25C19.229 13.571 18.894 13.75 18.548 13.75C18.435 13.75 18.323 13.723 18.213 13.684C18.124 14.145 17.738 14.5 17.25 14.5C16.762 14.5 16.376 14.145 16.287 13.684C16.177 13.723 16.065 13.75 15.952 13.75C15.606 13.75 15.27 13.571 15.085 13.25C14.839 12.824 14.957 12.307 15.319 12C14.957 11.693 14.839 11.175 15.085 10.75C15.331 10.324 15.838 10.167 16.285 10.328C16.369 9.861 16.759 9.5 17.25 9.5C17.741 9.5 18.131 9.861 18.215 10.327C18.66 10.166 19.168 10.324 19.415 10.75C19.661 11.175 19.543 11.693 19.181 12C19.543 12.307 19.661 12.824 19.415 13.25Z" fill="black"/>
</svg>
