<svg width="24" height="24" viewBox="0 0 24 24" fill="none" xmlns="http://www.w3.org/2000/svg">
<path d="M20.0471 5H4.04712C2.39312 5 1.04712 6.346 1.04712 8V16C1.04712 17.654 2.39312 19 4.04712 19H20.0471C21.7011 19 23.0471 17.654 23.0471 16V8C23.0471 6.346 21.7011 5 20.0471 5ZM8.91512 13.25C8.72912 13.571 8.39412 13.75 8.04812 13.75C7.93512 13.75 7.82312 13.723 7.71312 13.684C7.62412 14.145 7.23712 14.5 6.75012 14.5C6.26312 14.5 5.87612 14.145 5.78712 13.684C5.67712 13.723 5.56512 13.75 5.45212 13.75C5.10612 13.75 4.77012 13.571 4.58512 13.25C4.34012 12.824 4.45712 12.307 4.81912 12C4.45712 11.693 4.33912 11.175 4.58512 10.75C4.83112 10.325 5.33812 10.167 5.78512 10.328C5.86912 9.861 6.25912 9.5 6.75012 9.5C7.24112 9.5 7.63112 9.861 7.71512 10.328C8.16112 10.167 8.66812 10.325 8.91512 10.75C9.16012 11.175 9.04312 11.693 8.68112 12C9.04312 12.307 9.16112 12.824 8.91512 13.25ZM14.1651 13.25C13.9791 13.571 13.6441 13.75 13.2981 13.75C13.1851 13.75 13.0731 13.723 12.9631 13.684C12.8741 14.145 12.4881 14.5 12.0001 14.5C11.5121 14.5 11.1261 14.145 11.0371 13.684C10.9271 13.723 10.8151 13.75 10.7021 13.75C10.3561 13.75 10.0201 13.571 9.83512 13.25C9.59012 12.824 9.70712 12.307 10.0691 12C9.70712 11.693 9.58912 11.175 9.83512 10.75C10.0811 10.325 10.5881 10.167 11.0351 10.328C11.1191 9.861 11.5091 9.5 12.0001 9.5C12.4911 9.5 12.8811 9.861 12.9651 10.328C13.4111 10.167 13.9191 10.324 14.1651 10.75C14.4111 11.175 14.2931 11.693 13.9311 12C14.2931 12.307 14.4111 12.824 14.1651 13.25ZM19.4151 13.25C19.2291 13.571 18.8941 13.75 18.5481 13.75C18.4351 13.75 18.3231 13.723 18.2131 13.684C18.1241 14.145 17.7381 14.5 17.2501 14.5C16.7621 14.5 16.3761 14.145 16.2871 13.684C16.1771 13.723 16.0651 13.75 15.9521 13.75C15.6061 13.75 15.2701 13.571 15.0851 13.25C14.8391 12.824 14.9571 12.307 15.3191 12C14.9571 11.693 14.8391 11.175 15.0851 10.75C15.3311 10.324 15.8381 10.167 16.2851 10.328C16.3691 9.861 16.7591 9.5 17.2501 9.5C17.7411 9.5 18.1311 9.861 18.2151 10.327C18.6601 10.166 19.1681 10.324 19.4151 10.75C19.6611 11.175 19.5431 11.693 19.1811 12C19.5431 12.307 19.6611 12.824 19.4151 13.25Z" fill="#464A4D"/>
</svg>
