<svg width="24" height="24" viewBox="0 0 24 24" fill="none" xmlns="http://www.w3.org/2000/svg">
<path fill-rule="evenodd" clip-rule="evenodd" d="M19.514 11.5392C18.932 14.5172 17.037 16.0052 13.831 16.0052H13.389C13.221 16.0052 13.075 16.0612 12.945 16.1712C12.819 16.2812 12.737 16.4242 12.706 16.5982L12.665 16.7872L12.112 20.2662L12.091 20.4172C12.058 20.5922 11.976 20.7332 11.844 20.8432C11.714 20.9542 11.566 21.0092 11.397 21.0092H8.87399C8.73199 21.0092 8.62199 20.9602 8.54299 20.8592C8.46299 20.7572 8.43299 20.6382 8.45299 20.4962C8.51399 20.1232 8.60099 19.5582 8.71999 18.8072C8.83699 18.0572 8.92599 17.4932 8.98699 17.1182C9.04799 16.7432 9.13699 16.1802 9.25899 15.4332C9.37999 14.6852 9.47099 14.1232 9.52999 13.7482C9.56299 13.5002 9.70899 13.3772 9.96299 13.3772H11.279C12.172 13.3902 12.961 13.3202 13.654 13.1662C14.826 12.9042 15.788 12.4222 16.54 11.7172C17.225 11.0802 17.743 10.2552 18.1 9.24421C18.262 8.77421 18.377 8.32721 18.452 7.90621C18.458 7.86521 18.466 7.84021 18.477 7.83221C18.485 7.82121 18.499 7.81821 18.512 7.82121C18.524 7.82521 18.544 7.83721 18.574 7.85621C19.098 8.25421 19.428 8.79721 19.554 9.48821C19.675 10.0512 19.66 10.7342 19.514 11.5392ZM17.361 9.02621C16.824 10.5882 15.814 11.6442 14.324 12.1942C13.566 12.4632 12.722 12.6022 11.789 12.6192C11.789 12.6252 11.488 12.6262 10.885 12.6262L9.98199 12.6192C9.30999 12.6192 8.91499 12.9392 8.79499 13.5832C8.78199 13.6362 8.49699 15.4132 7.93999 18.9122C7.93199 18.9782 7.89199 19.0142 7.81899 19.0142H4.85399C4.70599 19.0142 4.58299 18.9592 4.48499 18.8492C4.38699 18.7372 4.34999 18.6082 4.36999 18.4592L6.70199 3.66421C6.73399 3.46921 6.82699 3.31021 6.97799 3.18121C7.12899 3.05421 7.30299 2.99121 7.49699 2.99121H13.511C13.739 2.99121 14.066 3.03521 14.49 3.12221C14.918 3.20621 15.291 3.31621 15.613 3.44321C16.331 3.71721 16.879 4.13121 17.258 4.68021C17.637 5.23221 17.826 5.88721 17.826 6.65221C17.826 7.36921 17.672 8.16021 17.361 9.02621Z" fill="black"/>
</svg>
