<svg width="24" height="24" viewBox="0 0 24 24" fill="none" xmlns="http://www.w3.org/2000/svg">
<path fill-rule="evenodd" clip-rule="evenodd" d="M6.57485 3.91988C6.26087 3.88295 5.69843 4.0083 4.81579 4.84449C4.0562 5.5641 3.74587 6.54565 3.71213 7.64797C3.67818 8.75691 3.92851 9.91838 4.21835 10.8845C4.79118 12.7939 5.83683 14.8762 7.53031 16.5697L7.53834 16.5777L7.54613 16.586C9.01721 18.149 10.2731 18.7009 12.8453 19.5913C14.0717 20.0158 15.4311 20.2474 16.6284 20.2128C17.8512 20.1776 18.7685 19.8708 19.2696 19.3697C20.3959 18.2434 20.0178 17.0276 19.3973 16.6328L19.388 16.6268L16.6089 14.741C15.973 14.4014 15.2646 14.5018 14.8364 14.9243L13.5924 16.2337L13.1681 16.1276C12.2197 15.8905 10.8648 15.1166 9.90171 14.2606C9.34942 13.7697 8.94761 13.1233 8.66355 12.5416C8.37609 11.953 8.18679 11.3839 8.07884 11.0061L7.9576 10.5817L9.28731 9.25203L9.3061 9.23559C9.80877 8.79575 9.86625 8.03838 9.49998 7.55002L9.48934 7.53583L7.57592 4.71606C7.22423 4.18852 6.88976 3.95693 6.57485 3.91988ZM8.82224 3.88133C8.37395 3.20978 7.70893 2.54296 6.75011 2.43016C5.78909 2.3171 4.80153 2.79174 3.78417 3.75556C2.64376 4.83595 2.25409 6.25439 2.21283 7.60207C2.17178 8.94313 2.47145 10.2817 2.78161 11.3155C3.4079 13.4032 4.55988 15.7173 6.4616 17.6223C8.18738 19.453 9.73079 20.1005 12.3546 21.0088C13.7283 21.4843 15.2689 21.7527 16.6716 21.7122C18.0487 21.6725 19.4314 21.3293 20.3303 20.4304C22.0005 18.7602 21.7831 16.3825 20.2127 15.3737L17.3934 13.4606L17.3642 13.4444C16.2099 12.8031 14.7361 12.9032 13.7696 13.8697L13.7629 13.8765L13.1327 14.5398C12.4744 14.2781 11.5831 13.7483 10.8983 13.1395C10.5505 12.8304 10.2523 12.3768 10.0114 11.8834C9.86172 11.5769 9.74255 11.2726 9.65184 11.0088L10.314 10.3466C11.3879 9.38854 11.5273 7.76993 10.7115 6.66545L8.82224 3.88133Z" fill="black"/>
</svg>
