<svg width="24" height="24" viewBox="0 0 24 24" fill="none" xmlns="http://www.w3.org/2000/svg">
<path d="M20.4 15.2001L17.6 13.3001C16.4 12.5001 14.7 12.6001 13.6 13.7001L13 14.3001C12.4 14.1001 11.5 13.7001 11 13.1001C10.6 12.7001 10.2 12.0001 9.9 11.1001L10.5 10.5001C11.6 9.40006 11.7 7.80006 10.9 6.50006L9.00001 3.70006C8.50001 2.90006 7.60001 2.40006 6.70001 2.30006C5.60001 2.20006 4.50001 2.60006 3.50001 3.60006C1.80001 5.30006 1.40001 7.90006 2.50001 11.4001C3.00001 13.1001 4.10001 15.6001 6.30001 17.8001C8.10001 19.6001 10.6 20.6001 12.3 21.2001C13.6 21.6001 15 21.9001 16.4 21.9001C17.8 21.9001 19.6 21.5001 20.5 20.6001C21.4 19.7001 21.9 18.6001 21.7 17.4001C21.7 16.5001 21.1 15.6001 20.3 15.1001L20.4 15.2001Z" fill="black"/>
</svg>
