<svg width="24" height="24" viewBox="0 0 24 24" fill="none" xmlns="http://www.w3.org/2000/svg">
<path d="M9.22461 8.76883C9.56616 8.76029 9.89976 8.81199 10.208 8.9401C10.4496 9.0341 10.6503 9.20475 10.792 9.42688C10.9253 9.65765 10.9917 9.92314 10.9834 10.1881C10.9834 10.5641 10.8996 10.8548 10.7246 11.0685C10.5414 11.282 10.3084 11.4443 10.042 11.5212C9.73366 11.6238 9.40801 11.6755 9.08301 11.6755H8.6416C8.54162 11.6755 8.43305 11.667 8.31641 11.6585V8.78586C8.37472 8.77731 8.4916 8.76931 8.6582 8.77784C8.81644 8.7693 9.0081 8.76883 9.22461 8.76883Z" fill="black"/>
<path fill-rule="evenodd" clip-rule="evenodd" d="M18.458 2C20.4163 2 22 3.62427 22 5.63281V18.3672C22 20.3757 20.4163 22 18.458 22H5.54199C3.58366 22 2 20.3757 2 18.3672V5.63281C2 3.62427 3.58366 2 5.54199 2H18.458ZM16.3418 9.20553C15.7501 9.20553 15.2579 9.29888 14.8662 9.50401C14.508 9.67495 14.1995 9.94849 13.9912 10.2903C13.8079 10.6065 13.708 10.9574 13.708 11.3249C13.6997 11.624 13.7671 11.9229 13.9004 12.1963C14.0587 12.4869 14.2749 12.7354 14.5332 12.9235C14.8998 13.1799 15.2918 13.3846 15.7168 13.5385C16.125 13.7008 16.3998 13.829 16.5332 13.9401C16.6664 14.0511 16.7332 14.1621 16.7334 14.2817C16.7334 14.4354 16.642 14.5813 16.5088 14.6412C16.3588 14.7181 16.1331 14.7604 15.8164 14.7604C15.4832 14.7604 15.1496 14.7177 14.833 14.6322C14.4665 14.5467 14.1247 14.4101 13.7998 14.2135C13.7749 14.1965 13.7495 14.1885 13.7246 14.2055C13.7001 14.2226 13.6915 14.2562 13.6914 14.2817V15.769C13.6831 15.8373 13.725 15.8971 13.7832 15.9313C14.0499 16.0595 14.3421 16.1534 14.6338 16.2047C15.0086 16.2816 15.3834 16.3159 15.7666 16.3159C16.3666 16.3159 16.8671 16.222 17.2754 16.0425C17.6501 15.8886 17.9748 15.6239 18.208 15.2823C18.4247 14.949 18.5415 14.5471 18.5332 14.1454C18.5415 13.8378 18.4751 13.5385 18.3418 13.265C18.1835 12.9745 17.9584 12.7354 17.6836 12.5559C17.2837 12.2996 16.8502 12.0857 16.4004 11.9319C16.2004 11.8464 16.0002 11.752 15.8086 11.6494C15.7004 11.5897 15.6004 11.5129 15.5254 11.4191C15.4754 11.3507 15.4414 11.2736 15.4414 11.1967C15.4414 11.1198 15.4671 11.0337 15.5088 10.9653C15.5671 10.8802 15.6585 10.8207 15.7666 10.7951C15.9249 10.7523 16.1 10.7264 16.2666 10.735C16.5833 10.735 16.8919 10.7778 17.2002 10.8462C17.4834 10.906 17.7501 10.9999 18 11.1366C18.0333 11.1537 18.0754 11.1537 18.1504 11.1366C18.1752 11.1195 18.1913 11.0855 18.1914 11.0515V9.65825C18.1914 9.62407 18.1831 9.58928 18.1748 9.55509C18.1581 9.52112 18.1249 9.48756 18.0918 9.47897C17.8668 9.38495 17.625 9.31584 17.375 9.28165C17.0334 9.23038 16.6834 9.20554 16.3418 9.20553ZM8.4082 7.09415C8.15002 7.10269 7.90848 7.10264 7.68359 7.11118C7.45859 7.11973 7.2498 7.11966 7.0498 7.12821C6.85824 7.13674 6.72463 7.13722 6.58301 7.13722C6.52504 7.13735 6.50011 7.1709 6.5 7.23037V16.0254C6.5 16.1022 6.5332 16.1365 6.59961 16.1366H8.2168C8.27494 16.128 8.3167 16.0771 8.30859 16.0174V13.273C8.46679 13.273 8.5837 13.2735 8.66699 13.2821C8.7503 13.2906 8.88345 13.2911 9.08301 13.2911C9.76628 13.2911 10.3914 13.2132 10.958 12.9996C11.4997 12.7945 11.9665 12.4356 12.2998 11.9569C12.633 11.4784 12.7998 10.8719 12.7998 10.137C12.7998 9.7524 12.7334 9.38422 12.6084 9.02524C12.4751 8.65794 12.2665 8.32507 12 8.05168C11.6834 7.73556 11.3003 7.49588 10.8838 7.35056C10.4172 7.1711 9.85018 7.08516 9.16699 7.08514C8.91699 7.08514 8.66654 7.0856 8.4082 7.09415Z" fill="black"/>
</svg>
