<svg width="24" height="24" viewBox="0 0 24 24" fill="none" xmlns="http://www.w3.org/2000/svg">
<path fill-rule="evenodd" clip-rule="evenodd" d="M18.5 16.7502C17.5335 16.7502 16.75 17.5337 16.75 18.5002C16.75 19.4667 17.5335 20.2502 18.5 20.2502C19.4665 20.2502 20.25 19.4667 20.25 18.5002C20.25 17.5337 19.4665 16.7502 18.5 16.7502ZM15.25 18.5002C15.25 16.7053 16.7051 15.2502 18.5 15.2502C20.2949 15.2502 21.75 16.7053 21.75 18.5002C21.75 20.2951 20.2949 21.7502 18.5 21.7502C16.7051 21.7502 15.25 20.2951 15.25 18.5002Z" fill="#464A4D"/>
<path fill-rule="evenodd" clip-rule="evenodd" d="M2.13066 2.13188C3.30456 0.957992 5.22243 0.957992 6.39632 2.13188L8.65672 4.39228C10.7138 3.45579 13.0582 3.37752 15.1682 4.11747C15.5591 4.25455 15.7648 4.68254 15.6277 5.07341C15.4907 5.46429 15.0627 5.67003 14.6718 5.53296C12.7706 4.86621 10.6502 5.00206 8.86227 5.96373C8.57069 6.12056 8.21077 6.06765 7.97666 5.83355L5.33566 3.19254C4.74756 2.60444 3.77943 2.60444 3.19132 3.19254C2.60322 3.78065 2.60322 4.74878 3.19132 5.33688L5.83232 7.97789C6.06643 8.212 6.11934 8.57191 5.96251 8.86349C5.00083 10.6514 4.86499 12.7718 5.53173 14.673C5.66881 15.0639 5.46307 15.4919 5.07219 15.629C4.68132 15.766 4.25333 15.5603 4.11625 15.1694C3.37629 13.0594 3.45457 10.715 4.39106 8.65794L2.13066 6.39754C0.956771 5.22365 0.956771 3.30578 2.13066 2.13188Z" fill="#464A4D"/>
<path fill-rule="evenodd" clip-rule="evenodd" d="M14.3896 4.29391C14.5935 4.09001 14.8961 4.02201 15.1682 4.11747C16.3461 4.53078 17.4658 5.18738 18.4153 6.13688L19.2163 6.93788C21.7322 9.45372 22.3713 13.1564 21.1452 16.274C21.0524 16.5115 20.9483 16.7437 20.8355 16.9703C20.6509 17.3412 20.2007 17.4922 19.8299 17.3077C19.459 17.1231 19.308 16.6729 19.4925 16.3021C19.5876 16.111 19.6733 15.9195 19.7484 15.7273L19.7491 15.7256C20.7665 13.1393 20.2316 10.0745 18.1557 7.99854L17.3547 7.19755C16.6948 6.53772 15.9291 6.04488 15.1059 5.69903L5.69988 15.106C6.0458 15.9289 6.53868 16.6952 7.19832 17.3549L7.99932 18.1559C10.0753 20.2318 13.1391 20.7668 15.7265 19.7493C15.92 19.6729 16.1096 19.5889 16.2946 19.4964C16.6651 19.3112 17.1156 19.4613 17.3008 19.8318C17.4861 20.2023 17.3359 20.6528 16.9654 20.838C16.7386 20.9515 16.5084 21.0533 16.2761 21.1449C13.1575 22.3714 9.45473 21.7326 6.93866 19.2165L6.13766 18.4155C5.18804 17.4659 4.53058 16.3453 4.11737 15.1687C4.0218 14.8966 4.09072 14.5938 4.29464 14.3899L14.3896 4.29391Z" fill="#464A4D"/>
</svg>
