<svg width="24" height="24" viewBox="0 0 24 24" fill="none" xmlns="http://www.w3.org/2000/svg">
<path d="M20.096 13.7091L20.556 13.2491C20.947 12.8591 20.947 12.2261 20.556 11.8351C20.167 11.4451 19.539 11.4461 19.148 11.8301L18.378 10.3041L21.245 7.04108C22.314 5.82108 22.24 3.98308 21.074 2.85508C19.947 1.76608 18.141 1.71908 16.961 2.75208L13.685 5.61908L12.171 4.85608C12.557 4.46508 12.557 3.83608 12.168 3.44708C11.779 3.05808 11.145 3.05608 10.754 3.44708L10.292 3.90908L7.64701 2.57708C7.26201 2.38308 6.79501 2.45808 6.49001 2.76308L4.90301 4.34908C4.70201 4.55008 4.59601 4.82608 4.61101 5.10908C4.62601 5.39308 4.76001 5.65608 4.98101 5.83408L6.85401 7.34608L6.56001 7.64008C6.16901 8.03108 6.16901 8.66308 6.56001 9.05408C6.75501 9.24908 7.01101 9.34708 7.26701 9.34708C7.52301 9.34708 7.77901 9.24908 7.97401 9.05408L8.41901 8.60908L10.024 9.90508L7.80201 12.6271L3.01001 12.5801C2.59601 12.6131 2.21201 12.8361 2.06401 13.2291C1.91701 13.6231 2.03101 14.0671 2.35101 14.3391L6.28901 17.7061L9.64901 21.6321C9.65601 21.6401 9.66701 21.6431 9.67401 21.6511C9.68501 21.6631 9.68901 21.6791 9.70001 21.6901L9.71001 21.7001C9.74701 21.7371 9.78501 21.7711 9.82601 21.8011C9.87301 21.8361 9.92701 21.8541 9.97801 21.8801C9.98801 21.8851 9.99701 21.8911 10.007 21.8951C10.137 21.9541 10.272 21.9951 10.412 21.9951C10.611 21.9951 10.802 21.9171 10.973 21.7981C10.997 21.7821 11.022 21.7691 11.045 21.7501C11.069 21.7301 11.1 21.7211 11.123 21.6981C11.149 21.6721 11.154 21.6361 11.177 21.6081C11.237 21.5351 11.284 21.4541 11.321 21.3671C11.34 21.3201 11.361 21.2771 11.373 21.2281C11.395 21.1431 11.411 21.0561 11.41 20.9661L11.336 16.2121L14.091 13.9641L15.397 15.5801L14.95 16.0271C14.559 16.4181 14.559 17.0501 14.95 17.4411C15.145 17.6361 15.401 17.7341 15.657 17.7341C15.913 17.7341 16.169 17.6361 16.364 17.4411L16.661 17.1441L18.175 19.0171C18.353 19.2371 18.616 19.3711 18.9 19.3871C19.184 19.4021 19.459 19.2961 19.66 19.0951L21.246 17.5101C21.552 17.2051 21.626 16.7391 21.432 16.3531L20.098 13.7081L20.096 13.7091ZM19.031 16.8961L15.013 11.9271C14.846 11.7201 14.604 11.5881 14.339 11.5611C14.067 11.5321 13.809 11.6131 13.604 11.7811L9.69401 14.9711C9.45701 15.1641 9.32201 15.4551 9.32601 15.7611L9.36401 18.2281L7.75601 16.3481C7.72201 16.3091 7.68601 16.2721 7.64601 16.2391L5.73901 14.6091L8.26101 14.6331C8.57401 14.6501 8.85301 14.5011 9.04501 14.2661L12.208 10.3921C12.376 10.1861 12.455 9.92108 12.428 9.65708C12.401 9.39208 12.269 9.14908 12.062 8.98208L7.10301 4.97808L7.39201 4.68908L13.386 7.70908C13.749 7.89208 14.19 7.83708 14.494 7.56808L18.277 4.25708C18.68 3.90308 19.298 3.92008 19.683 4.29208C20.08 4.67708 20.107 5.30508 19.742 5.72108L16.43 9.49108C16.16 9.79808 16.107 10.2371 16.29 10.6011L19.318 16.6071L19.03 16.8951L19.031 16.8961Z" fill="black"/>
</svg>
