<svg width="24" height="24" viewBox="0 0 24 24" fill="none" xmlns="http://www.w3.org/2000/svg">
<path d="M10.1415 20.2821C10.419 20.1771 10.729 20.2476 10.9364 20.4559L10.9374 20.4549L10.9696 20.4871L10.9842 20.5037L11.0711 20.6248C11.2425 20.9205 11.1937 21.304 10.9354 21.5467C10.6402 21.824 10.1779 21.8165 9.89146 21.5301L9.87681 21.5155C9.87075 21.5094 9.86701 21.5012 9.86118 21.495L9.85923 21.4969L9.84458 21.4793L9.84653 21.4774C9.72676 21.341 9.65708 21.1678 9.65708 20.9852V20.9832L9.66587 20.868C9.7068 20.6043 9.88645 20.3787 10.1415 20.2821Z" fill="#464A4D"/>
<path d="M17.337 2.77344C18.4205 1.99488 19.9242 2.08998 20.9014 3.03515L21.0899 3.23633C21.9156 4.20886 21.9732 5.62479 21.2296 6.66113L21.0577 6.87695L18.0802 10.2646L21.2081 16.4678C21.3537 16.7569 21.2974 17.1071 21.0684 17.3359L19.4825 18.9209C19.3321 19.0712 19.1245 19.1509 18.9122 19.1396C18.6999 19.1283 18.5029 19.0266 18.3692 18.8613L14.1261 13.6133L11.0821 16.0957L11.1583 20.9717C11.1632 21.2875 10.9693 21.5726 10.6739 21.6846C10.3783 21.7964 10.0435 21.7108 9.83797 21.4707L6.462 17.5273L2.51278 14.1514C2.27312 13.9465 2.18738 13.6136 2.29793 13.3184C2.40862 13.023 2.69252 12.8279 3.00789 12.8311L7.92 12.8789L10.3761 9.87012L5.13875 5.64062C4.9733 5.50695 4.87265 5.3091 4.86141 5.09668C4.85022 4.88427 4.9297 4.67673 5.08016 4.52637L6.66707 2.94043L6.75789 2.86328C6.98211 2.70119 7.28136 2.67438 7.53426 2.80176L13.7227 5.91894L17.1261 2.94043L17.337 2.77344ZM19.8585 4.11328C19.4069 3.67665 18.7118 3.63235 18.211 3.99219L18.1143 4.06933L14.3311 7.38086C14.1015 7.58184 13.7727 7.62344 13.5001 7.48633L7.34383 4.38476L6.73055 4.99805L11.9054 9.17676C12.0606 9.30211 12.1591 9.48419 12.1798 9.68262C12.2004 9.88116 12.141 10.0798 12.0147 10.2344L8.85262 14.1074C8.70855 14.2838 8.49247 14.385 8.26473 14.3828L5.05477 14.3506L7.48446 16.4277L7.56649 16.5107L9.62606 18.916L9.57723 15.7568C9.57369 15.5276 9.675 15.3091 9.85262 15.1641L13.7618 11.9756L13.8858 11.8936C14.0161 11.8247 14.1648 11.7951 14.3136 11.8105C14.5119 11.8312 14.694 11.9299 14.8194 12.085L19.0108 17.2705L19.6231 16.6572L16.5147 10.4902C16.5099 10.4808 16.5035 10.4716 16.4991 10.4619C16.3777 10.1936 16.424 9.8785 16.6182 9.65723L19.9307 5.88769L20.0098 5.78808C20.3537 5.30918 20.3267 4.65523 19.9454 4.20605L19.8585 4.11328Z" fill="#464A4D"/>
<path d="M10.9881 3.57321C11.2826 3.33328 11.7165 3.35065 11.991 3.62497C12.2839 3.91786 12.2839 4.39262 11.991 4.68551L11.0184 5.65817C10.7255 5.95106 10.2507 5.95106 9.95781 5.65817C9.66509 5.36526 9.66497 4.89046 9.95781 4.59762L10.9305 3.62497L10.9881 3.57321Z" fill="#464A4D"/>
<path d="M7.81786 6.73697C8.11076 6.4441 8.58553 6.44408 8.87841 6.73697C9.17127 7.02985 9.17127 7.50463 8.87841 7.79751L7.79736 8.87857C7.50447 9.17142 7.0297 9.17142 6.73681 8.87857C6.44392 8.58568 6.44394 8.11092 6.73681 7.81802L7.81786 6.73697Z" fill="#464A4D"/>
<path d="M16.2645 15.0712C16.5591 14.8309 16.9938 14.8484 17.2684 15.123C17.543 15.3976 17.5604 15.8323 17.3201 16.1269L17.2684 16.1835L16.1864 17.2655C15.8935 17.5584 15.4187 17.5584 15.1258 17.2655C14.8329 16.9727 14.8329 16.4979 15.1258 16.205L16.2078 15.123L16.2645 15.0712Z" fill="#464A4D"/>
<path d="M19.3204 12.012C19.6135 11.7193 20.0883 11.7189 20.381 12.012C20.6737 12.305 20.6729 12.7798 20.38 13.0725L19.4074 14.0452C19.1143 14.3378 18.6395 14.3371 18.3468 14.0442C18.0541 13.7512 18.0539 13.2764 18.3468 12.9836L19.3204 12.012Z" fill="#464A4D"/>
</svg>
