<svg width="24" height="24" viewBox="0 0 24 24" fill="none" xmlns="http://www.w3.org/2000/svg">
<path d="M10.1414 20.2821C10.4189 20.1771 10.7289 20.2476 10.9363 20.4559L10.9373 20.4549L10.9695 20.4871L10.9842 20.5037L11.0711 20.6248C11.2424 20.9205 11.1937 21.304 10.9353 21.5467C10.6401 21.824 10.1778 21.8165 9.89138 21.5301L9.87673 21.5155C9.87067 21.5094 9.86694 21.5012 9.86111 21.495L9.85915 21.4969L9.84451 21.4793L9.84646 21.4774C9.72668 21.341 9.65701 21.1678 9.65701 20.9852V20.9832L9.66579 20.868C9.70672 20.6043 9.88637 20.3787 10.1414 20.2821Z" fill="black"/>
<path d="M17.3369 2.77344C18.4204 1.99488 19.9241 2.08998 20.9014 3.03515L21.0898 3.23633C21.9156 4.20886 21.9731 5.62479 21.2295 6.66113L21.0576 6.87695L18.0801 10.2646L21.208 16.4678C21.3536 16.7569 21.2973 17.1071 21.0684 17.3359L19.4824 18.9209C19.332 19.0712 19.1244 19.1509 18.9121 19.1396C18.6999 19.1283 18.5028 19.0266 18.3691 18.8613L14.126 13.6133L11.082 16.0957L11.1582 20.9717C11.1631 21.2875 10.9692 21.5726 10.6738 21.6846C10.3782 21.7964 10.0434 21.7108 9.8379 21.4707L6.46192 17.5273L2.5127 14.1514C2.27304 13.9465 2.18731 13.6136 2.29786 13.3184C2.40855 13.023 2.69244 12.8279 3.00782 12.8311L7.91993 12.8789L10.376 9.87012L5.13868 5.64062C4.97322 5.50695 4.87258 5.3091 4.86133 5.09668C4.85014 4.88427 4.92963 4.67673 5.08008 4.52637L6.667 2.94043L6.75782 2.86328C6.98204 2.70119 7.28128 2.67438 7.53419 2.80176L13.7227 5.91894L17.126 2.94043L17.3369 2.77344ZM19.8584 4.11328C19.4068 3.67665 18.7117 3.63235 18.2109 3.99219L18.1143 4.06933L14.3311 7.38086C14.1014 7.58184 13.7726 7.62344 13.5 7.48633L7.34376 4.38476L6.73047 4.99805L11.9053 9.17676C12.0605 9.30211 12.159 9.48419 12.1797 9.68262C12.2003 9.88116 12.1409 10.0798 12.0147 10.2344L8.85254 14.1074C8.70848 14.2838 8.49239 14.385 8.26465 14.3828L5.05469 14.3506L7.48438 16.4277L7.56641 16.5107L9.62598 18.916L9.57715 15.7568C9.57361 15.5276 9.67492 15.3091 9.85254 15.1641L13.7617 11.9756L13.8857 11.8936C14.016 11.8247 14.1647 11.7951 14.3135 11.8105C14.5119 11.8312 14.694 11.9299 14.8193 12.085L19.0107 17.2705L19.6231 16.6572L16.5147 10.4902C16.5099 10.4808 16.5034 10.4716 16.499 10.4619C16.3776 10.1936 16.4239 9.8785 16.6182 9.65723L19.9307 5.88769L20.0098 5.78808C20.3536 5.30918 20.3267 4.65523 19.9453 4.20605L19.8584 4.11328Z" fill="black"/>
<path d="M10.988 3.57321C11.2825 3.33328 11.7164 3.35065 11.9909 3.62497C12.2838 3.91786 12.2838 4.39262 11.9909 4.68551L11.0183 5.65817C10.7254 5.95106 10.2506 5.95106 9.95773 5.65817C9.66501 5.36526 9.6649 4.89046 9.95773 4.59762L10.9304 3.62497L10.988 3.57321Z" fill="black"/>
<path d="M7.81779 6.73697C8.11068 6.4441 8.58545 6.44408 8.87833 6.73697C9.17119 7.02985 9.17119 7.50463 8.87833 7.79751L7.79728 8.87857C7.50439 9.17142 7.02962 9.17142 6.73673 8.87857C6.44385 8.58568 6.44387 8.11092 6.73673 7.81802L7.81779 6.73697Z" fill="black"/>
<path d="M16.2644 15.0712C16.559 14.8309 16.9937 14.8484 17.2683 15.123C17.5429 15.3976 17.5604 15.8323 17.3201 16.1269L17.2683 16.1835L16.1863 17.2655C15.8934 17.5584 15.4186 17.5584 15.1257 17.2655C14.8328 16.9727 14.8329 16.4979 15.1257 16.205L16.2078 15.123L16.2644 15.0712Z" fill="black"/>
<path d="M19.3204 12.012C19.6134 11.7193 20.0882 11.7189 20.3809 12.012C20.6736 12.305 20.6729 12.7798 20.3799 13.0725L19.4073 14.0452C19.1143 14.3378 18.6395 14.3371 18.3467 14.0442C18.054 13.7512 18.0538 13.2764 18.3467 12.9836L19.3204 12.012Z" fill="black"/>
</svg>
