<svg width="24" height="24" viewBox="0 0 24 24" fill="none" xmlns="http://www.w3.org/2000/svg">
<path d="M20.0961 13.7091L20.5561 13.2491C20.9471 12.8591 20.9471 12.2261 20.5561 11.8351C20.1671 11.4451 19.5391 11.4461 19.1481 11.8301L18.3781 10.3041L21.2451 7.04108C22.3141 5.82108 22.2401 3.98308 21.0741 2.85508C19.9471 1.76608 18.1411 1.71908 16.9611 2.75208L13.6851 5.61908L12.1711 4.85608C12.5571 4.46508 12.5571 3.83608 12.1681 3.44708C11.7791 3.05808 11.1451 3.05608 10.7541 3.44708L10.2921 3.90908L7.64711 2.57708C7.26211 2.38308 6.79511 2.45808 6.49011 2.76308L4.90311 4.34908C4.70211 4.55008 4.59611 4.82608 4.61111 5.10908C4.62611 5.39308 4.76011 5.65608 4.98111 5.83408L6.85411 7.34608L6.56011 7.64008C6.16911 8.03108 6.16911 8.66308 6.56011 9.05408C6.75511 9.24908 7.01111 9.34708 7.26711 9.34708C7.52311 9.34708 7.77911 9.24908 7.97411 9.05408L8.41911 8.60908L10.0241 9.90508L7.80211 12.6271L3.01011 12.5801C2.59611 12.6131 2.21211 12.8361 2.06411 13.2291C1.91711 13.6231 2.03111 14.0671 2.35111 14.3391L6.28911 17.7061L9.64911 21.6321C9.65611 21.6401 9.66711 21.6431 9.67411 21.6511C9.68511 21.6631 9.68911 21.6791 9.70011 21.6901L9.71011 21.7001C9.74711 21.7371 9.78511 21.7711 9.82611 21.8011C9.87311 21.8361 9.92711 21.8541 9.97811 21.8801C9.98811 21.8851 9.99711 21.8911 10.0071 21.8951C10.1371 21.9541 10.2721 21.9951 10.4121 21.9951C10.6111 21.9951 10.8021 21.9171 10.9731 21.7981C10.9971 21.7821 11.0221 21.7691 11.0451 21.7501C11.0691 21.7301 11.1001 21.7211 11.1231 21.6981C11.1491 21.6721 11.1541 21.6361 11.1771 21.6081C11.2371 21.5351 11.2841 21.4541 11.3211 21.3671C11.3401 21.3201 11.3611 21.2771 11.3731 21.2281C11.3951 21.1431 11.4111 21.0561 11.4101 20.9661L11.3361 16.2121L14.0911 13.9641L15.3971 15.5801L14.9501 16.0271C14.5591 16.4181 14.5591 17.0501 14.9501 17.4411C15.1451 17.6361 15.4011 17.7341 15.6571 17.7341C15.9131 17.7341 16.1691 17.6361 16.3641 17.4411L16.6611 17.1441L18.1751 19.0171C18.3531 19.2371 18.6161 19.3711 18.9001 19.3871C19.1841 19.4021 19.4591 19.2961 19.6601 19.0951L21.2461 17.5101C21.5521 17.2051 21.6261 16.7391 21.4321 16.3531L20.0981 13.7081L20.0961 13.7091ZM19.0311 16.8961L15.0131 11.9271C14.8461 11.7201 14.6041 11.5881 14.3391 11.5611C14.0671 11.5321 13.8091 11.6131 13.6041 11.7811L9.69411 14.9711C9.45711 15.1641 9.32211 15.4551 9.32611 15.7611L9.36411 18.2281L7.75611 16.3481C7.72211 16.3091 7.68611 16.2721 7.64611 16.2391L5.73911 14.6091L8.26111 14.6331C8.57411 14.6501 8.85311 14.5011 9.04511 14.2661L12.2081 10.3921C12.3761 10.1861 12.4551 9.92108 12.4281 9.65708C12.4011 9.39208 12.2691 9.14908 12.0621 8.98208L7.10311 4.97808L7.39211 4.68908L13.3861 7.70908C13.7491 7.89208 14.1901 7.83708 14.4941 7.56808L18.2771 4.25708C18.6801 3.90308 19.2981 3.92008 19.6831 4.29208C20.0801 4.67708 20.1071 5.30508 19.7421 5.72108L16.4301 9.49108C16.1601 9.79808 16.1071 10.2371 16.2901 10.6011L19.3181 16.6071L19.0301 16.8951L19.0311 16.8961Z" fill="#464A4D"/>
</svg>
