<svg width="24" height="24" viewBox="0 0 24 24" fill="none" xmlns="http://www.w3.org/2000/svg">
<path d="M17 1.25C18.5188 1.25 19.75 2.48122 19.75 4V20C19.75 21.5188 18.5188 22.75 17 22.75H7C5.48122 22.75 4.25 21.5188 4.25 20V4C4.25 2.48122 5.48122 1.25 7 1.25H17ZM7 2.75C6.30964 2.75 5.75 3.30964 5.75 4V20C5.75 20.6904 6.30964 21.25 7 21.25H17C17.6904 21.25 18.25 20.6904 18.25 20V4C18.25 3.30964 17.6904 2.75 17 2.75H7ZM16 18C16.5523 18 17 18.4477 17 19C17 19.5523 16.5523 20 16 20C15.4477 20 15 19.5523 15 19C15 18.4477 15.4477 18 16 18ZM12 7.25C12.2841 7.25 12.5439 7.41095 12.6709 7.66504L14.6709 11.665C14.7762 11.876 14.7762 12.124 14.6709 12.335L12.6709 16.335C12.5439 16.589 12.2841 16.75 12 16.75C11.7159 16.75 11.4561 16.589 11.3291 16.335L9.3291 12.335C9.22379 12.124 9.22379 11.876 9.3291 11.665L11.3291 7.66504C11.4561 7.41095 11.7159 7.25 12 7.25ZM10.8379 12L12 14.3232L13.1611 12L12 9.67676L10.8379 12ZM8 4C8.55228 4 9 4.44772 9 5C9 5.55228 8.55228 6 8 6C7.44772 6 7 5.55228 7 5C7 4.44772 7.44772 4 8 4Z" fill="black"/>
</svg>
