<svg width="24" height="24" viewBox="0 0 24 24" fill="none" xmlns="http://www.w3.org/2000/svg">
<path fill-rule="evenodd" clip-rule="evenodd" d="M9.6406 7.48466C9.88141 7.3532 10.1748 7.3637 10.4056 7.51205L16.4056 11.3691C16.6202 11.5071 16.75 11.7447 16.75 11.9999C16.75 12.2551 16.6202 12.4928 16.4056 12.6308L10.4056 16.4878C10.1748 16.6362 9.88141 16.6467 9.6406 16.5152C9.3998 16.3838 9.25 16.1313 9.25 15.8569V8.14294C9.25 7.86859 9.3998 7.61613 9.6406 7.48466ZM10.75 9.51667V14.4832L14.613 11.9999L10.75 9.51667Z" fill="black"/>
<path fill-rule="evenodd" clip-rule="evenodd" d="M1.25 12C1.25 6.08579 6.08579 1.25 12 1.25C17.9142 1.25 22.75 6.08579 22.75 12C22.75 17.9142 17.9142 22.75 12 22.75C6.08579 22.75 1.25 17.9142 1.25 12ZM12 2.75C6.91421 2.75 2.75 6.91421 2.75 12C2.75 17.0858 6.91421 21.25 12 21.25C17.0858 21.25 21.25 17.0858 21.25 12C21.25 6.91421 17.0858 2.75 12 2.75Z" fill="black"/>
</svg>
