<svg width="24" height="24" viewBox="0 0 24 24" fill="none" xmlns="http://www.w3.org/2000/svg">
<path d="M14.89 11.55L12.89 7.55004C12.55 6.87004 11.44 6.87004 11.1 7.55004L9.1 11.55C8.96 11.83 8.96 12.16 9.1 12.44L11.1 16.44C11.27 16.78 11.62 16.99 11.99 16.99C12.36 16.99 12.72 16.78 12.88 16.44L14.88 12.44C15.02 12.16 15.02 11.83 14.88 11.55H14.89Z" fill="black"/>
<path d="M17 1H7C5.35 1 4 2.35 4 4V20C4 21.65 5.35 23 7 23H17C18.65 23 20 21.65 20 20V4C20 2.35 18.65 1 17 1ZM18 20C18 20.55 17.55 21 17 21H7C6.45 21 6 20.55 6 20V4C6 3.45 6.45 3 7 3H17C17.55 3 18 3.45 18 4V20Z" fill="black"/>
<path d="M8 6C8.55228 6 9 5.55228 9 5C9 4.44772 8.55228 4 8 4C7.44772 4 7 4.44772 7 5C7 5.55228 7.44772 6 8 6Z" fill="black"/>
<path d="M16 20C16.5523 20 17 19.5523 17 19C17 18.4477 16.5523 18 16 18C15.4477 18 15 18.4477 15 19C15 19.5523 15.4477 20 16 20Z" fill="black"/>
</svg>
