<svg width="24" height="24" viewBox="0 0 24 24" fill="none" xmlns="http://www.w3.org/2000/svg">
<path fill-rule="evenodd" clip-rule="evenodd" d="M17 3.25V4C17 3.25 16.9996 3.25 17 3.25L17.0017 3.25L17.0037 3.25001L17.0089 3.25004L17.0236 3.25022C17.0353 3.25041 17.0508 3.25076 17.0699 3.25139C17.108 3.25266 17.1605 3.25509 17.2253 3.25972C17.3546 3.26896 17.5345 3.28707 17.7483 3.3227C18.1724 3.39339 18.7494 3.53616 19.3354 3.82918C19.9244 4.12367 20.5362 4.57717 20.999 5.27147C21.465 5.97047 21.75 6.86876 21.75 8C21.75 9.09684 21.4803 10.4213 21.2276 11.4319C21.0992 11.9457 20.9709 12.3946 20.8746 12.7155C20.8264 12.8761 20.7861 13.0051 20.7577 13.0946C20.7434 13.1393 20.7321 13.1743 20.7243 13.1983L20.7151 13.2262L20.7126 13.2339L20.7119 13.2361C20.7119 13.2362 20.7115 13.2372 20 13C19.2885 12.7628 19.2885 12.7629 19.2885 12.7629L19.2888 12.7618L19.2906 12.7564L19.2982 12.7333C19.305 12.7125 19.3152 12.681 19.3283 12.6398C19.3545 12.5574 19.3923 12.4364 19.4379 12.2845C19.5291 11.9804 19.6508 11.5543 19.7724 11.0681C20.0197 10.0787 20.25 8.90316 20.25 8C20.25 7.13124 20.035 6.52953 19.751 6.10353C19.4638 5.67283 19.0756 5.37633 18.6646 5.17082C18.3494 5.0132 18.0289 4.91343 17.75 4.85082V17H16.25V3.25H17ZM16.9969 4.74999C16.9969 4.74999 16.9969 4.74999 16.9969 4.74999V4.74999Z" fill="black"/>
<path fill-rule="evenodd" clip-rule="evenodd" d="M14 6.75H2V5.25H14V6.75Z" fill="black"/>
<path fill-rule="evenodd" clip-rule="evenodd" d="M14 10.75H2V9.25H14V10.75Z" fill="black"/>
<path fill-rule="evenodd" clip-rule="evenodd" d="M9 14.75H2V13.25H9V14.75Z" fill="black"/>
<path fill-rule="evenodd" clip-rule="evenodd" d="M14 14.75C12.7574 14.75 11.75 15.7574 11.75 17C11.75 18.2426 12.7574 19.25 14 19.25C15.2426 19.25 16.25 18.2426 16.25 17C16.25 15.7574 15.2426 14.75 14 14.75ZM10.25 17C10.25 14.9289 11.9289 13.25 14 13.25C16.0711 13.25 17.75 14.9289 17.75 17C17.75 19.0711 16.0711 20.75 14 20.75C11.9289 20.75 10.25 19.0711 10.25 17Z" fill="black"/>
</svg>
