<svg width="24" height="24" viewBox="0 0 24 24" fill="none" xmlns="http://www.w3.org/2000/svg">
<path fill-rule="evenodd" clip-rule="evenodd" d="M1.25 11.5C1.25 5.58579 6.08579 0.75 12 0.75C17.9142 0.75 22.75 5.58579 22.75 11.5C22.75 17.4142 17.9142 22.25 12 22.25C6.08579 22.25 1.25 17.4142 1.25 11.5ZM12 2.25C6.91421 2.25 2.75 6.41421 2.75 11.5C2.75 16.5858 6.91421 20.75 12 20.75C17.0858 20.75 21.25 16.5858 21.25 11.5C21.25 6.41421 17.0858 2.25 12 2.25Z" fill="black"/>
<path fill-rule="evenodd" clip-rule="evenodd" d="M11.25 15.5V7.5H12.75V15.5H11.25Z" fill="black"/>
<path fill-rule="evenodd" clip-rule="evenodd" d="M8 10.75H16V12.25H8V10.75Z" fill="black"/>
</svg>
