<svg width="24" height="24" viewBox="0 0 24 24" fill="none" xmlns="http://www.w3.org/2000/svg">
<path fill-rule="evenodd" clip-rule="evenodd" d="M7.98394 16.7506C7.44033 16.739 6.92641 16.9959 6.60959 17.4378C6.00754 18.2775 5.03248 18.7679 4.00006 18.7509C2.96764 18.7679 1.99257 18.2775 1.39053 17.4378C1.14918 17.1012 1.22642 16.6326 1.56305 16.3913C1.89969 16.1499 2.36824 16.2272 2.60959 16.5638C2.92641 17.0057 3.44033 17.2627 3.98394 17.251C3.99468 17.2508 4.00543 17.2508 4.01617 17.251C4.55979 17.2627 5.0737 17.0057 5.39053 16.5638C5.99257 15.7241 6.96764 15.2338 8.00006 15.2507C9.03248 15.2338 10.0075 15.7241 10.6096 16.5638C10.9264 17.0057 11.4403 17.2627 11.9839 17.251C11.9947 17.2508 12.0054 17.2508 12.0162 17.251C12.5598 17.2627 13.0737 17.0057 13.3905 16.5638C13.9926 15.7241 14.9676 15.2338 16.0001 15.2507C17.0325 15.2338 18.0075 15.7241 18.6096 16.5638C18.9264 17.0057 19.4403 17.2627 19.9839 17.251C19.9947 17.2508 20.0054 17.2508 20.0162 17.251C20.5598 17.2627 21.0737 17.0057 21.3905 16.5638C21.6319 16.2272 22.1004 16.1499 22.4371 16.3913C22.7737 16.6326 22.8509 17.1012 22.6096 17.4378C22.0075 18.2775 21.0325 18.7679 20.0001 18.7509C18.9676 18.7679 17.9926 18.2775 17.3905 17.4378C17.0737 16.9959 16.5598 16.739 16.0162 16.7506C16.0054 16.7509 15.9947 16.7509 15.9839 16.7506C15.4403 16.739 14.9264 16.9959 14.6096 17.4378C14.0075 18.2775 13.0325 18.7679 12.0001 18.7509C10.9676 18.7679 9.99257 18.2775 9.39053 17.4378C9.0737 16.9959 8.55979 16.739 8.01617 16.7506C8.00543 16.7509 7.99468 16.7509 7.98394 16.7506Z" fill="#464A4D"/>
<path fill-rule="evenodd" clip-rule="evenodd" d="M3.25006 6.50982C3.25006 5.01126 4.51815 3.86182 6.00006 3.86182C7.48196 3.86182 8.75006 5.01126 8.75006 6.50982V15.9998C8.75006 16.414 8.41427 16.7498 8.00006 16.7498C7.58584 16.7498 7.25006 16.414 7.25006 15.9998V6.50982C7.25006 5.91238 6.72815 5.36182 6.00006 5.36182C5.27196 5.36182 4.75006 5.91238 4.75006 6.50982C4.75006 6.92403 4.41427 7.25982 4.00006 7.25982C3.58584 7.25982 3.25006 6.92403 3.25006 6.50982Z" fill="#464A4D"/>
<path fill-rule="evenodd" clip-rule="evenodd" d="M7.25006 8.99982C7.25006 8.5856 7.58584 8.24982 8.00006 8.24982H16.0001C16.4143 8.24982 16.7501 8.5856 16.7501 8.99982C16.7501 9.41403 16.4143 9.74982 16.0001 9.74982H8.00006C7.58584 9.74982 7.25006 9.41403 7.25006 8.99982Z" fill="#464A4D"/>
<path fill-rule="evenodd" clip-rule="evenodd" d="M7.25006 12.9998C7.25006 12.5856 7.58584 12.2498 8.00006 12.2498H16.0001C16.4143 12.2498 16.7501 12.5856 16.7501 12.9998C16.7501 13.414 16.4143 13.7498 16.0001 13.7498H8.00006C7.58584 13.7498 7.25006 13.414 7.25006 12.9998Z" fill="#464A4D"/>
<path fill-rule="evenodd" clip-rule="evenodd" d="M11.2501 6.50982C11.2501 5.01126 12.5182 3.86182 14.0001 3.86182C15.482 3.86182 16.7501 5.01126 16.7501 6.50982V15.9998C16.7501 16.414 16.4143 16.7498 16.0001 16.7498C15.5858 16.7498 15.2501 16.414 15.2501 15.9998V6.50982C15.2501 5.91238 14.7282 5.36182 14.0001 5.36182C13.272 5.36182 12.7501 5.91238 12.7501 6.50982C12.7501 6.92403 12.4143 7.25982 12.0001 7.25982C11.5858 7.25982 11.2501 6.92403 11.2501 6.50982Z" fill="#464A4D"/>
</svg>
