<svg width="24" height="24" viewBox="0 0 24 24" fill="none" xmlns="http://www.w3.org/2000/svg">
<path d="M22.583 16.1878C22.134 15.8648 21.509 15.9668 21.187 16.4168C20.923 16.7838 20.5 17.0008 20.01 17.0008C19.989 17.0008 19.966 17.0008 19.948 17.0008C19.498 17.0008 19.074 16.7838 18.811 16.4168C18.359 15.7868 17.71 15.3528 16.999 15.1438V6.50982C16.999 4.91182 15.653 3.61182 13.999 3.61182C12.345 3.61182 10.999 4.91182 10.999 6.50982C10.999 7.06182 11.447 7.50982 11.999 7.50982C12.551 7.50982 12.999 7.06182 12.999 6.50982C12.999 6.01482 13.447 5.61182 13.999 5.61182C14.551 5.61182 14.999 6.01482 14.999 6.50982V7.99982H8.999V6.50982C8.999 4.91182 7.653 3.61182 5.999 3.61182C4.345 3.61182 2.999 4.91182 2.999 6.50982C2.999 7.06182 3.447 7.50982 3.999 7.50982C4.551 7.50982 4.999 7.06182 4.999 6.50982C4.999 6.01482 5.448 5.61182 5.999 5.61182C6.55 5.61182 6.999 6.01482 6.999 6.50982V15.1718C6.283 15.3838 5.633 15.7948 5.187 16.4178C4.918 16.7928 4.46 16.9958 3.979 17.0008C3.507 16.9978 3.081 16.7928 2.812 16.4178C2.49 15.9688 1.865 15.8648 1.416 16.1888C0.966999 16.5108 0.864999 17.1348 1.187 17.5848C1.84 18.4958 2.913 19.0178 3.979 19.0018C5.111 19.0088 6.159 18.4958 6.812 17.5848C7.081 17.2088 7.509 16.9968 8.02 17.0018C8.478 16.9988 8.917 17.2098 9.187 17.5848C9.84 18.4958 10.895 19.0178 11.979 19.0018C13.09 18.9978 14.158 18.4958 14.812 17.5848C15.082 17.2108 15.525 17.0008 16.02 17.0018C16.509 16.9938 16.918 17.2088 17.187 17.5848C17.827 18.4768 18.854 19.0028 19.91 19.0028H20.051C21.145 19.0028 22.173 18.4768 22.813 17.5848C23.135 17.1358 23.032 16.5118 22.584 16.1888L22.583 16.1878ZM15 9.99982V11.9998H9V9.99982H15ZM13.188 16.4178C12.918 16.7928 12.469 16.9958 11.98 17.0008C11.52 16.9978 11.083 16.7928 10.813 16.4178C10.362 15.7878 9.713 15.3678 9.001 15.1588V13.9998H15.001V15.1508C14.282 15.3618 13.637 15.7928 13.189 16.4178H13.188Z" fill="black"/>
</svg>
