<svg width="24" height="24" viewBox="0 0 24 24" fill="none" xmlns="http://www.w3.org/2000/svg">
<path fill-rule="evenodd" clip-rule="evenodd" d="M7.98388 16.7506C7.44026 16.739 6.92635 16.9959 6.60953 17.4378C6.00748 18.2775 5.03242 18.7679 4 18.7509C2.96757 18.7679 1.99251 18.2775 1.39047 17.4378C1.14911 17.1012 1.22636 16.6326 1.56299 16.3913C1.89963 16.1499 2.36818 16.2272 2.60953 16.5638C2.92635 17.0057 3.44026 17.2627 3.98388 17.251C3.99462 17.2508 4.00537 17.2508 4.01611 17.251C4.55973 17.2627 5.07364 17.0057 5.39047 16.5638C5.99251 15.7241 6.96757 15.2338 8 15.2507C9.03242 15.2338 10.0075 15.7241 10.6095 16.5638C10.9264 17.0057 11.4403 17.2627 11.9839 17.251C11.9946 17.2508 12.0054 17.2508 12.0161 17.251C12.5597 17.2627 13.0736 17.0057 13.3905 16.5638C13.9925 15.7241 14.9676 15.2338 16 15.2507C17.0324 15.2338 18.0075 15.7241 18.6095 16.5638C18.9263 17.0057 19.4403 17.2627 19.9839 17.251C19.9946 17.2508 20.0054 17.2508 20.0161 17.251C20.5597 17.2627 21.0736 17.0057 21.3905 16.5638C21.6318 16.2272 22.1004 16.1499 22.437 16.3913C22.7736 16.6326 22.8509 17.1012 22.6095 17.4378C22.0075 18.2775 21.0324 18.7679 20 18.7509C18.9676 18.7679 17.9925 18.2775 17.3905 17.4378C17.0736 16.9959 16.5597 16.739 16.0161 16.7506C16.0054 16.7509 15.9946 16.7509 15.9839 16.7506C15.4403 16.739 14.9264 16.9959 14.6095 17.4378C14.0075 18.2775 13.0324 18.7679 12 18.7509C10.9676 18.7679 9.99251 18.2775 9.39047 17.4378C9.07364 16.9959 8.55973 16.739 8.01611 16.7506C8.00537 16.7509 7.99462 16.7509 7.98388 16.7506Z" fill="black"/>
<path fill-rule="evenodd" clip-rule="evenodd" d="M3.25 6.50982C3.25 5.01126 4.51809 3.86182 6 3.86182C7.4819 3.86182 8.75 5.01126 8.75 6.50982V15.9998C8.75 16.414 8.41421 16.7498 8 16.7498C7.58578 16.7498 7.25 16.414 7.25 15.9998V6.50982C7.25 5.91238 6.72809 5.36182 6 5.36182C5.2719 5.36182 4.75 5.91238 4.75 6.50982C4.75 6.92403 4.41421 7.25982 4 7.25982C3.58578 7.25982 3.25 6.92403 3.25 6.50982Z" fill="black"/>
<path fill-rule="evenodd" clip-rule="evenodd" d="M7.25 8.99982C7.25 8.5856 7.58578 8.24982 8 8.24982H16C16.4142 8.24982 16.75 8.5856 16.75 8.99982C16.75 9.41403 16.4142 9.74982 16 9.74982H8C7.58578 9.74982 7.25 9.41403 7.25 8.99982Z" fill="black"/>
<path fill-rule="evenodd" clip-rule="evenodd" d="M7.25 12.9998C7.25 12.5856 7.58578 12.2498 8 12.2498H16C16.4142 12.2498 16.75 12.5856 16.75 12.9998C16.75 13.414 16.4142 13.7498 16 13.7498H8C7.58578 13.7498 7.25 13.414 7.25 12.9998Z" fill="black"/>
<path fill-rule="evenodd" clip-rule="evenodd" d="M11.25 6.50982C11.25 5.01126 12.5181 3.86182 14 3.86182C15.4819 3.86182 16.75 5.01126 16.75 6.50982V15.9998C16.75 16.414 16.4142 16.7498 16 16.7498C15.5858 16.7498 15.25 16.414 15.25 15.9998V6.50982C15.25 5.91238 14.7281 5.36182 14 5.36182C13.2719 5.36182 12.75 5.91238 12.75 6.50982C12.75 6.92403 12.4142 7.25982 12 7.25982C11.5858 7.25982 11.25 6.92403 11.25 6.50982Z" fill="black"/>
</svg>
