<svg width="24" height="24" viewBox="0 0 24 24" fill="none" xmlns="http://www.w3.org/2000/svg">
<path d="M22.5831 16.1878C22.1341 15.8648 21.5091 15.9668 21.1871 16.4168C20.9231 16.7838 20.5001 17.0008 20.0101 17.0008C19.9891 17.0008 19.9661 17.0008 19.9481 17.0008C19.4981 17.0008 19.0741 16.7838 18.8111 16.4168C18.3591 15.7868 17.7101 15.3528 16.9991 15.1438V6.50982C16.9991 4.91182 15.6531 3.61182 13.9991 3.61182C12.3451 3.61182 10.9991 4.91182 10.9991 6.50982C10.9991 7.06182 11.4471 7.50982 11.9991 7.50982C12.5511 7.50982 12.9991 7.06182 12.9991 6.50982C12.9991 6.01482 13.4471 5.61182 13.9991 5.61182C14.5511 5.61182 14.9991 6.01482 14.9991 6.50982V7.99982H8.99912V6.50982C8.99912 4.91182 7.65312 3.61182 5.99912 3.61182C4.34512 3.61182 2.99912 4.91182 2.99912 6.50982C2.99912 7.06182 3.44712 7.50982 3.99912 7.50982C4.55112 7.50982 4.99912 7.06182 4.99912 6.50982C4.99912 6.01482 5.44812 5.61182 5.99912 5.61182C6.55012 5.61182 6.99912 6.01482 6.99912 6.50982V15.1718C6.28312 15.3838 5.63312 15.7948 5.18712 16.4178C4.91812 16.7928 4.46012 16.9958 3.97912 17.0008C3.50712 16.9978 3.08112 16.7928 2.81212 16.4178C2.49012 15.9688 1.86512 15.8648 1.41612 16.1888C0.967121 16.5108 0.865121 17.1348 1.18712 17.5848C1.84012 18.4958 2.91312 19.0178 3.97912 19.0018C5.11112 19.0088 6.15912 18.4958 6.81212 17.5848C7.08112 17.2088 7.50912 16.9968 8.02012 17.0018C8.47812 16.9988 8.91712 17.2098 9.18712 17.5848C9.84012 18.4958 10.8951 19.0178 11.9791 19.0018C13.0901 18.9978 14.1581 18.4958 14.8121 17.5848C15.0821 17.2108 15.5251 17.0008 16.0201 17.0018C16.5091 16.9938 16.9181 17.2088 17.1871 17.5848C17.8271 18.4768 18.8541 19.0028 19.9101 19.0028H20.0511C21.1451 19.0028 22.1731 18.4768 22.8131 17.5848C23.1351 17.1358 23.0321 16.5118 22.5841 16.1888L22.5831 16.1878ZM15.0001 9.99982V11.9998H9.00012V9.99982H15.0001ZM13.1881 16.4178C12.9181 16.7928 12.4691 16.9958 11.9801 17.0008C11.5201 16.9978 11.0831 16.7928 10.8131 16.4178C10.3621 15.7878 9.71312 15.3678 9.00112 15.1588V13.9998H15.0011V15.1508C14.2821 15.3618 13.6371 15.7928 13.1891 16.4178H13.1881Z" fill="#464A4D"/>
</svg>
