<svg width="24" height="24" viewBox="0 0 24 24" fill="none" xmlns="http://www.w3.org/2000/svg">
<path d="M15.4297 13.5098C15.4297 11.8757 16.7556 10.55 18.3896 10.5498H20.1904V6.51953H15.4102C14.9959 6.51953 14.6602 6.18374 14.6602 5.76953V4.21973C14.6601 3.41402 14.0059 2.75987 13.2002 2.75977C12.3944 2.75977 11.7403 3.41396 11.7402 4.21973V5.76953C11.7402 6.18367 11.4043 6.5194 10.9902 6.51953H6.20996V11.2998C6.20994 11.714 5.87416 12.0498 5.45996 12.0498H3.45996C2.65419 12.0498 2 12.704 2 13.5098C2 14.3155 2.65419 14.9697 3.45996 14.9697H5.45996C5.87416 14.9697 6.20994 15.3055 6.20996 15.7197V20.5H10.2402V18.7002C10.2402 17.066 11.566 15.7402 13.2002 15.7402C14.8343 15.7403 16.1602 17.066 16.1602 18.7002V20.5H20.1904V16.4697H18.3896C16.7556 16.4695 15.4297 15.1439 15.4297 13.5098ZM16.1602 5.01953H20.9404C21.3544 5.01976 21.6903 5.35557 21.6904 5.76953V11.2998C21.6904 11.7139 21.3544 12.0496 20.9404 12.0498H18.3896C17.584 12.05 16.9297 12.7041 16.9297 13.5098C16.9297 14.3154 17.584 14.9695 18.3896 14.9697H20.9404C21.3544 14.97 21.6904 15.3057 21.6904 15.7197V21.25C21.6903 21.664 21.3544 21.9998 20.9404 22H15.4102C14.996 22 14.6603 21.6641 14.6602 21.25V18.7002C14.6602 17.8945 14.0059 17.2403 13.2002 17.2402C12.3944 17.2402 11.7402 17.8944 11.7402 18.7002V21.25C11.7401 21.664 11.4043 21.9999 10.9902 22H5.45996C5.04584 22 4.71009 21.6641 4.70996 21.25V16.4697H3.45996C1.82577 16.4697 0.5 15.144 0.5 13.5098C0.5 11.8756 1.82577 10.5498 3.45996 10.5498H4.70996V5.76953C4.71009 5.35544 5.04584 5.01955 5.45996 5.01953H10.2402V4.21973C10.2403 2.58553 11.566 1.25977 13.2002 1.25977C14.8343 1.25987 16.1601 2.5856 16.1602 4.21973V5.01953Z" fill="black"/>
</svg>
