<svg width="24" height="24" viewBox="0 0 24 24" fill="none" xmlns="http://www.w3.org/2000/svg">
<path d="M18.39 12.2998H20.94C21.49 12.2998 21.94 11.8498 21.94 11.2998V5.76977C21.94 5.21977 21.49 4.76977 20.94 4.76977H16.41V4.21977C16.41 2.44977 14.97 1.00977 13.2 1.00977C11.43 1.00977 9.99 2.44977 9.99 4.21977V4.76977H5.46C4.91 4.76977 4.46 5.21977 4.46 5.76977V10.2998H3.46C1.69 10.2998 0.25 11.7398 0.25 13.5098C0.25 15.2798 1.69 16.7198 3.46 16.7198H4.46V21.2498C4.46 21.7998 4.91 22.2498 5.46 22.2498H10.99C11.54 22.2498 11.99 21.7998 11.99 21.2498V18.6998C11.99 18.0298 12.53 17.4898 13.2 17.4898C13.87 17.4898 14.41 18.0298 14.41 18.6998V21.2498C14.41 21.7998 14.86 22.2498 15.41 22.2498H20.94C21.49 22.2498 21.94 21.7998 21.94 21.2498V15.7198C21.94 15.1698 21.49 14.7198 20.94 14.7198H18.39C17.72 14.7198 17.18 14.1798 17.18 13.5098C17.18 12.8398 17.72 12.2998 18.39 12.2998Z" fill="black"/>
</svg>
