<svg width="24" height="24" viewBox="0 0 24 24" fill="none" xmlns="http://www.w3.org/2000/svg">
<path d="M5 9.30005C5 8.70005 5.2 8.20005 5.7 7.60005C6.3 7.10005 6.9 6.90005 7.5 6.90005H17.7L15.3 9.30005L16.7 10.7L21.4 6.00005L16.7 1.30005L15.3 2.70005L17.5 4.90005H7.5C6.4 4.90005 5.3 5.30005 4.3 6.10005H4.2C3.4 7.20005 3 8.20005 3 9.30005V11H5V9.30005Z" fill="black"/>
<path d="M19 14.7C19 15.3 18.8 15.8 18.3 16.4C17.8 16.9 17.1 17.1 16.5 17.1H6.29998L8.69998 14.7L7.29998 13.3L2.59998 18L7.29998 22.7L8.69998 21.3L6.49998 19.1H16.5C17.6 19.1 18.7 18.7 19.7 17.9H19.8C20.6 16.8 21 15.8 21 14.7V13H19V14.7Z" fill="black"/>
</svg>
