<svg width="24" height="24" viewBox="0 0 24 24" fill="none" xmlns="http://www.w3.org/2000/svg">
<path fill-rule="evenodd" clip-rule="evenodd" d="M18.9393 6.00006L15.4697 2.53039L16.5303 1.46973L21.0607 6.00006L16.5303 10.5304L15.4697 9.46973L18.9393 6.00006Z" fill="black"/>
<path fill-rule="evenodd" clip-rule="evenodd" d="M5.53172 7.43263C6.11858 6.9447 6.83246 6.65002 7.5 6.65002H19.9V5.15002H7.5C6.38418 5.15002 5.31702 5.64048 4.51191 6.33058L4.4681 6.36813L4.43056 6.41193C3.7575 7.19717 3.25 8.16394 3.25 9.30002V11H4.75V9.30002C4.75 8.65212 5.02856 8.03345 5.53172 7.43263Z" fill="black"/>
<path fill-rule="evenodd" clip-rule="evenodd" d="M5.06065 18.0001L8.53032 14.5304L7.46966 13.4697L2.93933 18.0001L7.46966 22.5304L8.53032 21.4697L5.06065 18.0001Z" fill="black"/>
<path fill-rule="evenodd" clip-rule="evenodd" d="M19.25 14.7V13H20.75V14.7C20.75 15.8361 20.2425 16.8029 19.5694 17.5881L19.5319 17.6319L19.4881 17.6694C18.683 18.3595 17.6158 18.85 16.5 18.85H4V17.35H16.5C17.1675 17.35 17.8814 17.0553 18.4683 16.5674C18.9714 15.9666 19.25 15.3479 19.25 14.7Z" fill="black"/>
</svg>
