<svg width="24" height="24" viewBox="0 0 24 24" fill="none" xmlns="http://www.w3.org/2000/svg">
<path d="M11 7.147V4C11 3.607 10.771 3.251 10.413 3.089C10.056 2.927 9.637 2.989 9.341 3.247L1.341 10.248C1.124 10.438 1 10.712 1 11C1 11.288 1.125 11.562 1.341 11.752L9.341 18.752C9.637 19.01 10.055 19.072 10.413 18.909C10.77 18.747 11 18.391 11 17.999V15.016C14.681 15.145 17.562 16.081 20.2 19.599C20.392 19.856 20.691 19.999 21 19.999C21.105 19.999 21.212 19.982 21.316 19.947C21.724 19.811 22 19.429 22 18.999C22 10.058 16.472 8.068 11 7.147Z" fill="#464A4D"/>
</svg>
