<svg width="24" height="24" viewBox="0 0 24 24" fill="none" xmlns="http://www.w3.org/2000/svg">
<path fill-rule="evenodd" clip-rule="evenodd" d="M19.9394 6.00006L16.4697 2.53039L17.5304 1.46973L22.0607 6.00006L17.5304 10.5304L16.4697 9.46973L19.9394 6.00006Z" fill="black"/>
<path fill-rule="evenodd" clip-rule="evenodd" d="M14.25 13.75H13V12.25H15.75V20H14.25V13.75Z" fill="black"/>
<path fill-rule="evenodd" clip-rule="evenodd" d="M17.9096 12.9077C18.3316 12.4872 18.9028 12.25 19.5 12.25C20.0965 12.25 20.6694 12.4867 21.0913 12.9087L21.0923 12.9096C21.5128 13.3316 21.75 13.9028 21.75 14.5V17.5C21.75 18.0965 21.5133 18.6694 21.0913 19.0913L21.0904 19.0923C20.6684 19.5128 20.0972 19.75 19.5 19.75C18.9035 19.75 18.3306 19.5133 17.9087 19.0913L17.9077 19.0904C17.4872 18.6684 17.25 18.0972 17.25 17.5V14.5C17.25 13.9035 17.4867 13.3306 17.9087 12.9087L17.9096 12.9077L17.9096 12.9077ZM18.9689 13.9698C18.8291 14.1098 18.75 14.3007 18.75 14.5V17.5C18.75 17.6986 18.8286 17.8892 18.9698 18.0312C19.1098 18.1709 19.3007 18.25 19.5 18.25C19.6986 18.25 19.8892 18.1714 20.0311 18.0302C20.1709 17.8902 20.25 17.6993 20.25 17.5V14.5C20.25 14.3014 20.1714 14.1108 20.0302 13.9689C19.8902 13.8291 19.6993 13.75 19.5 13.75C19.3014 13.75 19.1108 13.8286 18.9689 13.9698Z" fill="black"/>
<path fill-rule="evenodd" clip-rule="evenodd" d="M8.99801 5.25001L9.00001 5.25L21 5.25V6.75H9.00103C7.68586 6.75375 6.42016 7.24999 5.4547 8.14112C4.48833 9.03309 3.89076 10.2548 3.78141 11.5644C3.67203 12.8743 4.05793 14.1782 4.86299 15.2178C5.66235 16.25 7.26486 17.25 9.00001 17.25H11V18.75H9.00001C6.73515 18.75 4.71767 17.48 3.67703 16.1362C2.64208 14.7998 2.14599 13.1237 2.28661 11.4396C2.42726 9.75518 3.19568 8.18492 4.43732 7.03888C5.67962 5.89223 7.30753 5.2545 8.99801 5.25001Z" fill="black"/>
</svg>
