<svg width="24" height="24" viewBox="0 0 24 24" fill="none" xmlns="http://www.w3.org/2000/svg">
<path d="M17.707 10.707L22.414 5.99997L17.707 1.29297L16.293 2.70697L18.586 4.99997H8.99798C7.23898 5.00397 5.55898 5.66397 4.26798 6.85497C2.97598 8.04697 2.18398 9.66797 2.03798 11.419C1.89198 13.171 2.40398 14.9 3.47898 16.289C4.44698 17.539 6.47398 19 8.99998 19H11V17H8.99998C7.31298 17 5.80698 16.028 5.06098 15.064C4.29198 14.072 3.92698 12.836 4.03098 11.585C4.13498 10.335 4.70098 9.17697 5.62398 8.32497C6.54598 7.47397 7.74598 7.00397 8.99998 6.99997H18.586L16.293 9.29297L17.707 10.707Z" fill="black"/>
<path d="M13 14H14V20H16V12H13V14Z" fill="black"/>
<path d="M17.733 12.731C17.267 13.195 17 13.841 17 14.5V17.5C17 18.168 17.26 18.795 17.731 19.267C18.195 19.733 18.84 20 19.5 20C20.168 20 20.795 19.74 21.267 19.269C21.733 18.805 22 18.16 22 17.5V14.5C22 13.832 21.74 13.205 21.269 12.733C20.334 11.795 18.669 11.795 17.733 12.731ZM20 17.5C20 17.632 19.947 17.76 19.854 17.854C19.666 18.042 19.336 18.042 19.147 17.854C19.052 17.759 19.001 17.634 19.001 17.5V14.5C19.001 14.368 19.054 14.24 19.147 14.146C19.242 14.051 19.367 14 19.501 14C19.633 14 19.761 14.053 19.855 14.146C19.95 14.241 20.001 14.366 20.001 14.5L20 17.5Z" fill="black"/>
</svg>
