<svg width="24" height="24" viewBox="0 0 24 24" fill="none" xmlns="http://www.w3.org/2000/svg">
<path d="M2 14H3V20H5V12H2V14Z" fill="black"/>
<path d="M6.732 12.732C6.267 13.196 6 13.841 6 14.5V17.5C6 18.167 6.26 18.795 6.732 19.268C7.197 19.734 7.842 20 8.5 20C9.167 20 9.794 19.74 10.268 19.269C10.733 18.804 11 18.16 11 17.5V14.5C11 13.833 10.74 13.205 10.268 12.732C9.332 11.796 7.674 11.794 6.732 12.732ZM9 17.5C9 17.632 8.947 17.761 8.855 17.853C8.665 18.041 8.333 18.041 8.147 17.855C8.053 17.76 8.001 17.634 8.001 17.501V14.501C8.001 14.369 8.054 14.24 8.146 14.148C8.242 14.053 8.368 14.001 8.501 14.001C8.633 14.001 8.762 14.055 8.855 14.147C8.949 14.242 9.001 14.368 9.001 14.501V17.501L9 17.5Z" fill="black"/>
<path d="M21.9621 11.419C21.8161 9.66797 21.0241 8.04697 19.7331 6.85497C18.4421 5.66397 16.7621 5.00397 15.0011 4.99997H5.41406L7.70706 2.70697L6.29306 1.29297L1.58606 5.99997L6.29306 10.707L7.70706 9.29297L5.41406 6.99997H14.9971C16.2541 7.00297 17.4541 7.47397 18.3761 8.32497C19.2991 9.17697 19.8651 10.335 19.9701 11.585C20.0741 12.837 19.7081 14.072 18.9411 15.064C18.1941 16.027 16.6861 17 15.0011 17H13.0011V19H15.0011C17.5251 19 19.5531 17.54 20.5221 16.289C21.5971 14.9 22.1091 13.171 21.9621 11.419Z" fill="black"/>
</svg>
