<svg width="24" height="24" viewBox="0 0 24 24" fill="none" xmlns="http://www.w3.org/2000/svg">
<path fill-rule="evenodd" clip-rule="evenodd" d="M4.06065 6.00006L7.53032 2.53039L6.46966 1.46973L1.93933 6.00006L6.46966 10.5304L7.53032 9.46973L4.06065 6.00006Z" fill="black"/>
<path fill-rule="evenodd" clip-rule="evenodd" d="M3.25 13.75H2V12.25H4.75V20H3.25V13.75Z" fill="black"/>
<path fill-rule="evenodd" clip-rule="evenodd" d="M6.90961 12.9077C7.33164 12.4872 7.90278 12.25 8.5 12.25C9.09646 12.25 9.66936 12.4867 10.0913 12.9087L10.0923 12.9096C10.5128 13.3316 10.75 13.9028 10.75 14.5V17.5C10.75 18.0965 10.5133 18.6694 10.0913 19.0913L10.0904 19.0923C9.66836 19.5128 9.09722 19.75 8.5 19.75C7.90354 19.75 7.33064 19.5133 6.90867 19.0913L6.90773 19.0904C6.4872 18.6684 6.25 18.0972 6.25 17.5V14.5C6.25 13.9035 6.4867 13.3306 6.90867 12.9087L6.90961 12.9077L6.90961 12.9077ZM7.96886 13.9698C7.82913 14.1098 7.75 14.3007 7.75 14.5V17.5C7.75 17.6986 7.82863 17.8892 7.96982 18.0312C8.1098 18.1709 8.30069 18.25 8.5 18.25C8.69856 18.25 8.88922 18.1714 9.03114 18.0302C9.17087 17.8902 9.25 17.6993 9.25 17.5V14.5C9.25 14.3015 9.17138 14.1108 9.03022 13.9689C8.89023 13.8291 8.69933 13.75 8.5 13.75C8.30144 13.75 8.11078 13.8286 7.96886 13.9698Z" fill="black"/>
<path fill-rule="evenodd" clip-rule="evenodd" d="M3 5.25H15.002C16.6925 5.2545 18.3204 5.89223 19.5627 7.03888C20.8043 8.18492 21.5728 9.75518 21.7134 11.4396C21.854 13.1237 21.3579 14.7998 20.323 16.1362C19.2823 17.48 17.2649 18.75 15 18.75H13V17.25H15C16.7351 17.25 18.3377 16.25 19.137 15.2178C19.9421 14.1782 20.328 12.8743 20.2186 11.5644C20.1092 10.2548 19.5117 9.03308 18.5453 8.14112C17.5798 7.24999 16.3141 6.75374 14.999 6.75H3V5.25Z" fill="black"/>
</svg>
