<svg width="24" height="24" viewBox="0 0 24 24" fill="none" xmlns="http://www.w3.org/2000/svg">
<path d="M8.32089 18.4362C7.85689 18.1462 7.23989 18.2862 6.94489 18.7482C6.89289 18.8302 5.74789 20.5752 3.27289 20.6352C3.30689 18.1592 5.03989 16.9962 5.11489 16.9472C5.58189 16.6522 5.72189 16.0352 5.42689 15.5682C5.13289 15.1012 4.51489 14.9622 4.04789 15.2562C3.91389 15.3412 0.772892 17.3762 1.33889 21.7172C1.39789 22.1712 1.75689 22.5272 2.21189 22.5812C2.54289 22.6202 2.85889 22.6392 3.16289 22.6392C6.85189 22.6392 8.56689 19.9302 8.64389 19.8052C8.93289 19.3372 8.78789 18.7292 8.32189 18.4372L8.32089 18.4362Z" fill="#464A4D"/>
<path d="M22.8969 1.94424C22.8389 1.49424 22.4849 1.14024 22.0359 1.08124C17.5949 0.502238 12.8609 2.45724 9.17089 6.25324C4.58989 5.39124 2.02889 8.65224 1.16589 9.75624C0.97989 9.99424 0.91189 10.3042 0.97989 10.5982C1.04889 10.8932 1.24689 11.1402 1.51889 11.2722C2.70189 11.8432 3.86989 12.5252 5.27189 13.3572C5.27689 13.3612 5.27989 13.3662 5.28589 13.3702C6.05689 13.8442 6.87289 14.3652 7.69489 14.9132L6.35489 16.2532C5.96389 16.6442 5.96389 17.2762 6.35489 17.6672C6.54989 17.8622 6.80589 17.9602 7.06189 17.9602C7.31789 17.9602 7.57389 17.8622 7.76889 17.6672L9.09889 16.3372C9.66189 17.1862 10.1519 17.9512 10.6089 18.6942C10.6519 18.7642 10.7039 18.8252 10.7609 18.8802C11.5459 20.2042 12.1979 21.3302 12.7419 22.4572C12.8729 22.7292 13.1209 22.9282 13.4149 22.9962C13.4899 23.0142 13.5659 23.0222 13.6429 23.0222C13.8639 23.0222 14.0809 22.9492 14.2579 22.8102C15.3619 21.9472 18.6179 19.3892 17.7629 14.8112C21.5379 11.1162 23.4759 6.39024 22.8979 1.94324L22.8969 1.94424ZM5.46089 11.1492C4.80389 10.7642 4.16289 10.3942 3.54289 10.0612C4.79689 8.76124 6.09989 8.12924 7.57189 8.10324C7.46289 8.24524 7.34989 8.38124 7.24389 8.52624C6.63689 9.31524 6.05889 10.1662 5.46089 11.1492ZM13.9539 20.4342C13.6219 19.8152 13.2479 19.1682 12.8519 18.4922C13.7719 17.9322 14.6509 17.3652 15.4329 16.7932C15.5969 16.6732 15.7509 16.5472 15.9099 16.4232C15.8789 17.8882 15.2479 19.1862 13.9539 20.4342ZM15.0569 11.8842C13.4029 11.8842 12.0569 10.5382 12.0569 8.88424C12.0569 7.23024 13.4029 5.88424 15.0569 5.88424C16.7109 5.88424 18.0569 7.23024 18.0569 8.88424C18.0569 10.5382 16.7109 11.8842 15.0569 11.8842Z" fill="#464A4D"/>
</svg>
