<svg width="24" height="24" viewBox="0 0 24 24" fill="none" xmlns="http://www.w3.org/2000/svg">
<path d="M8.321 18.4362C7.857 18.1462 7.24 18.2862 6.945 18.7482C6.893 18.8302 5.748 20.5752 3.273 20.6352C3.307 18.1592 5.04 16.9962 5.115 16.9472C5.582 16.6522 5.722 16.0352 5.427 15.5682C5.133 15.1012 4.515 14.9622 4.048 15.2562C3.914 15.3412 0.772999 17.3762 1.339 21.7172C1.398 22.1712 1.757 22.5272 2.212 22.5812C2.543 22.6202 2.859 22.6392 3.163 22.6392C6.852 22.6392 8.567 19.9302 8.644 19.8052C8.933 19.3372 8.788 18.7292 8.322 18.4372L8.321 18.4362Z" fill="black"/>
<path d="M22.897 1.94424C22.839 1.49424 22.485 1.14024 22.036 1.08124C17.595 0.502238 12.861 2.45724 9.171 6.25324C4.59 5.39124 2.029 8.65224 1.166 9.75624C0.979997 9.99424 0.911997 10.3042 0.979997 10.5982C1.049 10.8932 1.247 11.1402 1.519 11.2722C2.702 11.8432 3.87 12.5252 5.272 13.3572C5.277 13.3612 5.28 13.3662 5.286 13.3702C6.057 13.8442 6.873 14.3652 7.695 14.9132L6.355 16.2532C5.964 16.6442 5.964 17.2762 6.355 17.6672C6.55 17.8622 6.806 17.9602 7.062 17.9602C7.318 17.9602 7.574 17.8622 7.769 17.6672L9.099 16.3372C9.662 17.1862 10.152 17.9512 10.609 18.6942C10.652 18.7642 10.704 18.8252 10.761 18.8802C11.546 20.2042 12.198 21.3302 12.742 22.4572C12.873 22.7292 13.121 22.9282 13.415 22.9962C13.49 23.0142 13.566 23.0222 13.643 23.0222C13.864 23.0222 14.081 22.9492 14.258 22.8102C15.362 21.9472 18.618 19.3892 17.763 14.8112C21.538 11.1162 23.476 6.39024 22.898 1.94324L22.897 1.94424ZM5.461 11.1492C4.804 10.7642 4.163 10.3942 3.543 10.0612C4.797 8.76124 6.1 8.12924 7.572 8.10324C7.463 8.24524 7.35 8.38124 7.244 8.52624C6.637 9.31524 6.059 10.1662 5.461 11.1492ZM13.954 20.4342C13.622 19.8152 13.248 19.1682 12.852 18.4922C13.772 17.9322 14.651 17.3652 15.433 16.7932C15.597 16.6732 15.751 16.5472 15.91 16.4232C15.879 17.8882 15.248 19.1862 13.954 20.4342ZM15.057 11.8842C13.403 11.8842 12.057 10.5382 12.057 8.88424C12.057 7.23024 13.403 5.88424 15.057 5.88424C16.711 5.88424 18.057 7.23024 18.057 8.88424C18.057 10.5382 16.711 11.8842 15.057 11.8842Z" fill="black"/>
</svg>
