<svg width="24" height="24" viewBox="0 0 24 24" fill="none" xmlns="http://www.w3.org/2000/svg">
<path d="M13 5C14.1046 5 15 4.10457 15 3C15 1.89543 14.1046 1 13 1C11.8954 1 11 1.89543 11 3C11 4.10457 11.8954 5 13 5Z" fill="black"/>
<path d="M15.4 10.7998C15.796 11.0968 16.354 11.0588 16.707 10.7068L19.707 7.70676C20.098 7.31576 20.098 6.68376 19.707 6.29276C19.316 5.90176 18.684 5.90176 18.293 6.29276L15.906 8.67976L12.599 6.20076C12.581 6.18776 12.56 6.18076 12.541 6.16776C12.517 6.15176 12.493 6.13976 12.467 6.12576C12.377 6.07776 12.282 6.04176 12.183 6.02276C12.169 6.01976 12.157 6.01376 12.143 6.01176C12.028 5.99476 11.912 6.00376 11.797 6.02776C11.783 6.03076 11.77 6.02576 11.757 6.02976L7.75702 7.02976C7.39902 7.11976 7.11902 7.39976 7.02902 7.75776L6.02902 11.7578C5.89502 12.2938 6.22102 12.8368 6.75702 12.9698C6.83902 12.9908 6.92002 12.9998 7.00102 12.9998C7.44902 12.9998 7.85602 12.6968 7.97002 12.2418L8.82402 8.82476L10.762 8.33976L10.038 12.6858L8.38102 15.9988H3.99902C3.44702 15.9988 2.99902 16.4458 2.99902 16.9988C2.99902 17.5518 3.44702 17.9988 3.99902 17.9988H8.99902C9.37802 17.9988 9.72402 17.7848 9.89402 17.4458L11.341 14.5528L15.17 17.6148L17.071 22.3698C17.227 22.7618 17.603 22.9988 18 22.9988C18.124 22.9988 18.25 22.9768 18.371 22.9278C18.884 22.7228 19.134 22.1408 18.929 21.6278L16.929 16.6278C16.865 16.4668 16.76 16.3258 16.625 16.2178L12.083 12.5848L12.716 8.78576L15.401 10.7988L15.4 10.7998Z" fill="black"/>
</svg>
