<svg width="24" height="24" viewBox="0 0 24 24" fill="none" xmlns="http://www.w3.org/2000/svg">
<path d="M4 4H7V2H4C2.9 2 2 2.9 2 4V7H4V4Z" fill="black"/>
<path d="M20 2H17V4H20V7H22V4C22 2.9 21.1 2 20 2Z" fill="black"/>
<path d="M20 20H17V22H20C21.1 22 22 21.1 22 20V17H20V20Z" fill="black"/>
<path d="M4 17H2V20C2 21.1 2.9 22 4 22H7V20H4V17Z" fill="black"/>
<path d="M6 11H11V6H6V11ZM8 8H9V9H8V8Z" fill="black"/>
<path d="M18 6H13V11H18V6ZM16 9H15V8H16V9Z" fill="black"/>
<path d="M6 18H11V13H6V18ZM8 15H9V16H8V15Z" fill="black"/>
<path d="M15 16H13V18H15V16Z" fill="black"/>
<path d="M18 18V13H13V15H16V18H18Z" fill="black"/>
</svg>
