<svg width="24" height="24" viewBox="0 0 24 24" fill="none" xmlns="http://www.w3.org/2000/svg">
<path fill-rule="evenodd" clip-rule="evenodd" d="M14.25 18C14.25 15.9288 15.9288 14.25 18 14.25C20.0712 14.25 21.75 15.9288 21.75 18C21.75 20.0712 20.0712 21.75 18 21.75C15.9288 21.75 14.25 20.0712 14.25 18ZM18 15.75C16.7572 15.75 15.75 16.7572 15.75 18C15.75 19.2428 16.7572 20.25 18 20.25C19.2428 20.25 20.25 19.2428 20.25 18C20.25 16.7572 19.2428 15.75 18 15.75Z" fill="black"/>
<path fill-rule="evenodd" clip-rule="evenodd" d="M14.25 6C14.25 3.92879 15.9288 2.25 18 2.25C20.0712 2.25 21.75 3.92879 21.75 6C21.75 8.07121 20.0712 9.75 18 9.75C15.9288 9.75 14.25 8.07121 14.25 6ZM18 3.75C16.7572 3.75 15.75 4.75721 15.75 6C15.75 7.24279 16.7572 8.25 18 8.25C19.2428 8.25 20.25 7.24279 20.25 6C20.25 4.75721 19.2428 3.75 18 3.75Z" fill="black"/>
<path fill-rule="evenodd" clip-rule="evenodd" d="M2.43971 5.53101C2.69873 5.20777 3.17074 5.15571 3.49398 5.41472L16.132 15.5417C16.4552 15.8007 16.5073 16.2728 16.2483 16.596C15.9893 16.9192 15.5172 16.9713 15.194 16.7123L2.556 6.58528C2.23276 6.32626 2.1807 5.85425 2.43971 5.53101Z" fill="black"/>
<path fill-rule="evenodd" clip-rule="evenodd" d="M16.2483 7.40402C16.5073 7.72726 16.4552 8.19927 16.132 8.45828L13.485 10.5793C13.1617 10.8383 12.6897 10.7862 12.4307 10.463C12.1717 10.1397 12.2238 9.66773 12.547 9.40872L15.194 7.28772C15.5173 7.02871 15.9893 7.08078 16.2483 7.40402Z" fill="black"/>
<path fill-rule="evenodd" clip-rule="evenodd" d="M8.58425 13.545C8.84328 13.8682 8.79123 14.3402 8.468 14.5993L3.494 18.5853C3.17077 18.8443 2.69876 18.7922 2.43973 18.469C2.1807 18.1458 2.23275 17.6738 2.55598 17.4147L7.52998 13.4287C7.85321 13.1697 8.32522 13.2218 8.58425 13.545Z" fill="black"/>
</svg>
