<svg width="24" height="24" viewBox="0 0 24 24" fill="none" xmlns="http://www.w3.org/2000/svg">
<path fill-rule="evenodd" clip-rule="evenodd" d="M14.2499 18C14.2499 15.9288 15.9287 14.25 17.9999 14.25C20.0711 14.25 21.7499 15.9288 21.7499 18C21.7499 20.0712 20.0711 21.75 17.9999 21.75C15.9287 21.75 14.2499 20.0712 14.2499 18ZM17.9999 15.75C16.7571 15.75 15.7499 16.7572 15.7499 18C15.7499 19.2428 16.7571 20.25 17.9999 20.25C19.2427 20.25 20.2499 19.2428 20.2499 18C20.2499 16.7572 19.2427 15.75 17.9999 15.75Z" fill="#464A4D"/>
<path fill-rule="evenodd" clip-rule="evenodd" d="M14.2499 6C14.2499 3.92879 15.9287 2.25 17.9999 2.25C20.0711 2.25 21.7499 3.92879 21.7499 6C21.7499 8.07121 20.0711 9.75 17.9999 9.75C15.9287 9.75 14.2499 8.07121 14.2499 6ZM17.9999 3.75C16.7571 3.75 15.7499 4.75721 15.7499 6C15.7499 7.24279 16.7571 8.25 17.9999 8.25C19.2427 8.25 20.2499 7.24279 20.2499 6C20.2499 4.75721 19.2427 3.75 17.9999 3.75Z" fill="#464A4D"/>
<path fill-rule="evenodd" clip-rule="evenodd" d="M2.43965 5.53101C2.69867 5.20777 3.17068 5.15571 3.49392 5.41472L16.1319 15.5417C16.4552 15.8007 16.5072 16.2728 16.2482 16.596C15.9892 16.9192 15.5172 16.9713 15.1939 16.7123L2.55594 6.58528C2.2327 6.32626 2.18064 5.85425 2.43965 5.53101Z" fill="#464A4D"/>
<path fill-rule="evenodd" clip-rule="evenodd" d="M16.2482 7.40402C16.5072 7.72726 16.4552 8.19927 16.1319 8.45828L13.4849 10.5793C13.1617 10.8383 12.6897 10.7862 12.4306 10.463C12.1716 10.1397 12.2237 9.66773 12.5469 9.40872L15.1939 7.28772C15.5172 7.02871 15.9892 7.08078 16.2482 7.40402Z" fill="#464A4D"/>
<path fill-rule="evenodd" clip-rule="evenodd" d="M8.58419 13.545C8.84322 13.8682 8.79117 14.3402 8.46794 14.5993L3.49394 18.5853C3.17071 18.8443 2.69869 18.7922 2.43967 18.469C2.18064 18.1458 2.23269 17.6738 2.55592 17.4147L7.52992 13.4287C7.85315 13.1697 8.32516 13.2218 8.58419 13.545Z" fill="#464A4D"/>
</svg>
