<svg width="24" height="24" viewBox="0 0 24 24" fill="none" xmlns="http://www.w3.org/2000/svg">
<path d="M18 14C17.103 14 16.283 14.307 15.615 14.807L3.64999 5.22003C3.21999 4.87503 2.58999 4.94403 2.24399 5.37503C1.89899 5.80603 1.96799 6.43603 2.39899 6.78103L14.359 16.364C14.133 16.865 14 17.416 14 18.001C14 20.207 15.794 22.001 18 22.001C20.206 22.001 22 20.207 22 18.001C22 15.795 20.206 14.001 18 14.001V14ZM18 20C16.897 20 16 19.103 16 18C16 16.897 16.897 16 18 16C19.103 16 20 16.897 20 18C20 19.103 19.103 20 18 20Z" fill="black"/>
<path d="M13.017 10.994C13.236 10.994 13.456 10.922 13.641 10.774L15.616 9.192C16.284 9.692 17.104 10 18.001 10C20.207 10 22.001 8.206 22.001 6C22.001 3.794 20.207 2 18.001 2C15.795 2 14.001 3.794 14.001 6C14.001 6.584 14.134 7.136 14.36 7.637L12.391 9.214C11.96 9.559 11.891 10.189 12.236 10.62C12.433 10.866 12.724 10.994 13.017 10.994ZM18 4C19.103 4 20 4.897 20 6C20 7.103 19.103 8 18 8C16.897 8 16 7.103 16 6C16 4.897 16.897 4 18 4Z" fill="black"/>
<path d="M7.37399 13.233L2.39999 17.219C1.96899 17.565 1.89999 18.194 2.24499 18.624C2.44199 18.871 2.73299 18.999 3.02599 18.999C3.24599 18.999 3.46599 18.927 3.65099 18.779L8.62499 14.793C9.05599 14.447 9.12499 13.818 8.77999 13.388C8.43399 12.956 7.80499 12.888 7.37399 13.233Z" fill="black"/>
</svg>
