<svg width="24" height="24" viewBox="0 0 24 24" fill="none" xmlns="http://www.w3.org/2000/svg">
<path fill-rule="evenodd" clip-rule="evenodd" d="M1.2979 4.7362C1.4078 4.44371 1.68752 4.25 1.99997 4.25H22C22.269 4.25 22.5174 4.3941 22.651 4.62764C22.7846 4.86118 22.7828 5.14837 22.6464 5.38027L12.6464 22.3803C12.4887 22.6484 12.1819 22.7913 11.8752 22.7395C11.5685 22.6878 11.3255 22.4521 11.2645 22.1471L9.31447 12.3968L1.50609 5.56443C1.27095 5.35868 1.188 5.0287 1.2979 4.7362ZM3.99606 5.75L10.4939 11.4356C10.6181 11.5443 10.703 11.691 10.7354 11.8529L12.35 19.9258L20.6887 5.75H3.99606Z" fill="black"/>
<path fill-rule="evenodd" clip-rule="evenodd" d="M22.3779 5.64784L10.3779 12.6478L9.62207 11.3522L21.6221 4.35217L22.3779 5.64784Z" fill="black"/>
</svg>
