<svg width="24" height="24" viewBox="0 0 24 24" fill="none" xmlns="http://www.w3.org/2000/svg">
<path d="M22.868 4.503C22.69 4.192 22.358 4 22 4H1.99998C1.58298 4 1.20998 4.258 1.06398 4.648C0.91798 5.038 1.02798 5.478 1.34098 5.752L8.29498 11.837L16.539 6.833C17.016 6.555 17.629 6.716 17.907 7.193C18.184 7.67 18.023 8.282 17.547 8.561L9.29498 13.57L11.02 22.196C11.101 22.602 11.425 22.917 11.834 22.986C11.89 22.995 11.945 23 12.001 23C12.351 23 12.681 22.815 12.862 22.507L22.862 5.507C23.044 5.198 23.046 4.815 22.868 4.504V4.503Z" fill="black"/>
</svg>
