<svg width="24" height="24" viewBox="0 0 24 24" fill="none" xmlns="http://www.w3.org/2000/svg">
<path fill-rule="evenodd" clip-rule="evenodd" d="M8.25 12C8.25 9.92881 9.92879 8.25002 12 8.25002C14.0712 8.25002 15.75 9.92881 15.75 12C15.75 14.0712 14.0712 15.75 12 15.75C9.92879 15.75 8.25 14.0712 8.25 12ZM12 9.75002C10.7572 9.75002 9.75 10.7572 9.75 12C9.75 13.2428 10.7572 14.25 12 14.25C13.2428 14.25 14.25 13.2428 14.25 12C14.25 10.7572 13.2428 9.75002 12 9.75002Z" fill="black"/>
<path fill-rule="evenodd" clip-rule="evenodd" d="M9.75731 1.88772C9.8124 1.5206 10.1278 1.24902 10.499 1.24902H13.499C13.8702 1.24902 14.1856 1.5206 14.2407 1.88772L14.6663 4.72373C14.8676 4.79685 15.0657 4.878 15.2601 4.96754L17.5643 3.26484C17.8628 3.04423 18.2778 3.0752 18.5403 3.33769L20.6613 5.45869C20.9238 5.72118 20.9548 6.13621 20.7342 6.43475L19.0316 8.73875C19.1212 8.93302 19.2026 9.13123 19.2758 9.33282L22.1113 9.75833C22.4784 9.81342 22.75 10.1288 22.75 10.5V13.5C22.75 13.8713 22.4784 14.1866 22.1113 14.2417L19.2753 14.6673C19.2022 14.8686 19.121 15.0667 19.0315 15.2611L20.7342 17.5653C20.9548 17.8638 20.9238 18.2789 20.6613 18.5414L18.5403 20.6624C18.2778 20.9248 17.8628 20.9558 17.5643 20.7352L15.2603 19.0326C15.066 19.1222 14.8678 19.2036 14.6662 19.2768L14.2407 22.1123C14.1856 22.4794 13.8702 22.751 13.499 22.751H10.499C10.1278 22.751 9.8124 22.4794 9.75731 22.1123L9.33173 19.2763C9.13044 19.2032 8.93229 19.122 8.73789 19.0325L6.43373 20.7352C6.13518 20.9558 5.72016 20.9248 5.45767 20.6624L3.33667 18.5414C3.07418 18.2789 3.04321 17.8638 3.26382 17.5653L4.9664 15.2613C4.87678 15.067 4.79544 14.8688 4.72224 14.6672L1.8867 14.2417C1.51958 14.1866 1.248 13.8713 1.248 13.5V10.5C1.248 10.1288 1.51958 9.81342 1.8867 9.75833L4.72271 9.33275C4.79583 9.13146 4.87698 8.93332 4.96652 8.73891L3.26382 6.43475C3.04321 6.13621 3.07418 5.72118 3.33667 5.45869L5.45767 3.33769C5.72016 3.0752 6.13518 3.04423 6.43373 3.26484L8.73773 4.96742C8.932 4.87781 9.13021 4.79647 9.3318 4.72327L9.75731 1.88772ZM11.1449 2.74902L10.7467 5.40232C10.7034 5.69052 10.4972 5.92758 10.2177 6.01023C9.79548 6.1351 9.39456 6.2994 9.02027 6.50292C8.76421 6.64215 8.45068 6.62042 8.21627 6.4472L6.06167 4.85502L4.854 6.06269L6.44618 8.21729C6.6194 8.4517 6.64113 8.76523 6.5019 9.02129C6.29882 9.39477 6.13514 9.79596 6.00879 10.2201C5.92575 10.4989 5.68898 10.7045 5.4013 10.7477L2.748 11.1459V12.8542L5.4013 13.2523C5.6895 13.2956 5.92656 13.5019 6.00921 13.7813C6.13408 14.2035 6.29838 14.6045 6.5019 14.9788C6.64113 15.2348 6.6194 15.5483 6.44618 15.7828L4.854 17.9374L6.06167 19.145L8.21627 17.5528C8.45068 17.3796 8.76421 17.3579 9.02027 17.4971C9.39375 17.7002 9.79494 17.8639 10.2191 17.9902C10.4979 18.0733 10.7035 18.31 10.7467 18.5977L11.1449 21.251H12.8531L13.2513 18.5977C13.2946 18.3095 13.5008 18.0725 13.7803 17.9898C14.2025 17.8649 14.6034 17.7006 14.9777 17.4971C15.2338 17.3579 15.5473 17.3796 15.7817 17.5528L17.9363 19.145L19.144 17.9374L17.5518 15.7828C17.3786 15.5483 17.3569 15.2348 17.4961 14.9788C17.6992 14.6053 17.8629 14.2041 17.9892 13.7799C18.0723 13.5011 18.309 13.2955 18.5967 13.2523L21.25 12.8542V11.1459L18.5967 10.7477C18.3085 10.7045 18.0714 10.4982 17.9888 10.2187C17.8639 9.7965 17.6996 9.39558 17.4961 9.02129C17.3569 8.76523 17.3786 8.4517 17.5518 8.21729L19.144 6.06269L17.9363 4.85502L15.7817 6.4472C15.5473 6.62042 15.2338 6.64215 14.9777 6.50292C14.6043 6.29984 14.2031 6.13616 13.7789 6.00981C13.5001 5.92677 13.2945 5.69 13.2513 5.40232L12.8531 2.74902H11.1449Z" fill="black"/>
</svg>
