<svg width="24" height="24" viewBox="0 0 24 24" fill="none" xmlns="http://www.w3.org/2000/svg">
<path d="M22.148 9.51102L19.458 9.10702C19.415 8.99302 19.368 8.88002 19.319 8.77002L20.935 6.58302C21.229 6.18502 21.187 5.63102 20.837 5.28202L18.716 3.16102C18.366 2.81002 17.812 2.77002 17.414 3.06402L15.228 4.68002C15.117 4.63202 15.004 4.58502 14.89 4.54202L14.487 1.85102C14.413 1.36202 13.993 0.999023 13.498 0.999023H10.498C10.003 0.999023 9.582 1.36102 9.509 1.85102L9.105 4.54102C8.991 4.58402 8.878 4.63102 8.767 4.68002L6.58 3.06402C6.181 2.76902 5.628 2.81102 5.279 3.16102L3.158 5.28202C2.808 5.63202 2.766 6.18502 3.061 6.58302L4.677 8.77002C4.629 8.88102 4.582 8.99302 4.538 9.10702L1.848 9.51102C1.359 9.58402 0.995998 10.005 0.995998 10.5V13.5C0.995998 13.995 1.358 14.415 1.848 14.489L4.538 14.892C4.582 15.006 4.628 15.119 4.677 15.23L3.062 17.416C2.768 17.814 2.809 18.368 3.159 18.718L5.28 20.839C5.629 21.188 6.182 21.23 6.581 20.937L8.768 19.321C8.879 19.37 8.991 19.416 9.105 19.46L9.509 22.15C9.582 22.639 10.003 23.002 10.498 23.002H13.498C13.993 23.002 14.413 22.64 14.487 22.15L14.89 19.46C15.004 19.417 15.117 19.37 15.228 19.321L17.414 20.937C17.811 21.23 18.367 21.189 18.716 20.839L20.837 18.718C21.187 18.368 21.229 17.815 20.935 17.416L19.319 15.229C19.368 15.119 19.414 15.006 19.458 14.892L22.148 14.489C22.637 14.415 23 13.995 23 13.5V10.5C23 10.005 22.638 9.58402 22.148 9.51102ZM12 16C9.794 16 8 14.206 8 12C8 9.79402 9.794 8.00002 12 8.00002C14.206 8.00002 16 9.79402 16 12C16 14.206 14.206 16 12 16Z" fill="black"/>
</svg>
