<svg width="24" height="24" viewBox="0 0 24 24" fill="none" xmlns="http://www.w3.org/2000/svg">
<path d="M6.5 22C8.98528 22 11 19.9853 11 17.5C11 15.0147 8.98528 13 6.5 13C4.01472 13 2 15.0147 2 17.5C2 19.9853 4.01472 22 6.5 22Z" fill="#464A4D"/>
<path d="M21 13H14C13.4477 13 13 13.4477 13 14V21C13 21.5523 13.4477 22 14 22H21C21.5523 22 22 21.5523 22 21V14C22 13.4477 21.5523 13 21 13Z" fill="#464A4D"/>
<path d="M7.49999 11.0001H16.5C16.855 11.0001 17.184 10.8121 17.363 10.5051C17.542 10.1981 17.546 9.8191 17.371 9.5101L12.872 1.5101C12.518 0.880098 11.483 0.880098 11.129 1.5101L6.62899 9.5101C6.45499 9.8201 6.45799 10.1981 6.63699 10.5051C6.81599 10.8121 7.14499 11.0001 7.49999 11.0001Z" fill="#464A4D"/>
</svg>
