<svg width="24" height="24" viewBox="0 0 24 24" fill="none" xmlns="http://www.w3.org/2000/svg">
<path fill-rule="evenodd" clip-rule="evenodd" d="M13.6901 3.31704C13.9581 3.19543 14.2724 3.24179 14.4939 3.43558L22.4939 10.4356C22.6566 10.578 22.75 10.7837 22.75 11C22.75 11.2163 22.6566 11.422 22.4939 11.5644L14.4939 18.5644C14.2724 18.7582 13.9581 18.8046 13.6901 18.683C13.4221 18.5614 13.25 18.2943 13.25 18V14.7597C11.3245 14.8114 9.67098 15.0746 8.18846 15.6923C6.52906 16.3837 5.03146 17.5414 3.6 19.45C3.40631 19.7083 3.06909 19.8136 2.76283 19.7115C2.45657 19.6094 2.25 19.3228 2.25 19C2.25 14.8551 3.39684 12.1121 5.54121 10.3019C7.50185 8.64682 10.1956 7.8648 13.25 7.3594V4.00001C13.25 3.70573 13.4221 3.43864 13.6901 3.31704ZM14.75 5.65284V8.00001C14.75 8.37084 14.479 8.686 14.1124 8.74155C10.8289 9.23904 8.26279 9.96747 6.50879 11.4481C5.15046 12.5948 4.20594 14.2596 3.87761 16.8373C5.03065 15.6885 6.26363 14.8693 7.61154 14.3077C9.54 13.5042 11.6511 13.25 14 13.25C14.4142 13.25 14.75 13.5858 14.75 14V16.3472L20.8611 11L14.75 5.65284Z" fill="black"/>
</svg>
