<svg width="24" height="24" viewBox="0 0 24 24" fill="none" xmlns="http://www.w3.org/2000/svg">
<path d="M17.5 15C16.6 15 15.7 15.4 15.1 15.9L8.90001 12.3C8.90001 12 9.00001 11.7 9.00001 11.4C9.00001 11.1 9.00001 10.9 9.00001 10.6L15 7.79999C15.6 8.49999 16.5 8.89999 17.6 8.89999C19.6 8.89999 21.1 7.39999 21.1 5.39999C21.1 3.39999 19.6 1.89999 17.6 1.89999C15.6 1.89999 14.1 3.39999 14.1 5.39999C14.1 7.39999 14.1 5.79999 14.1 5.99999L8.00001 8.89999C7.40001 8.29999 6.50001 7.89999 5.60001 7.89999C3.60001 7.89999 2.10001 9.39999 2.10001 11.4C2.10001 13.4 3.60001 14.9 5.60001 14.9C7.60001 14.9 7.30001 14.6 8.00001 14L14.3 17.6C14.3 17.9 14.2 18.1 14.2 18.4C14.2 20.4 15.7 21.9 17.7 21.9C19.7 21.9 21.2 20.4 21.2 18.4C21.2 16.4 19.7 14.9 17.7 14.9L17.5 15Z" fill="black"/>
</svg>
