<svg width="24" height="24" viewBox="0 0 24 24" fill="none" xmlns="http://www.w3.org/2000/svg">
<path fill-rule="evenodd" clip-rule="evenodd" d="M2.25 11.5C2.25 9.68579 3.68579 8.25 5.5 8.25C7.31421 8.25 8.75 9.68579 8.75 11.5C8.75 13.3142 7.31421 14.75 5.5 14.75C3.68579 14.75 2.25 13.3142 2.25 11.5ZM5.5 9.75C4.51421 9.75 3.75 10.5142 3.75 11.5C3.75 12.4858 4.51421 13.25 5.5 13.25C6.48579 13.25 7.25 12.4858 7.25 11.5C7.25 10.5142 6.48579 9.75 5.5 9.75Z" fill="black"/>
<path fill-rule="evenodd" clip-rule="evenodd" d="M14.25 5.5C14.25 3.68579 15.6858 2.25 17.5 2.25C19.3142 2.25 20.75 3.68579 20.75 5.5C20.75 7.31421 19.3142 8.75 17.5 8.75C15.6858 8.75 14.25 7.31421 14.25 5.5ZM17.5 3.75C16.5142 3.75 15.75 4.51421 15.75 5.5C15.75 6.48579 16.5142 7.25 17.5 7.25C18.4858 7.25 19.25 6.48579 19.25 5.5C19.25 4.51421 18.4858 3.75 17.5 3.75Z" fill="black"/>
<path fill-rule="evenodd" clip-rule="evenodd" d="M14.25 18.5C14.25 16.6858 15.6858 15.25 17.5 15.25C19.3142 15.25 20.75 16.6858 20.75 18.5C20.75 20.3142 19.3142 21.75 17.5 21.75C15.6858 21.75 14.25 20.3142 14.25 18.5ZM17.5 16.75C16.5142 16.75 15.75 17.5142 15.75 18.5C15.75 19.4858 16.5142 20.25 17.5 20.25C18.4858 20.25 19.25 19.4858 19.25 18.5C19.25 17.5142 18.4858 16.75 17.5 16.75Z" fill="black"/>
<path fill-rule="evenodd" clip-rule="evenodd" d="M15.9794 6.28235C16.1548 6.65758 15.9929 7.10398 15.6176 7.27941L7.91765 10.8794C7.54242 11.0548 7.09602 10.8929 6.92059 10.5176C6.74516 10.1424 6.90713 9.69602 7.28235 9.52059L14.9824 5.92059C15.3576 5.74516 15.804 5.90713 15.9794 6.28235Z" fill="black"/>
<path fill-rule="evenodd" clip-rule="evenodd" d="M6.94883 12.4279C7.15434 12.0683 7.61248 11.9433 7.97212 12.1488L15.6721 16.5488C16.0318 16.7543 16.1567 17.2125 15.9512 17.5721C15.7457 17.9317 15.2875 18.0567 14.9279 17.8512L7.22791 13.4512C6.86827 13.2457 6.74332 12.7875 6.94883 12.4279Z" fill="black"/>
</svg>
