<svg width="24" height="24" viewBox="0 0 24 24" fill="none" xmlns="http://www.w3.org/2000/svg">
<path fill-rule="evenodd" clip-rule="evenodd" d="M4.74467 10.7447C5.07925 10.4101 5.52956 10.25 6 10.25H8V11.75H6C5.87044 11.75 5.82075 11.7899 5.80533 11.8053C5.78991 11.8207 5.75 11.8704 5.75 12V20C5.75 20.1296 5.78991 20.1793 5.80533 20.1947C5.82075 20.2101 5.87044 20.25 6 20.25H18C18.1296 20.25 18.1793 20.2101 18.1947 20.1947C18.2101 20.1793 18.25 20.1296 18.25 20V12C18.25 11.8704 18.2101 11.8207 18.1947 11.8053C18.1793 11.7899 18.1296 11.75 18 11.75H16V10.25H18C18.4704 10.25 18.9207 10.4101 19.2553 10.7447C19.5899 11.0793 19.75 11.5296 19.75 12V20C19.75 20.4704 19.5899 20.9207 19.2553 21.2553C18.9207 21.5899 18.4704 21.75 18 21.75H6C5.52956 21.75 5.07925 21.5899 4.74467 21.2553C4.41009 20.9207 4.25 20.4704 4.25 20V12C4.25 11.5296 4.41009 11.0793 4.74467 10.7447Z" fill="black"/>
<path fill-rule="evenodd" clip-rule="evenodd" d="M12.75 3V15H11.25V3H12.75Z" fill="black"/>
<path fill-rule="evenodd" clip-rule="evenodd" d="M11.4697 2.46967C11.7626 2.17678 12.2374 2.17678 12.5303 2.46967L16.5303 6.46967L15.4697 7.53033L12 4.06066L8.53033 7.53033L7.46967 6.46967L11.4697 2.46967Z" fill="black"/>
</svg>
