<svg width="24" height="24" viewBox="0 0 24 24" fill="none" xmlns="http://www.w3.org/2000/svg">
<path d="M17.5 15C16.56 15 15.73 15.36 15.11 15.94L8.87999 12.38C8.94999 12.1 8.99999 11.81 8.99999 11.5C8.99999 11.22 8.95999 10.95 8.89999 10.69L14.92 7.86999C15.56 8.55999 16.46 8.98999 17.49 8.98999C19.45 8.98999 20.99 7.44999 20.99 5.48999C20.99 3.52999 19.45 1.98999 17.49 1.98999C15.53 1.98999 13.99 3.52999 13.99 5.48999C13.99 5.68999 14.02 5.87999 14.05 6.06999L7.89999 8.93999C7.27999 8.34999 6.43999 7.98999 5.48999 7.98999C3.52999 7.98999 1.98999 9.52999 1.98999 11.49C1.98999 13.45 3.52999 14.99 5.48999 14.99C6.40999 14.99 7.21999 14.64 7.83999 14.09L14.09 17.66C14.03 17.93 13.98 18.2 13.98 18.49C13.98 20.45 15.52 21.99 17.48 21.99C19.44 21.99 20.98 20.45 20.98 18.49C20.98 16.53 19.44 14.99 17.48 14.99L17.5 15Z" fill="#464A4D"/>
</svg>
