<svg width="24" height="24" viewBox="0 0 24 24" fill="none" xmlns="http://www.w3.org/2000/svg">
<path d="M19.68 11L17.312 5H11V3H9.00001V5H8.00001V2H6.00001V5H4.15301L3.15301 11H0.674011L3.24501 20H19.659L23.516 11H19.68ZM13 8C13.552 8 14 8.448 14 9C14 9.552 13.552 10 13 10C12.448 10 12 9.552 12 9C12 8.448 12.448 8 13 8ZM10 8C10.552 8 11 8.448 11 9C11 9.552 10.552 10 10 10C9.44801 10 9.00001 9.552 9.00001 9C9.00001 8.448 9.44801 8 10 8ZM7.00001 8C7.55201 8 8.00001 8.448 8.00001 9C8.00001 9.552 7.55201 10 7.00001 10C6.44801 10 6.00001 9.552 6.00001 9C6.00001 8.448 6.44801 8 7.00001 8ZM18.341 18H4.75401L4.18301 16H19.198L18.341 18ZM3.61101 14L3.32501 13H20.483L20.054 14H3.61101Z" fill="black"/>
</svg>
