<svg width="24" height="24" viewBox="0 0 24 24" fill="none" xmlns="http://www.w3.org/2000/svg">
<path d="M19.6801 11L17.3121 5H11.0001V3H9.00007V5H8.00007V2H6.00007V5H4.15307L3.15307 11H0.674072L3.24507 20H19.6591L23.5161 11H19.6801ZM13.0001 8C13.5521 8 14.0001 8.448 14.0001 9C14.0001 9.552 13.5521 10 13.0001 10C12.4481 10 12.0001 9.552 12.0001 9C12.0001 8.448 12.4481 8 13.0001 8ZM10.0001 8C10.5521 8 11.0001 8.448 11.0001 9C11.0001 9.552 10.5521 10 10.0001 10C9.44807 10 9.00007 9.552 9.00007 9C9.00007 8.448 9.44807 8 10.0001 8ZM7.00007 8C7.55207 8 8.00007 8.448 8.00007 9C8.00007 9.552 7.55207 10 7.00007 10C6.44807 10 6.00007 9.552 6.00007 9C6.00007 8.448 6.44807 8 7.00007 8ZM18.3411 18H4.75407L4.18307 16H19.1981L18.3411 18ZM3.61107 14L3.32507 13H20.4831L20.0541 14H3.61107Z" fill="#464A4D"/>
</svg>
