<svg width="24" height="24" viewBox="0 0 24 24" fill="none" xmlns="http://www.w3.org/2000/svg">
<path d="M22.9678 6.59961L20.4336 12.9355L17.75 12.041V20.75H6.25V12.041L3.56641 12.9355L1.03223 6.59961L9.12695 3.12988L9.43359 3.79102C9.8096 4.60079 10.7781 5.25 12 5.25C13.2219 5.25 14.1904 4.60079 14.5664 3.79102L14.873 3.12988L22.9678 6.59961ZM15.5488 5.05176C14.7765 6.09556 13.4548 6.75 12 6.75C10.545 6.75 9.22244 6.09583 8.4502 5.05176L2.96777 7.40137L4.43359 11.0645L7.75 9.95996V19.25H16.25V9.95996L19.5654 11.0645L21.0312 7.40137L15.5488 5.05176Z" fill="black"/>
</svg>
