<svg width="24" height="24" viewBox="0 0 24 24" fill="none" xmlns="http://www.w3.org/2000/svg">
<path d="M19 9.00021H18.18L10.35 6.06021C9.98 5.92021 9.57 6.01021 9.29 6.29021C8.81 6.77021 7.29 8.00021 6 8.00021C4.71 8.00021 3.18 6.77021 2.71 6.29021C2.42 6.01021 1.99 5.92021 1.62 6.08021C1.25 6.24021 1 6.60021 1 7.00021V15.0002C1 16.6502 2.35 18.0002 4 18.0002H20C21.65 18.0002 23 16.6502 23 15.0002V13.0002C23 10.7902 21.21 9.00021 19 9.00021ZM3 9.03021C3.83 9.54021 4.89 10.0002 6 10.0002C7.77 10.0002 9.42 8.8302 10.22 8.1502L11.56 8.6502L11.11 9.55021C10.86 10.0402 11.06 10.6402 11.55 10.8902C11.69 10.9602 11.85 11.0002 12 11.0002C12.37 11.0002 12.72 10.8002 12.89 10.4502L13.44 9.3602L14.5 9.76021L14.1 10.5602C13.85 11.0502 14.06 11.6502 14.55 11.9002C14.69 11.9702 14.84 12.0002 14.99 12.0002C15.36 12.0002 15.71 11.8002 15.89 11.4402L16.38 10.4602L17.64 10.9302C17.75 10.9702 17.87 10.9902 17.99 10.9902H18.99C20.09 10.9902 20.99 11.8902 20.99 12.9902H3V9.02021V9.03021Z" fill="black"/>
</svg>
