<svg width="24" height="24" viewBox="0 0 24 24" fill="none" xmlns="http://www.w3.org/2000/svg">
<path d="M1.71289 6.30615C1.993 6.19024 2.31583 6.25497 2.53027 6.46924L2.5293 6.46826C2.52954 6.4685 2.5311 6.46921 2.53223 6.47021C2.53458 6.47254 2.53901 6.47718 2.54492 6.48291C2.55695 6.49455 2.57595 6.51369 2.60156 6.5376C2.65324 6.58582 2.73176 6.65672 2.83203 6.74268C3.03379 6.9156 3.32207 7.14618 3.66602 7.37549C4.37866 7.85059 5.22544 8.24951 6 8.24951C6.77456 8.24951 7.62134 7.85059 8.33398 7.37549C8.67793 7.14618 8.96621 6.9156 9.16797 6.74268C9.26824 6.65672 9.34676 6.58582 9.39844 6.5376C9.42405 6.51369 9.44305 6.49455 9.45508 6.48291C9.46099 6.47718 9.46542 6.47254 9.46777 6.47021C9.4689 6.46921 9.47046 6.4685 9.4707 6.46826C9.67863 6.26127 9.98885 6.19437 10.2637 6.29736L18.1357 9.24951H19C21.0711 9.24951 22.7498 10.9285 22.75 12.9995V14.9995C22.75 16.5177 21.5182 17.7495 20 17.7495H4C2.48179 17.7495 1.25 16.5177 1.25 14.9995V6.99951C1.25017 6.69634 1.43277 6.42218 1.71289 6.30615ZM2.75 14.9995C2.75 15.6893 3.31021 16.2495 4 16.2495H20C20.6898 16.2495 21.25 15.6893 21.25 14.9995V14.7495H2.75V14.9995ZM10.1445 7.88135C9.90887 8.08334 9.5718 8.353 9.16602 8.62354C8.37866 9.14844 7.22544 9.74951 6 9.74951C4.77456 9.74951 3.62134 9.14844 2.83398 8.62354C2.80541 8.60448 2.77788 8.58396 2.75 8.56494V13.2495H21.25V12.9995C21.2498 11.7569 20.2426 10.7495 19 10.7495H18C17.9101 10.7495 17.8205 10.7332 17.7363 10.7017L16.2607 10.1479L15.6719 11.3335C15.4875 11.7044 15.0369 11.8557 14.666 11.6714C14.2953 11.4869 14.1438 11.0363 14.3281 10.6655L14.8486 9.61768L13.3193 9.04443L12.6699 10.3364C12.4839 10.7065 12.0332 10.8564 11.6631 10.6704C11.293 10.4844 11.1441 10.0327 11.3301 9.6626L11.9062 8.51514L10.165 7.86182C10.1581 7.86784 10.1517 7.87518 10.1445 7.88135Z" fill="black"/>
</svg>
