<svg width="24" height="24" viewBox="0 0 24 24" fill="none" xmlns="http://www.w3.org/2000/svg">
<path d="M12 16C14.2091 16 16 14.2091 16 12C16 9.79086 14.2091 8 12 8C9.79086 8 8 9.79086 8 12C8 14.2091 9.79086 16 12 16Z" fill="black"/>
<path d="M22.909 11.584C22.204 10.039 19.331 5 12 5C4.669 5 1.797 10.04 1.091 11.584L0.901001 12L1.091 12.416C1.797 13.96 4.67 19 12.001 19C19.332 19 22.204 13.961 22.91 12.416L23.1 12L22.909 11.584ZM12 17C6.423 17 3.956 13.579 3.116 12C3.957 10.421 6.427 7 12 7C17.573 7 20.044 10.421 20.885 12C20.043 13.579 17.574 17 12 17Z" fill="black"/>
</svg>
