<svg width="24" height="24" viewBox="0 0 24 24" fill="none" xmlns="http://www.w3.org/2000/svg">
<path d="M11.9999 16C14.209 16 15.9999 14.2091 15.9999 12C15.9999 9.79086 14.209 8 11.9999 8C9.79074 8 7.99988 9.79086 7.99988 12C7.99988 14.2091 9.79074 16 11.9999 16Z" fill="#464A4D"/>
<path d="M22.9089 11.584C22.2039 10.039 19.3309 5 11.9999 5C4.66888 5 1.79688 10.04 1.09088 11.584L0.900879 12L1.09088 12.416C1.79688 13.96 4.66988 19 12.0009 19C19.3319 19 22.2039 13.961 22.9099 12.416L23.0999 12L22.9089 11.584ZM11.9999 17C6.42288 17 3.95588 13.579 3.11588 12C3.95688 10.421 6.42688 7 11.9999 7C17.5729 7 20.0439 10.421 20.8849 12C20.0429 13.579 17.5739 17 11.9999 17Z" fill="#464A4D"/>
</svg>
