<svg width="24" height="24" viewBox="0 0 24 24" fill="none" xmlns="http://www.w3.org/2000/svg">
<path d="M17.3 14.7L18.6 16H16C13.8 16 12 14.2 12 12C12 8.6 9.4 6 6 6H2V8H6C8.2 8 10 9.8 10 12C10 15.4 12.6 18 16 18H18.6L17.3 19.3L18.7 20.7L22.4 17L18.7 13.3L17.3 14.7Z" fill="black"/>
<path d="M16 8.00005H18.6L17.3 9.30005L18.7 10.7L22.4 7.00005L18.7 3.30005L17.3 4.70005L18.6 6.00005H16C14.6 6.00005 13.4 6.40005 12.4 7.20005L13.6 8.80005C14.3 8.30005 15.1 8.00005 16 8.00005Z" fill="black"/>
<path d="M6 16H2V18H6C7.4 18 8.6 17.6 9.6 16.8L8.4 15.2C7.7 15.7 6.9 16 6 16Z" fill="black"/>
</svg>
