<svg width="24" height="24" viewBox="0 0 24 24" fill="none" xmlns="http://www.w3.org/2000/svg">
<path fill-rule="evenodd" clip-rule="evenodd" d="M19.9394 7.00006L17.4697 4.53039L18.5304 3.46973L22.0607 7.00006L18.5304 10.5304L17.4697 9.46973L19.9394 7.00006Z" fill="black"/>
<path fill-rule="evenodd" clip-rule="evenodd" d="M18.5304 13.4697L22.0607 17.0001L18.5304 20.5304L17.4697 19.4697L19.9394 17.0001L17.4697 14.5304L18.5304 13.4697Z" fill="black"/>
<path fill-rule="evenodd" clip-rule="evenodd" d="M6 7.75H2V6.25H6C9.21421 6.25 11.75 8.78579 11.75 12C11.75 14.3858 13.6142 16.25 16 16.25H21V17.75H16C12.7858 17.75 10.25 15.2142 10.25 12C10.25 9.61421 8.38579 7.75 6 7.75Z" fill="black"/>
<path fill-rule="evenodd" clip-rule="evenodd" d="M12.5395 7.40799C13.5845 6.59527 14.7508 6.25 16 6.25H21V7.75H16C15.0492 7.75 14.2155 8.00473 13.4605 8.59201L12.5395 7.40799ZM6 16.25C6.95085 16.25 7.78446 15.9953 8.53954 15.408L9.46046 16.592C8.41553 17.4047 7.24915 17.75 6 17.75H2V16.25H6Z" fill="black"/>
</svg>
