<svg width="24" height="24" viewBox="0 0 24 24" fill="none" xmlns="http://www.w3.org/2000/svg">
<path fill-rule="evenodd" clip-rule="evenodd" d="M4.09106 16.7511C2.93306 16.7511 1.98706 15.8041 1.98706 14.6441C1.98706 13.4841 2.93306 12.5381 4.09106 12.5381H6.19406V14.6441C6.19406 15.8041 5.25106 16.7511 4.09106 16.7511ZM9.35906 12.5381C10.5151 12.5381 11.4621 13.4841 11.4621 14.6441V19.9181C11.4621 21.0781 10.5161 22.0241 9.35906 22.0241C8.19906 22.0241 7.25506 21.0781 7.25506 19.9181V14.6441C7.25506 13.4841 8.19906 12.5381 9.35906 12.5381ZM7.25506 4.08207C7.25506 2.92307 8.19906 1.97607 9.35906 1.97607C10.5151 1.97607 11.4621 2.92207 11.4621 4.08207V6.18907H9.35906C8.19906 6.18907 7.25506 5.24107 7.25506 4.08207ZM11.4621 9.35607C11.4621 10.5161 10.5161 11.4621 9.35906 11.4621H4.09206C2.93406 11.4621 1.98806 10.5161 1.98806 9.35607C1.98806 8.19607 2.93406 7.24907 4.09206 7.24907H9.35906C10.5151 7.24907 11.4621 8.19607 11.4621 9.35607ZM19.9091 7.24907C21.0671 7.24907 22.0131 8.19607 22.0131 9.35607C22.0131 10.5161 21.0671 11.4621 19.9091 11.4621H17.8061V9.35607C17.8061 8.19607 18.7491 7.24907 19.9091 7.24907ZM14.6411 11.4621C13.4851 11.4621 12.5381 10.5161 12.5381 9.35607V4.08207C12.5381 2.92207 13.4841 1.97607 14.6411 1.97607C15.8011 1.97607 16.7451 2.92207 16.7451 4.08207V9.35607C16.7451 10.5161 15.8011 11.4621 14.6411 11.4621ZM16.7451 19.9181C16.7451 21.0771 15.8011 22.0241 14.6411 22.0241C13.4851 22.0241 12.5381 21.0781 12.5381 19.9181V17.8111H14.6411C15.8011 17.8111 16.7451 18.7591 16.7451 19.9181ZM12.5381 14.6441C12.5381 13.4841 13.4841 12.5381 14.6411 12.5381H19.9091C21.0671 12.5381 22.0131 13.4841 22.0131 14.6441C22.0131 15.8041 21.0671 16.7511 19.9091 16.7511H14.6411C13.4851 16.7511 12.5381 15.8041 12.5381 14.6441Z" fill="black"/>
</svg>
