<svg width="24" height="24" viewBox="0 0 24 24" fill="none" xmlns="http://www.w3.org/2000/svg">
<path d="M13.3 20.2002C14.1284 20.2002 14.8 19.5286 14.8 18.7002C14.8 17.8718 14.1284 17.2002 13.3 17.2002C12.4716 17.2002 11.8 17.8718 11.8 18.7002C11.8 19.5286 12.4716 20.2002 13.3 20.2002Z" fill="black"/>
<path d="M9.90002 23.1001C10.7285 23.1001 11.4 22.4285 11.4 21.6001C11.4 20.7717 10.7285 20.1001 9.90002 20.1001C9.0716 20.1001 8.40002 20.7717 8.40002 21.6001C8.40002 22.4285 9.0716 23.1001 9.90002 23.1001Z" fill="black"/>
<path d="M9.79999 17.2002C10.6284 17.2002 11.3 16.5286 11.3 15.7002C11.3 14.8718 10.6284 14.2002 9.79999 14.2002C8.97156 14.2002 8.29999 14.8718 8.29999 15.7002C8.29999 16.5286 8.97156 17.2002 9.79999 17.2002Z" fill="black"/>
<path d="M20.71 8.59023C19.87 7.75023 18.82 7.22023 17.68 7.05023C16.91 4.78023 14.53 1.99023 11 1.99023C7.22 1.99023 4.13 5.01023 4 8.76023C2.38 9.60023 1 10.9202 1 13.9902C1 17.3502 3.64 19.9902 7 19.9902C7.55 19.9902 8 19.5402 8 18.9902C8 18.4402 7.55 17.9902 7 17.9902C4.76 17.9902 3 16.2302 3 13.9902C3 11.7502 3.78 11.0302 5.41 10.3002L6 10.0402V8.99023C6 6.23023 8.24 3.99023 11 3.99023C13.76 3.99023 15.58 6.42023 15.92 8.18023L16.08 8.99023H16.91C17.8 8.99023 18.65 9.35023 19.37 10.0602C20.41 10.9302 21.01 12.1802 21.01 13.4902C21.01 15.9702 18.99 17.9902 16.51 17.9902C15.96 17.9902 15.51 18.4402 15.51 18.9902C15.51 19.5402 15.96 19.9902 16.51 19.9902C20.09 19.9902 23.01 17.0702 23.01 13.4902C23.01 11.5802 22.15 9.77023 20.72 8.58023L20.71 8.59023Z" fill="black"/>
</svg>
