<svg width="24" height="24" viewBox="0 0 24 24" fill="none" xmlns="http://www.w3.org/2000/svg">
<path d="M18.7412 5.8916C18.7463 5.92704 18.75 5.96314 18.75 6C18.75 6.03653 18.7462 6.07229 18.7412 6.10742V12.1426C18.7412 12.8965 18.4311 13.616 17.8877 14.1348L11.1513 20.5449L11.1396 20.5566L11.1279 20.5664C9.23526 22.2216 6.38182 22.1159 4.61716 20.3252C2.77658 18.4561 2.79928 15.45 4.66696 13.6084L4.68063 13.5938L4.69528 13.5811L10.2412 8.66113V1.25H18.7412V5.8916ZM11.7412 6.75V9.33691L11.4892 9.56152L5.70993 14.6846C4.44088 15.9457 4.42932 17.9966 5.68552 19.2725L5.80075 19.3838C7.01196 20.4989 8.87799 20.5337 10.1328 19.4424L16.8535 13.0488C17.1013 12.8117 17.2412 12.4841 17.2412 12.1426V6.75H11.7412ZM11.7412 5.25H17.2412V2.75H11.7412V5.25Z" fill="black"/>
</svg>
