<svg width="24" height="24" viewBox="0 0 24 24" fill="none" xmlns="http://www.w3.org/2000/svg">
<path d="M19 6C19 6 19 5.97 19 5.96V1H10V8.55L4.50001 13.43C2.54001 15.37 2.51001 18.54 4.45001 20.5C5.42001 21.48 6.71001 21.98 8.00001 21.98C9.18001 21.98 10.37 21.56 11.33 20.72L18.07 14.31C18.66 13.75 19 12.95 19 12.14V6.04C19 6.04 19 6.01 19 6ZM16.99 3V5H11.99V3H16.99ZM16.68 12.87L9.97001 19.25C8.78001 20.29 6.97001 20.23 5.86001 19.1C4.70001 17.92 4.71001 16.02 5.86001 14.89L11.99 9.45V7H16.99V12.14C16.99 12.41 16.88 12.68 16.68 12.86V12.87Z" fill="black"/>
</svg>
