<svg width="24" height="24" viewBox="0 0 24 24" fill="none" xmlns="http://www.w3.org/2000/svg">
<path d="M10.25 3.24023C10.9392 3.24023 11.5561 3.51991 12.0049 3.96875C12.4528 3.52568 13.0658 3.25 13.75 3.25H17.25C18.648 3.25 19.75 4.39996 19.75 5.78027V8.25H21C21.9642 8.25 22.75 9.03579 22.75 10V15C22.75 16.2541 21.9015 17.3143 20.75 17.6426V20H19.25V17.75H4.75V20H3.25V17.6426C2.09851 17.3143 1.25 16.2541 1.25 15V10C1.25 9.03579 2.03579 8.25 3 8.25H4.25V5.77051C4.25 4.3902 5.35202 3.24023 6.75 3.24023H10.25ZM3 9.75C2.86421 9.75 2.75 9.86421 2.75 10V15C2.75001 15.6858 3.31422 16.25 4 16.25H20C20.6858 16.25 21.25 15.6858 21.25 15V10C21.25 9.86421 21.1358 9.75 21 9.75H19.7197C19.61 9.75011 19.5156 9.81649 19.4795 9.92188L18.541 12.75H5.45898L4.52246 9.92773L4.48242 9.85449C4.4328 9.78918 4.35628 9.75009 4.28027 9.75H3ZM6.75 4.74023C6.20798 4.74023 5.75 5.19082 5.75 5.77051V9.05176C5.80225 9.13184 5.84873 9.21617 5.8877 9.30469L5.9375 9.43262L5.94238 9.44336L6.54102 11.25H11.25V5.77051C11.25 5.19082 10.792 4.74023 10.25 4.74023H6.75ZM13.75 4.75C13.211 4.75 12.7551 5.19552 12.75 5.77051V11.25H17.459L18.0586 9.44336L18.0605 9.4375C18.1083 9.29774 18.1725 9.16742 18.25 9.04785V5.78027C18.25 5.20058 17.792 4.75 17.25 4.75H13.75Z" fill="black"/>
</svg>
