<svg width="24" height="24" viewBox="0 0 24 24" fill="none" xmlns="http://www.w3.org/2000/svg">
<path d="M19 8H18V5.78C18 4.25 16.77 3 15.25 3H8.75C7.23 3 6 4.25 6 5.78V8H5C3.9 8 3 8.9 3 10V15C3 16.3 3.84 17.4 5 17.82V20H7V18H17V20H19V17.82C20.16 17.41 21 16.31 21 15V10C21 8.9 20.1 8 19 8ZM8.75 5H15.25C15.66 5 16 5.35 16 5.78V9.02C15.94 9.13 15.86 9.24 15.82 9.36L15.28 10.99H8.72L8.17 9.34C8.13 9.22 8.06 9.12 8 9.02V5.77C8 5.34 8.34 4.99 8.75 4.99V5ZM19 15C19 15.55 18.55 16 18 16H6C5.45 16 5 15.55 5 15V10H6.28L7.28 13H16.72L17.72 10H19V15Z" fill="black"/>
</svg>
