<svg width="24" height="24" viewBox="0 0 24 24" fill="none" xmlns="http://www.w3.org/2000/svg">
<path d="M15.25 3.25C16.648 3.25 17.75 4.39996 17.75 5.78027V8.25H19C19.9642 8.25 20.75 9.03579 20.75 10V15C20.75 16.2541 19.9015 17.3143 18.75 17.6426V20H17.25V17.75H6.75V20H5.25V17.6426C4.09851 17.3143 3.25 16.2541 3.25 15V10C3.25 9.03579 4.03579 8.25 5 8.25H6.25V5.78027C6.25 4.39996 7.35202 3.25 8.75 3.25H15.25ZM5 9.75C4.86421 9.75 4.75 9.86421 4.75 10V15C4.75 15.6858 5.31421 16.25 6 16.25H18C18.6858 16.25 19.25 15.6858 19.25 15V10C19.25 9.86421 19.1358 9.75 19 9.75H17.7197C17.61 9.75011 17.5156 9.81649 17.4795 9.92188L16.541 12.75H7.45898L6.52246 9.92773L6.48242 9.85449C6.4328 9.78918 6.35628 9.75009 6.28027 9.75H5ZM8.75 4.75C8.20798 4.75 7.75 5.20058 7.75 5.78027V9.05176C7.80225 9.13185 7.84873 9.21617 7.8877 9.30469L7.9375 9.43262L7.94238 9.44336L8.54102 11.25H15.459L16.0586 9.44336L16.0605 9.4375C16.1083 9.29774 16.1725 9.16742 16.25 9.04785V5.78027C16.25 5.20058 15.792 4.75 15.25 4.75H8.75Z" fill="black"/>
</svg>
