<svg width="24" height="24" viewBox="0 0 24 24" fill="none" xmlns="http://www.w3.org/2000/svg">
<path d="M21 8.00023H20V5.78023C20 4.25023 18.77 3.00023 17.25 3.00023H13.75C13.08 3.00023 12.48 3.25023 12.01 3.65023C11.53 3.25023 10.92 2.99023 10.25 2.99023H6.75C5.23 2.99023 4 4.24023 4 5.77023V8.00023H3C1.9 8.00023 1 8.90023 1 10.0002V15.0002C1 16.3002 1.84 17.4002 3 17.8202V20.0002H5V18.0002H19V20.0002H21V17.8202C22.16 17.4102 23 16.3102 23 15.0002V10.0002C23 8.90023 22.1 8.00023 21 8.00023ZM13.75 5.00023H17.25C17.66 5.00023 18 5.35023 18 5.78023V9.02024C17.94 9.13024 17.86 9.24023 17.82 9.36023L17.28 10.9902H13V5.77023C13 5.34023 13.34 4.99023 13.75 4.99023V5.00023ZM6.75 4.99023H10.25C10.66 4.99023 11 5.34023 11 5.77023V11.0002H6.72L6.17 9.35023C6.13 9.23023 6.06 9.13023 6 9.03023V5.77023C6 5.34023 6.34 4.99023 6.75 4.99023ZM21 15.0002C21 15.5502 20.55 16.0002 20 16.0002H4C3.45 16.0002 3 15.5502 3 15.0002V10.0002H4.28L5.28 13.0002H18.72L19.72 10.0002H21V15.0002Z" fill="black"/>
</svg>
