<svg width="24" height="24" viewBox="0 0 24 24" fill="none" xmlns="http://www.w3.org/2000/svg">
<path d="M22 21.75H2V20.25H22V21.75ZM22.5918 3.46094L15.5918 12.4609C15.3723 12.7427 14.9846 12.8304 14.665 12.6709L11.4092 11.043L8.70215 18.2637C8.60589 18.52 8.37751 18.7033 8.10645 18.7422C7.83537 18.781 7.5648 18.6692 7.40039 18.4502L4.625 14.75H2V13.25H5C5.23594 13.25 5.45796 13.3611 5.59961 13.5498L7.77832 16.4541L10.2979 9.73633L10.3291 9.66406C10.4116 9.49939 10.5525 9.36979 10.7256 9.30176C10.9233 9.22411 11.1449 9.23422 11.335 9.3291L14.7852 11.0537L21.4082 2.53906L22.5918 3.46094Z" fill="black"/>
</svg>
