<svg width="24" height="24" viewBox="0 0 24 24" fill="none" xmlns="http://www.w3.org/2000/svg">
<path d="M7.2 18.5999C7.39 18.8499 7.69 18.9999 8 18.9999C8.05 18.9999 8.09 18.9999 8.14 18.9999C8.5 18.9499 8.81 18.6999 8.93 18.3599L11.54 11.3999L14.55 12.8999C14.98 13.1099 15.49 12.9999 15.79 12.6199L22.79 3.61989L21.21 2.38989L14.71 10.7399L11.44 9.10989C11.19 8.97989 10.89 8.96989 10.63 9.06989C10.37 9.16989 10.16 9.37989 10.06 9.64989L7.7 15.9399L5.8 13.3999C5.61 13.1499 5.32 12.9999 5 12.9999H2V14.9999H4.5L7.2 18.5999Z" fill="black"/>
<path d="M22 19.9999H2V21.9999H22V19.9999Z" fill="black"/>
</svg>
