<svg width="24" height="24" viewBox="0 0 24 24" fill="none" xmlns="http://www.w3.org/2000/svg">
<path d="M21.1999 10.2C20.3999 8.40005 19.1999 6.80005 17.4999 5.70005C14.1999 3.50005 9.6999 3.50005 6.3999 5.70005C4.6999 6.80005 3.4999 8.40005 2.6999 10.2C1.8999 12 1.6999 14 2.0999 16C2.3999 17.3 2.8999 18.5 3.5999 19.6L5.2999 18.5C4.6999 17.6 4.2999 16.6 4.0999 15.6C3.7999 14 3.9999 12.4 4.5999 11C5.1999 9.50005 6.1999 8.30005 7.4999 7.40005C10.0999 5.60005 13.6999 5.60005 16.3999 7.40005C17.6999 8.30005 18.6999 9.50005 19.2999 11C19.8999 12.4 20.0999 14 19.7999 15.6C19.5999 16.6 19.1999 17.6 18.5999 18.5L20.2999 19.6C21.0999 18.5 21.5999 17.3 21.7999 15.9C22.1999 13.9 21.9999 11.9 21.1999 10.1V10.2Z" fill="#464A4D"/>
<path d="M15.3281 9.22804L11.2976 13.2585L12.7118 14.6728L16.7423 10.6423L15.3281 9.22804Z" fill="#464A4D"/>
</svg>
