<svg width="24" height="24" viewBox="0 0 24 24" fill="none" xmlns="http://www.w3.org/2000/svg">
<path fill-rule="evenodd" clip-rule="evenodd" d="M12 5.75C10.369 5.75 8.774 6.23565 7.41698 7.14339C6.05998 8.05112 5.0065 9.33385 4.38341 10.8458L4.38131 10.8509L4.38129 10.8509C3.75138 12.348 3.59376 14.0054 3.9056 15.6137C4.12588 16.6946 4.55657 17.7116 5.17112 18.6196L3.92886 19.4604C3.20402 18.3893 2.69495 17.1874 2.43504 15.9095L2.43373 15.903L2.43375 15.903C2.0666 14.0133 2.24884 12.0528 2.99762 10.2717C3.73466 8.4847 4.98076 6.96838 6.58299 5.89661C8.18597 4.82435 10.071 4.25 12 4.25C13.929 4.25 15.814 4.82435 17.417 5.89661C19.0193 6.96841 20.2654 8.48481 21.0024 10.2719C21.7511 12.053 21.9334 14.0134 21.5662 15.903L21.565 15.9095L21.5649 15.9095C21.305 17.1874 20.796 18.3893 20.0711 19.4604L18.8289 18.6196C19.4434 17.7116 19.8741 16.6945 20.0944 15.6136C20.4062 14.0053 20.2486 12.348 19.6187 10.8509L19.6165 10.8458L19.6166 10.8458C18.9935 9.33385 17.94 8.05112 16.583 7.14339C15.226 6.23565 13.631 5.75 12 5.75Z" fill="black"/>
<path fill-rule="evenodd" clip-rule="evenodd" d="M11.4697 13.4697L15.4697 9.46973L16.5304 10.5304L12.5304 14.5304L11.4697 13.4697Z" fill="black"/>
</svg>
