<svg width="24" height="24" viewBox="0 0 24 24" fill="none" xmlns="http://www.w3.org/2000/svg">
<path d="M21.2 10.2C20.4 8.40005 19.2 6.80005 17.5 5.70005C14.2 3.50005 9.70002 3.50005 6.40002 5.70005C4.70002 6.80005 3.50002 8.40005 2.70002 10.2C1.90002 12 1.70002 14 2.10002 16C2.40002 17.3 2.90002 18.5 3.60002 19.6L5.30002 18.5C4.70002 17.6 4.30002 16.6 4.10002 15.6C3.80002 14 4.00002 12.4 4.60002 11C5.20002 9.50005 6.20002 8.30005 7.50002 7.40005C10.1 5.60005 13.7 5.60005 16.4 7.40005C17.7 8.30005 18.7 9.50005 19.3 11C19.9 12.4 20.1 14 19.8 15.6C19.6 16.6 19.2 17.6 18.6 18.5L20.3 19.6C21.1 18.5 21.6 17.3 21.8 15.9C22.2 13.9 22 11.9 21.2 10.1V10.2Z" fill="black"/>
<path d="M15.3282 9.22804L11.2977 13.2585L12.7119 14.6728L16.7425 10.6423L15.3282 9.22804Z" fill="black"/>
</svg>
