<svg width="24" height="24" viewBox="0 0 24 24" fill="none" xmlns="http://www.w3.org/2000/svg">
<path fill-rule="evenodd" clip-rule="evenodd" d="M2 12.0005C2 17.4997 6.50028 22 12.0005 22C17.4997 22 22 17.4997 22 12.0005C22 6.50028 17.5498 2 12.0005 2C6.50028 2 2 6.50028 2 12.0005ZM15.7491 16.6509C13.3978 15.1995 10.448 14.8993 6.9477 15.699C6.59937 15.8011 6.29908 15.5509 6.19899 15.2496C6.09789 14.8993 6.34813 14.601 6.64942 14.4999C10.448 13.6491 13.7492 14.0004 16.3486 15.6009C16.699 15.7501 16.749 16.1494 16.5999 16.4497C16.4007 16.749 16.0503 16.8501 15.7491 16.6509ZM16.749 13.9494C14.0494 12.3018 9.95055 11.7993 6.80056 12.8003C6.40218 12.9014 5.94975 12.7002 5.85066 12.3018C5.74956 11.8994 5.95075 11.449 6.35013 11.3489C9.9996 10.2498 14.5009 10.8004 17.5998 12.7012C17.9001 12.8503 18.0502 13.3498 17.801 13.7001C17.5498 14.0494 17.1003 14.1996 16.749 13.9494ZM6.29908 9.75136C5.79961 9.8995 5.29813 9.60022 5.14999 9.15079C4.99985 8.64832 5.29813 8.14884 5.74956 7.9987C9.29993 6.9487 15.1505 7.14789 18.851 9.35098C19.3004 9.60022 19.4506 10.2008 19.2003 10.6502C18.9501 11.0006 18.3505 11.1487 17.9001 10.8985C14.7001 8.99965 9.34998 8.79946 6.29908 9.75136Z" fill="black"/>
</svg>
