<svg width="24" height="24" viewBox="0 0 24 24" fill="none" xmlns="http://www.w3.org/2000/svg">
<path fill-rule="evenodd" clip-rule="evenodd" d="M17.24 14.595H18.84V21H4.38098V14.595H5.97898V19.399H17.24V14.595ZM15.637 17.8V16.196H7.58198V17.8H15.637ZM15.636 15.801L15.976 14.249L8.11498 12.607L7.77698 14.16L15.636 15.801ZM16.076 13.764L16.754 12.301L9.47298 8.90202L8.79498 10.356V10.366L16.076 13.764ZM16.998 11.919L18.016 10.703L11.854 5.56302L10.838 6.77602L10.832 6.77702L16.998 11.919ZM13.503 3.96802L18.306 10.422L19.619 9.45102L14.812 2.99902H14.814L13.503 3.96802Z" fill="black"/>
</svg>
