<svg width="24" height="24" viewBox="0 0 24 24" fill="none" xmlns="http://www.w3.org/2000/svg">
<path d="M22.95 8.989C22.833 8.628 22.519 8.364 22.143 8.31L15.764 7.386L12.897 1.559C12.729 1.217 12.38 1 12 1C11.62 1 11.271 1.217 11.103 1.559L8.236 7.386L1.857 8.31C1.481 8.365 1.168 8.628 1.05 8.989C0.932004 9.35 1.029 9.748 1.3 10.014L5.925 14.547L4.815 20.929C4.75 21.303 4.902 21.681 5.209 21.906C5.515 22.131 5.922 22.162 6.259 21.989L12.001 19.026L17.742 21.989C17.887 22.063 18.044 22.1 18.201 22.1C18.41 22.1 18.618 22.035 18.793 21.906C19.099 21.681 19.251 21.303 19.187 20.929L18.077 14.547L22.702 10.014C22.973 9.748 23.07 9.35 22.952 8.989H22.95ZM16.3 13.486C16.066 13.715 15.958 14.048 16.015 14.371L16.87 19.288L12.458 17.012C12.314 16.938 12.157 16.901 12 16.901V4.265L14.202 8.741C14.348 9.037 14.63 9.242 14.956 9.289L19.857 9.999L16.3 13.486Z" fill="black"/>
</svg>
