<svg width="24" height="24" viewBox="0 0 24 24" fill="none" xmlns="http://www.w3.org/2000/svg">
<path d="M22.9499 8.989C22.8329 8.628 22.5189 8.364 22.1429 8.31L15.7639 7.386L12.8969 1.559C12.7289 1.217 12.3799 1 11.9999 1C11.6199 1 11.2709 1.217 11.1029 1.559L8.23594 7.386L1.85694 8.31C1.48094 8.365 1.16794 8.628 1.04994 8.989C0.931943 9.35 1.02894 9.748 1.29994 10.014L5.92494 14.547L4.81494 20.929C4.74994 21.303 4.90194 21.681 5.20894 21.906C5.51494 22.131 5.92194 22.162 6.25894 21.989L12.0009 19.026L17.7419 21.989C17.8869 22.063 18.0439 22.1 18.2009 22.1C18.4099 22.1 18.6179 22.035 18.7929 21.906C19.0989 21.681 19.2509 21.303 19.1869 20.929L18.0769 14.547L22.7019 10.014C22.9729 9.748 23.0699 9.35 22.9519 8.989H22.9499ZM16.2999 13.486C16.0659 13.715 15.9579 14.048 16.0149 14.371L16.8699 19.288L12.4579 17.012C12.3139 16.938 12.1569 16.901 11.9999 16.901V4.265L14.2019 8.741C14.3479 9.037 14.6299 9.242 14.9559 9.289L19.8569 9.999L16.2999 13.486Z" fill="#464A4D"/>
</svg>
