<svg width="24" height="24" viewBox="0 0 24 24" fill="none" xmlns="http://www.w3.org/2000/svg">
<path d="M23 8.99995C22.9 8.59995 22.6 8.39995 22.2 8.29995L15.8 7.39995L12.9 1.59995C12.6 0.899951 11.4 0.899951 11.1 1.59995L8.20002 7.39995L1.80002 8.29995C1.40002 8.29995 1.10002 8.59995 1.00002 8.99995C0.900024 9.39995 1.00002 9.79995 1.30002 9.99995L5.90002 14.5L4.80002 20.9C4.80002 21.2999 4.80002 21.6999 5.20002 21.9C5.50002 22.1 5.90002 22.1999 6.30002 21.9L12 18.9L17.7 21.9C17.8 21.9 18 22 18.2 22C18.4 22 18.6 22 18.8 21.7999C19.1 21.5999 19.3 21.1999 19.2 20.7999L18.1 14.4L22.7 9.89995C23 9.59995 23.1 9.19995 23 8.89995V8.99995Z" fill="black"/>
</svg>
