<svg width="24" height="24" viewBox="0 0 24 24" fill="none" xmlns="http://www.w3.org/2000/svg">
<path fill-rule="evenodd" clip-rule="evenodd" d="M2.25 5C2.25 3.48579 3.48579 2.25 5 2.25H19C20.5142 2.25 21.75 3.48579 21.75 5V7.6C21.75 8.31952 21.5701 9.04295 21.1208 9.63059C20.6619 10.2307 19.9755 10.6183 19.1061 10.7425C18.0212 10.8974 17.0774 10.4712 16.4694 9.7564C16.3817 9.8535 16.2888 9.94451 16.1918 10.0288C15.5844 10.5562 14.741 10.8838 13.8767 10.7398C13.112 10.6123 12.4721 10.2353 12.0153 9.70444C11.9144 9.82118 11.8059 9.92964 11.6918 10.0288C11.0844 10.5562 10.241 10.8838 9.3767 10.7398C8.61202 10.6123 7.97209 10.2353 7.51535 9.70444C7.41441 9.82118 7.30592 9.92964 7.19176 10.0288C6.58442 10.5562 5.74101 10.8838 4.8767 10.7398C3.29724 10.4766 2.25 9.14826 2.25 7.6V5ZM8.25 7.6C8.25 8.45174 8.80276 9.12345 9.6233 9.2602C9.95899 9.31615 10.3656 9.19379 10.7082 8.89623C11.0481 8.60109 11.25 8.19721 11.25 7.8V7.6C11.25 7.18579 11.5858 6.85 12 6.85C12.4142 6.85 12.75 7.18579 12.75 7.6C12.75 8.45174 13.3028 9.12345 14.1233 9.2602C14.459 9.31615 14.8656 9.19379 15.2082 8.89623C15.5481 8.60109 15.75 8.19721 15.75 7.8C15.75 7.38579 16.0858 7.05 16.5 7.05C16.9142 7.05 17.25 7.38579 17.25 7.8C17.25 8.68605 17.9868 9.38713 18.8939 9.25754C19.4245 9.18174 19.7381 8.96929 19.9292 8.71941C20.1299 8.45705 20.25 8.08048 20.25 7.6V5C20.25 4.31421 19.6858 3.75 19 3.75H5C4.31421 3.75 3.75 4.31421 3.75 5V7.6C3.75 8.45174 4.30276 9.12345 5.1233 9.2602C5.45899 9.31615 5.86558 9.19379 6.20824 8.89623C6.54809 8.60109 6.75 8.19721 6.75 7.8V7.6C6.75 7.18579 7.08579 6.85 7.5 6.85C7.91421 6.85 8.25 7.18579 8.25 7.6Z" fill="black"/>
<path fill-rule="evenodd" clip-rule="evenodd" d="M4.75 20.25V9.9H3.25V21.75H20.75V9.9H19.25V20.25H4.75Z" fill="black"/>
<path fill-rule="evenodd" clip-rule="evenodd" d="M14 13.75C13.3142 13.75 12.75 14.3142 12.75 15V16.25H15.25V15C15.25 14.3142 14.6858 13.75 14 13.75ZM11.25 15C11.25 13.4858 12.4858 12.25 14 12.25C15.5142 12.25 16.75 13.4858 16.75 15V17.75H11.25V15Z" fill="black"/>
</svg>
