<svg width="24" height="24" viewBox="0 0 24 24" fill="none" xmlns="http://www.w3.org/2000/svg">
<path d="M13 16.0002H10.48L11.93 12.3702C12.14 11.8602 11.89 11.2802 11.37 11.0702C10.85 10.8702 10.27 11.1102 10.07 11.6302L8.07003 16.6302C7.95003 16.9402 7.98003 17.2902 8.17003 17.5602C8.36003 17.8302 8.67003 18.0002 9.00003 18.0002H11.52L10.07 21.6302C9.86003 22.1402 10.11 22.7202 10.63 22.9302C10.75 22.9802 10.88 23.0002 11 23.0002C11.4 23.0002 11.77 22.7602 11.93 22.3702L13.93 17.3702C14.05 17.0602 14.01 16.7102 13.83 16.4402C13.64 16.1702 13.33 16.0002 13 16.0002Z" fill="black"/>
<path d="M20.71 8.59023C19.87 7.75023 18.82 7.22023 17.68 7.05023C16.91 4.78023 14.53 1.99023 11 1.99023C7.22 1.99023 4.13 5.01023 4 8.76023C2.38 9.60023 1 10.9202 1 13.9902C1 17.3502 3.64 19.9902 7 19.9902C7.55 19.9902 8 19.5402 8 18.9902C8 18.4402 7.55 17.9902 7 17.9902C4.76 17.9902 3 16.2302 3 13.9902C3 11.7502 3.78 11.0302 5.41 10.3002L6 10.0402V8.99023C6 6.23023 8.24 3.99023 11 3.99023C13.76 3.99023 15.58 6.42023 15.92 8.18023L16.08 8.99023H16.91C17.8 8.99023 18.65 9.35023 19.37 10.0602C20.41 10.9302 21.01 12.1802 21.01 13.4902C21.01 15.9702 18.99 17.9902 16.51 17.9902C15.96 17.9902 15.51 18.4402 15.51 18.9902C15.51 19.5402 15.96 19.9902 16.51 19.9902C20.09 19.9902 23.01 17.0702 23.01 13.4902C23.01 11.5802 22.15 9.77023 20.72 8.58023L20.71 8.59023Z" fill="black"/>
</svg>
