<svg width="24" height="24" viewBox="0 0 24 24" fill="none" xmlns="http://www.w3.org/2000/svg">
<path fill-rule="evenodd" clip-rule="evenodd" d="M13.25 8C13.25 6.48079 14.4808 5.25 16 5.25C17.5192 5.25 18.75 6.48079 18.75 8C18.75 9.51921 17.5192 10.75 16 10.75C14.4808 10.75 13.25 9.51921 13.25 8ZM16 6.75C15.3092 6.75 14.75 7.30921 14.75 8C14.75 8.69079 15.3092 9.25 16 9.25C16.6908 9.25 17.25 8.69079 17.25 8C17.25 7.30921 16.6908 6.75 16 6.75Z" fill="black"/>
<path fill-rule="evenodd" clip-rule="evenodd" d="M8.61411 6.35688C8.93601 6.16374 9.35112 6.23834 9.58563 6.53148L13.5856 11.5315C13.8244 11.8299 13.8005 12.2601 13.5303 12.5303L10.5303 15.5303C10.2374 15.8232 9.76255 15.8232 9.46965 15.5303C9.17676 15.2374 9.17676 14.7626 9.46965 14.4697L11.995 11.9443L8.8238 7.98035L4.38585 10.6431C4.03067 10.8562 3.56997 10.7411 3.35686 10.3859C3.14375 10.0307 3.25892 9.56999 3.61411 9.35688L8.61411 6.35688Z" fill="black"/>
<path fill-rule="evenodd" clip-rule="evenodd" d="M7.98387 15.2498C7.44025 15.2381 6.92634 15.4951 6.60951 15.937C6.00434 16.7811 5.02225 17.2721 3.98387 17.2498L3.97844 17.2497C3.52241 17.2366 3.07452 17.1251 2.66544 16.9213C2.29471 16.7365 2.14397 16.2862 2.32873 15.9155C2.5135 15.5447 2.96381 15.394 3.33453 15.5787C3.54664 15.6845 3.77978 15.743 4.0188 15.7502C4.56142 15.761 5.07415 15.5042 5.39045 15.063C5.9925 14.2233 6.96756 13.7329 7.99998 13.7499C9.0324 13.7329 10.0075 14.2233 10.6095 15.063C10.9263 15.5049 11.4402 15.7619 11.9839 15.7502C11.9946 15.7499 12.0054 15.7499 12.0161 15.7502C12.5597 15.7619 13.0736 15.5049 13.3905 15.063C13.9925 14.2233 14.9676 13.7329 16 13.7499C17.0324 13.7329 18.0075 14.2233 18.6095 15.063C18.9258 15.5042 19.4385 15.761 19.9812 15.7502C20.2202 15.743 20.4533 15.6845 20.6654 15.5787C21.0362 15.394 21.4865 15.5447 21.6712 15.9155C21.856 16.2862 21.7053 16.7365 21.3345 16.9213C20.9254 17.1251 20.4776 17.2366 20.0215 17.2497L20.0161 17.2498C18.9777 17.2721 17.9956 16.7811 17.3905 15.937C17.0736 15.4951 16.5597 15.2381 16.0161 15.2498C16.0054 15.2501 15.9946 15.2501 15.9839 15.2498C15.4402 15.2381 14.9263 15.4951 14.6095 15.937C14.0075 16.7767 13.0324 17.2671 12 17.2501C10.9676 17.2671 9.9925 16.7767 9.39045 15.937C9.07363 15.4951 8.55971 15.2381 8.0161 15.2498C8.00535 15.2501 7.99461 15.2501 7.98387 15.2498Z" fill="black"/>
</svg>
