<svg width="24" height="24" viewBox="0 0 24 24" fill="none" xmlns="http://www.w3.org/2000/svg">
<path d="M16 11C17.6569 11 19 9.65685 19 8C19 6.34315 17.6569 5 16 5C14.3431 5 13 6.34315 13 8C13 9.65685 14.3431 11 16 11Z" fill="black"/>
<path d="M21.895 15.8028C21.647 15.3088 21.046 15.1108 20.553 15.3558C20.375 15.4448 20.174 15.4958 19.98 15.5008C19.969 15.5008 19.959 15.5008 19.95 15.5008C19.5 15.5008 19.076 15.2838 18.813 14.9168C18.173 14.0248 17.146 13.4988 16.09 13.4988H15.949C14.855 13.4988 13.827 14.0248 13.187 14.9168C12.917 15.2918 12.468 15.4938 11.979 15.4998C11.684 15.5008 11.404 15.4068 11.167 15.2468L13.707 12.7068C14.067 12.3468 14.1 11.7728 13.781 11.3748L9.78101 6.37483C9.46901 5.98383 8.91501 5.88483 8.48601 6.14183L3.48601 9.14183C3.01201 9.42583 2.85901 10.0398 3.14301 10.5138C3.42801 10.9878 4.04201 11.1408 4.51501 10.8568L8.76501 8.30683L11.66 11.9258L9.66101 13.9248C9.15801 13.6568 8.59701 13.5058 8.02101 13.4998C6.91401 13.5088 5.84101 14.0058 5.18801 14.9168C4.91901 15.2908 4.49501 15.5478 4.02801 15.4998C3.82401 15.4948 3.62801 15.4458 3.44701 15.3548C2.95101 15.1048 2.35201 15.3098 2.10601 15.8028C1.85901 16.2968 2.06001 16.8978 2.55401 17.1438C2.99801 17.3658 3.47501 17.4848 3.98001 17.4988C5.11201 17.5008 6.16001 16.9928 6.81301 16.0818C7.08201 15.7068 7.51001 15.4928 8.02101 15.4988C8.47901 15.5008 8.91801 15.7068 9.18801 16.0818C9.82701 16.9738 10.855 17.4998 11.911 17.4998H12.052C13.146 17.4998 14.174 16.9738 14.814 16.0818C15.084 15.7078 15.527 15.4988 16.022 15.4988C16.511 15.4968 16.92 15.7068 17.189 16.0818C17.843 16.9918 18.899 17.5018 20.03 17.4988C20.521 17.4838 21.011 17.3618 21.449 17.1438C21.943 16.8968 22.143 16.2958 21.896 15.8018L21.895 15.8028Z" fill="black"/>
</svg>
