<svg width="24" height="24" viewBox="0 0 24 24" fill="none" xmlns="http://www.w3.org/2000/svg">
<path fill-rule="evenodd" clip-rule="evenodd" d="M13.2499 8C13.2499 6.48079 14.4807 5.25 15.9999 5.25C17.5191 5.25 18.7499 6.48079 18.7499 8C18.7499 9.51921 17.5191 10.75 15.9999 10.75C14.4807 10.75 13.2499 9.51921 13.2499 8ZM15.9999 6.75C15.3091 6.75 14.7499 7.30921 14.7499 8C14.7499 8.69079 15.3091 9.25 15.9999 9.25C16.6907 9.25 17.2499 8.69079 17.2499 8C17.2499 7.30921 16.6907 6.75 15.9999 6.75Z" fill="#464A4D"/>
<path fill-rule="evenodd" clip-rule="evenodd" d="M8.61405 6.35688C8.93595 6.16374 9.35106 6.23834 9.58557 6.53148L13.5856 11.5315C13.8243 11.8299 13.8005 12.2601 13.5303 12.5303L10.5303 15.5303C10.2374 15.8232 9.76248 15.8232 9.46959 15.5303C9.1767 15.2374 9.1767 14.7626 9.46959 14.4697L11.9949 11.9443L8.82374 7.98035L4.38579 10.6431C4.03061 10.8562 3.56991 10.7411 3.3568 10.3859C3.14369 10.0307 3.25886 9.56999 3.61405 9.35688L8.61405 6.35688Z" fill="#464A4D"/>
<path fill-rule="evenodd" clip-rule="evenodd" d="M7.98381 15.2498C7.44019 15.2381 6.92627 15.4951 6.60945 15.937C6.00427 16.7811 5.02219 17.2721 3.98381 17.2498L3.97838 17.2497C3.52235 17.2366 3.07446 17.1251 2.66537 16.9213C2.29465 16.7365 2.1439 16.2862 2.32867 15.9155C2.51343 15.5447 2.96375 15.394 3.33447 15.5787C3.54658 15.6845 3.77972 15.743 4.01874 15.7502C4.56136 15.761 5.07409 15.5042 5.39039 15.063C5.99244 14.2233 6.9675 13.7329 7.99992 13.7499C9.03234 13.7329 10.0074 14.2233 10.6095 15.063C10.9263 15.5049 11.4402 15.7619 11.9838 15.7502C11.9945 15.7499 12.0053 15.7499 12.016 15.7502C12.5597 15.7619 13.0736 15.5049 13.3904 15.063C13.9924 14.2233 14.9675 13.7329 15.9999 13.7499C17.0323 13.7329 18.0074 14.2233 18.6095 15.063C18.9257 15.5042 19.4385 15.761 19.9811 15.7502C20.2201 15.743 20.4533 15.6845 20.6654 15.5787C21.0361 15.394 21.4864 15.5447 21.6712 15.9155C21.8559 16.2862 21.7052 16.7365 21.3345 16.9213C20.9254 17.1251 20.4775 17.2366 20.0215 17.2497L20.016 17.2498C18.9777 17.2721 17.9956 16.7811 17.3904 15.937C17.0736 15.4951 16.5597 15.2381 16.016 15.2498C16.0053 15.2501 15.9945 15.2501 15.9838 15.2498C15.4402 15.2381 14.9263 15.4951 14.6095 15.937C14.0074 16.7767 13.0323 17.2671 11.9999 17.2501C10.9675 17.2671 9.99244 16.7767 9.39039 15.937C9.07357 15.4951 8.55965 15.2381 8.01604 15.2498C8.00529 15.2501 7.99455 15.2501 7.98381 15.2498Z" fill="#464A4D"/>
</svg>
