<svg width="24" height="24" viewBox="0 0 24 24" fill="none" xmlns="http://www.w3.org/2000/svg">
<path d="M15.9999 11C17.6567 11 18.9999 9.65685 18.9999 8C18.9999 6.34315 17.6567 5 15.9999 5C14.343 5 12.9999 6.34315 12.9999 8C12.9999 9.65685 14.343 11 15.9999 11Z" fill="#464A4D"/>
<path d="M21.8949 15.8028C21.6469 15.3088 21.0459 15.1108 20.5529 15.3558C20.3749 15.4448 20.1739 15.4958 19.9799 15.5008C19.9689 15.5008 19.9589 15.5008 19.9499 15.5008C19.4999 15.5008 19.0759 15.2838 18.8129 14.9168C18.1729 14.0248 17.1459 13.4988 16.0899 13.4988H15.9489C14.8549 13.4988 13.8269 14.0248 13.1869 14.9168C12.9169 15.2918 12.4679 15.4938 11.9789 15.4998C11.6839 15.5008 11.4039 15.4068 11.1669 15.2468L13.7069 12.7068C14.0669 12.3468 14.0999 11.7728 13.7809 11.3748L9.78088 6.37483C9.46888 5.98383 8.91488 5.88483 8.48588 6.14183L3.48588 9.14183C3.01188 9.42583 2.85888 10.0398 3.14288 10.5138C3.42788 10.9878 4.04188 11.1408 4.51488 10.8568L8.76488 8.30683L11.6599 11.9258L9.66088 13.9248C9.15788 13.6568 8.59688 13.5058 8.02088 13.4998C6.91388 13.5088 5.84088 14.0058 5.18788 14.9168C4.91888 15.2908 4.49488 15.5478 4.02788 15.4998C3.82388 15.4948 3.62788 15.4458 3.44688 15.3548C2.95088 15.1048 2.35188 15.3098 2.10588 15.8028C1.85888 16.2968 2.05988 16.8978 2.55388 17.1438C2.99788 17.3658 3.47488 17.4848 3.97988 17.4988C5.11188 17.5008 6.15988 16.9928 6.81288 16.0818C7.08188 15.7068 7.50988 15.4928 8.02088 15.4988C8.47888 15.5008 8.91788 15.7068 9.18788 16.0818C9.82688 16.9738 10.8549 17.4998 11.9109 17.4998H12.0519C13.1459 17.4998 14.1739 16.9738 14.8139 16.0818C15.0839 15.7078 15.5269 15.4988 16.0219 15.4988C16.5109 15.4968 16.9199 15.7068 17.1889 16.0818C17.8429 16.9918 18.8989 17.5018 20.0299 17.4988C20.5209 17.4838 21.0109 17.3618 21.4489 17.1438C21.9429 16.8968 22.1429 16.2958 21.8959 15.8018L21.8949 15.8028Z" fill="#464A4D"/>
</svg>
