<svg width="24" height="24" viewBox="0 0 24 24" fill="none" xmlns="http://www.w3.org/2000/svg">
<path d="M18.5303 13.1396L11.1396 20.5303L2.25 11.6406V4.25H9.64062L18.5303 13.1396ZM23.0605 13.1396L16.2002 20L15.1396 18.9395L20.9395 13.1396L13.3301 5.53027L14.3906 4.46973L23.0605 13.1396ZM3.75 11.0195L11.1396 18.4092L16.4092 13.1396L9.01953 5.75H3.75V11.0195ZM6.34961 7.44043C6.90189 7.44043 7.34961 7.88814 7.34961 8.44043C7.34938 8.99252 6.90175 9.44043 6.34961 9.44043C5.79765 9.44022 5.34984 8.99239 5.34961 8.44043C5.34961 7.88828 5.7975 7.44064 6.34961 7.44043Z" fill="black"/>
</svg>
