<svg width="24" height="24" viewBox="0 0 24 24" fill="none" xmlns="http://www.w3.org/2000/svg">
<path d="M12 2C17.5227 2.00003 22 6.47729 22 12C21.9999 17.5226 17.5226 22 12 22C6.47736 22 2.00012 17.5226 2 12C2 6.47728 6.47728 2 12 2ZM16.0801 8.01172C15.7054 8.02004 15.1222 8.22059 12.3496 9.37793C11.3754 9.78593 9.43529 10.6262 6.52148 11.8916C6.05522 12.0831 5.80525 12.267 5.78027 12.4502C5.739 12.7996 6.23823 12.9077 6.8623 13.1074C7.37853 13.2739 8.0619 13.4653 8.41992 13.4736C8.74458 13.4819 9.1024 13.3489 9.50195 13.0742C12.2213 11.2364 13.6202 10.304 13.7148 10.2852C13.7814 10.2685 13.8646 10.2521 13.9229 10.3018C13.9811 10.3516 13.9819 10.4514 13.9736 10.4766C13.9237 10.6846 11.3695 13.0144 11.2178 13.166C10.6516 13.7488 10.0103 14.1064 11.001 14.7559C11.8586 15.322 12.3498 15.6804 13.2324 16.2549C13.7902 16.6212 14.2316 17.0539 14.8145 17.0039C15.0808 16.9788 15.3556 16.7294 15.4971 15.9805C15.8301 14.2154 16.479 10.3771 16.6289 8.79492C16.6456 8.6617 16.629 8.48658 16.6123 8.40332C16.5957 8.32007 16.5706 8.21214 16.4707 8.12891C16.3459 8.02917 16.1634 8.01175 16.0801 8.01172Z" fill="black"/>
</svg>
