<svg width="24" height="24" viewBox="0 0 24 24" fill="none" xmlns="http://www.w3.org/2000/svg">
<path d="M2.75 17.25H6.75V22H5.25V18.75H2.75V22H1.25V13H2.75V17.25ZM11.6963 1.31445C11.9217 1.21455 12.1846 1.2312 12.3975 1.36426L20.3975 6.36426C20.6166 6.50133 20.75 6.74148 20.75 7V9C20.7499 9.41411 20.4141 9.75 20 9.75H12.75V20.25H15V21.75H12.75V22H11.25V21.75H9V20.25H11.25V9.75H4C3.58586 9.75 3.25012 9.41411 3.25 9V7L3.25586 6.9043C3.28428 6.68314 3.41069 6.48424 3.60254 6.36426L11.6025 1.36426L11.6963 1.31445ZM22.75 22H21.25V18.75H18.75V22H17.25V17.25H21.25V13H22.75V22ZM4.75 7.41504V8.25H19.25V7.41504L12 2.88379L4.75 7.41504Z" fill="black"/>
</svg>
