<svg width="24" height="24" viewBox="0 0 24 24" fill="none" xmlns="http://www.w3.org/2000/svg">
<path fill-rule="evenodd" clip-rule="evenodd" d="M6.74003 4.75C5.57561 4.75 4.60392 5.63749 4.49897 6.79568L3.94498 12.8866C3.8789 13.6187 4.45535 14.25 5.19003 14.25H9.00003C9.41425 14.25 9.75003 14.5858 9.75003 15V19C9.75003 20.3389 11.0465 21.8915 13.25 21.4283V15C13.25 14.5858 13.5858 14.25 14 14.25H15.25V7C15.25 6.2306 15.0147 5.68634 14.6642 5.33583C14.3137 4.98532 13.7694 4.75 13 4.75H6.74003ZM15.2582 3.88872C14.6315 3.46141 13.8554 3.25 13 3.25H6.74003C4.80054 3.25 3.18029 4.72838 3.00512 6.66007C3.00511 6.66015 3.00513 6.65998 3.00512 6.66007L2.45112 12.7511C2.3054 14.3609 3.57282 15.75 5.19003 15.75H8.25003V19C8.25003 21.4623 10.751 23.8736 14.2372 22.7115C14.5435 22.6094 14.75 22.3228 14.75 22V15.75H21C21.4142 15.75 21.75 15.4142 21.75 15V4C21.75 3.58579 21.4142 3.25 21 3.25H16C15.6236 3.25 15.312 3.52728 15.2582 3.88872ZM16.75 4.75V14.25H20.25V4.75H16.75Z" fill="black"/>
</svg>
