<svg width="24" height="24" viewBox="0 0 24 24" fill="none" xmlns="http://www.w3.org/2000/svg">
<path fill-rule="evenodd" clip-rule="evenodd" d="M13.0605 21.166L13.0605 14.7377C13.0605 14.3235 13.3963 13.9877 13.8105 13.9877L15.0605 13.9877L15.0605 6.73773C15.0605 5.96833 14.8252 5.42407 14.4747 5.07356C14.1242 4.72305 13.58 4.48773 12.8105 4.48773L6.55055 4.48773C5.38613 4.48773 4.41444 5.37522 4.30949 6.53341L3.75549 12.6243C3.75548 12.6244 3.7555 12.6242 3.75549 12.6243C3.68941 13.3564 4.26587 13.9877 5.00055 13.9877L8.81055 13.9877C9.22476 13.9877 9.56055 14.3235 9.56055 14.7377L9.56055 18.7377C9.56055 20.0766 10.8571 21.6292 13.0605 21.166ZM16.5605 4.48773L16.5605 13.9877L20.0605 13.9877L20.0605 4.48773L16.5605 4.48773ZM20.8105 15.4877C21.2248 15.4877 21.5605 15.1519 21.5605 14.7377L21.5605 3.73773C21.5605 3.32352 21.2248 2.98773 20.8105 2.98773L15.8105 2.98773C15.4341 2.98773 15.1225 3.26501 15.0688 3.62645C14.442 3.19914 13.6659 2.98773 12.8105 2.98773L6.55055 2.98773C4.61105 2.98773 2.9908 4.46611 2.81563 6.39779C2.81564 6.39771 2.81562 6.39788 2.81563 6.39779L2.26163 12.4888C2.11591 14.0986 3.38334 15.4877 5.00055 15.4877L8.06055 15.4877L8.06055 18.7377C8.06055 21.2001 10.5615 23.6113 14.0477 22.4492C14.354 22.3472 14.5605 22.0606 14.5605 21.7377L14.5605 15.4877L20.8105 15.4877Z" fill="#464A4D"/>
</svg>
