<svg width="24" height="24" viewBox="0 0 24 24" fill="none" xmlns="http://www.w3.org/2000/svg">
<path d="M2.97511 15.023C3.54211 15.644 4.35011 16 5.19111 16H8.00111V19C8.00111 20.332 8.67111 21.61 9.79211 22.418C11.0281 23.309 12.6191 23.502 14.2761 22.962C14.7001 22.824 15.0011 22.443 15.0011 21.997V16H16.0031L16.0011 5C16.0011 3.896 15.1051 3 14.0011 3H6.74211C4.67311 3 2.94511 4.578 2.75711 6.639L2.20311 12.729C2.12711 13.566 2.40911 14.403 2.97511 15.023Z" fill="#464A4D"/>
<path d="M18.0001 16H21.0001C21.5524 16 22.0001 15.5523 22.0001 15V4C22.0001 3.44771 21.5524 3 21.0001 3H18.0001C17.4478 3 17.0001 3.44771 17.0001 4V15C17.0001 15.5523 17.4478 16 18.0001 16Z" fill="#464A4D"/>
</svg>
