<svg width="24" height="24" viewBox="0 0 24 24" fill="none" xmlns="http://www.w3.org/2000/svg">
<path d="M2.97499 15.023C3.54199 15.644 4.34999 16 5.19099 16H8.00099V19C8.00099 20.332 8.67099 21.61 9.79199 22.418C11.028 23.309 12.619 23.502 14.276 22.962C14.7 22.824 15.001 22.443 15.001 21.997V16H16.003L16.001 5C16.001 3.896 15.105 3 14.001 3H6.74199C4.67299 3 2.94499 4.578 2.75699 6.639L2.20299 12.729C2.12699 13.566 2.40899 14.403 2.97499 15.023Z" fill="black"/>
<path d="M18 16H21C21.5523 16 22 15.5523 22 15V4C22 3.44771 21.5523 3 21 3H18C17.4477 3 17 3.44771 17 4V15C17 15.5523 17.4477 16 18 16Z" fill="black"/>
</svg>
