<svg width="24" height="24" viewBox="0 0 24 24" fill="none" xmlns="http://www.w3.org/2000/svg">
<path d="M21.0249 8.97705C20.4579 8.35605 19.6499 8.00005 18.8089 8.00005H15.9989V5.00005C15.9989 3.66805 15.3289 2.39005 14.2079 1.58205C12.9719 0.691051 11.3809 0.498051 9.72395 1.03805C9.29995 1.17605 8.99895 1.55705 8.99895 2.00305V8.00005H7.99695L7.99895 19.0001C7.99895 20.1041 8.89495 21.0001 9.99895 21.0001H17.2579C19.3269 21.0001 21.0549 19.4221 21.2429 17.3611L21.7969 11.2711C21.8729 10.4341 21.5909 9.59705 21.0249 8.97705Z" fill="black"/>
<path d="M6 8H3C2.44772 8 2 8.44772 2 9V20C2 20.5523 2.44772 21 3 21H6C6.55228 21 7 20.5523 7 20V9C7 8.44772 6.55228 8 6 8Z" fill="black"/>
</svg>
