<svg width="24" height="24" viewBox="0 0 24 24" fill="none" xmlns="http://www.w3.org/2000/svg">
<path fill-rule="evenodd" clip-rule="evenodd" d="M10.75 2.57171V9C10.75 9.41422 10.4142 9.75 10 9.75H8.75V17C8.75 17.7694 8.98532 18.3137 9.33583 18.6642C9.68634 19.0147 10.2306 19.25 11 19.25H17.26C18.4244 19.25 19.3961 18.3625 19.5011 17.2043L20.0551 11.1134C20.055 11.1135 20.0551 11.1133 20.0551 11.1134C20.1211 10.3813 19.5447 9.75 18.81 9.75H15C14.5858 9.75 14.25 9.41422 14.25 9V5C14.25 3.66111 12.9535 2.10853 10.75 2.57171ZM7.25 19.25V9.75H3.75V19.25H7.25ZM3 8.25C2.58579 8.25 2.25 8.58579 2.25 9V20C2.25 20.4142 2.58579 20.75 3 20.75H8C8.3764 20.75 8.68804 20.4727 8.7418 20.1113C9.36853 20.5386 10.1447 20.75 11 20.75H17.26C19.1995 20.75 20.8197 19.2716 20.9949 17.3399C20.9949 17.34 20.9949 17.3399 20.9949 17.3399L21.5489 11.2489C21.6946 9.63913 20.4272 8.25 18.81 8.25H15.75V5C15.75 2.53768 13.249 0.126421 9.76283 1.28849C9.45657 1.39058 9.25 1.67718 9.25 2V8.25H3Z" fill="black"/>
</svg>
