<svg width="24" height="24" viewBox="0 0 24 24" fill="none" xmlns="http://www.w3.org/2000/svg">
<path d="M22.783 6.8688L17.131 1.2168L11.943 6.4058L8.67204 3.1458C7.93504 2.4068 6.95304 1.9998 5.90904 1.9998C4.88104 1.9998 3.87304 2.4168 3.14604 3.1448C2.41804 3.8718 2.00004 4.8788 2.00004 5.9088C2.00004 6.9388 2.41704 7.9438 3.14404 8.6708L6.40604 11.9438L1.21704 17.1318L6.86904 22.7838L12.048 17.6048L16.43 22.0008H21.999V16.4318L17.603 12.0498L22.783 6.8688ZM14.528 6.6488L15.822 7.9428L17.236 6.5288L15.942 5.2348L17.132 4.0448L19.956 6.8688L16.188 10.6368L13.36 7.8178L14.528 6.6488ZM4.00004 5.9078C4.00004 5.4058 4.20404 4.9138 4.55904 4.5588C5.27504 3.8418 6.54104 3.8408 7.25804 4.5598L8.49004 5.7878L5.78804 8.4898L4.55904 7.2568C4.20404 6.9018 4.00004 6.4098 4.00004 5.9078ZM6.86904 19.9548L4.04504 17.1308L5.22404 15.9528L6.51504 17.2438L7.92904 15.8298L6.63904 14.5398L7.81904 13.3598L10.638 16.1878L6.87004 19.9558L6.86904 19.9548Z" fill="#464A4D"/>
</svg>
