<svg width="24" height="24" viewBox="0 0 24 24" fill="none" xmlns="http://www.w3.org/2000/svg">
<path d="M22.783 6.8688L17.131 1.2168L11.943 6.4058L8.67198 3.1458C7.93498 2.4068 6.95298 1.9998 5.90898 1.9998C4.88098 1.9998 3.87298 2.4168 3.14598 3.1448C2.41798 3.8718 1.99998 4.8788 1.99998 5.9088C1.99998 6.9388 2.41698 7.9438 3.14398 8.6708L6.40598 11.9438L1.21698 17.1318L6.86898 22.7838L12.048 17.6048L16.43 22.0008H21.999V16.4318L17.603 12.0498L22.783 6.8688ZM14.528 6.6488L15.822 7.9428L17.236 6.5288L15.942 5.2348L17.132 4.0448L19.956 6.8688L16.188 10.6368L13.36 7.8178L14.528 6.6488ZM3.99998 5.9078C3.99998 5.4058 4.20398 4.9138 4.55898 4.5588C5.27498 3.8418 6.54098 3.8408 7.25798 4.5598L8.48998 5.7878L5.78798 8.4898L4.55898 7.2568C4.20398 6.9018 3.99998 6.4098 3.99998 5.9078ZM6.86898 19.9548L4.04498 17.1308L5.22398 15.9528L6.51498 17.2438L7.92898 15.8298L6.63898 14.5398L7.81898 13.3598L10.638 16.1878L6.86998 19.9558L6.86898 19.9548Z" fill="black"/>
</svg>
