<svg width="24" height="24" viewBox="0 0 24 24" fill="none" xmlns="http://www.w3.org/2000/svg">
<path d="M19.885 1.57711C19.51 1.42111 19.079 1.50611 18.793 1.79311L1.79299 18.7931C1.50599 19.0791 1.42099 19.5111 1.57699 19.8851C1.73199 20.2571 2.09699 20.5001 2.49999 20.5001H2.50299L19.437 20.4401C19.986 20.4381 20.431 19.9941 20.433 19.4441L20.499 2.50411C20.501 2.09911 20.259 1.73311 19.885 1.57711ZM18.438 18.4441L4.92299 18.4911L6.75699 16.6571L8.17099 18.0711L9.58499 16.6571L8.17099 15.2431L9.58499 13.8291L11 15.2441L12.414 13.8301L10.999 12.4151L12.414 11.0001L13.828 12.4141L15.242 11.0001L13.828 9.58611L15.243 8.17111L16.658 9.58611L18.072 8.17211L16.657 6.75711L18.49 4.92411L18.437 18.4451L18.438 18.4441Z" fill="black"/>
</svg>
