<svg width="24" height="24" viewBox="0 0 24 24" fill="none" xmlns="http://www.w3.org/2000/svg">
<path d="M18.9697 1.96968C19.1845 1.75487 19.5076 1.69088 19.788 1.80757C20.0335 1.90983 20.2042 2.13287 20.2421 2.39058L20.25 2.50289L20.1835 19.4433C20.1817 19.8551 19.8483 20.1889 19.4365 20.1904L2.50289 20.25C2.1991 20.251 1.92437 20.0685 1.80757 19.788C1.69088 19.5076 1.75487 19.1845 1.96968 18.9697L18.9697 1.96968ZM16.3027 6.75679L17.8945 8.34859L16.8339 9.40914L15.2421 7.81734L13.4736 9.58492L15.0654 11.1767L14.0048 12.2373L12.413 10.6455L10.6455 12.414L12.2373 14.0058L11.1767 15.0664L9.58492 13.4746L7.81734 15.2412L9.40816 16.832L8.34761 17.8925L6.75679 16.3017L4.31636 18.7431L18.6855 18.6923L18.7421 4.31734L16.3027 6.75679Z" fill="#464A4D"/>
</svg>
