<svg width="24" height="24" viewBox="0 0 24 24" fill="none" xmlns="http://www.w3.org/2000/svg">
<path d="M6.32126 1.5833C6.53709 1.38194 6.85611 1.32393 7.13376 1.44561L12.998 4.01494L13.1015 4.07061C13.3311 4.21762 13.4654 4.48107 13.4443 4.75909C13.4231 5.03687 13.2508 5.27625 13.0019 5.38702L12.8906 5.42705L8.78611 6.52569L9.249 8.2503H13.1523L14.2363 5.09698L14.2656 5.02666C14.3399 4.86606 14.4688 4.73553 14.6308 4.66045L19.6845 2.31963C20.0604 2.14556 20.5065 2.3091 20.6806 2.68487C20.8544 3.06059 20.691 3.50689 20.3154 3.68096L15.5508 5.88702L14.7383 8.2503H15.5664C16.429 8.2503 17.2973 8.59126 17.8916 9.26983L18.1025 9.52178C19.1321 10.8043 19.7499 12.4255 19.75 14.1849C19.7498 18.376 16.2748 21.7376 12.0234 21.7503L11.6093 21.7415C7.70703 21.5541 4.50866 18.4574 4.26462 14.6565L4.25095 14.2864C4.22535 12.372 4.93119 10.6167 6.10544 9.27373V9.27276L6.2197 9.14971C6.63335 8.72992 7.15945 8.45809 7.71677 8.33233L7.33689 6.91436L3.07419 8.05694C2.76444 8.13992 2.43556 8.01653 2.25681 7.7503C2.07815 7.48408 2.08914 7.13347 2.28318 6.87823L6.23533 1.67803L6.32126 1.5833ZM5.79783 13.4329C5.76308 13.7054 5.74719 13.9837 5.75095 14.2659L5.76169 14.5599C5.95646 17.5746 8.51474 20.0914 11.6816 20.2435L12.0185 20.2503C15.4334 20.2408 18.1707 17.586 18.2461 14.3226C17.294 14.4791 16.1878 14.4898 15.2295 14.1321V14.1331C14.8768 14.0027 14.194 13.9416 13.3945 13.971C12.617 13.9997 11.8627 14.1083 11.4238 14.2317L11.4228 14.2308C10.7374 14.4289 9.61286 14.823 8.42185 14.7044C7.51965 14.6145 6.62287 14.2439 5.79783 13.4329ZM9.88669 10.6312L9.90232 10.7064C9.96287 11.0814 9.73125 11.4495 9.35642 11.5501C8.98159 11.6505 8.59616 11.448 8.46091 11.0931L8.43747 11.0198L8.10544 9.78057C7.75659 9.84627 7.44765 10.0157 7.23337 10.2601L7.23435 10.261C6.85545 10.6944 6.53932 11.1801 6.29685 11.7044C7.08241 12.8103 7.87554 13.1429 8.57029 13.2122C9.40862 13.2957 10.2078 13.0207 11.0127 12.7884L11.0166 12.7874L11.2519 12.7278C11.8282 12.5935 12.5957 12.4994 13.3388 12.472C14.0628 12.4453 14.8709 12.4763 15.4951 12.6448L15.75 12.7259L15.917 12.7815C16.5593 12.9742 17.3546 12.959 18.0927 12.8274C17.8657 11.8643 17.4021 10.9877 16.7636 10.2591V10.2581C16.486 9.94094 16.0476 9.7503 15.5664 9.7503H14.2226L13.709 11.2444C13.574 11.6356 13.1472 11.8437 12.7558 11.7093C12.3645 11.5745 12.1566 11.1477 12.291 10.7562L12.6367 9.7503H9.65037L9.88669 10.6312ZM4.80369 6.03936L10.4375 4.53057L7.07224 3.05498L4.80369 6.03936Z" fill="#464A4D"/>
</svg>
