<svg width="24" height="24" viewBox="0 0 24 24" fill="none" xmlns="http://www.w3.org/2000/svg">
<path d="M6.32139 1.5833C6.53721 1.38194 6.85623 1.32393 7.13389 1.44561L12.9981 4.01494L13.1017 4.07061C13.3312 4.21762 13.4655 4.48107 13.4444 4.75909C13.4233 5.03687 13.2509 5.27625 13.0021 5.38702L12.8907 5.42705L8.78623 6.52569L9.24912 8.2503H13.1524L14.2364 5.09698L14.2657 5.02666C14.34 4.86606 14.4689 4.73553 14.631 4.66045L19.6847 2.31963C20.0605 2.14556 20.5066 2.3091 20.6808 2.68487C20.8545 3.06059 20.6912 3.50689 20.3155 3.68096L15.5509 5.88702L14.7384 8.2503H15.5665C16.4292 8.2503 17.2974 8.59126 17.8917 9.26983L18.1026 9.52178C19.1322 10.8043 19.75 12.4255 19.7501 14.1849C19.7499 18.376 16.275 21.7376 12.0235 21.7503L11.6095 21.7415C7.70715 21.5541 4.50878 18.4574 4.26475 14.6565L4.25107 14.2864C4.22547 12.372 4.93131 10.6167 6.10557 9.27373V9.27276L6.21982 9.14971C6.63347 8.72992 7.15958 8.45809 7.71689 8.33233L7.33701 6.91436L3.07432 8.05694C2.76456 8.13992 2.43569 8.01653 2.25693 7.7503C2.07827 7.48408 2.08926 7.13347 2.2833 6.87823L6.23545 1.67803L6.32139 1.5833ZM5.79795 13.4329C5.7632 13.7054 5.74732 13.9837 5.75107 14.2659L5.76182 14.5599C5.95658 17.5746 8.51486 20.0914 11.6817 20.2435L12.0187 20.2503C15.4335 20.2408 18.1709 17.586 18.2462 14.3226C17.2941 14.4791 16.1879 14.4898 15.2296 14.1321V14.1331C14.8769 14.0027 14.1941 13.9416 13.3946 13.971C12.6171 13.9997 11.8628 14.1083 11.4239 14.2317L11.4229 14.2308C10.7375 14.4289 9.61299 14.823 8.42197 14.7044C7.51978 14.6145 6.62299 14.2439 5.79795 13.4329ZM9.88682 10.6312L9.90244 10.7064C9.96299 11.0814 9.73137 11.4495 9.35654 11.5501C8.98171 11.6505 8.59628 11.448 8.46103 11.0931L8.4376 11.0198L8.10557 9.78057C7.75671 9.84627 7.44777 10.0157 7.2335 10.2601L7.23447 10.261C6.85557 10.6944 6.53944 11.1801 6.29697 11.7044C7.08253 12.8103 7.87566 13.1429 8.57041 13.2122C9.40875 13.2957 10.2079 13.0207 11.0128 12.7884L11.0167 12.7874L11.2521 12.7278C11.8283 12.5935 12.5958 12.4994 13.339 12.472C14.0629 12.4453 14.871 12.4763 15.4952 12.6448L15.7501 12.7259L15.9171 12.7815C16.5594 12.9742 17.3547 12.959 18.0929 12.8274C17.8658 11.8643 17.4022 10.9877 16.7638 10.2591V10.2581C16.4861 9.94094 16.0477 9.7503 15.5665 9.7503H14.2228L13.7091 11.2444C13.5742 11.6356 13.1474 11.8437 12.756 11.7093C12.3646 11.5745 12.1567 11.1477 12.2911 10.7562L12.6368 9.7503H9.65049L9.88682 10.6312ZM4.80381 6.03936L10.4376 4.53057L7.07236 3.05498L4.80381 6.03936Z" fill="black"/>
</svg>
