<svg width="24" height="24" viewBox="0 0 24 24" fill="none" xmlns="http://www.w3.org/2000/svg">
<path d="M20.907 2.57983C20.676 2.07983 20.082 1.86283 19.58 2.09283L14.526 4.43383C14.279 4.54783 14.088 4.75883 14.001 5.01583L12.975 7.99983H9.44104L9.09304 6.70283L12.956 5.66783C13.366 5.55783 13.662 5.20083 13.694 4.77783C13.726 4.35483 13.487 3.95683 13.098 3.78583L7.23404 1.21583C6.81204 1.03083 6.31704 1.15883 6.03704 1.52683L2.08404 6.72683C1.82504 7.06683 1.81204 7.53483 2.05004 7.88983C2.23804 8.17083 2.55204 8.33183 2.88004 8.33183C2.96604 8.33183 3.05304 8.32083 3.13904 8.29783L7.16104 7.21983L7.41504 8.16883C6.83604 8.34683 6.31104 8.65683 5.91704 9.10783C4.65604 10.5488 3.97604 12.3898 4.00104 14.2878C4.05504 18.4048 7.39304 21.7888 11.598 21.9898C11.735 21.9968 11.87 21.9998 12.006 21.9998C14.108 21.9998 16.076 21.2188 17.588 19.7778C19.144 18.2948 20 16.3078 20 14.1828C20 12.3198 19.318 10.5158 18.08 9.10283C17.465 8.40083 16.549 7.99783 15.567 7.99783H15.088L15.752 6.06683L20.419 3.90483C20.921 3.67283 21.139 3.07883 20.906 2.57683L20.907 2.57983ZM16.208 18.3318C14.998 19.4828 13.397 20.0698 11.694 19.9928C8.59404 19.8448 6.04104 17.2738 6.00104 14.2628C6.00004 14.1618 6.02104 14.0638 6.02504 13.9638C6.97104 14.7288 7.95504 14.9778 8.86004 14.9778C9.78804 14.9778 10.631 14.7278 11.256 14.5418L11.492 14.4728C12.447 14.2018 14.427 14.1018 15.14 14.3668C16.107 14.7288 17.151 14.7198 17.979 14.6138C17.874 16.0228 17.257 17.3308 16.208 18.3318ZM15.567 9.99983C15.972 9.99983 16.339 10.1538 16.576 10.4228C17.137 11.0638 17.523 11.8178 17.754 12.6168C17.102 12.7018 16.399 12.7008 15.837 12.4918C14.487 11.9918 11.976 12.2578 10.942 12.5488L10.685 12.6248C9.32604 13.0268 7.92504 13.4398 6.60204 11.6978C6.82304 11.2468 7.08404 10.8118 7.42204 10.4258C7.55204 10.2768 7.73104 10.1658 7.93004 10.0928L8.19604 11.0838C8.31604 11.5308 8.71904 11.8258 9.16104 11.8258C9.24604 11.8258 9.33404 11.8148 9.42004 11.7908C9.95404 11.6478 10.27 11.0998 10.127 10.5658L9.97504 9.99983H12.286L12.054 10.6748C11.874 11.1968 12.152 11.7658 12.674 11.9458C12.781 11.9828 12.892 11.9998 12.999 11.9998C13.414 11.9998 13.802 11.7398 13.944 11.3248L14.4 9.99983H15.566H15.567Z" fill="black"/>
</svg>
