<svg width="24" height="24" viewBox="0 0 24 24" fill="none" xmlns="http://www.w3.org/2000/svg">
<path d="M20.9072 2.57983C20.6762 2.07983 20.0822 1.86283 19.5802 2.09283L14.5262 4.43383C14.2792 4.54783 14.0882 4.75883 14.0012 5.01583L12.9752 7.99983H9.44116L9.09316 6.70283L12.9562 5.66783C13.3662 5.55783 13.6622 5.20083 13.6942 4.77783C13.7262 4.35483 13.4872 3.95683 13.0982 3.78583L7.23416 1.21583C6.81216 1.03083 6.31716 1.15883 6.03716 1.52683L2.08416 6.72683C1.82516 7.06683 1.81216 7.53483 2.05016 7.88983C2.23816 8.17083 2.55216 8.33183 2.88016 8.33183C2.96616 8.33183 3.05316 8.32083 3.13916 8.29783L7.16116 7.21983L7.41516 8.16883C6.83616 8.34683 6.31116 8.65683 5.91716 9.10783C4.65616 10.5488 3.97616 12.3898 4.00116 14.2878C4.05516 18.4048 7.39316 21.7888 11.5982 21.9898C11.7352 21.9968 11.8702 21.9998 12.0062 21.9998C14.1082 21.9998 16.0762 21.2188 17.5882 19.7778C19.1442 18.2948 20.0002 16.3078 20.0002 14.1828C20.0002 12.3198 19.3182 10.5158 18.0802 9.10283C17.4652 8.40083 16.5492 7.99783 15.5672 7.99783H15.0882L15.7522 6.06683L20.4192 3.90483C20.9212 3.67283 21.1392 3.07883 20.9062 2.57683L20.9072 2.57983ZM16.2082 18.3318C14.9982 19.4828 13.3972 20.0698 11.6942 19.9928C8.59416 19.8448 6.04116 17.2738 6.00116 14.2628C6.00016 14.1618 6.02116 14.0638 6.02516 13.9638C6.97116 14.7288 7.95516 14.9778 8.86016 14.9778C9.78816 14.9778 10.6312 14.7278 11.2562 14.5418L11.4922 14.4728C12.4472 14.2018 14.4272 14.1018 15.1402 14.3668C16.1072 14.7288 17.1512 14.7198 17.9792 14.6138C17.8742 16.0228 17.2572 17.3308 16.2082 18.3318ZM15.5672 9.99983C15.9722 9.99983 16.3392 10.1538 16.5762 10.4228C17.1372 11.0638 17.5232 11.8178 17.7542 12.6168C17.1022 12.7018 16.3992 12.7008 15.8372 12.4918C14.4872 11.9918 11.9762 12.2578 10.9422 12.5488L10.6852 12.6248C9.32616 13.0268 7.92516 13.4398 6.60216 11.6978C6.82316 11.2468 7.08416 10.8118 7.42216 10.4258C7.55216 10.2768 7.73116 10.1658 7.93016 10.0928L8.19616 11.0838C8.31616 11.5308 8.71916 11.8258 9.16116 11.8258C9.24616 11.8258 9.33416 11.8148 9.42016 11.7908C9.95416 11.6478 10.2702 11.0998 10.1272 10.5658L9.97516 9.99983H12.2862L12.0542 10.6748C11.8742 11.1968 12.1522 11.7658 12.6742 11.9458C12.7812 11.9828 12.8922 11.9998 12.9992 11.9998C13.4142 11.9998 13.8022 11.7398 13.9442 11.3248L14.4002 9.99983H15.5662H15.5672Z" fill="#464A4D"/>
</svg>
