<svg width="24" height="24" viewBox="0 0 24 24" fill="none" xmlns="http://www.w3.org/2000/svg">
<path d="M3.25 4C3.25 3.86221 3.13779 3.75 3 3.75H1V2.25H3C3.96621 2.25 4.75 3.03379 4.75 4V16.25H22V17.75H3.25V4Z" fill="black"/>
<path d="M9.25 19C9.25 18.3092 8.69079 17.75 8 17.75C7.30921 17.75 6.75 18.3092 6.75 19C6.75 19.6908 7.30921 20.25 8 20.25C8.69079 20.25 9.25 19.6908 9.25 19ZM10.75 19C10.75 20.5192 9.51921 21.75 8 21.75C6.48079 21.75 5.25 20.5192 5.25 19C5.25 17.4808 6.48079 16.25 8 16.25C9.51921 16.25 10.75 17.4808 10.75 19Z" fill="black"/>
<path d="M18.25 19C18.25 18.3092 17.6908 17.75 17 17.75C16.3092 17.75 15.75 18.3092 15.75 19C15.75 19.6908 16.3092 20.25 17 20.25C17.6908 20.25 18.25 19.6908 18.25 19ZM19.75 19C19.75 20.5192 18.5192 21.75 17 21.75C15.4808 21.75 14.25 20.5192 14.25 19C14.25 17.4808 15.4808 16.25 17 16.25C18.5192 16.25 19.75 17.4808 19.75 19Z" fill="black"/>
<path d="M19 5.25C19.4142 5.25 19.75 5.58579 19.75 6V17C19.75 17.4142 19.4142 17.75 19 17.75H7C6.58579 17.75 6.25 17.4142 6.25 17V6C6.25 5.58579 6.58579 5.25 7 5.25H19ZM7.75 16.25H18.25V6.75H7.75V16.25Z" fill="black"/>
<path d="M13.75 6V11H12.25V6H13.75Z" fill="black"/>
</svg>
