<svg width="24" height="24" viewBox="0 0 24 24" fill="none" xmlns="http://www.w3.org/2000/svg">
<path d="M22 16H20V6C20 5.45 19.55 5 19 5H7C6.45 5 6 5.45 6 6V16H5V4C5 2.9 4.1 2 3 2H1V4H3V18H5.18C5.07 18.31 5 18.65 5 19C5 20.65 6.35 22 8 22C9.65 22 11 20.65 11 19C11 18.65 10.93 18.31 10.82 18H14.19C14.08 18.31 14.01 18.65 14.01 19C14.01 20.65 15.36 22 17.01 22C18.66 22 20.01 20.65 20.01 19C20.01 18.65 19.94 18.31 19.83 18H22.01V16H22ZM8 7H12V11H14V7H18V16H8V7ZM9 19C9 19.55 8.55 20 8 20C7.45 20 7 19.55 7 19C7 18.45 7.45 18 8 18C8.55 18 9 18.45 9 19ZM17 20C16.45 20 16 19.55 16 19C16 18.45 16.45 18 17 18C17.55 18 18 18.45 18 19C18 19.55 17.55 20 17 20Z" fill="black"/>
</svg>
