<svg width="24" height="24" viewBox="0 0 24 24" fill="none" xmlns="http://www.w3.org/2000/svg">
<path fill-rule="evenodd" clip-rule="evenodd" d="M15.3443 9.69836L9.68732 15.3554L8.62666 14.2947L14.2837 8.6377L15.3443 9.69836Z" fill="black"/>
<path fill-rule="evenodd" clip-rule="evenodd" d="M17.8185 6.16316C16.1595 4.50331 13.4685 4.50311 11.8083 6.16329L10.3943 7.57729L9.33366 6.51663L10.7477 5.10263C12.9935 2.85681 16.6345 2.85662 18.8795 5.10277C21.124 7.34846 21.1254 10.9882 18.8793 13.2343L18.8791 13.2345L17.4641 14.6485L16.4039 13.5874L17.8187 12.1736C17.8187 12.1736 17.8188 12.1735 17.8189 12.1734C19.4786 10.5135 19.4779 7.82341 17.8185 6.16316Z" fill="black"/>
<path fill-rule="evenodd" clip-rule="evenodd" d="M6.15382 11.8179L7.56608 10.4056L7.036 9.87504C6.50567 9.34471 6.50567 9.34472 6.50565 9.34473L5.09167 10.7587L5.08881 10.7616C2.86865 13.0059 2.87787 16.6229 5.11767 18.8373C7.36269 21.0572 10.9422 21.1472 13.2205 18.8932L13.2233 18.8904L14.6373 17.4764L13.5767 16.4157L12.1655 17.8269C12.1651 17.8273 12.1646 17.8278 12.1641 17.8282C10.4943 19.4788 7.85685 19.4364 6.17234 17.7707C4.52662 16.1437 4.51337 13.4777 6.15382 11.8179Z" fill="black"/>
<path fill-rule="evenodd" clip-rule="evenodd" d="M19.4697 20.5304L3.46967 4.53039L4.53033 3.46973L20.5303 19.4697L19.4697 20.5304Z" fill="black"/>
</svg>
