<svg width="24" height="24" viewBox="0 0 24 24" fill="none" xmlns="http://www.w3.org/2000/svg">
<path d="M15.5209 9.87497L14.1069 8.46097L11.9909 10.577L4.70692 3.29297L3.29292 4.70697L10.5769 11.991L8.44992 14.118L9.86392 15.532L11.9909 13.405L19.2929 20.707L20.7069 19.293L13.4049 11.991L15.5209 9.87497Z" fill="#464A4D"/>
<path d="M11.9849 6.33995C12.7409 5.58395 13.7449 5.16795 14.8149 5.16795C15.8849 5.16795 16.8869 5.58395 17.6419 6.33895C19.2019 7.89895 19.2019 10.4369 17.6419 11.9959L16.2269 13.4109L17.6409 14.8249L19.0559 13.4109C21.3949 11.0719 21.3949 7.26495 19.0559 4.92595C17.9239 3.79295 16.4169 3.16895 14.8149 3.16895C13.2129 3.16895 11.7049 3.79295 10.5709 4.92595L9.15692 6.33995L10.5709 7.75395L11.9849 6.33995Z" fill="#464A4D"/>
<path d="M11.9889 17.649C10.4249 19.199 7.94693 19.172 6.34793 17.592C5.59893 16.851 5.18393 15.861 5.18093 14.804C5.17793 13.745 5.58693 12.746 6.33393 11.991L7.74393 10.581L6.32993 9.16699C6.32993 9.16699 4.91493 10.581 4.91193 10.585C3.79093 11.718 3.17593 13.219 3.18193 14.811C3.18693 16.404 3.81293 17.897 4.94293 19.014C6.14593 20.204 7.68693 20.801 9.22093 20.801C10.7299 20.801 12.2319 20.224 13.4009 19.067L14.8159 17.653L13.4019 16.239L11.9909 17.649H11.9889Z" fill="#464A4D"/>
</svg>
