<svg width="24" height="24" viewBox="0 0 24 24" fill="none" xmlns="http://www.w3.org/2000/svg">
<path d="M15.521 9.87497L14.107 8.46097L11.991 10.577L4.707 3.29297L3.293 4.70697L10.577 11.991L8.45 14.118L9.864 15.532L11.991 13.405L19.293 20.707L20.707 19.293L13.405 11.991L15.521 9.87497Z" fill="black"/>
<path d="M11.985 6.33995C12.741 5.58395 13.745 5.16795 14.815 5.16795C15.885 5.16795 16.887 5.58395 17.642 6.33895C19.202 7.89895 19.202 10.4369 17.642 11.9959L16.227 13.4109L17.641 14.8249L19.056 13.4109C21.395 11.0719 21.395 7.26495 19.056 4.92595C17.924 3.79295 16.417 3.16895 14.815 3.16895C13.213 3.16895 11.705 3.79295 10.571 4.92595L9.157 6.33995L10.571 7.75395L11.985 6.33995Z" fill="black"/>
<path d="M11.989 17.649C10.425 19.199 7.947 19.172 6.348 17.592C5.599 16.851 5.184 15.861 5.181 14.804C5.178 13.745 5.587 12.746 6.334 11.991L7.744 10.581L6.33 9.16699C6.33 9.16699 4.915 10.581 4.912 10.585C3.791 11.718 3.176 13.219 3.182 14.811C3.187 16.404 3.813 17.897 4.943 19.014C6.146 20.204 7.687 20.801 9.221 20.801C10.73 20.801 12.232 20.224 13.401 19.067L14.816 17.653L13.402 16.239L11.991 17.649H11.989Z" fill="black"/>
</svg>
