<svg width="24" height="24" viewBox="0 0 24 24" fill="none" xmlns="http://www.w3.org/2000/svg">
<path d="M17 14.0002L13.6 10.6002L15 9.2002L17 11.2002L21 7.2002L22.4 8.6002L17 14.0002Z" fill="black"/>
<path d="M11.8 4.2C11 3.4 10.1 3 9 3C7.9 3 6.8 3.5 6.2 4.2C5.4 5 5 5.9 5 7C5 8.1 5.5 9.2 6.2 9.8C7 10.6 7.9 11 9 11C10.1 11 11.2 10.5 11.8 9.8C12.6 9 13 8.1 13 7C13 5.9 12.5 4.8 11.8 4.2Z" fill="black"/>
<path d="M2 21V18C2 16.6 2.5 15.3 3.5 14.4C4.4 13.5 5.7 13 7 13H11C12.4 13 13.7 13.5 14.6 14.5C15.5 15.4 16 16.7 16 18V21H2Z" fill="black"/>
</svg>
