<svg width="24" height="24" viewBox="0 0 24 24" fill="none" xmlns="http://www.w3.org/2000/svg">
<path fill-rule="evenodd" clip-rule="evenodd" d="M8.65235 3.68707C9.52041 2.70834 10.8332 2.25 12 2.25C13.1977 2.25 14.3795 2.72754 15.3129 3.65235C16.2917 4.52041 16.75 5.83316 16.75 7C16.75 8.19772 16.2725 9.37946 15.3476 10.3129C14.4796 11.2917 13.1668 11.75 12 11.75C10.8023 11.75 9.62064 11.2725 8.68719 10.3478C7.71531 9.4871 7.25 8.27694 7.25 7C7.25 5.80228 7.72754 4.62054 8.65235 3.68707ZM12 3.75C11.1744 3.75 10.2966 4.08571 9.76443 4.69388L9.74799 4.71267L9.73033 4.73033C9.06649 5.39417 8.75 6.20517 8.75 7C8.75 7.91479 9.07864 8.69724 9.69388 9.23557L9.71267 9.25201L9.73033 9.26967C10.3942 9.93351 11.2052 10.25 12 10.25C12.8256 10.25 13.7034 9.91429 14.2356 9.30612L14.252 9.28733L14.2697 9.26967C14.9335 8.60583 15.25 7.79483 15.25 7C15.25 6.17439 14.9143 5.29658 14.3061 4.76443L14.2873 4.74799L14.2697 4.73033C13.6058 4.06649 12.7948 3.75 12 3.75Z" fill="black"/>
<path fill-rule="evenodd" clip-rule="evenodd" d="M8 15.75C7.20517 15.75 6.39417 16.0665 5.73033 16.7303L5.71267 16.748L5.69388 16.7644C5.07864 17.3028 4.75 18.0852 4.75 19V22H3.25V19C3.25 17.7231 3.71531 16.5129 4.68719 15.6522C5.62064 14.7275 6.80233 14.25 8 14.25H16C17.2769 14.25 18.4871 14.7153 19.3478 15.6872C20.2725 16.6206 20.75 17.8023 20.75 19V22H19.25V19C19.25 18.2052 18.9335 17.3942 18.2697 16.7303L18.252 16.7127L18.2356 16.6939C17.6972 16.0786 16.9148 15.75 16 15.75H8Z" fill="black"/>
</svg>
