<svg width="24" height="24" viewBox="0 0 24 24" fill="none" xmlns="http://www.w3.org/2000/svg">
<path d="M19.1 0.899902L17.7 2.2999C19.2 3.7999 20 5.7999 20 7.9999C20 10.1999 19.2 12.1999 17.7 13.6999L19.1 15.0999C21 13.1999 22 10.6999 22 7.9999C22 5.2999 21 2.7999 19.1 0.899902Z" fill="black"/>
<path d="M16.2 3.7998L14.9 5.2998C15.6 5.9998 16.1 6.9998 16.1 8.0998C16.1 9.1998 15.6 10.0998 14.9 10.8998L16.3 12.2998C17.4 11.1998 18.1 9.5998 18.1 8.0998C18.1 6.5998 17.4 4.8998 16.3 3.8998L16.2 3.7998Z" fill="black"/>
<path d="M9 11C10.2 11 11.2 10.5 11.8 9.8C12.6 9 13 8.1 13 7C13 5.9 12.5 4.8 11.8 4.2C11 3.4 10.1 3 9 3C7.9 3 6.8 3.5 6.2 4.2C5.4 5 5 5.9 5 7C5 8.1 5.5 9.2 6.2 9.8C7 10.6 7.9 11 9 11Z" fill="black"/>
<path d="M11 13H7C5.7 13 4.5 13.5 3.5 14.4C2.5 15.3 2 16.5 2 18V21H16V18C16 16.7 15.5 15.5 14.6 14.5C13.7 13.5 12.5 13 11 13Z" fill="black"/>
</svg>
