<svg width="24" height="24" viewBox="0 0 24 24" fill="none" xmlns="http://www.w3.org/2000/svg">
<path fill-rule="evenodd" clip-rule="evenodd" d="M9.34638 7.89313C10.02 7.10402 11.0411 6.75 12 6.75C13.0011 6.75 13.8802 7.13024 14.6069 7.84638C15.396 8.51997 15.75 9.54107 15.75 10.5C15.75 11.5011 15.3698 12.3802 14.6536 13.1069C13.98 13.896 12.9589 14.25 12 14.25C10.9989 14.25 10.1198 13.8698 9.39313 13.1536C8.60402 12.48 8.25 11.4589 8.25 10.5C8.25 9.49888 8.63024 8.6198 9.34638 7.89313ZM12 8.25C11.3697 8.25 10.803 8.48799 10.4762 8.88014L10.4544 8.90627L10.4303 8.93033C9.96151 9.39915 9.75 9.91191 9.75 10.5C9.75 11.1303 9.98799 11.697 10.3801 12.0238L10.4063 12.0456L10.4303 12.0697C10.8991 12.5385 11.4119 12.75 12 12.75C12.6303 12.75 13.197 12.512 13.5238 12.1199L13.5456 12.0937L13.5697 12.0697C14.0385 11.6009 14.25 11.0881 14.25 10.5C14.25 9.86969 14.012 9.30296 13.6199 8.97617L13.5937 8.95439L13.5697 8.93033C13.1009 8.46151 12.5881 8.25 12 8.25Z" fill="black"/>
<path fill-rule="evenodd" clip-rule="evenodd" d="M8.64335 17.4277C8.21716 17.6088 7.87415 17.8492 7.66943 18.088C7.147 18.6975 6.82561 19.3609 6.7454 20.0827L5.25458 19.9171C5.37437 18.8389 5.85298 17.9023 6.53055 17.1118C6.92583 16.6506 7.48282 16.291 8.05663 16.0472C8.63395 15.8018 9.28364 15.6499 9.89999 15.6499H13.9C15.1852 15.6499 16.4028 16.1213 17.2644 17.106C18.0587 18.0138 18.4274 18.8551 18.5454 19.9171L17.0546 20.0827C16.9726 19.3447 16.7413 18.786 16.1356 18.0938C15.5972 17.4785 14.8148 17.1499 13.9 17.1499H9.89999C9.51634 17.1499 9.06603 17.248 8.64335 17.4277Z" fill="black"/>
<path fill-rule="evenodd" clip-rule="evenodd" d="M12 2.75C6.89137 2.75 2.75 6.89137 2.75 12C2.75 17.1086 6.89137 21.25 12 21.25C17.1086 21.25 21.25 17.1086 21.25 12C21.25 6.89137 17.1086 2.75 12 2.75ZM1.25 12C1.25 6.06294 6.06294 1.25 12 1.25C17.9371 1.25 22.75 6.06294 22.75 12C22.75 17.9371 17.9371 22.75 12 22.75C6.06294 22.75 1.25 17.9371 1.25 12Z" fill="black"/>
</svg>
