<svg width="24" height="24" viewBox="0 0 24 24" fill="none" xmlns="http://www.w3.org/2000/svg">
<path fill-rule="evenodd" clip-rule="evenodd" d="M5.65235 3.68707C6.52041 2.70834 7.83316 2.25 9 2.25C10.1977 2.25 11.3795 2.72754 12.3129 3.65235C13.2917 4.52041 13.75 5.83316 13.75 7C13.75 8.19772 13.2725 9.37946 12.3476 10.3129C11.4796 11.2917 10.1668 11.75 9 11.75C7.80233 11.75 6.62064 11.2725 5.68719 10.3478C4.71531 9.4871 4.25 8.27694 4.25 7C4.25 5.80228 4.72754 4.62054 5.65235 3.68707ZM9 3.75C8.17439 3.75 7.29658 4.08571 6.76443 4.69388L6.74799 4.71267L6.73033 4.73033C6.06649 5.39417 5.75 6.20517 5.75 7C5.75 7.91479 6.07864 8.69724 6.69388 9.23557L6.71267 9.25201L6.73033 9.26967C7.39417 9.93351 8.20517 10.25 9 10.25C9.82561 10.25 10.7034 9.91429 11.2356 9.30612L11.252 9.28733L11.2697 9.26967C11.9335 8.60583 12.25 7.79483 12.25 7C12.25 6.17439 11.9143 5.29658 11.3061 4.76443L11.2873 4.74799L11.2697 4.73033C10.6058 4.06649 9.79483 3.75 9 3.75Z" fill="black"/>
<path fill-rule="evenodd" clip-rule="evenodd" d="M7 15.75C6.20517 15.75 5.39417 16.0665 4.73033 16.7303L4.71267 16.748L4.69388 16.7644C4.07864 17.3028 3.75 18.0852 3.75 19V22H2.25V19C2.25 17.7231 2.71531 16.5129 3.68719 15.6522C4.62064 14.7275 5.80233 14.25 7 14.25H11C12.2769 14.25 13.4871 14.7153 14.3478 15.6872C15.2725 16.6206 15.75 17.8023 15.75 19V22H14.25V19C14.25 18.2052 13.9335 17.3942 13.2697 16.7303L13.252 16.7127L13.2356 16.6939C12.6972 16.0786 11.9148 15.75 11 15.75H7Z" fill="black"/>
<path fill-rule="evenodd" clip-rule="evenodd" d="M17.6085 4.9623C17.0915 4.36667 16.5307 3.98604 15.8373 3.83196L16.1627 2.36768C17.2594 2.61139 18.0926 3.22206 18.7695 4.01172L18.791 4.0369L18.8103 4.06389C19.3995 4.88871 19.75 5.9406 19.75 6.99982C19.75 8.05904 19.3995 9.11093 18.8103 9.93575C18.1906 10.8033 17.2218 11.3966 16.1627 11.632L15.8373 10.1677C16.5782 10.003 17.2094 9.59631 17.5897 9.06389C18.0006 8.48871 18.25 7.7406 18.25 6.99982C18.25 6.27038 18.0081 5.53384 17.6085 4.9623Z" fill="black"/>
<path fill-rule="evenodd" clip-rule="evenodd" d="M18.1627 14.4678C19.2218 14.7031 20.1906 15.2964 20.8103 16.164C21.3879 16.9727 21.75 17.9223 21.75 18.9999V21.9999H20.25V18.9999C20.25 18.2775 20.0121 17.6271 19.5897 17.0358C19.2094 16.5034 18.5782 16.0967 17.8373 15.9321L18.1627 14.4678Z" fill="black"/>
</svg>
