<svg width="24" height="24" viewBox="0 0 24 24" fill="none" xmlns="http://www.w3.org/2000/svg">
<path fill-rule="evenodd" clip-rule="evenodd" d="M21.3695 6.34735C21.6047 6.48048 21.75 6.7298 21.75 7V17C21.75 17.2702 21.6047 17.5195 21.3695 17.6526C21.1344 17.7858 20.8458 17.7821 20.6141 17.6431L15.6141 14.6431C15.2589 14.43 15.1438 13.9693 15.3569 13.6141C15.57 13.2589 16.0307 13.1438 16.3859 13.3569L20.25 15.6754V8.32464L16.3859 10.6431C16.0307 10.8562 15.57 10.7411 15.3569 10.3859C15.1438 10.0307 15.2589 9.56999 15.6141 9.35688L20.6141 6.35688C20.8458 6.21786 21.1344 6.21422 21.3695 6.34735Z" fill="black"/>
<path fill-rule="evenodd" clip-rule="evenodd" d="M2.25 6C2.25 5.58579 2.58579 5.25 3 5.25H16C16.4142 5.25 16.75 5.58579 16.75 6V18C16.75 18.4142 16.4142 18.75 16 18.75H3C2.58579 18.75 2.25 18.4142 2.25 18V6ZM3.75 6.75V17.25H15.25V6.75H3.75Z" fill="black"/>
</svg>
