<svg width="24" height="24" viewBox="0 0 24 24" fill="none" xmlns="http://www.w3.org/2000/svg">
<path d="M12.4 4.09998C12.1 3.89998 11.6 3.99998 11.3 4.19998L6.6 7.99998H3C2.4 7.99998 2 8.39998 2 8.99998V15C2 15.6 2.4 16 3 16H6.6L11.3 19.8C11.5 19.9 11.7 20 11.9 20C12.1 20 12.2 20 12.3 20C12.6 19.8 12.9 19.5 12.9 19.1V4.99998C12.9 4.59998 12.7 4.29998 12.3 4.09998H12.4Z" fill="black"/>
<path d="M18.8 4.20002C18.4 3.80002 17.8 3.80002 17.4 4.20002C17 4.60002 17 5.20002 17.4 5.60002C19.1 7.30002 20 9.50002 20 12C20 14.5 19.1 16.6 17.4 18.4C17 18.8 17 19.4 17.4 19.8C17.6 20 17.8 20.1 18.1 20.1C18.4 20.1 18.6 20 18.8 19.8C20.8 17.6 22 14.9 22 12C22 9.10002 20.9 6.30002 18.8 4.20002Z" fill="black"/>
<path d="M16.2 7.8C15.8 7.4 15.2 7.4 14.8 7.8C14.4 8.2 14.4 8.8 14.8 9.2C15.5 9.9 16 11 16 12C16 13 15.6 14.1 14.8 14.8C14.4 15.2 14.4 15.8 14.8 16.2C15 16.4 15.3 16.5 15.5 16.5C15.7 16.5 16 16.5 16.2 16.2C17.4 15.2 18 13.6 18 12C18 10.4 17.3 8.9 16.2 7.8Z" fill="black"/>
</svg>
