<svg width="24" height="24" viewBox="0 0 24 24" fill="none" xmlns="http://www.w3.org/2000/svg">
<path fill-rule="evenodd" clip-rule="evenodd" d="M12.3249 4.32403C12.5847 4.44892 12.75 4.7117 12.75 5.00001V19C12.75 19.2883 12.5847 19.5511 12.3249 19.676C12.065 19.8009 11.7566 19.7658 11.5315 19.5857L6.73691 15.75H3C2.58579 15.75 2.25 15.4142 2.25 15V9.00001C2.25 8.58579 2.58579 8.25001 3 8.25001H6.73691L11.5315 4.41436C11.7566 4.23425 12.065 4.19914 12.3249 4.32403ZM11.25 6.56048L7.46852 9.58566C7.33554 9.69205 7.1703 9.75001 7 9.75001H3.75V14.25H7C7.1703 14.25 7.33554 14.308 7.46852 14.4144L11.25 17.4395V6.56048Z" fill="black"/>
<path fill-rule="evenodd" clip-rule="evenodd" d="M17.5697 4.36969C17.8626 4.0768 18.3374 4.0768 18.6303 4.36969C20.6762 6.41552 21.75 9.10855 21.75 12C21.75 14.9084 20.5647 17.589 18.6445 19.6158C18.3596 19.9165 17.8849 19.9294 17.5842 19.6445C17.2835 19.3596 17.2707 18.8849 17.5555 18.5842C19.2353 16.8111 20.25 14.4917 20.25 12C20.25 9.4915 19.3239 7.18453 17.5697 5.43035C17.2768 5.13746 17.2768 4.66259 17.5697 4.36969Z" fill="black"/>
<path fill-rule="evenodd" clip-rule="evenodd" d="M14.9697 7.96967C15.2626 7.67678 15.7374 7.67678 16.0303 7.96967C17.0555 8.99488 17.75 10.4803 17.75 12C17.75 13.4854 17.1789 14.998 16.0017 16.0575C15.6938 16.3346 15.2196 16.3096 14.9425 16.0017C14.6654 15.6938 14.6904 15.2196 14.9983 14.9425C15.8211 14.202 16.25 13.1146 16.25 12C16.25 10.9197 15.7445 9.80512 14.9697 9.03033C14.6768 8.73744 14.6768 8.26256 14.9697 7.96967Z" fill="black"/>
</svg>
