<svg width="24" height="24" viewBox="0 0 24 24" fill="none" xmlns="http://www.w3.org/2000/svg">
<path fill-rule="evenodd" clip-rule="evenodd" d="M14.3249 4.32403C14.5847 4.44892 14.75 4.7117 14.75 5.00001V19C14.75 19.2883 14.5847 19.5511 14.3249 19.676C14.065 19.8009 13.7566 19.7658 13.5315 19.5857L8.73691 15.75H5C4.58579 15.75 4.25 15.4142 4.25 15V9.00001C4.25 8.58579 4.58579 8.25001 5 8.25001H8.73691L13.5315 4.41436C13.7566 4.23425 14.065 4.19914 14.3249 4.32403ZM13.25 6.56048L9.46852 9.58566C9.33554 9.69205 9.1703 9.75001 9 9.75001H5.75V14.25H9C9.1703 14.25 9.33554 14.308 9.46852 14.4144L13.25 17.4395V6.56048Z" fill="black"/>
<path fill-rule="evenodd" clip-rule="evenodd" d="M17.9697 7.96967C18.2626 7.67678 18.7374 7.67678 19.0303 7.96967C20.0555 8.99488 20.75 10.4803 20.75 12C20.75 13.4854 20.1789 14.998 19.0017 16.0575C18.6938 16.3346 18.2196 16.3096 17.9425 16.0017C17.6654 15.6938 17.6904 15.2196 17.9983 14.9425C18.8211 14.202 19.25 13.1146 19.25 12C19.25 10.9197 18.7445 9.80512 17.9697 9.03033C17.6768 8.73744 17.6768 8.26256 17.9697 7.96967Z" fill="black"/>
</svg>
