<svg width="24" height="24" viewBox="0 0 24 24" fill="none" xmlns="http://www.w3.org/2000/svg">
<path d="M14.4 4.09998C14.1 3.89998 13.6 3.99998 13.3 4.19998L8.6 7.99998H5C4.4 7.99998 4 8.39998 4 8.99998V15C4 15.6 4.4 16 5 16H8.6L13.3 19.8C13.5 19.9 13.7 20 13.9 20C14.1 20 14.2 20 14.3 20C14.6 19.8 14.9 19.5 14.9 19.1V4.99998C14.9 4.59998 14.7 4.29998 14.3 4.09998H14.4Z" fill="black"/>
<path d="M19.2 7.8C18.8 7.4 18.2 7.4 17.8 7.8C17.4 8.2 17.4 8.8 17.8 9.2C18.5 9.9 19 11 19 12C19 13 18.6 14.1 17.8 14.8C17.4 15.2 17.4 15.8 17.8 16.2C18 16.4 18.3 16.5 18.5 16.5C18.7 16.5 19 16.5 19.2 16.2C20.4 15.2 21 13.6 21 12C21 10.4 20.3 8.9 19.2 7.8Z" fill="black"/>
</svg>
