<svg width="24" height="24" viewBox="0 0 24 24" fill="none" xmlns="http://www.w3.org/2000/svg">
<path d="M12.0196 6.25098C12.1036 6.25317 12.1859 6.26957 12.2637 6.29883C12.2727 6.30221 12.2812 6.30682 12.2901 6.31055C12.3192 6.32282 12.3476 6.33663 12.375 6.35254C12.3875 6.35978 12.4 6.367 12.4121 6.375C12.4356 6.39046 12.4578 6.40763 12.4795 6.42578C12.4907 6.4351 12.5021 6.44406 12.5127 6.4541C12.5439 6.48336 12.5734 6.51486 12.5996 6.5498L15.5225 10.4463L18.416 12.376L18.4776 12.4219C18.7709 12.6636 18.8395 13.0929 18.6241 13.416C18.4087 13.739 17.9863 13.8407 17.6504 13.6631L17.584 13.624L14.584 11.624C14.5486 11.6004 14.5152 11.5741 14.4844 11.5449L14.4004 11.4502L12.4512 8.85156L11.792 12.8066L14.5996 16.5498L14.6543 16.6328C14.6703 16.6613 14.6842 16.6913 14.6963 16.7217L16.6963 21.7217L16.7217 21.7939C16.8265 22.1593 16.6389 22.5521 16.2784 22.6963C15.918 22.8403 15.5122 22.6852 15.336 22.3486L15.3037 22.2783L13.3399 17.3701L11.4063 14.791L10.7354 18.1475C10.7136 18.2561 10.668 18.358 10.6026 18.4463L10.5303 18.5303L7.5303 21.5303C7.23741 21.8231 6.76264 21.8231 6.46976 21.5303C6.17688 21.2374 6.1769 20.7626 6.46976 20.4697L9.30863 17.6299L10.2598 12.876L10.9512 8.72266L8.66214 10.4395L7.72757 14.1816C7.62711 14.5834 7.22015 14.8278 6.81839 14.7275C6.41665 14.6271 6.17221 14.2201 6.27249 13.8184L7.27249 9.81836L7.31448 9.69727C7.36608 9.58044 7.44659 9.47792 7.54984 9.40039L11.5498 6.40039L11.5567 6.39551C11.5646 6.38969 11.5729 6.38441 11.5811 6.37891L11.6133 6.35742C11.6162 6.3557 11.6192 6.35422 11.6221 6.35254C11.6575 6.33191 11.6945 6.31359 11.7334 6.29883C11.7414 6.29578 11.7498 6.29377 11.7578 6.29102C11.779 6.28381 11.8003 6.27685 11.8223 6.27148C11.8313 6.26929 11.8406 6.26845 11.8496 6.2666C11.8656 6.26334 11.8814 6.26002 11.8975 6.25781C11.9252 6.25398 11.9529 6.25268 11.9805 6.25195C11.9935 6.25162 12.0065 6.25063 12.0196 6.25098ZM13 1C14.1046 1 15 1.89543 15 3C15 4.10457 14.1046 5 13 5C11.8955 4.99998 11 4.10456 11 3C11 1.89544 11.8955 1.00002 13 1Z" fill="#464A4D"/>
</svg>
