<svg width="24" height="24" viewBox="0 0 24 24" fill="none" xmlns="http://www.w3.org/2000/svg">
<path d="M13 5C14.1046 5 15 4.10457 15 3C15 1.89543 14.1046 1 13 1C11.8954 1 11 1.89543 11 3C11 4.10457 11.8954 5 13 5Z" fill="black"/>
<path d="M18.555 12.168L15.698 10.2629L12.801 6.39995C12.728 6.30195 12.636 6.22695 12.537 6.16395C12.507 6.14495 12.476 6.13095 12.445 6.11495C12.368 6.07695 12.289 6.04895 12.205 6.03195C12.172 6.02495 12.142 6.01595 12.109 6.01195C11.995 5.99995 11.88 5.99995 11.765 6.02895H11.764C11.759 6.02995 11.755 6.03395 11.75 6.03495C11.636 6.06495 11.534 6.11795 11.44 6.18295C11.428 6.19095 11.414 6.19195 11.403 6.20095L7.40303 9.20095C7.21903 9.33895 7.08903 9.53495 7.03303 9.75795L6.03303 13.758C5.89903 14.293 6.22503 14.836 6.76103 14.97C6.84303 14.991 6.92403 15 7.00503 15C7.45303 15 7.86003 14.6969 7.97403 14.242L8.88803 10.587L10.608 9.29695L10.021 12.818L9.08303 17.506L6.29703 20.292C5.90603 20.683 5.90603 21.3149 6.29703 21.7059C6.49203 21.9009 6.74803 21.999 7.00403 21.999C7.26003 21.999 7.51603 21.9009 7.71103 21.7059L10.711 18.7059C10.851 18.5659 10.946 18.389 10.984 18.195L11.546 15.387L13.125 17.492L15.075 22.3689C15.231 22.761 15.607 22.9979 16.004 22.9979C16.128 22.9979 16.254 22.976 16.375 22.927C16.888 22.722 17.138 22.14 16.933 21.627L14.933 16.627C14.9 16.545 14.857 16.469 14.804 16.398L12.061 12.74L12.607 9.46795L14.205 11.5979C14.272 11.689 14.355 11.767 14.45 11.83L17.45 13.83C17.91 14.135 18.53 14.012 18.837 13.553C19.144 13.093 19.02 12.473 18.56 12.166L18.555 12.168Z" fill="black"/>
</svg>
