<svg width="24" height="24" viewBox="0 0 24 24" fill="none" xmlns="http://www.w3.org/2000/svg">
<path d="M12.0195 6.25098C12.1035 6.25317 12.1859 6.26957 12.2636 6.29883C12.2727 6.30221 12.2811 6.30682 12.29 6.31055C12.3192 6.32282 12.3475 6.33663 12.375 6.35254C12.3875 6.35978 12.3999 6.367 12.4121 6.375C12.4355 6.39046 12.4577 6.40763 12.4795 6.42578C12.4906 6.4351 12.502 6.44406 12.5127 6.4541C12.5438 6.48336 12.5733 6.51486 12.5996 6.5498L15.5224 10.4463L18.416 12.376L18.4775 12.4219C18.7709 12.6636 18.8394 13.0929 18.624 13.416C18.4086 13.739 17.9863 13.8407 17.6504 13.6631L17.584 13.624L14.584 11.624C14.5486 11.6004 14.5151 11.5741 14.4843 11.5449L14.4004 11.4502L12.4511 8.85156L11.792 12.8066L14.5996 16.5498L14.6543 16.6328C14.6703 16.6613 14.6841 16.6913 14.6963 16.7217L16.6963 21.7217L16.7217 21.7939C16.8264 22.1593 16.6388 22.5521 16.2783 22.6963C15.9179 22.8403 15.5121 22.6852 15.3359 22.3486L15.3037 22.2783L13.3398 17.3701L11.4062 14.791L10.7353 18.1475C10.7135 18.2561 10.6679 18.358 10.6025 18.4463L10.5302 18.5303L7.53024 21.5303C7.23735 21.8231 6.76258 21.8231 6.4697 21.5303C6.17682 21.2374 6.17684 20.7626 6.4697 20.4697L9.30856 17.6299L10.2597 12.876L10.9511 8.72266L8.66208 10.4395L7.72751 14.1816C7.62705 14.5834 7.22009 14.8278 6.81833 14.7275C6.41659 14.6271 6.17215 14.2201 6.27243 13.8184L7.27243 9.81836L7.31442 9.69727C7.36601 9.58044 7.44653 9.47792 7.54978 9.40039L11.5498 6.40039L11.5566 6.39551C11.5645 6.38969 11.5728 6.38441 11.581 6.37891L11.6133 6.35742C11.6161 6.3557 11.6192 6.35422 11.622 6.35254C11.6574 6.33191 11.6945 6.31359 11.7334 6.29883C11.7414 6.29578 11.7497 6.29377 11.7578 6.29102C11.7789 6.28381 11.8003 6.27685 11.8222 6.27148C11.8312 6.26929 11.8405 6.26845 11.8496 6.2666C11.8655 6.26334 11.8814 6.26002 11.8974 6.25781C11.9251 6.25398 11.9528 6.25268 11.9804 6.25195C11.9935 6.25162 12.0065 6.25063 12.0195 6.25098ZM13 1C14.1045 1 15 1.89543 15 3C15 4.10457 14.1045 5 13 5C11.8954 4.99998 11 4.10456 11 3C11 1.89544 11.8954 1.00002 13 1Z" fill="black"/>
</svg>
