<svg width="24" height="24" viewBox="0 0 24 24" fill="none" xmlns="http://www.w3.org/2000/svg">
<path d="M12.042 2C14.7055 2.00137 17.2057 3.03315 19.0859 4.90625C20.9662 6.77949 22.0009 9.26986 22 11.918C21.9975 17.3818 17.5301 21.828 12.042 21.8281H12.0371C10.3709 21.8274 8.7336 21.4114 7.2793 20.6221L2 22L3.41309 16.8643C2.54032 15.3579 2.08193 13.6492 2.08398 11.9102C2.08629 6.44579 6.55295 2 12.042 2ZM8.51562 7.33301C8.34967 7.3331 8.08028 7.39582 7.85254 7.64355C7.62454 7.89153 6.9815 8.49058 6.98145 9.70898C6.98145 10.9266 7.87159 12.1034 7.99707 12.2705C8.12131 12.436 9.71892 15.0169 12.248 16.0098C14.3492 16.8347 14.7771 16.6712 15.2334 16.6299C15.6897 16.5887 16.7058 16.0305 16.9131 15.4521C17.1202 14.8741 17.1206 14.3784 17.0586 14.2744C16.9965 14.1708 16.8301 14.1093 16.5811 13.9854C16.332 13.8614 15.1089 13.2624 14.8809 13.1797C14.6528 13.097 14.4874 13.0558 14.3213 13.3037C14.1552 13.5516 13.6784 14.1091 13.5332 14.2744C13.388 14.4396 13.2431 14.4607 12.9941 14.3369C12.7451 14.2131 11.9438 13.9512 10.9932 13.1074C10.254 12.4513 9.75506 11.6409 9.60938 11.3926C9.46402 11.1448 9.59397 11.0101 9.71875 10.8867C9.83033 10.7757 9.96724 10.5976 10.0918 10.4531C10.2164 10.3086 10.258 10.2051 10.3408 10.04C10.4236 9.87509 10.3815 9.73022 10.3193 9.60645C10.2571 9.48265 9.77394 8.25767 9.55273 7.76758C9.36631 7.35531 9.17027 7.34601 8.99316 7.33887L8.51562 7.33301Z" fill="black"/>
</svg>
