<svg width="24" height="24" viewBox="0 0 24 24" fill="none" xmlns="http://www.w3.org/2000/svg">
<path fill-rule="evenodd" clip-rule="evenodd" d="M12.0001 4.43994C7.89651 4.43994 4.19299 6.12826 1.53746 8.8561L0.462646 7.80978C3.38912 4.80362 7.47559 2.93994 12.0001 2.93994C16.5245 2.93994 20.611 4.80364 23.5375 7.81088L22.4626 8.85701C19.8071 6.12825 16.1036 4.43994 12.0001 4.43994Z" fill="#464A4D"/>
<path fill-rule="evenodd" clip-rule="evenodd" d="M12.0001 9.51494C9.30688 9.51494 6.86061 10.6433 5.13086 12.4436L4.04924 11.4043C6.04949 9.32254 8.88122 8.01494 12.0001 8.01494C15.119 8.01494 17.9496 9.32262 19.9507 11.4042L18.8694 12.4437C17.1385 10.6433 14.6931 9.51494 12.0001 9.51494Z" fill="#464A4D"/>
<path fill-rule="evenodd" clip-rule="evenodd" d="M12.0001 14.7159C10.7434 14.7159 9.61107 15.2458 8.82412 16.1084L7.71599 15.0975C8.78103 13.93 10.3127 13.2159 12.0001 13.2159C13.6874 13.2159 15.2191 13.93 16.2841 15.0975L15.176 16.1084C14.389 15.2458 13.2567 14.7159 12.0001 14.7159Z" fill="#464A4D"/>
<path d="M12.0001 19.9999C12.5523 19.9999 13.0001 19.5522 13.0001 18.9999C13.0001 18.4477 12.5523 17.9999 12.0001 17.9999C11.4478 17.9999 11.0001 18.4477 11.0001 18.9999C11.0001 19.5522 11.4478 19.9999 12.0001 19.9999Z" fill="#464A4D"/>
</svg>
