<svg width="24" height="24" viewBox="0 0 24 24" fill="none" xmlns="http://www.w3.org/2000/svg">
<path fill-rule="evenodd" clip-rule="evenodd" d="M12 5.6001C7.89645 5.6001 4.19293 7.28842 1.5374 10.0163L0.462585 8.96994C3.38906 5.96378 7.47553 4.1001 12 4.1001C16.5245 4.1001 20.611 5.96379 23.5375 8.97103L22.4625 10.0172C19.807 7.2884 16.1035 5.6001 12 5.6001Z" fill="black"/>
<path fill-rule="evenodd" clip-rule="evenodd" d="M12 10.6751C9.30682 10.6751 6.86055 11.8035 5.1308 13.6037L4.04918 12.5645C6.04943 10.4827 8.88116 9.1751 12 9.1751C15.1189 9.1751 17.9496 10.4828 19.9507 12.5643L18.8693 13.6039C17.1384 11.8034 14.693 10.6751 12 10.6751Z" fill="black"/>
<path fill-rule="evenodd" clip-rule="evenodd" d="M12 15.8761C10.7433 15.8761 9.61101 16.406 8.82406 17.2686L7.71593 16.2576C8.78097 15.0902 10.3126 14.3761 12 14.3761C13.6873 14.3761 15.219 15.0902 16.2841 16.2576L15.1759 17.2686C14.389 16.406 13.2566 15.8761 12 15.8761Z" fill="black"/>
<path d="M12 21.1601C12.5523 21.1601 13 20.7124 13 20.1601C13 19.6078 12.5523 19.1601 12 19.1601C11.4477 19.1601 11 19.6078 11 20.1601C11 20.7124 11.4477 21.1601 12 21.1601Z" fill="black"/>
</svg>
