<svg width="24" height="24" viewBox="0 0 24 24" fill="none" xmlns="http://www.w3.org/2000/svg">
<path d="M12 2.68997C7.54896 2.68997 3.38796 4.44597 0.282959 7.63496L1.71696 9.03096C4.44196 6.23196 8.09296 4.68997 12 4.68997C15.907 4.68997 19.559 6.23196 22.283 9.03096L23.717 7.63597C20.613 4.44597 16.451 2.68896 12 2.68896V2.68997Z" fill="#464A4D"/>
<path d="M3.86898 11.2309L5.31098 12.6169C7.05198 10.8049 9.49098 9.76489 12 9.76489C14.509 9.76489 16.946 10.8049 18.689 12.6169L20.13 11.2309C18.013 9.02789 15.049 7.76489 11.999 7.76489C8.94898 7.76489 5.98498 9.02789 3.86898 11.2309Z" fill="#464A4D"/>
<path d="M7.53098 14.9291L9.00898 16.2771C9.76898 15.4441 10.859 14.9661 12 14.9661C13.141 14.9661 14.231 15.4441 14.992 16.2781L16.469 14.9281C15.33 13.6811 13.701 12.9661 12 12.9661C10.299 12.9661 8.66898 13.6821 7.53098 14.9291Z" fill="#464A4D"/>
<path d="M12 20C12.5523 20 13 19.5523 13 19C13 18.4477 12.5523 18 12 18C11.4477 18 11 18.4477 11 19C11 19.5523 11.4477 20 12 20Z" fill="#464A4D"/>
</svg>
