<svg width="24" height="24" viewBox="0 0 24 24" fill="none" xmlns="http://www.w3.org/2000/svg">
<path d="M12 3.9009C7.54899 3.9009 3.38799 5.6569 0.28299 8.8459L1.71699 10.2419C4.44199 7.4429 8.09299 5.9009 12 5.9009C15.907 5.9009 19.559 7.4429 22.283 10.2419L23.717 8.8469C20.613 5.6569 16.451 3.8999 12 3.8999V3.9009Z" fill="black"/>
<path d="M3.86899 12.4419L5.31099 13.8279C7.05199 12.0159 9.49099 10.9759 12 10.9759C14.509 10.9759 16.946 12.0159 18.689 13.8279L20.13 12.4419C18.013 10.2389 15.049 8.9759 11.999 8.9759C8.94899 8.9759 5.98499 10.2389 3.86899 12.4419Z" fill="black"/>
<path d="M7.53099 16.1399L9.00899 17.4879C9.76899 16.6549 10.859 16.1769 12 16.1769C13.141 16.1769 14.231 16.6549 14.992 17.4889L16.469 16.1389C15.33 14.8919 13.701 14.1769 12 14.1769C10.299 14.1769 8.66899 14.8929 7.53099 16.1399Z" fill="black"/>
<path d="M12 21.2109C12.5523 21.2109 13 20.7632 13 20.2109C13 19.6586 12.5523 19.2109 12 19.2109C11.4477 19.2109 11 19.6586 11 20.2109C11 20.7632 11.4477 21.2109 12 21.2109Z" fill="black"/>
</svg>
