<svg width="24" height="24" viewBox="0 0 24 24" fill="none" xmlns="http://www.w3.org/2000/svg">
<path d="M10.272 17.5C10.725 18.489 11.296 19.459 12 20.396C12.704 19.458 13.275 18.489 13.728 17.5H10.272Z" fill="#464A4D"/>
<path d="M9.07704 13C9.14404 13.838 9.29104 14.673 9.52504 15.5H14.477C14.711 14.673 14.858 13.838 14.925 13H9.07704Z" fill="#464A4D"/>
<path d="M15.898 6.50003H20.343C18.789 4.15103 16.272 2.50203 13.359 2.10303C14.451 3.50403 15.308 4.97803 15.899 6.50003H15.898Z" fill="#464A4D"/>
<path d="M16.509 15.5H21.355C21.653 14.708 21.862 13.873 21.949 13H16.896C16.839 13.838 16.708 14.672 16.509 15.5Z" fill="#464A4D"/>
<path d="M14.476 8.5H9.52405C9.29005 9.327 9.14305 10.162 9.07605 11H14.923C14.8561 10.162 14.71 9.327 14.476 8.5Z" fill="#464A4D"/>
<path d="M16.509 8.5C16.708 9.328 16.84 10.162 16.896 11H21.949C21.862 10.127 21.653 9.292 21.355 8.5H16.509Z" fill="#464A4D"/>
<path d="M15.898 17.5C15.307 19.022 14.45 20.496 13.358 21.897C16.271 21.499 18.788 19.849 20.342 17.5H15.898Z" fill="#464A4D"/>
<path d="M13.728 6.5C13.275 5.511 12.704 4.541 12 3.604C11.296 4.542 10.725 5.511 10.272 6.5H13.728Z" fill="#464A4D"/>
<path d="M8.10204 17.5H3.65704C5.21104 19.849 7.72804 21.498 10.641 21.897C9.54904 20.496 8.69204 19.022 8.10204 17.5Z" fill="#464A4D"/>
<path d="M2.64405 8.5C2.34705 9.292 2.13705 10.127 2.05005 11H7.10305C7.16005 10.162 7.29105 9.328 7.49005 8.5H2.64405Z" fill="#464A4D"/>
<path d="M8.10204 6.50003C8.69304 4.97803 9.55004 3.50403 10.641 2.10303C7.72804 2.50103 5.21004 4.15103 3.65704 6.50003H8.10204Z" fill="#464A4D"/>
<path d="M7.10405 13H2.05105C2.13805 13.873 2.34705 14.708 2.64505 15.5H7.49205C7.29305 14.672 7.16005 13.838 7.10405 13Z" fill="#464A4D"/>
</svg>
