<svg width="24" height="24" viewBox="0 0 24 24" fill="none" xmlns="http://www.w3.org/2000/svg">
<path d="M10.272 17.5C10.725 18.489 11.296 19.459 12 20.396C12.704 19.458 13.275 18.489 13.728 17.5H10.272Z" fill="black"/>
<path d="M14.924 13H9.077C9.144 13.838 9.291 14.673 9.525 15.5H14.477C14.711 14.673 14.858 13.838 14.925 13H14.924Z" fill="black"/>
<path d="M15.898 6.50003H20.343C18.789 4.15103 16.272 2.50203 13.359 2.10303C14.451 3.50403 15.308 4.97803 15.899 6.50003H15.898Z" fill="black"/>
<path d="M16.509 15.5H21.355C21.653 14.708 21.862 13.873 21.949 13H16.896C16.839 13.838 16.708 14.672 16.509 15.5Z" fill="black"/>
<path d="M14.476 8.5H9.524C9.29 9.327 9.143 10.162 9.076 11H14.923C14.856 10.162 14.71 9.327 14.476 8.5Z" fill="black"/>
<path d="M16.509 8.5C16.708 9.328 16.84 10.162 16.896 11H21.949C21.862 10.127 21.653 9.292 21.355 8.5H16.509Z" fill="black"/>
<path d="M15.898 17.5C15.307 19.022 14.45 20.496 13.358 21.897C16.271 21.499 18.788 19.849 20.342 17.5H15.898Z" fill="black"/>
<path d="M13.728 6.5C13.275 5.511 12.704 4.541 12 3.604C11.296 4.542 10.725 5.511 10.272 6.5H13.728Z" fill="black"/>
<path d="M8.102 17.5H3.657C5.211 19.849 7.728 21.498 10.641 21.897C9.549 20.496 8.692 19.022 8.102 17.5Z" fill="black"/>
<path d="M2.644 8.5C2.347 9.292 2.137 10.127 2.05 11H7.103C7.16 10.162 7.291 9.328 7.49 8.5H2.644Z" fill="black"/>
<path d="M8.102 6.50003C8.693 4.97803 9.55 3.50403 10.641 2.10303C7.728 2.50103 5.21 4.15103 3.657 6.50003H8.102Z" fill="black"/>
<path d="M7.104 13H2.051C2.138 13.873 2.347 14.708 2.645 15.5H7.492C7.293 14.672 7.16 13.838 7.104 13Z" fill="black"/>
</svg>
