<svg width="24" height="24" viewBox="0 0 24 24" fill="none" xmlns="http://www.w3.org/2000/svg">
<path d="M17 19C17 19.263 16.894 19.521 16.707 19.707C16.52 19.893 16.263 20 16 20H5C4.737 20 4.479 19.894 4.293 19.707C4.107 19.52 4 19.263 4 19V8C4 7.737 4.107 7.479 4.293 7.293C4.48 7.107 4.737 7 5 7H8V5H5C4.21 5 3.438 5.32 2.879 5.879C2.32 6.438 2 7.211 2 8V19C2 19.801 2.312 20.555 2.879 21.121C3.438 21.68 4.211 22 5 22H16C16.801 22 17.555 21.688 18.121 21.121C18.687 20.554 19 19.801 19 19V16H17V19Z" fill="#464A4D"/>
<path d="M21.093 2.90901C19.92 1.73601 17.876 1.74002 16.709 2.90802L7 12.585V17H11.415L21.093 7.29102C21.678 6.70602 22 5.92801 22 5.10001C22 4.27201 21.677 3.49201 21.093 2.90901ZM17.574 7.98802L16.012 6.42602L17.428 5.01401L18.985 6.57102L17.573 7.98702L17.574 7.98802Z" fill="#464A4D"/>
</svg>
