<svg width="24" height="24" viewBox="0 0 24 24" fill="none" xmlns="http://www.w3.org/2000/svg">
<path fill-rule="evenodd" clip-rule="evenodd" d="M3.05567 6.05567C3.57116 5.54018 4.27086 5.25 5 5.25H8V6.75H5C4.66914 6.75 4.35084 6.88182 4.11633 7.11633C3.88182 7.35084 3.75 7.66914 3.75 8V19C3.75 19.3309 3.88182 19.6492 4.11633 19.8837C4.35084 20.1182 4.66914 20.25 5 20.25H16C16.3309 20.25 16.6492 20.1182 16.8837 19.8837C17.1182 19.6492 17.25 19.3309 17.25 19V16H18.75V19C18.75 19.7291 18.4598 20.4288 17.9443 20.9443C17.4288 21.4598 16.7291 21.75 16 21.75H5C4.27086 21.75 3.57116 21.4598 3.05567 20.9443C2.54018 20.4288 2.25 19.7291 2.25 19V8C2.25 7.27086 2.54018 6.57116 3.05567 6.05567Z" fill="black"/>
<path fill-rule="evenodd" clip-rule="evenodd" d="M16.8852 3.08418C17.4199 2.54974 18.1445 2.25 18.9 2.25C19.6558 2.25 20.3806 2.54992 20.9153 3.08467C21.4501 3.61942 21.75 4.34422 21.75 5.1C21.75 5.85549 21.4503 6.58004 20.9159 7.11473C20.9157 7.11493 20.9161 7.11452 20.9159 7.11473L11.3114 16.75H7.25V12.6886L16.8852 3.08418C16.8853 3.08401 16.885 3.08434 16.8852 3.08418ZM18.9 3.75C18.5418 3.75 18.1986 3.89208 17.9453 4.14533L8.75 13.3114V15.25H10.6886L19.8547 6.05467C20.1079 5.80142 20.25 5.45822 20.25 5.1C20.25 4.74178 20.1079 4.39858 19.8547 4.14533C19.6014 3.89208 19.2582 3.75 18.9 3.75Z" fill="black"/>
<path fill-rule="evenodd" clip-rule="evenodd" d="M18.4697 8.53033L15.4697 5.53033L16.5303 4.46967L19.5303 7.46967L18.4697 8.53033Z" fill="black"/>
</svg>
