<svg width="24" height="24" viewBox="0 0 24 24" fill="none" xmlns="http://www.w3.org/2000/svg">
<path fill-rule="evenodd" clip-rule="evenodd" d="M19.831 5.43712C18.787 5.15046 16.1766 5.00479 12 5.00012C7.82396 4.99546 5.21362 5.13012 4.16896 5.40412C3.32896 5.63312 2.63496 6.32512 2.40296 7.18212C2.12762 8.22612 1.98862 9.83079 1.98595 11.9961C1.98329 14.1721 2.11862 15.7768 2.39196 16.8101C2.62196 17.6671 3.29696 18.3441 4.15496 18.5751C5.20962 18.8618 7.81962 19.0075 11.985 19.0121C16.1616 19.0168 18.772 18.8825 19.816 18.6091C20.672 18.3791 21.35 17.7031 21.583 16.8461C21.859 15.8028 21.998 14.1988 22.0001 12.0341C22.0133 9.85746 21.8776 8.24712 21.593 7.20312C21.363 6.34512 20.688 5.66812 19.831 5.43712ZM10.001 9.00512L15.208 12.0101L9.99596 15.0051L10.001 9.00512Z" fill="black"/>
</svg>
